  0
SECTION
  2
HEADER
  9
$ACADVER
  1
AC1014
  9
$ACADMAINTVER
 70
     9
  9
$DWGCODEPAGE
  3
ANSI_1252
  9
$INSBASE
 10
0.0
 20
0.0
 30
0.0
  9
$EXTMIN
 10
1.000000000000000E+20
 20
1.000000000000000E+20
 30
1.000000000000000E+20
  9
$EXTMAX
 10
-1.000000000000000E+20
 20
-1.000000000000000E+20
 30
-1.000000000000000E+20
  9
$LIMMIN
 10
0.0
 20
0.0
  9
$LIMMAX
 10
12.0
 20
9.0
  9
$ORTHOMODE
 70
     0
  9
$REGENMODE
 70
     1
  9
$FILLMODE
 70
     1
  9
$QTEXTMODE
 70
     0
  9
$MIRRTEXT
 70
     1
  9
$DRAGMODE
 70
     2
  9
$LTSCALE
 40
1.0
  9
$OSMODE
 70
    37
  9
$ATTMODE
 70
     1
  9
$TEXTSIZE
 40
0.2
  9
$TRACEWID
 40
0.05
  9
$TEXTSTYLE
  7
STANDARD
  9
$CLAYER
  8
0
  9
$CELTYPE
  6
BYLAYER
  9
$CECOLOR
 62
   256
  9
$CELTSCALE
 40
1.0
  9
$DELOBJ
 70
     1
  9
$DISPSILH
 70
     0
  9
$DIMSCALE
 40
1.0
  9
$DIMASZ
 40
0.18
  9
$DIMEXO
 40
0.0625
  9
$DIMDLI
 40
0.38
  9
$DIMRND
 40
0.0
  9
$DIMDLE
 40
0.0
  9
$DIMEXE
 40
0.18
  9
$DIMTP
 40
0.0
  9
$DIMTM
 40
0.0
  9
$DIMTXT
 40
0.18
  9
$DIMCEN
 40
0.09
  9
$DIMTSZ
 40
0.0
  9
$DIMTOL
 70
     0
  9
$DIMLIM
 70
     0
  9
$DIMTIH
 70
     1
  9
$DIMTOH
 70
     1
  9
$DIMSE1
 70
     0
  9
$DIMSE2
 70
     0
  9
$DIMTAD
 70
     0
  9
$DIMZIN
 70
     0
  9
$DIMBLK
  1

  9
$DIMASO
 70
     1
  9
$DIMSHO
 70
     1
  9
$DIMPOST
  1

  9
$DIMAPOST
  1

  9
$DIMALT
 70
     0
  9
$DIMALTD
 70
     2
  9
$DIMALTF
 40
25.4
  9
$DIMLFAC
 40
1.0
  9
$DIMTOFL
 70
     0
  9
$DIMTVP
 40
0.0
  9
$DIMTIX
 70
     0
  9
$DIMSOXD
 70
     0
  9
$DIMSAH
 70
     0
  9
$DIMBLK1
  1

  9
$DIMBLK2
  1

  9
$DIMSTYLE
  2
STANDARD
  9
$DIMCLRD
 70
     0
  9
$DIMCLRE
 70
     0
  9
$DIMCLRT
 70
     0
  9
$DIMTFAC
 40
1.0
  9
$DIMGAP
 40
0.09
  9
$DIMJUST
 70
     0
  9
$DIMSD1
 70
     0
  9
$DIMSD2
 70
     0
  9
$DIMTOLJ
 70
     1
  9
$DIMTZIN
 70
     0
  9
$DIMALTZ
 70
     0
  9
$DIMALTTZ
 70
     0
  9
$DIMFIT
 70
     3
  9
$DIMUPT
 70
     0
  9
$DIMUNIT
 70
     2
  9
$DIMDEC
 70
     4
  9
$DIMTDEC
 70
     4
  9
$DIMALTU
 70
     2
  9
$DIMALTTD
 70
     2
  9
$DIMTXSTY
  7
STANDARD
  9
$DIMAUNIT
 70
     0
  9
$LUNITS
 70
     2
  9
$LUPREC
 70
     4
  9
$SKETCHINC
 40
0.1
  9
$FILLETRAD
 40
0.5
  9
$AUNITS
 70
     0
  9
$AUPREC
 70
     0
  9
$MENU
  1
.
  9
$ELEVATION
 40
0.0
  9
$PELEVATION
 40
0.0
  9
$THICKNESS
 40
0.0
  9
$LIMCHECK
 70
     0
  9
$CHAMFERA
 40
0.0
  9
$CHAMFERB
 40
0.0
  9
$CHAMFERC
 40
0.0
  9
$CHAMFERD
 40
0.0
  9
$SKPOLY
 70
     0
  9
$TDCREATE
 40
2457696.723755197
  9
$TDUPDATE
 40
2457696.723756725
  9
$TDINDWG
 40
0.0000000116
  9
$TDUSRTIMER
 40
0.0000000116
  9
$USRTIMER
 70
     1
  9
$ANGBASE
 50
0.0
  9
$ANGDIR
 70
     0
  9
$PDMODE
 70
     0
  9
$PDSIZE
 40
0.0
  9
$PLINEWID
 40
0.0
  9
$COORDS
 70
     1
  9
$SPLFRAME
 70
     0
  9
$SPLINETYPE
 70
     6
  9
$SPLINESEGS
 70
     8
  9
$ATTDIA
 70
     0
  9
$ATTREQ
 70
     1
  9
$HANDLING
 70
     1
  9
$HANDSEED
  5
457
  9
$SURFTAB1
 70
     6
  9
$SURFTAB2
 70
     6
  9
$SURFTYPE
 70
     6
  9
$SURFU
 70
     6
  9
$SURFV
 70
     6
  9
$UCSNAME
  2

  9
$UCSORG
 10
0.0
 20
0.0
 30
0.0
  9
$UCSXDIR
 10
1.0
 20
0.0
 30
0.0
  9
$UCSYDIR
 10
0.0
 20
1.0
 30
0.0
  9
$PUCSNAME
  2

  9
$PUCSORG
 10
0.0
 20
0.0
 30
0.0
  9
$PUCSXDIR
 10
1.0
 20
0.0
 30
0.0
  9
$PUCSYDIR
 10
0.0
 20
1.0
 30
0.0
  9
$USERI1
 70
     0
  9
$USERI2
 70
     0
  9
$USERI3
 70
     0
  9
$USERI4
 70
     0
  9
$USERI5
 70
     0
  9
$USERR1
 40
0.0
  9
$USERR2
 40
0.0
  9
$USERR3
 40
0.0
  9
$USERR4
 40
0.0
  9
$USERR5
 40
0.0
  9
$WORLDVIEW
 70
     1
  9
$SHADEDGE
 70
     3
  9
$SHADEDIF
 70
    70
  9
$TILEMODE
 70
     1
  9
$MAXACTVP
 70
    64
  9
$PINSBASE
 10
0.0
 20
0.0
 30
0.0
  9
$PLIMCHECK
 70
     0
  9
$PEXTMIN
 10
1.000000000000000E+20
 20
1.000000000000000E+20
 30
1.000000000000000E+20
  9
$PEXTMAX
 10
-1.000000000000000E+20
 20
-1.000000000000000E+20
 30
-1.000000000000000E+20
  9
$PLIMMIN
 10
0.0
 20
0.0
  9
$PLIMMAX
 10
12.0
 20
9.0
  9
$UNITMODE
 70
     0
  9
$VISRETAIN
 70
     1
  9
$PLINEGEN
 70
     0
  9
$PSLTSCALE
 70
     1
  9
$TREEDEPTH
 70
  3020
  9
$PICKSTYLE
 70
     1
  9
$CMLSTYLE
  2
STANDARD
  9
$CMLJUST
 70
     0
  9
$CMLSCALE
 40
1.0
  9
$PROXYGRAPHICS
 70
     1
  9
$MEASUREMENT
 70
     1
  0
ENDSEC
  0
SECTION
  2
CLASSES
  0
CLASS
  1
ACDBDICTIONARYWDFLT
  2
AcDbDictionaryWithDefault
  3
ObjectDBX Classes
 90
        0
280
     0
281
     0
  0
CLASS
  1
VISUALSTYLE
  2
AcDbVisualStyle
  3
ObjectDBX Classes
 90
     4095
280
     0
281
     0
  0
CLASS
  1
MATERIAL
  2
AcDbMaterial
  3
ObjectDBX Classes
 90
     1153
280
     0
281
     0
  0
CLASS
  1
SCALE
  2
AcDbScale
  3
ObjectDBX Classes
 90
     1153
280
     0
281
     0
  0
CLASS
  1
SUN
  2
AcDbSun
  3
SCENEOE
 90
     1153
280
     0
281
     0
  0
CLASS
  1
DICTIONARYVAR
  2
AcDbDictionaryVar
  3
ObjectDBX Classes
 90
        0
280
     0
281
     0
  0
CLASS
  1
XRECORD
  2
AcDbXrecord
  3
ObjectDBX Classes
 90
        0
280
     0
281
     0
  0
CLASS
  1
LWPOLYLINE
  2
AcDbPolyline
  3
ObjectDBX Classes
 90
        0
280
     0
281
     1
  0
CLASS
  1
HATCH
  2
AcDbHatch
  3
ObjectDBX Classes
 90
        0
280
     0
281
     1
  0
CLASS
  1
ACDBPLACEHOLDER
  2
AcDbPlaceHolder
  3
ObjectDBX Classes
 90
        0
280
     0
281
     0
  0
CLASS
  1
LAYOUT
  2
AcDbLayout
  3
ObjectDBX Classes
 90
        0
280
     0
281
     0
  0
ENDSEC
  0
SECTION
  2
TABLES
  0
TABLE
  2
VPORT
  5
8
102
{ACAD_XDICTIONARY
360
44D
102
}
330
0
100
AcDbSymbolTable
 70
     1
  0
VPORT
  5
29
330
8
100
AcDbSymbolTableRecord
100
AcDbViewportTableRecord
  2
*ACTIVE
 70
     0
 10
0.0
 20
0.0
 11
1.0
 21
1.0
 12
0.0
 22
0.0
 13
0.0
 23
0.0
 14
0.5
 24
0.5
 15
0.5
 25
0.5
 16
0.0
 26
0.0
 36
1.0
 17
0.0
 27
0.0
 37
-1000.0
 40
1009.623095808049
 41
2.046067415730337
 42
50.0
 43
11389.76999863207
 44
13988.36999918453
 50
0.0
 51
0.0
 71
     0
 72
   100
 73
     1
 74
     3
 75
     0
 76
     0
 77
     0
 78
     0
  0
ENDTAB
  0
TABLE
  2
LTYPE
  5
5
330
0
100
AcDbSymbolTable
 70
     1
  0
LTYPE
  5
14
330
5
100
AcDbSymbolTableRecord
100
AcDbLinetypeTableRecord
  2
BYBLOCK
 70
     0
  3

 72
    65
 73
     0
 40
0.0
  0
LTYPE
  5
15
330
5
100
AcDbSymbolTableRecord
100
AcDbLinetypeTableRecord
  2
BYLAYER
 70
     0
  3

 72
    65
 73
     0
 40
0.0
  0
LTYPE
  5
16
330
5
100
AcDbSymbolTableRecord
100
AcDbLinetypeTableRecord
  2
CONTINUOUS
 70
     0
  3
Solid line
 72
    65
 73
     0
 40
0.0
  0
ENDTAB
  0
TABLE
  2
LAYER
  5
2
330
0
100
AcDbSymbolTable
 70
     3
  0
LAYER
  5
10
330
2
100
AcDbSymbolTableRecord
100
AcDbLayerTableRecord
  2
0
 70
     0
 62
     7
  6
CONTINUOUS
  0
LAYER
  5
6A
330
2
100
AcDbSymbolTableRecord
100
AcDbLayerTableRecord
  2
PROFILEEDGES
 70
     0
 62
     7
  6
CONTINUOUS
  0
LAYER
  5
6B
330
2
100
AcDbSymbolTableRecord
100
AcDbLayerTableRecord
  2
SECTIONCUTEDGES
 70
     0
 62
     7
  6
CONTINUOUS
  0
ENDTAB
  0
TABLE
  2
STYLE
  5
3
330
0
100
AcDbSymbolTable
 70
     1
  0
STYLE
  5
11
330
3
100
AcDbSymbolTableRecord
100
AcDbTextStyleTableRecord
  2
STANDARD
 70
     0
 40
0.0
 41
1.0
 50
0.0
 71
     0
 42
0.2
  3
txt
  4

  0
ENDTAB
  0
TABLE
  2
VIEW
  5
6
330
0
100
AcDbSymbolTable
 70
     0
  0
ENDTAB
  0
TABLE
  2
UCS
  5
7
330
0
100
AcDbSymbolTable
 70
     0
  0
ENDTAB
  0
TABLE
  2
APPID
  5
9
330
0
100
AcDbSymbolTable
 70
     1
  0
APPID
  5
12
330
9
100
AcDbSymbolTableRecord
100
AcDbRegAppTableRecord
  2
ACAD
 70
     0
  0
ENDTAB
  0
TABLE
  2
DIMSTYLE
  5
A
330
0
100
AcDbSymbolTable
 70
     1
  0
DIMSTYLE
105
27
330
A
100
AcDbSymbolTableRecord
100
AcDbDimStyleTableRecord
  2
STANDARD
 70
     0
  3

  4

  5

  6

  7

 40
1.0
 41
0.18
 42
0.0625
 43
0.38
 44
0.18
 45
0.0
 46
0.0
 47
0.0
 48
0.0
140
0.18
141
0.09
142
0.0
143
25.4
144
1.0
145
0.0
146
1.0
147
0.09
 71
     0
 72
     0
 73
     1
 74
     1
 75
     0
 76
     0
 77
     0
 78
     0
170
     0
171
     2
172
     0
173
     0
174
     0
175
     0
176
     0
177
     0
178
     0
270
     2
271
     4
272
     4
273
     2
274
     2
340
11
275
     0
280
     0
281
     0
282
     0
283
     1
284
     0
285
     0
286
     0
287
     3
288
     0
  0
ENDTAB
  0
TABLE
  2
BLOCK_RECORD
  5
1
330
0
100
AcDbSymbolTable
 70
     1
  0
BLOCK_RECORD
  5
1F
330
1
100
AcDbSymbolTableRecord
100
AcDbBlockTableRecord
  2
*MODEL_SPACE
  0
BLOCK_RECORD
  5
1B
330
1
100
AcDbSymbolTableRecord
100
AcDbBlockTableRecord
  2
*PAPER_SPACE
  0
ENDTAB
  0
ENDSEC
  0
SECTION
  2
BLOCKS
  0
BLOCK
  5
20
330
1F
100
AcDbEntity
  8
0
100
AcDbBlockBegin
  2
*MODEL_SPACE
 70
     0
 10
0.0
 20
0.0
 30
0.0
  3
*MODEL_SPACE
  1

  0
ENDBLK
  5
21
330
1F
100
AcDbEntity
  8
0
100
AcDbBlockEnd
  0
BLOCK
  5
1C
330
1B
100
AcDbEntity
 67
     1
  8
0
100
AcDbBlockBegin
  2
*PAPER_SPACE
 70
     0
 10
0.0
 20
0.0
 30
0.0
  3
*PAPER_SPACE
  1

  0
ENDBLK
  5
1D
330
1B
100
AcDbEntity
 67
     1
  8
0
100
AcDbBlockEnd
  0
ENDSEC
  0
SECTION
  2
ENTITIES
  0
LINE
  5
6C
330
1F
100
AcDbEntity
  8
0
100
AcDbLine
 10
141.8713841092949
 20
224.2230318411716
 30
0.0
 11
141.8713841092949
 21
165.5542172416576
 31
0.0
  0
LINE
  5
6D
330
1F
100
AcDbEntity
  8
0
100
AcDbLine
 10
103.3298138034706
 20
276.4682687744029
 30
0.0
 11
103.3298138034706
 21
254.1998170241245
 31
0.0
  0
LINE
  5
6E
330
1F
100
AcDbEntity
  8
0
100
AcDbLine
 10
160.713924790657
 20
254.1998170241245
 30
0.0
 11
141.4431470883255
 21
254.1998170241245
 31
0.0
  0
LINE
  5
6F
330
1F
100
AcDbEntity
  8
0
100
AcDbLine
 10
161.5704062831764
 20
224.2230318411716
 30
0.0
 11
219.8109987628823
 21
224.2230318411716
 31
0.0
  0
LINE
  5
70
330
1F
100
AcDbEntity
  8
0
100
AcDbLine
 10
217.5508949411278
 20
258.5535488947758
 30
0.0
 11
216.2955019128685
 21
260.1846299990543
 31
0.0
  0
LINE
  5
71
330
1F
100
AcDbEntity
  8
0
100
AcDbLine
 10
218.251964772976
 20
257.7142111882099
 30
0.0
 11
217.5508949411278
 21
258.5535488947758
 31
0.0
  0
LINE
  5
72
330
1F
100
AcDbEntity
  8
0
100
AcDbLine
 10
141.4431470883255
 20
254.1998170241245
 30
0.0
 11
141.4431470883255
 21
276.4682687744029
 31
0.0
  0
LINE
  5
73
330
1F
100
AcDbEntity
  8
0
100
AcDbLine
 10
141.4431470883255
 20
276.4682687744029
 30
0.0
 11
103.3298138034706
 21
276.4682687744029
 31
0.0
  0
LINE
  5
74
330
1F
100
AcDbEntity
  8
0
100
AcDbLine
 10
83.63078790429881
 20
224.2230318411716
 30
0.0
 11
141.8713841092949
 21
224.2230318411716
 31
0.0
  0
LINE
  5
75
330
1F
100
AcDbEntity
  8
0
100
AcDbLine
 10
103.3298138034706
 20
254.1998170241245
 30
0.0
 11
83.63078790429881
 21
254.1998170241245
 31
0.0
  0
LINE
  5
76
330
1F
100
AcDbEntity
  8
0
100
AcDbLine
 10
83.63078790429881
 20
254.1998170241245
 30
0.0
 11
83.63078790429881
 21
317.5792798324951
 31
0.0
  0
LINE
  5
77
330
1F
100
AcDbEntity
  8
0
100
AcDbLine
 10
83.63078790429881
 20
317.5792798324951
 30
0.0
 11
103.3298138034706
 21
317.5792798324951
 31
0.0
  0
LINE
  5
78
330
1F
100
AcDbEntity
  8
0
100
AcDbLine
 10
103.3298138034706
 20
293.1696206256278
 30
0.0
 11
141.4431470883255
 21
293.1696206256278
 31
0.0
  0
LINE
  5
79
330
1F
100
AcDbEntity
  8
0
100
AcDbLine
 10
103.3298138034706
 20
317.5792798324951
 30
0.0
 11
103.3298138034706
 21
293.1696206256278
 31
0.0
  0
LINE
  5
7A
330
1F
100
AcDbEntity
  8
0
100
AcDbLine
 10
141.4431470883255
 20
293.1696206256278
 30
0.0
 11
141.4431470883255
 21
317.5792798324951
 31
0.0
  0
LINE
  5
7B
330
1F
100
AcDbEntity
  8
0
100
AcDbLine
 10
141.4431470883255
 20
317.5792798324951
 30
0.0
 11
160.713924790657
 21
317.5792798324951
 31
0.0
  0
LINE
  5
7C
330
1F
100
AcDbEntity
  8
0
100
AcDbLine
 10
177.2504660737877
 20
314.7474929615387
 30
0.0
 11
175.2011317265396
 21
317.5792816951403
 31
0.0
  0
LINE
  5
7D
330
1F
100
AcDbEntity
  8
0
100
AcDbLine
 10
160.713924790657
 20
317.5792798324951
 30
0.0
 11
160.713924790657
 21
254.1998170241245
 31
0.0
  0
LINE
  5
7E
330
1F
100
AcDbEntity
  8
0
100
AcDbLine
 10
141.8713841092949
 20
165.5542172416576
 30
0.0
 11
161.5704062831764
 21
165.5542172416576
 31
0.0
  0
LINE
  5
7F
330
1F
100
AcDbEntity
  8
0
100
AcDbLine
 10
161.5704062831764
 20
165.5542172416576
 30
0.0
 11
161.5704062831764
 21
224.2230318411716
 31
0.0
  0
LINE
  5
80
330
1F
100
AcDbEntity
  8
0
100
AcDbLine
 10
219.8109987628823
 20
224.2230318411716
 30
0.0
 11
219.8109987628823
 21
88.47107663000911
 31
0.0
  0
LINE
  5
81
330
1F
100
AcDbEntity
  8
0
100
AcDbLine
 10
141.8713841092949
 20
145.8551801666149
 30
0.0
 11
141.8713841092949
 21
88.47107663000907
 31
0.0
  0
LINE
  5
82
330
1F
100
AcDbEntity
  8
0
100
AcDbLine
 10
219.8109987628823
 20
88.47107663000911
 30
0.0
 11
161.5704062831764
 21
88.47107663000907
 31
0.0
  0
LINE
  5
83
330
1F
100
AcDbEntity
  8
0
100
AcDbLine
 10
161.5704062831764
 20
88.47107663000907
 30
0.0
 11
161.5704062831764
 21
145.8551801666149
 31
0.0
  0
LINE
  5
84
330
1F
100
AcDbEntity
  8
0
100
AcDbLine
 10
161.5704062831764
 20
145.8551801666149
 30
0.0
 11
141.8713841092949
 21
145.8551801666149
 31
0.0
  0
LINE
  5
85
330
1F
100
AcDbEntity
  8
0
100
AcDbLine
 10
141.8713841092949
 20
88.47107663000907
 30
0.0
 11
83.63078790429881
 21
88.47107663000907
 31
0.0
  0
LINE
  5
86
330
1F
100
AcDbEntity
  8
0
100
AcDbLine
 10
83.63078790429881
 20
88.47107663000907
 30
0.0
 11
83.63078790429881
 21
224.2230318411716
 31
0.0
  0
LINE
  5
87
330
1F
100
AcDbEntity
  8
0
100
AcDbLine
 10
56.06815148789337
 20
352.1611231304237
 30
0.0
 11
56.06815148789337
 21
53.80236282194937
 31
0.0
  0
LINE
  5
88
330
1F
100
AcDbEntity
  8
0
100
AcDbLine
 10
400.1999113214379
 20
254.1998170241245
 30
0.0
 11
380.4008874547844
 21
254.1998170241245
 31
0.0
  0
LINE
  5
89
330
1F
100
AcDbEntity
  8
0
100
AcDbLine
 10
357.7041837823754
 20
224.2230318411716
 30
0.0
 11
415.9447762620811
 21
224.2230318411716
 31
0.0
  0
LINE
  5
8A
330
1F
100
AcDbEntity
  8
0
100
AcDbLine
 10
365.8407244336968
 20
254.4429294690021
 30
0.0
 11
365.4395851743584
 21
254.3993733748325
 31
0.0
  0
LINE
  5
8B
330
1F
100
AcDbEntity
  8
0
100
AcDbLine
 10
415.9447762620811
 20
88.47107663000907
 30
0.0
 11
309.0989801538353
 21
88.49318995322072
 31
0.0
  0
LINE
  5
8C
330
1F
100
AcDbEntity
  8
0
100
AcDbLine
 10
415.9447762620811
 20
224.2230318411716
 30
0.0
 11
415.9447762620811
 21
88.47107663000907
 31
0.0
  0
LINE
  5
8D
330
1F
100
AcDbEntity
  8
0
100
AcDbLine
 10
446.3497910154227
 20
88.47107663000907
 30
0.0
 11
446.3497910154227
 21
224.2230318411716
 31
0.0
  0
LINE
  5
8E
330
1F
100
AcDbEntity
  8
0
100
AcDbLine
 10
446.5584668767815
 20
254.2055465206035
 30
0.0
 11
429.7045979154472
 21
254.1998170241245
 31
0.0
  0
LINE
  5
8F
330
1F
100
AcDbEntity
  8
0
100
AcDbLine
 10
246.0344496620064
 20
214.241466663731
 30
0.0
 11
243.499538625515
 21
219.3188734277614
 31
0.0
  0
LINE
  5
90
330
1F
100
AcDbEntity
  8
0
100
AcDbLine
 10
243.499538625515
 20
219.3188734277614
 30
0.0
 11
241.8945345533257
 21
222.5455112680324
 31
0.0
  0
LINE
  5
91
330
1F
100
AcDbEntity
  8
0
100
AcDbLine
 10
241.8945345533257
 20
222.5455112680324
 30
0.0
 11
241.3173529756432
 21
223.7258545979389
 31
0.0
  0
LINE
  5
92
330
1F
100
AcDbEntity
  8
0
100
AcDbLine
 10
229.8114362609749
 20
253.2013945206531
 30
0.0
 11
228.5485479486351
 21
253.1704448088535
 31
0.0
  0
LINE
  5
93
330
1F
100
AcDbEntity
  8
0
100
AcDbLine
 10
234.1140124452477
 20
254.1037641390689
 30
0.0
 11
233.1175419938927
 21
253.7496007903942
 31
0.0
  0
LINE
  5
94
330
1F
100
AcDbEntity
  8
0
100
AcDbLine
 10
233.1175419938927
 20
253.7496007903942
 30
0.0
 11
232.0793482911949
 21
253.485075376881
 31
0.0
  0
LINE
  5
95
330
1F
100
AcDbEntity
  8
0
100
AcDbLine
 10
241.3173529756432
 20
223.7258545979389
 30
0.0
 11
241.6178795946007
 21
223.8426051958927
 31
0.0
  0
LINE
  5
96
330
1F
100
AcDbEntity
  8
0
100
AcDbLine
 10
232.0793482911949
 20
253.485075376881
 30
0.0
 11
230.9828314435845
 21
253.3043019398579
 31
0.0
  0
LINE
  5
97
330
1F
100
AcDbEntity
  8
0
100
AcDbLine
 10
230.9828314435845
 20
253.3043019398579
 30
0.0
 11
229.8114362609749
 21
253.2013945206531
 31
0.0
  0
LINE
  5
98
330
1F
100
AcDbEntity
  8
0
100
AcDbLine
 10
241.6178795946007
 20
223.8426051958927
 30
0.0
 11
242.6608118665581
 21
223.9389412030109
 31
0.0
  0
LINE
  5
99
330
1F
100
AcDbEntity
  8
0
100
AcDbLine
 10
235.0853595388299
 20
254.5534737333187
 30
0.0
 11
234.1140124452477
 21
254.1037641390689
 31
0.0
  0
LINE
  5
9A
330
1F
100
AcDbEntity
  8
0
100
AcDbLine
 10
242.6608118665581
 20
223.9389412030109
 30
0.0
 11
244.5308777940636
 21
224.0157939418682
 31
0.0
  0
LINE
  5
9B
330
1F
100
AcDbEntity
  8
0
100
AcDbLine
 10
244.5308777940636
 20
224.0157939418682
 30
0.0
 11
247.3127457750206
 21
224.0740500315555
 31
0.0
  0
LINE
  5
9C
330
1F
100
AcDbEntity
  8
0
100
AcDbLine
 10
247.3127457750206
 20
224.0740500315555
 30
0.0
 11
251.0911438119774
 21
224.1146258934864
 31
0.0
  0
LINE
  5
9D
330
1F
100
AcDbEntity
  8
0
100
AcDbLine
 10
251.0911438119774
 20
224.1146258934864
 30
0.0
 11
255.9507701051598
 21
224.1384453996548
 31
0.0
  0
LINE
  5
9E
330
1F
100
AcDbEntity
  8
0
100
AcDbLine
 10
255.9507701051598
 20
224.1384453996548
 30
0.0
 11
261.9763824594384
 21
224.1463951691516
 31
0.0
  0
LINE
  5
9F
330
1F
100
AcDbEntity
  8
0
100
AcDbLine
 10
261.9763824594384
 20
224.1463951691516
 30
0.0
 11
269.2526641738777
 21
224.1394065245518
 31
0.0
  0
LINE
  5
A0
330
1F
100
AcDbEntity
  8
0
100
AcDbLine
 10
269.2526641738777
 20
224.1394065245518
 30
0.0
 11
314.5786437642936
 21
224.0089096053967
 31
0.0
  0
LINE
  5
A1
330
1F
100
AcDbEntity
  8
0
100
AcDbLine
 10
304.8169526708489
 20
256.9509439095386
 30
0.0
 11
301.5855166566735
 21
258.2710154279598
 31
0.0
  0
LINE
  5
A2
330
1F
100
AcDbEntity
  8
0
100
AcDbLine
 10
307.1081999194984
 20
256.1581201776394
 30
0.0
 11
304.8169526708489
 21
256.9509439095386
 31
0.0
  0
LINE
  5
A3
330
1F
100
AcDbEntity
  8
0
100
AcDbLine
 10
338.2192763936883
 20
107.527724645985
 30
0.0
 11
357.7041837823754
 21
107.2975315078625
 31
0.0
  0
LINE
  5
A4
330
1F
100
AcDbEntity
  8
0
100
AcDbLine
 10
337.981573070324
 20
176.0460801347622
 30
0.0
 11
338.2192763936883
 21
107.527724645985
 31
0.0
  0
LINE
  5
A5
330
1F
100
AcDbEntity
  8
0
100
AcDbLine
 10
357.7041837823754
 20
107.2975315078625
 30
0.0
 11
357.7041837823754
 21
224.2230318411716
 31
0.0
  0
LINE
  5
A6
330
1F
100
AcDbEntity
  8
0
100
AcDbLine
 10
314.5786437642936
 20
224.0089096053967
 30
0.0
 11
337.981573070324
 21
176.0460801347622
 31
0.0
  0
LINE
  5
A7
330
1F
100
AcDbEntity
  8
0
100
AcDbLine
 10
332.8132245195275
 20
254.206850372208
 30
0.0
 11
326.2430045259362
 21
254.2414210661777
 31
0.0
  0
LINE
  5
A8
330
1F
100
AcDbEntity
  8
0
100
AcDbLine
 10
633.3734008920555
 20
223.293855033768
 30
0.0
 11
636.7023799074058
 21
223.9252917393574
 31
0.0
  0
LINE
  5
A9
330
1F
100
AcDbEntity
  8
0
100
AcDbLine
 10
446.3497910154227
 20
224.2230318411716
 30
0.0
 11
581.2453243387108
 21
224.2230318411716
 31
0.0
  0
LINE
  5
AA
330
1F
100
AcDbEntity
  8
0
100
AcDbLine
 10
500.5889150750999
 20
254.4377587660679
 30
0.0
 11
496.4185270917779
 21
254.5047320350536
 31
0.0
  0
LINE
  5
AB
330
1F
100
AcDbEntity
  8
0
100
AcDbLine
 10
496.4185270917779
 20
254.5047320350536
 30
0.0
 11
493.4511396539575
 21
254.597461961163
 31
0.0
  0
LINE
  5
AC
330
1F
100
AcDbEntity
  8
0
100
AcDbLine
 10
604.2415115487937
 20
183.5402615293392
 30
0.0
 11
604.5187923562888
 21
187.77104391898
 31
0.0
  0
LINE
  5
AD
330
1F
100
AcDbEntity
  8
0
100
AcDbLine
 10
604.5187923562888
 20
187.77104391898
 30
0.0
 11
604.7716948640709
 21
190.3864510282406
 31
0.0
  0
LINE
  5
AE
330
1F
100
AcDbEntity
  8
0
100
AcDbLine
 10
581.2453243387108
 20
224.2230318411716
 30
0.0
 11
581.2453243387108
 21
166.4106912835964
 31
0.0
  0
LINE
  5
AF
330
1F
100
AcDbEntity
  8
0
100
AcDbLine
 10
604.7716948640709
 20
190.3864510282406
 30
0.0
 11
605.1835629594688
 21
193.0052854045757
 31
0.0
  0
LINE
  5
B0
330
1F
100
AcDbEntity
  8
0
100
AcDbLine
 10
605.1835629594688
 20
193.0052854045757
 30
0.0
 11
605.7464096200829
 21
195.6038691028484
 31
0.0
  0
LINE
  5
B1
330
1F
100
AcDbEntity
  8
0
100
AcDbLine
 10
504.590413297451
 20
204.9522615894207
 30
0.0
 11
504.590413297451
 21
88.47107663000907
 31
0.0
  0
LINE
  5
B2
330
1F
100
AcDbEntity
  8
0
100
AcDbLine
 10
581.2453243387108
 20
166.4106912835964
 30
0.0
 11
524.2894205701715
 21
166.4106912835964
 31
0.0
  0
LINE
  5
B3
330
1F
100
AcDbEntity
  8
0
100
AcDbLine
 10
604.7563168657188
 20
123.1205232366451
 30
0.0
 11
604.6224448335533
 21
127.7362175210842
 31
0.0
  0
LINE
  5
B4
330
1F
100
AcDbEntity
  8
0
100
AcDbLine
 10
604.6224448335533
 20
127.7362175210842
 30
0.0
 11
604.5428130281334
 21
133.6872644647488
 31
0.0
  0
LINE
  5
B5
330
1F
100
AcDbEntity
  8
0
100
AcDbLine
 10
524.2894205701715
 20
166.4106912835964
 30
0.0
 11
524.2894205701715
 21
204.9522615894207
 31
0.0
  0
LINE
  5
B6
330
1F
100
AcDbEntity
  8
0
100
AcDbLine
 10
524.2894205701715
 20
204.9522615894207
 30
0.0
 11
504.590413297451
 21
204.9522615894207
 31
0.0
  0
LINE
  5
B7
330
1F
100
AcDbEntity
  8
0
100
AcDbLine
 10
504.590413297451
 20
88.47107663000907
 30
0.0
 11
446.3497910154227
 21
88.47107663000907
 31
0.0
  0
LINE
  5
B8
330
1F
100
AcDbEntity
  8
0
100
AcDbLine
 10
56.06815148789337
 20
53.80236282194937
 30
0.0
 11
960.1564023149375
 21
53.80236282194938
 31
0.0
  0
LINE
  5
B9
330
1F
100
AcDbEntity
  8
0
100
AcDbLine
 10
644.2070219171409
 20
88.77127542342032
 30
0.0
 11
640.2348491800194
 21
88.84032740439261
 31
0.0
  0
LINE
  5
BA
330
1F
100
AcDbEntity
  8
0
100
AcDbLine
 10
778.2355758798485
 20
88.47107663000907
 30
0.0
 11
778.2355758798485
 21
224.2230318411716
 31
0.0
  0
LINE
  5
BB
330
1F
100
AcDbEntity
  8
0
100
AcDbLine
 10
749.7143957269554
 20
182.3649175390132
 30
0.0
 11
749.7402045381432
 21
175.9061284288296
 31
0.0
  0
LINE
  5
BC
330
1F
100
AcDbEntity
  8
0
100
AcDbLine
 10
749.7576090944176
 20
119.9466802104839
 30
0.0
 11
748.7479660165673
 21
116.0925246700176
 31
0.0
  0
LINE
  5
BD
330
1F
100
AcDbEntity
  8
0
100
AcDbLine
 10
748.7479660165673
 20
116.0925246700176
 30
0.0
 11
748.0495783937339
 21
113.6777020915874
 31
0.0
  0
LINE
  5
BE
330
1F
100
AcDbEntity
  8
0
100
AcDbLine
 10
748.0495783937339
 20
113.6777020915874
 30
0.0
 11
747.2512933862572
 21
111.388466499699
 31
0.0
  0
LINE
  5
BF
330
1F
100
AcDbEntity
  8
0
100
AcDbLine
 10
747.2512933862572
 20
111.388466499699
 30
0.0
 11
746.3491770875816
 21
109.2180974706539
 31
0.0
  0
LINE
  5
C0
330
1F
100
AcDbEntity
  8
0
100
AcDbLine
 10
746.3491770875816
 20
109.2180974706539
 30
0.0
 11
745.3394148004417
 21
107.1599043830761
 31
0.0
  0
LINE
  5
C1
330
1F
100
AcDbEntity
  8
0
100
AcDbLine
 10
745.3394148004417
 20
107.1599043830761
 30
0.0
 11
744.2180726182823
 21
105.2071370109447
 31
0.0
  0
LINE
  5
C2
330
1F
100
AcDbEntity
  8
0
100
AcDbLine
 10
744.2180726182823
 20
105.2071370109447
 30
0.0
 11
742.981276239193
 21
103.3530749305614
 31
0.0
  0
LINE
  5
C3
330
1F
100
AcDbEntity
  8
0
100
AcDbLine
 10
742.981276239193
 20
103.3530749305614
 30
0.0
 11
741.6252109659081
 21
101.5910126193889
 31
0.0
  0
LINE
  5
C4
330
1F
100
AcDbEntity
  8
0
100
AcDbLine
 10
741.6252109659081
 20
101.5910126193889
 30
0.0
 11
740.1461217058068
 21
99.91421475256767
 31
0.0
  0
LINE
  5
C5
330
1F
100
AcDbEntity
  8
0
100
AcDbLine
 10
740.1461217058068
 20
99.91421475256767
 30
0.0
 11
738.5399553430442
 21
98.31597580756035
 31
0.0
  0
LINE
  5
C6
330
1F
100
AcDbEntity
  8
0
100
AcDbLine
 10
738.5399553430442
 20
98.31597580756035
 30
0.0
 11
736.9936320436364
 21
96.94083704794728
 31
0.0
  0
LINE
  5
C7
330
1F
100
AcDbEntity
  8
0
100
AcDbLine
 10
736.9936320436364
 20
96.94083704794728
 30
0.0
 11
735.4336592805748
 21
95.69888486708486
 31
0.0
  0
LINE
  5
C8
330
1F
100
AcDbEntity
  8
0
100
AcDbLine
 10
735.4336592805748
 20
95.69888486708486
 30
0.0
 11
733.8350627076987
 21
94.57706584776724
 31
0.0
  0
LINE
  5
C9
330
1F
100
AcDbEntity
  8
0
100
AcDbLine
 10
733.8350627076987
 20
94.57706584776724
 30
0.0
 11
732.1731660020714
 21
93.56235637511098
 31
0.0
  0
LINE
  5
CA
330
1F
100
AcDbEntity
  8
0
100
AcDbLine
 10
732.1731660020714
 20
93.56235637511098
 30
0.0
 11
730.4230544221764
 21
92.64161362494313
 31
0.0
  0
LINE
  5
CB
330
1F
100
AcDbEntity
  8
0
100
AcDbLine
 10
730.4230544221764
 20
92.64161362494313
 30
0.0
 11
728.559992040432
 21
91.80187358702504
 31
0.0
  0
LINE
  5
CC
330
1F
100
AcDbEntity
  8
0
100
AcDbLine
 10
728.559992040432
 20
91.80187358702504
 30
0.0
 11
726.5590045106774
 21
91.03005304182854
 31
0.0
  0
LINE
  5
CD
330
1F
100
AcDbEntity
  8
0
100
AcDbLine
 10
726.5590045106774
 20
91.03005304182854
 30
0.0
 11
724.3954155099755
 21
90.31309857214775
 31
0.0
  0
LINE
  5
CE
330
1F
100
AcDbEntity
  8
0
100
AcDbLine
 10
724.3954155099755
 20
90.31309857214775
 30
0.0
 11
722.0444295060996
 21
89.63792695845451
 31
0.0
  0
LINE
  5
CF
330
1F
100
AcDbEntity
  8
0
100
AcDbLine
 10
722.0444295060996
 20
89.63792695845451
 30
0.0
 11
718.496105397976
 21
88.68520631636466
 31
0.0
  0
LINE
  5
D0
330
1F
100
AcDbEntity
  8
0
100
AcDbLine
 10
656.7692968500022
 20
88.70013727988089
 30
0.0
 11
649.6236536157494
 21
88.72621431197014
 31
0.0
  0
LINE
  5
D1
330
1F
100
AcDbEntity
  8
0
100
AcDbLine
 10
649.6236536157494
 20
88.72621431197014
 30
0.0
 11
644.2070219171409
 21
88.77127542342032
 31
0.0
  0
LINE
  5
D2
330
1F
100
AcDbEntity
  8
0
100
AcDbLine
 10
640.2348491800194
 20
88.84032740439261
 30
0.0
 11
637.4228808534508
 21
88.93825783575858
 31
0.0
  0
LINE
  5
D3
330
1F
100
AcDbEntity
  8
0
100
AcDbLine
 10
637.4228808534508
 20
88.93825783575858
 30
0.0
 11
635.4865643632774
 21
89.0699841007122
 31
0.0
  0
LINE
  5
D4
330
1F
100
AcDbEntity
  8
0
100
AcDbLine
 10
635.4865643632774
 20
89.0699841007122
 30
0.0
 11
634.1414663446313
 21
89.2405129894146
 31
0.0
  0
LINE
  5
D5
330
1F
100
AcDbEntity
  8
0
100
AcDbLine
 10
634.1414663446313
 20
89.2405129894146
 30
0.0
 11
633.1033322465781
 21
89.45476188505971
 31
0.0
  0
LINE
  5
D6
330
1F
100
AcDbEntity
  8
0
100
AcDbLine
 10
633.1033322465781
 20
89.45476188505971
 30
0.0
 11
629.3674323213462
 21
90.51748289908257
 31
0.0
  0
LINE
  5
D7
330
1F
100
AcDbEntity
  8
0
100
AcDbLine
 10
629.3674323213462
 20
90.51748289908257
 30
0.0
 11
625.8806202066306
 21
91.83096065367545
 31
0.0
  0
LINE
  5
D8
330
1F
100
AcDbEntity
  8
0
100
AcDbLine
 10
625.8806202066306
 20
91.83096065367545
 30
0.0
 11
622.6452800882224
 21
93.39346661413994
 31
0.0
  0
LINE
  5
D9
330
1F
100
AcDbEntity
  8
0
100
AcDbLine
 10
622.6452800882224
 20
93.39346661413994
 30
0.0
 11
619.6635577333336
 21
95.20333185042226
 31
0.0
  0
LINE
  5
DA
330
1F
100
AcDbEntity
  8
0
100
AcDbLine
 10
619.6635577333336
 20
95.20333185042226
 30
0.0
 11
616.9377181184653
 21
97.25882782782402
 31
0.0
  0
LINE
  5
DB
330
1F
100
AcDbEntity
  8
0
100
AcDbLine
 10
616.9377181184653
 20
97.25882782782402
 30
0.0
 11
614.4700262201194
 21
99.55825581396903
 31
0.0
  0
LINE
  5
DC
330
1F
100
AcDbEntity
  8
0
100
AcDbLine
 10
614.4700262201194
 20
99.55825581396903
 30
0.0
 11
612.2628662240868
 21
102.0998872741588
 31
0.0
  0
LINE
  5
DD
330
1F
100
AcDbEntity
  8
0
100
AcDbLine
 10
612.2628662240868
 20
102.0998872741588
 30
0.0
 11
610.3183838975792
 21
104.8820234760174
 31
0.0
  0
LINE
  5
DE
330
1F
100
AcDbEntity
  8
0
100
AcDbLine
 10
610.3183838975792
 20
104.8820234760174
 30
0.0
 11
608.638903821743
 21
107.9029209836849
 31
0.0
  0
LINE
  5
DF
330
1F
100
AcDbEntity
  8
0
100
AcDbLine
 10
608.638903821743
 20
107.9029209836849
 30
0.0
 11
607.4519965303307
 21
110.3436566814312
 31
0.0
  0
LINE
  5
E0
330
1F
100
AcDbEntity
  8
0
100
AcDbLine
 10
607.4519965303307
 20
110.3436566814312
 30
0.0
 11
606.5272304666405
 21
112.4519921764263
 31
0.0
  0
LINE
  5
E1
330
1F
100
AcDbEntity
  8
0
100
AcDbLine
 10
606.5272304666405
 20
112.4519921764263
 30
0.0
 11
605.8299157274131
 21
114.5058937295803
 31
0.0
  0
LINE
  5
E2
330
1F
100
AcDbEntity
  8
0
100
AcDbLine
 10
605.8299157274131
 20
114.5058937295803
 30
0.0
 11
605.3254220140343
 21
116.783312700642
 31
0.0
  0
LINE
  5
E3
330
1F
100
AcDbEntity
  8
0
100
AcDbLine
 10
605.3254220140343
 20
116.783312700642
 30
0.0
 11
604.9790594232445
 21
119.5622004493602
 31
0.0
  0
LINE
  5
E4
330
1F
100
AcDbEntity
  8
0
100
AcDbLine
 10
604.9790594232445
 20
119.5622004493602
 30
0.0
 11
604.7563168657188
 21
123.1205232366451
 31
0.0
  0
LINE
  5
E5
330
1F
100
AcDbEntity
  8
0
100
AcDbLine
 10
604.5428130281334
 20
133.6872644647488
 30
0.0
 11
604.3210837495689
 21
163.4129948839077
 31
0.0
  0
LINE
  5
E6
330
1F
100
AcDbEntity
  8
0
100
AcDbLine
 10
666.0367462289696
 20
183.5402615293392
 30
0.0
 11
604.2415115487937
 21
183.5402615293392
 31
0.0
  0
LINE
  5
E7
330
1F
100
AcDbEntity
  8
0
100
AcDbLine
 10
604.3210837495689
 20
163.4129948839077
 30
0.0
 11
686.1640426767235
 21
163.4129948839077
 31
0.0
  0
LINE
  5
E8
330
1F
100
AcDbEntity
  8
0
100
AcDbLine
 10
686.1640426767235
 20
163.4129948839077
 30
0.0
 11
686.1640426767235
 21
204.9522615894207
 31
0.0
  0
LINE
  5
E9
330
1F
100
AcDbEntity
  8
0
100
AcDbLine
 10
686.1640426767235
 20
204.9522615894207
 30
0.0
 11
666.0367462289696
 21
204.9522615894207
 31
0.0
  0
LINE
  5
EA
330
1F
100
AcDbEntity
  8
0
100
AcDbLine
 10
666.0367462289696
 20
204.9522615894207
 30
0.0
 11
666.0367462289696
 21
183.5402615293392
 31
0.0
  0
LINE
  5
EB
330
1F
100
AcDbEntity
  8
0
100
AcDbLine
 10
605.7464096200829
 20
195.6038691028484
 30
0.0
 11
606.4521882188683
 21
198.1585390790829
 31
0.0
  0
LINE
  5
EC
330
1F
100
AcDbEntity
  8
0
100
AcDbLine
 10
606.4521882188683
 20
198.1585390790829
 30
0.0
 11
607.29297133807
 21
200.645617388142
 31
0.0
  0
LINE
  5
ED
330
1F
100
AcDbEntity
  8
0
100
AcDbLine
 10
607.29297133807
 20
200.645617388142
 30
0.0
 11
608.2606527459984
 21
203.0414260848888
 31
0.0
  0
LINE
  5
EE
330
1F
100
AcDbEntity
  8
0
100
AcDbLine
 10
608.2606527459984
 20
203.0414260848888
 30
0.0
 11
609.3473050248986
 21
205.3223170265087
 31
0.0
  0
LINE
  5
EF
330
1F
100
AcDbEntity
  8
0
100
AcDbLine
 10
609.3473050248986
 20
205.3223170265087
 30
0.0
 11
610.5449411523705
 21
207.4645824655422
 31
0.0
  0
LINE
  5
F0
330
1F
100
AcDbEntity
  8
0
100
AcDbLine
 10
610.5449411523705
 20
207.4645824655422
 30
0.0
 11
611.8455145013696
 21
209.4445891603359
 31
0.0
  0
LINE
  5
F1
330
1F
100
AcDbEntity
  8
0
100
AcDbLine
 10
611.8455145013696
 20
209.4445891603359
 30
0.0
 11
613.7860033166771
 21
211.8829108699688
 31
0.0
  0
LINE
  5
F2
330
1F
100
AcDbEntity
  8
0
100
AcDbLine
 10
613.7860033166771
 20
211.8829108699688
 30
0.0
 11
615.9954282892113
 21
214.1509570106396
 31
0.0
  0
LINE
  5
F3
330
1F
100
AcDbEntity
  8
0
100
AcDbLine
 10
615.9954282892113
 20
214.1509570106396
 30
0.0
 11
618.4464904916649
 21
216.232798241032
 31
0.0
  0
LINE
  5
F4
330
1F
100
AcDbEntity
  8
0
100
AcDbLine
 10
618.4464904916649
 20
216.232798241032
 30
0.0
 11
621.1120698106652
 21
218.1126095279583
 31
0.0
  0
LINE
  5
F5
330
1F
100
AcDbEntity
  8
0
100
AcDbLine
 10
621.1120698106652
 20
218.1126095279583
 30
0.0
 11
623.9646885049705
 21
219.7744913324245
 31
0.0
  0
LINE
  5
F6
330
1F
100
AcDbEntity
  8
0
100
AcDbLine
 10
623.9646885049705
 20
219.7744913324245
 30
0.0
 11
626.9773456704979
 21
221.2025739177593
 31
0.0
  0
LINE
  5
F7
330
1F
100
AcDbEntity
  8
0
100
AcDbLine
 10
626.9773456704979
 20
221.2025739177593
 30
0.0
 11
630.1226827752952
 21
222.3809875472912
 31
0.0
  0
LINE
  5
F8
330
1F
100
AcDbEntity
  8
0
100
AcDbLine
 10
630.1226827752952
 20
222.3809875472912
 30
0.0
 11
633.3734008920555
 21
223.293855033768
 31
0.0
  0
LINE
  5
F9
330
1F
100
AcDbEntity
  8
0
100
AcDbLine
 10
506.2448296201592
 20
254.3877057656177
 30
0.0
 11
500.5889150750999
 21
254.4377587660679
 31
0.0
  0
LINE
  5
FA
330
1F
100
AcDbEntity
  8
0
100
AcDbLine
 10
636.7023799074058
 20
223.9252917393574
 30
0.0
 11
637.5907275331383
 21
223.9573888405689
 31
0.0
  0
LINE
  5
FB
330
1F
100
AcDbEntity
  8
0
100
AcDbLine
 10
637.5907275331383
 20
223.9573888405689
 30
0.0
 11
639.7050830972557
 21
223.9853955730328
 31
0.0
  0
LINE
  5
FC
330
1F
100
AcDbEntity
  8
0
100
AcDbLine
 10
639.7050830972557
 20
223.9853955730328
 30
0.0
 11
642.9242703569298
 21
224.0089841112026
 31
0.0
  0
LINE
  5
FD
330
1F
100
AcDbEntity
  8
0
100
AcDbLine
 10
642.9242703569298
 20
224.0089841112026
 30
0.0
 11
647.1273514879113
 21
224.0278191789517
 31
0.0
  0
LINE
  5
FE
330
1F
100
AcDbEntity
  8
0
100
AcDbLine
 10
550.7184180868035
 20
254.3215669616588
 30
0.0
 11
547.6781341684228
 21
254.2777948006519
 31
0.0
  0
LINE
  5
FF
330
1F
100
AcDbEntity
  8
0
100
AcDbLine
 10
547.6781341684228
 20
254.2777948006519
 30
0.0
 11
543.5446414602166
 21
254.2561359628566
 31
0.0
  0
LINE
  5
100
330
1F
100
AcDbEntity
  8
0
100
AcDbLine
 10
552.80979606036
 20
254.3895162567028
 30
0.0
 11
550.7184180868035
 21
254.3215669616588
 31
0.0
  0
LINE
  5
101
330
1F
100
AcDbEntity
  8
0
100
AcDbLine
 10
554.0965411317711
 20
254.4837437495121
 30
0.0
 11
552.80979606036
 21
254.3895162567028
 31
0.0
  0
LINE
  5
102
330
1F
100
AcDbEntity
  8
0
100
AcDbLine
 10
630.0053808343772
 20
254.5073918923267
 30
0.0
 11
626.7741534364586
 21
254.438496373547
 31
0.0
  0
LINE
  5
103
330
1F
100
AcDbEntity
  8
0
100
AcDbLine
 10
626.7741534364586
 20
254.438496373547
 30
0.0
 11
622.4891755235558
 21
254.3864466174969
 31
0.0
  0
LINE
  5
104
330
1F
100
AcDbEntity
  8
0
100
AcDbLine
 10
622.4891755235558
 20
254.3864466174969
 30
0.0
 11
616.944751466549
 21
254.3431289419063
 31
0.0
  0
LINE
  5
105
330
1F
100
AcDbEntity
  8
0
100
AcDbLine
 10
616.944751466549
 20
254.3431289419063
 30
0.0
 11
585.7371303689843
 21
254.1608281358608
 31
0.0
  0
LINE
  5
106
330
1F
100
AcDbEntity
  8
0
100
AcDbLine
 10
636.5092012536888
 20
255.1134072169193
 30
0.0
 11
635.4348275316123
 21
254.8961333855518
 31
0.0
  0
LINE
  5
107
330
1F
100
AcDbEntity
  8
0
100
AcDbLine
 10
692.4294445169334
 20
224.0181185230144
 30
0.0
 11
703.0006858957177
 21
223.9821992739567
 31
0.0
  0
LINE
  5
108
330
1F
100
AcDbEntity
  8
0
100
AcDbLine
 10
705.1043126237755
 20
253.347902737511
 30
0.0
 11
703.8685295236472
 21
253.6028541549572
 31
0.0
  0
LINE
  5
109
330
1F
100
AcDbEntity
  8
0
100
AcDbLine
 10
706.4086410653954
 20
253.1959108933338
 30
0.0
 11
705.1043126237755
 21
253.347902737511
 31
0.0
  0
LINE
  5
10A
330
1F
100
AcDbEntity
  8
0
100
AcDbLine
 10
703.0006858957177
 20
223.9821992739567
 30
0.0
 11
710.8945462358361
 21
223.8906241878399
 31
0.0
  0
LINE
  5
10B
330
1F
100
AcDbEntity
  8
0
100
AcDbLine
 10
707.7901575219994
 20
253.1432501896747
 30
0.0
 11
706.4086410653954
 21
253.1959108933338
 31
0.0
  0
LINE
  5
10C
330
1F
100
AcDbEntity
  8
0
100
AcDbLine
 10
710.8945462358361
 20
223.8906241878399
 30
0.0
 11
716.622850621975
 21
223.7025193795093
 31
0.0
  0
LINE
  5
10D
330
1F
100
AcDbEntity
  8
0
100
AcDbLine
 10
716.622850621975
 20
223.7025193795093
 30
0.0
 11
720.6968876970176
 21
223.3770407661327
 31
0.0
  0
LINE
  5
10E
330
1F
100
AcDbEntity
  8
0
100
AcDbLine
 10
720.6968876970176
 20
223.3770407661327
 30
0.0
 11
723.6282441270714
 21
222.8733219131359
 31
0.0
  0
LINE
  5
10F
330
1F
100
AcDbEntity
  8
0
100
AcDbLine
 10
711.6087290895348
 20
253.5719640478023
 30
0.0
 11
710.4130599153405
 21
253.3275477513203
 31
0.0
  0
LINE
  5
110
330
1F
100
AcDbEntity
  8
0
100
AcDbLine
 10
710.4130599153405
 20
253.3275477513203
 30
0.0
 11
709.1443154466515
 21
253.1863890513309
 31
0.0
  0
LINE
  5
111
330
1F
100
AcDbEntity
  8
0
100
AcDbLine
 10
723.6282441270714
 20
222.8733219131359
 30
0.0
 11
725.9283873689537
 21
222.1504814847835
 31
0.0
  0
LINE
  5
112
330
1F
100
AcDbEntity
  8
0
100
AcDbLine
 10
712.7433631074791
 20
253.9248458966144
 30
0.0
 11
711.6087290895348
 21
253.5719640478023
 31
0.0
  0
LINE
  5
113
330
1F
100
AcDbEntity
  8
0
100
AcDbLine
 10
725.9283873689537
 20
222.1504814847835
 30
0.0
 11
728.1089040887719
 21
221.1676604970821
 31
0.0
  0
LINE
  5
114
330
1F
100
AcDbEntity
  8
0
100
AcDbLine
 10
728.1089040887719
 20
221.1676604970821
 30
0.0
 11
730.6812617433434
 21
219.8840148671993
 31
0.0
  0
LINE
  5
115
330
1F
100
AcDbEntity
  8
0
100
AcDbLine
 10
713.8292405259971
 20
254.3914385064968
 30
0.0
 11
712.7433631074791
 21
253.9248458966144
 31
0.0
  0
LINE
  5
116
330
1F
100
AcDbEntity
  8
0
100
AcDbLine
 10
730.6812617433434
 20
219.8840148671993
 30
0.0
 11
731.883189405239
 21
219.2806817516216
 31
0.0
  0
LINE
  5
117
330
1F
100
AcDbEntity
  8
0
100
AcDbLine
 10
731.883189405239
 20
219.2806817516216
 30
0.0
 11
732.9184624803428
 21
218.7303371652492
 31
0.0
  0
LINE
  5
118
330
1F
100
AcDbEntity
  8
0
100
AcDbLine
 10
732.9184624803428
 20
218.7303371652492
 30
0.0
 11
733.8291618478661
 21
218.2022102102169
 31
0.0
  0
LINE
  5
119
330
1F
100
AcDbEntity
  8
0
100
AcDbLine
 10
733.8291618478661
 20
218.2022102102169
 30
0.0
 11
734.6573087823753
 21
217.6655299886593
 31
0.0
  0
LINE
  5
11A
330
1F
100
AcDbEntity
  8
0
100
AcDbLine
 10
787.901541913784
 20
255.5993713363536
 30
0.0
 11
784.393629754818
 21
256.6973410471805
 31
0.0
  0
LINE
  5
11B
330
1F
100
AcDbEntity
  8
0
100
AcDbLine
 10
792.153320039547
 20
254.4400237425693
 30
0.0
 11
787.901541913784
 21
255.5993713363536
 31
0.0
  0
LINE
  5
11C
330
1F
100
AcDbEntity
  8
0
100
AcDbLine
 10
734.6573087823753
 20
217.6655299886593
 30
0.0
 11
735.4449841630822
 21
217.0895703061947
 31
0.0
  0
LINE
  5
11D
330
1F
100
AcDbEntity
  8
0
100
AcDbLine
 10
735.4449841630822
 20
217.0895703061947
 30
0.0
 11
736.2342092645531
 21
216.443575166119
 31
0.0
  0
LINE
  5
11E
330
1F
100
AcDbEntity
  8
0
100
AcDbLine
 10
736.2342092645531
 20
216.443575166119
 30
0.0
 11
737.0670649659996
 21
215.6967736705669
 31
0.0
  0
LINE
  5
11F
330
1F
100
AcDbEntity
  8
0
100
AcDbLine
 10
737.0670649659996
 20
215.6967736705669
 30
0.0
 11
737.985691751278
 21
214.8184247239956
 31
0.0
  0
LINE
  5
120
330
1F
100
AcDbEntity
  8
0
100
AcDbLine
 10
737.985691751278
 20
214.8184247239956
 30
0.0
 11
739.031991685665
 21
213.7777723297008
 31
0.0
  0
LINE
  5
121
330
1F
100
AcDbEntity
  8
0
100
AcDbLine
 10
739.031991685665
 20
213.7777723297008
 30
0.0
 11
740.6724903238182
 21
212.058878682507
 31
0.0
  0
LINE
  5
122
330
1F
100
AcDbEntity
  8
0
100
AcDbLine
 10
740.6724903238182
 20
212.058878682507
 30
0.0
 11
742.1170684945946
 21
210.3910066112407
 31
0.0
  0
LINE
  5
123
330
1F
100
AcDbEntity
  8
0
100
AcDbLine
 10
742.1170684945946
 20
210.3910066112407
 30
0.0
 11
743.3903429162865
 21
208.7306447252163
 31
0.0
  0
LINE
  5
124
330
1F
100
AcDbEntity
  8
0
100
AcDbLine
 10
743.3903429162865
 20
208.7306447252163
 30
0.0
 11
744.5167514932518
 21
207.0343412383923
 31
0.0
  0
LINE
  5
125
330
1F
100
AcDbEntity
  8
0
100
AcDbLine
 10
744.5167514932518
 20
207.0343412383923
 30
0.0
 11
745.5210301530723
 21
205.2585698589214
 31
0.0
  0
LINE
  5
126
330
1F
100
AcDbEntity
  8
0
100
AcDbLine
 10
745.5210301530723
 20
205.2585698589214
 30
0.0
 11
746.4276764047507
 21
203.3598638996014
 31
0.0
  0
LINE
  5
127
330
1F
100
AcDbEntity
  8
0
100
AcDbLine
 10
746.4276764047507
 20
203.3598638996014
 30
0.0
 11
747.2613665712242
 21
201.294711969746
 31
0.0
  0
LINE
  5
128
330
1F
100
AcDbEntity
  8
0
100
AcDbLine
 10
747.2613665712242
 20
201.294711969746
 30
0.0
 11
748.0466577661399
 21
199.0196473821529
 31
0.0
  0
LINE
  5
129
330
1F
100
AcDbEntity
  8
0
100
AcDbLine
 10
748.0466577661399
 20
199.0196473821529
 30
0.0
 11
748.8081071031455
 21
196.4911736472973
 31
0.0
  0
LINE
  5
12A
330
1F
100
AcDbEntity
  8
0
100
AcDbLine
 10
748.8081071031455
 20
196.4911736472973
 30
0.0
 11
749.0869376314049
 21
195.4522050842175
 31
0.0
  0
LINE
  5
12B
330
1F
100
AcDbEntity
  8
0
100
AcDbLine
 10
749.0869376314049
 20
195.4522050842175
 30
0.0
 11
749.3044945848351
 21
194.3181075080761
 31
0.0
  0
LINE
  5
12C
330
1F
100
AcDbEntity
  8
0
100
AcDbLine
 10
749.3044945848351
 20
194.3181075080761
 30
0.0
 11
749.4683477533226
 21
192.7655704244503
 31
0.0
  0
LINE
  5
12D
330
1F
100
AcDbEntity
  8
0
100
AcDbLine
 10
749.4683477533226
 20
192.7655704244503
 30
0.0
 11
749.5861861360435
 21
190.4713727458843
 31
0.0
  0
LINE
  5
12E
330
1F
100
AcDbEntity
  8
0
100
AcDbLine
 10
749.5861861360435
 20
190.4713727458843
 30
0.0
 11
749.6656391275292
 21
187.1122337802776
 31
0.0
  0
LINE
  5
12F
330
1F
100
AcDbEntity
  8
0
100
AcDbLine
 10
749.6656391275292
 20
187.1122337802776
 30
0.0
 11
749.7143957269554
 21
182.3649175390132
 31
0.0
  0
LINE
  5
130
330
1F
100
AcDbEntity
  8
0
100
AcDbLine
 10
175.2011317265396
 20
317.5792816951403
 30
0.0
 11
198.6131432903176
 21
317.5398830249437
 31
0.0
  0
LINE
  5
131
330
1F
100
AcDbEntity
  8
0
100
AcDbLine
 10
198.6131432903176
 20
317.5398830249437
 30
0.0
 11
216.0261634242897
 21
292.8203821107277
 31
0.0
  0
LINE
  5
132
330
1F
100
AcDbEntity
  8
0
100
AcDbLine
 10
219.0683099878197
 20
301.2425109669098
 30
0.0
 11
207.3623004806404
 21
317.3651613220105
 31
0.0
  0
LINE
  5
133
330
1F
100
AcDbEntity
  8
0
100
AcDbLine
 10
216.0261634242897
 20
292.8203821107277
 30
0.0
 11
218.5297224176293
 21
289.2810545786747
 31
0.0
  0
LINE
  5
134
330
1F
100
AcDbEntity
  8
0
100
AcDbLine
 10
235.2937075746422
 20
301.4048330410847
 30
0.0
 11
219.0683099878197
 21
301.2425109669098
 31
0.0
  0
LINE
  5
135
330
1F
100
AcDbEntity
  8
0
100
AcDbLine
 10
218.5297224176293
 20
289.2810545786747
 30
0.0
 11
220.8450499427681
 21
286.0182031914123
 31
0.0
  0
LINE
  5
136
330
1F
100
AcDbEntity
  8
0
100
AcDbLine
 10
220.8450499427681
 20
286.0182031914123
 30
0.0
 11
222.9289624345666
 21
283.0921776517757
 31
0.0
  0
LINE
  5
137
330
1F
100
AcDbEntity
  8
0
100
AcDbLine
 10
222.9289624345666
 20
283.0921776517757
 30
0.0
 11
224.7382614267235
 21
280.5633313878902
 31
0.0
  0
LINE
  5
138
330
1F
100
AcDbEntity
  8
0
100
AcDbLine
 10
231.8022611987953
 20
280.4334528669247
 30
0.0
 11
232.5219872844582
 21
281.4993031247982
 31
0.0
  0
LINE
  5
139
330
1F
100
AcDbEntity
  8
0
100
AcDbLine
 10
231.2337520969277
 20
279.587826870335
 30
0.0
 11
231.8022611987953
 21
280.4334528669247
 31
0.0
  0
LINE
  5
13A
330
1F
100
AcDbEntity
  8
0
100
AcDbLine
 10
224.7382614267235
 20
280.5633313878902
 30
0.0
 11
226.2297782552605
 21
278.4919954761395
 31
0.0
  0
LINE
  5
13B
330
1F
100
AcDbEntity
  8
0
100
AcDbLine
 10
230.7564828050499
 20
278.8805879577526
 30
0.0
 11
231.2337520969277
 21
279.587826870335
 31
0.0
  0
LINE
  5
13C
330
1F
100
AcDbEntity
  8
0
100
AcDbLine
 10
229.1338059556847
 20
276.5672497376331
 30
0.0
 11
229.4799897325401
 21
277.0454205497631
 31
0.0
  0
LINE
  5
13D
330
1F
100
AcDbEntity
  8
0
100
AcDbLine
 10
229.4799897325401
 20
277.0454205497631
 30
0.0
 11
229.8713538301354
 21
277.5979705079922
 31
0.0
  0
LINE
  5
13E
330
1F
100
AcDbEntity
  8
0
100
AcDbLine
 10
226.2297782552605
 20
278.4919954761395
 30
0.0
 11
227.3603293550377
 21
276.9385419711002
 31
0.0
  0
LINE
  5
13F
330
1F
100
AcDbEntity
  8
0
100
AcDbLine
 10
229.8713538301354
 20
277.5979705079922
 30
0.0
 11
230.2995983016854
 21
278.213500224007
 31
0.0
  0
LINE
  5
140
330
1F
100
AcDbEntity
  8
0
100
AcDbLine
 10
230.2995983016854
 20
278.213500224007
 30
0.0
 11
230.7564828050499
 21
278.8805879577526
 31
0.0
  0
LINE
  5
141
330
1F
100
AcDbEntity
  8
0
100
AcDbLine
 10
228.8410428417092
 20
276.1748649104961
 30
0.0
 11
229.1338059556847
 21
276.5672497376331
 31
0.0
  0
LINE
  5
142
330
1F
100
AcDbEntity
  8
0
100
AcDbLine
 10
227.3603293550377
 20
276.9385419711002
 30
0.0
 11
228.0867609632378
 21
275.9632907732853
 31
0.0
  0
LINE
  5
143
330
1F
100
AcDbEntity
  8
0
100
AcDbLine
 10
228.609955633915
 20
275.8796952589878
 30
0.0
 11
228.8410428417092
 21
276.1748649104961
 31
0.0
  0
LINE
  5
144
330
1F
100
AcDbEntity
  8
0
100
AcDbLine
 10
228.4488144767647
 20
275.6931327208408
 30
0.0
 11
228.609955633915
 21
275.8796952589878
 31
0.0
  0
LINE
  5
145
330
1F
100
AcDbEntity
  8
0
100
AcDbLine
 10
228.0867609632378
 20
275.9632907732853
 30
0.0
 11
228.3658895147209
 21
275.6266064866909
 31
0.0
  0
LINE
  5
146
330
1F
100
AcDbEntity
  8
0
100
AcDbLine
 10
228.3658895147209
 20
275.6266064866909
 30
0.0
 11
228.4488144767647
 21
275.6931327208408
 31
0.0
  0
LINE
  5
147
330
1F
100
AcDbEntity
  8
0
100
AcDbLine
 10
237.7595070255165
 20
301.4142207726368
 30
0.0
 11
235.2937075746422
 21
301.4048330410847
 31
0.0
  0
LINE
  5
148
330
1F
100
AcDbEntity
  8
0
100
AcDbLine
 10
240.7900008809929
 20
293.64032968129
 30
0.0
 11
241.7875889194374
 21
295.1065704151519
 31
0.0
  0
LINE
  5
149
330
1F
100
AcDbEntity
  8
0
100
AcDbLine
 10
239.9005654704933
 20
301.4096349402794
 30
0.0
 11
237.7595070255165
 21
301.4142207726368
 31
0.0
  0
LINE
  5
14A
330
1F
100
AcDbEntity
  8
0
100
AcDbLine
 10
241.7875889194374
 20
295.1065704151519
 30
0.0
 11
242.7127573144798
 21
296.4718259796032
 31
0.0
  0
LINE
  5
14B
330
1F
100
AcDbEntity
  8
0
100
AcDbLine
 10
241.7141261947518
 20
301.3911314233669
 30
0.0
 11
239.9005654704933
 21
301.4096349402794
 31
0.0
  0
LINE
  5
14C
330
1F
100
AcDbEntity
  8
0
100
AcDbLine
 10
242.7127573144798
 20
296.4718259796032
 30
0.0
 11
243.5481909168129
 21
297.7101944311985
 31
0.0
  0
LINE
  5
14D
330
1F
100
AcDbEntity
  8
0
100
AcDbLine
 10
243.5481909168129
 20
297.7101944311985
 30
0.0
 11
244.2764553678398
 21
298.7957738264927
 31
0.0
  0
LINE
  5
14E
330
1F
100
AcDbEntity
  8
0
100
AcDbLine
 10
243.1973132741814
 20
301.3587810024151
 30
0.0
 11
241.7141261947518
 21
301.3911314233669
 31
0.0
  0
LINE
  5
14F
330
1F
100
AcDbEntity
  8
0
100
AcDbLine
 10
244.2764553678398
 20
298.7957738264927
 30
0.0
 11
244.880205715931
 21
299.7026510461696
 31
0.0
  0
LINE
  5
150
330
1F
100
AcDbEntity
  8
0
100
AcDbLine
 10
244.3473699939613
 20
301.3126283809074
 30
0.0
 11
243.1973132741814
 21
301.3587810024151
 31
0.0
  0
LINE
  5
151
330
1F
100
AcDbEntity
  8
0
100
AcDbLine
 10
244.880205715931
 20
299.7026510461696
 30
0.0
 11
245.3420523059731
 21
300.4049315973647
 31
0.0
  0
LINE
  5
152
330
1F
100
AcDbEntity
  8
0
100
AcDbLine
 10
245.1614502323037
 20
301.2527517899402
 30
0.0
 11
244.3473699939613
 21
301.3126283809074
 31
0.0
  0
LINE
  5
153
330
1F
100
AcDbEntity
  8
0
100
AcDbLine
 10
245.3420523059731
 20
300.4049315973647
 30
0.0
 11
245.6445905816917
 21
300.876702360762
 31
0.0
  0
LINE
  5
154
330
1F
100
AcDbEntity
  8
0
100
AcDbLine
 10
245.6367525709038
 20
301.179207108868
 30
0.0
 11
245.1614502323037
 21
301.2527517899402
 31
0.0
  0
LINE
  5
155
330
1F
100
AcDbEntity
  8
0
100
AcDbLine
 10
245.6445905816917
 20
300.876702360762
 30
0.0
 11
245.7704904926186
 21
301.0920539423356
 31
0.0
  0
LINE
  5
156
330
1F
100
AcDbEntity
  8
0
100
AcDbLine
 10
245.7704904926186
 20
301.0920539423356
 30
0.0
 11
245.6367525709038
 21
301.179207108868
 31
0.0
  0
LINE
  5
157
330
1F
100
AcDbEntity
  8
0
100
AcDbLine
 10
267.3635992658501
 20
317.4999739899763
 30
0.0
 11
271.7908087623482
 21
317.4901150092014
 31
0.0
  0
LINE
  5
158
330
1F
100
AcDbEntity
  8
0
100
AcDbLine
 10
271.7908087623482
 20
317.4901150092014
 30
0.0
 11
275.4258725297814
 21
317.4742508604655
 31
0.0
  0
LINE
  5
159
330
1F
100
AcDbEntity
  8
0
100
AcDbLine
 10
275.4258725297814
 20
317.4742508604655
 30
0.0
 11
278.1631860387687
 21
317.4526162370571
 31
0.0
  0
LINE
  5
15A
330
1F
100
AcDbEntity
  8
0
100
AcDbLine
 10
278.1631860387687
 20
317.4526162370571
 30
0.0
 11
279.8970702541238
 21
317.4254458322653
 31
0.0
  0
LINE
  5
15B
330
1F
100
AcDbEntity
  8
0
100
AcDbLine
 10
320.636979068554
 20
317.4114722683557
 30
0.0
 11
323.4153601777916
 21
317.4627210869917
 31
0.0
  0
LINE
  5
15C
330
1F
100
AcDbEntity
  8
0
100
AcDbLine
 10
313.6290523660546
 20
317.0487984939941
 30
0.0
 11
314.8490700376396
 21
317.1654913499483
 31
0.0
  0
LINE
  5
15D
330
1F
100
AcDbEntity
  8
0
100
AcDbLine
 10
314.8490700376396
 20
317.1654913499483
 30
0.0
 11
316.3957807672387
 21
317.264042042149
 31
0.0
  0
LINE
  5
15E
330
1F
100
AcDbEntity
  8
0
100
AcDbLine
 10
279.8970702541238
 20
317.4254458322653
 30
0.0
 11
280.5218610418206
 21
317.3929743393787
 31
0.0
  0
LINE
  5
15F
330
1F
100
AcDbEntity
  8
0
100
AcDbLine
 10
316.3957807672387
 20
317.264042042149
 30
0.0
 11
318.3110866201287
 21
317.3456408008465
 31
0.0
  0
LINE
  5
160
330
1F
100
AcDbEntity
  8
0
100
AcDbLine
 10
318.3110866201287
 20
317.3456408008465
 30
0.0
 11
320.636979068554
 21
317.4114722683557
 31
0.0
  0
LINE
  5
161
330
1F
100
AcDbEntity
  8
0
100
AcDbLine
 10
280.2249703061943
 20
316.8795697316059
 30
0.0
 11
279.3031397712593
 21
315.4666602536568
 31
0.0
  0
LINE
  5
162
330
1F
100
AcDbEntity
  8
0
100
AcDbLine
 10
290.4454234493141
 20
304.5282617136368
 30
0.0
 11
294.7774890315895
 21
308.8149011060127
 31
0.0
  0
LINE
  5
163
330
1F
100
AcDbEntity
  8
0
100
AcDbLine
 10
280.5218610418206
 20
317.3929743393787
 30
0.0
 11
280.2249703061943
 21
316.8795697316059
 31
0.0
  0
LINE
  5
164
330
1F
100
AcDbEntity
  8
0
100
AcDbLine
 10
294.7774890315895
 20
308.8149011060127
 30
0.0
 11
299.9835375202065
 21
312.3859271332153
 31
0.0
  0
LINE
  5
165
330
1F
100
AcDbEntity
  8
0
100
AcDbLine
 10
299.9835375202065
 20
312.3859271332153
 30
0.0
 11
305.9826109063988
 21
315.1242501958736
 31
0.0
  0
LINE
  5
166
330
1F
100
AcDbEntity
  8
0
100
AcDbLine
 10
279.3031397712593
 20
315.4666602536568
 30
0.0
 11
277.8147521865731
 21
313.2400654181369
 31
0.0
  0
LINE
  5
167
330
1F
100
AcDbEntity
  8
0
100
AcDbLine
 10
277.8147521865731
 20
313.2400654181369
 30
0.0
 11
275.8181754005318
 21
310.2856159135231
 31
0.0
  0
LINE
  5
168
330
1F
100
AcDbEntity
  8
0
100
AcDbLine
 10
287.0682838809853
 20
299.6431022807487
 30
0.0
 11
290.4454234493141
 21
304.5282617136368
 31
0.0
  0
LINE
  5
169
330
1F
100
AcDbEntity
  8
0
100
AcDbLine
 10
275.8181754005318
 20
310.2856159135231
 30
0.0
 11
273.3717921626931
 21
306.6891275271305
 31
0.0
  0
LINE
  5
16A
330
1F
100
AcDbEntity
  8
0
100
AcDbLine
 10
284.7270134342079
 20
294.2765310331711
 30
0.0
 11
287.0682838809853
 21
299.6431022807487
 31
0.0
  0
LINE
  5
16B
330
1F
100
AcDbEntity
  8
0
100
AcDbLine
 10
273.3717921626931
 20
306.6891275271305
 30
0.0
 11
270.5340001237755
 21
302.5364383980163
 31
0.0
  0
LINE
  5
16C
330
1F
100
AcDbEntity
  8
0
100
AcDbLine
 10
270.5340001237755
 20
302.5364383980163
 30
0.0
 11
267.3631373298531
 21
297.913364313496
 31
0.0
  0
LINE
  5
16D
330
1F
100
AcDbEntity
  8
0
100
AcDbLine
 10
283.5025701177483
 20
288.5456263944038
 30
0.0
 11
284.7270134342079
 21
294.2765310331711
 31
0.0
  0
LINE
  5
16E
330
1F
100
AcDbEntity
  8
0
100
AcDbLine
 10
283.4759119403725
 20
282.5675003155598
 30
0.0
 11
283.5025701177483
 21
288.5456263944038
 31
0.0
  0
LINE
  5
16F
330
1F
100
AcDbEntity
  8
0
100
AcDbLine
 10
284.7279671085244
 20
276.4592461213001
 30
0.0
 11
283.4759119403725
 21
282.5675003155598
 31
0.0
  0
LINE
  5
170
330
1F
100
AcDbEntity
  8
0
100
AcDbLine
 10
260.2558198821907
 20
287.5993728562721
 30
0.0
 11
255.9276286018258
 21
281.350008390797
 31
0.0
  0
LINE
  5
171
330
1F
100
AcDbEntity
  8
0
100
AcDbLine
 10
285.8135316026573
 20
273.5870920046696
 30
0.0
 11
284.7279671085244
 21
276.4592461213001
 31
0.0
  0
LINE
  5
172
330
1F
100
AcDbEntity
  8
0
100
AcDbLine
 10
255.9276286018258
 20
281.350008390797
 30
0.0
 11
252.0667079341774
 21
275.8043400868305
 31
0.0
  0
LINE
  5
173
330
1F
100
AcDbEntity
  8
0
100
AcDbLine
 10
287.2225258005028
 20
270.8553440793881
 30
0.0
 11
285.8135316026573
 21
273.5870920046696
 31
0.0
  0
LINE
  5
174
330
1F
100
AcDbEntity
  8
0
100
AcDbLine
 10
252.0667079341774
 20
275.8043400868305
 30
0.0
 11
248.6717614782219
 21
270.960538826836
 31
0.0
  0
LINE
  5
175
330
1F
100
AcDbEntity
  8
0
100
AcDbLine
 10
288.9391991746788
 20
268.2793132885822
 30
0.0
 11
287.2225258005028
 21
270.8553440793881
 31
0.0
  0
LINE
  5
176
330
1F
100
AcDbEntity
  8
0
100
AcDbLine
 10
248.6717614782219
 20
270.960538826836
 30
0.0
 11
245.7414928329354
 21
266.8167941197285
 31
0.0
  0
LINE
  5
177
330
1F
100
AcDbEntity
  8
0
100
AcDbLine
 10
290.9477713954811
 20
265.8743180259594
 30
0.0
 11
288.9391991746788
 21
268.2793132885822
 31
0.0
  0
LINE
  5
178
330
1F
100
AcDbEntity
  8
0
100
AcDbLine
 10
245.7414928329354
 20
266.8167941197285
 30
0.0
 11
243.2745757949715
 21
263.3712656721004
 31
0.0
  0
LINE
  5
179
330
1F
100
AcDbEntity
  8
0
100
AcDbLine
 10
243.2745757949715
 20
263.3712656721004
 30
0.0
 11
241.2697139633065
 21
260.6221280917057
 31
0.0
  0
LINE
  5
17A
330
1F
100
AcDbEntity
  8
0
100
AcDbLine
 10
293.2324472320443
 20
263.6556692346463
 30
0.0
 11
290.9477713954811
 21
265.8743180259594
 31
0.0
  0
LINE
  5
17B
330
1F
100
AcDbEntity
  8
0
100
AcDbLine
 10
241.2697139633065
 20
260.6221280917057
 30
0.0
 11
239.725581134594
 21
258.5675485357174
 31
0.0
  0
LINE
  5
17C
330
1F
100
AcDbEntity
  8
0
100
AcDbLine
 10
239.725581134594
 20
258.5675485357174
 30
0.0
 11
238.6409107101326
 21
257.2057090624699
 31
0.0
  0
LINE
  5
17D
330
1F
100
AcDbEntity
  8
0
100
AcDbLine
 10
295.7774761569863
 20
261.6386927589306
 30
0.0
 11
293.2324472320443
 21
263.6556692346463
 31
0.0
  0
LINE
  5
17E
330
1F
100
AcDbEntity
  8
0
100
AcDbLine
 10
238.6409107101326
 20
257.2057090624699
 30
0.0
 11
238.0143466842537
 21
256.5347917302975
 31
0.0
  0
LINE
  5
17F
330
1F
100
AcDbEntity
  8
0
100
AcDbLine
 10
298.5670927417642
 20
259.8387069925197
 30
0.0
 11
295.7774761569863
 21
261.6386927589306
 31
0.0
  0
LINE
  5
180
330
1F
100
AcDbEntity
  8
0
100
AcDbLine
 10
238.0143466842537
 20
256.5347917302975
 30
0.0
 11
237.0189342153435
 21
255.7630978449711
 31
0.0
  0
LINE
  5
181
330
1F
100
AcDbEntity
  8
0
100
AcDbLine
 10
237.0189342153435
 20
255.7630978449711
 30
0.0
 11
236.0481384647255
 21
255.1046155318149
 31
0.0
  0
LINE
  5
182
330
1F
100
AcDbEntity
  8
0
100
AcDbLine
 10
301.5855166566735
 20
258.2710154279598
 30
0.0
 11
298.5670927417642
 21
259.8387069925197
 31
0.0
  0
LINE
  5
183
330
1F
100
AcDbEntity
  8
0
100
AcDbLine
 10
236.0481384647255
 20
255.1046155318149
 30
0.0
 11
235.0853595388299
 21
254.5534737333187
 31
0.0
  0
LINE
  5
184
330
1F
100
AcDbEntity
  8
0
100
AcDbLine
 10
228.5485479486351
 20
253.1704448088535
 30
0.0
 11
227.1627101552849
 21
253.2195739373096
 31
0.0
  0
LINE
  5
185
330
1F
100
AcDbEntity
  8
0
100
AcDbLine
 10
227.1627101552849
 20
253.2195739373096
 30
0.0
 11
225.876829351223
 21
253.3651955350765
 31
0.0
  0
LINE
  5
186
330
1F
100
AcDbEntity
  8
0
100
AcDbLine
 10
225.876829351223
 20
253.3651955350765
 30
0.0
 11
224.6739629161721
 21
253.6147899850735
 31
0.0
  0
LINE
  5
187
330
1F
100
AcDbEntity
  8
0
100
AcDbLine
 10
224.6739629161721
 20
253.6147899850735
 30
0.0
 11
223.5372129333382
 21
253.9758376702198
 31
0.0
  0
LINE
  5
188
330
1F
100
AcDbEntity
  8
0
100
AcDbLine
 10
223.5372129333382
 20
253.9758376702198
 30
0.0
 11
222.4495771777992
 21
254.4557817205318
 31
0.0
  0
LINE
  5
189
330
1F
100
AcDbEntity
  8
0
100
AcDbLine
 10
222.4495771777992
 20
254.4557817205318
 30
0.0
 11
221.3941875350838
 21
255.0621248706707
 31
0.0
  0
LINE
  5
18A
330
1F
100
AcDbEntity
  8
0
100
AcDbLine
 10
221.3941875350838
 20
255.0621248706707
 30
0.0
 11
220.3540566814308
 21
255.8023326023945
 31
0.0
  0
LINE
  5
18B
330
1F
100
AcDbEntity
  8
0
100
AcDbLine
 10
220.3540566814308
 20
255.8023326023945
 30
0.0
 11
219.3123016012077
 21
256.6838703974613
 31
0.0
  0
LINE
  5
18C
330
1F
100
AcDbEntity
  8
0
100
AcDbLine
 10
219.3123016012077
 20
256.6838703974613
 30
0.0
 11
218.251964772976
 21
257.7142111882099
 31
0.0
  0
LINE
  5
18D
330
1F
100
AcDbEntity
  8
0
100
AcDbLine
 10
216.2955019128685
 20
260.1846299990543
 30
0.0
 11
214.5466867339973
 21
262.5238142832645
 31
0.0
  0
LINE
  5
18E
330
1F
100
AcDbEntity
  8
0
100
AcDbLine
 10
214.5466867339973
 20
262.5238142832645
 30
0.0
 11
212.3653951537972
 21
265.4874913319477
 31
0.0
  0
LINE
  5
18F
330
1F
100
AcDbEntity
  8
0
100
AcDbLine
 10
212.3653951537972
 20
265.4874913319477
 30
0.0
 11
209.812513316906
 21
268.9920209273228
 31
0.0
  0
LINE
  5
190
330
1F
100
AcDbEntity
  8
0
100
AcDbLine
 10
209.812513316906
 20
268.9920209273228
 30
0.0
 11
206.9489869726067
 21
272.9537703021892
 31
0.0
  0
LINE
  5
191
330
1F
100
AcDbEntity
  8
0
100
AcDbLine
 10
206.9489869726067
 20
272.9537703021892
 30
0.0
 11
203.8357320678597
 21
277.2891066893467
 31
0.0
  0
LINE
  5
192
330
1F
100
AcDbEntity
  8
0
100
AcDbLine
 10
203.8357320678597
 20
277.2891066893467
 30
0.0
 11
200.5336794507866
 21
281.9144047721752
 31
0.0
  0
LINE
  5
193
330
1F
100
AcDbEntity
  8
0
100
AcDbLine
 10
178.3836844814186
 20
313.1557099446186
 30
0.0
 11
177.2504660737877
 21
314.7474929615387
 31
0.0
  0
LINE
  5
194
330
1F
100
AcDbEntity
  8
0
100
AcDbLine
 10
305.9826109063988
 20
315.1242501958736
 30
0.0
 11
312.6937660825615
 21
316.9127620681652
 31
0.0
  0
LINE
  5
195
330
1F
100
AcDbEntity
  8
0
100
AcDbLine
 10
312.6937660825615
 20
316.9127620681652
 30
0.0
 11
313.6290523660546
 21
317.0487984939941
 31
0.0
  0
LINE
  5
196
330
1F
100
AcDbEntity
  8
0
100
AcDbLine
 10
323.4153601777916
 20
317.4627210869917
 30
0.0
 11
326.6882214200859
 21
317.5005812122949
 31
0.0
  0
LINE
  5
197
330
1F
100
AcDbEntity
  8
0
100
AcDbLine
 10
326.6882214200859
 20
317.5005812122949
 30
0.0
 11
330.4974052560692
 21
317.5262335612902
 31
0.0
  0
LINE
  5
198
330
1F
100
AcDbEntity
  8
0
100
AcDbLine
 10
330.4974052560692
 20
317.5262335612902
 30
0.0
 11
353.8190636289482
 21
317.5792798324951
 31
0.0
  0
LINE
  5
199
330
1F
100
AcDbEntity
  8
0
100
AcDbLine
 10
353.8190636289482
 20
317.5792798324951
 30
0.0
 11
366.2508639943962
 21
301.5202946885952
 31
0.0
  0
LINE
  5
19A
330
1F
100
AcDbEntity
  8
0
100
AcDbLine
 10
380.4008874547844
 20
254.1998170241245
 30
0.0
 11
380.4009470594293
 21
317.5792854204306
 31
0.0
  0
LINE
  5
19B
330
1F
100
AcDbEntity
  8
0
100
AcDbLine
 10
360.8979794633751
 20
261.1411131843456
 30
0.0
 11
361.9148049009209
 21
259.8010592087635
 31
0.0
  0
LINE
  5
19C
330
1F
100
AcDbEntity
  8
0
100
AcDbLine
 10
353.7977251661186
 20
270.4233817681202
 30
0.0
 11
360.8979794633751
 21
261.1411131843456
 31
0.0
  0
LINE
  5
19D
330
1F
100
AcDbEntity
  8
0
100
AcDbLine
 10
366.2508639943962
 20
301.5202946885952
 30
0.0
 11
335.7193979871636
 21
301.2373402639756
 31
0.0
  0
LINE
  5
19E
330
1F
100
AcDbEntity
  8
0
100
AcDbLine
 10
316.807291234768
 20
270.6997536047825
 30
0.0
 11
353.7977251661186
 21
270.4233817681202
 31
0.0
  0
LINE
  5
19F
330
1F
100
AcDbEntity
  8
0
100
AcDbLine
 10
335.7193979871636
 20
301.2373402639756
 30
0.0
 11
330.9665534150964
 21
301.1771581992039
 31
0.0
  0
LINE
  5
1A0
330
1F
100
AcDbEntity
  8
0
100
AcDbLine
 10
330.9665534150964
 20
301.1771581992039
 30
0.0
 11
326.8338057649498
 21
301.11108272518
 31
0.0
  0
LINE
  5
1A1
330
1F
100
AcDbEntity
  8
0
100
AcDbLine
 10
326.8338057649498
 20
301.11108272518
 30
0.0
 11
323.3125123632317
 21
301.0388791486153
 31
0.0
  0
LINE
  5
1A2
330
1F
100
AcDbEntity
  8
0
100
AcDbLine
 10
323.3125123632317
 20
301.0388791486153
 30
0.0
 11
320.3941795480613
 21
300.9603202268013
 31
0.0
  0
LINE
  5
1A3
330
1F
100
AcDbEntity
  8
0
100
AcDbLine
 10
313.9616164815788
 20
271.8015901669392
 30
0.0
 11
316.807291234768
 21
270.6997536047825
 31
0.0
  0
LINE
  5
1A4
330
1F
100
AcDbEntity
  8
0
100
AcDbLine
 10
320.3941795480613
 20
300.9603202268013
 30
0.0
 11
318.0701646459465
 21
300.8751712664493
 31
0.0
  0
LINE
  5
1A5
330
1F
100
AcDbEntity
  8
0
100
AcDbLine
 10
311.6054448736077
 20
272.8712551220783
 30
0.0
 11
313.9616164815788
 21
271.8015901669392
 31
0.0
  0
LINE
  5
1A6
330
1F
100
AcDbEntity
  8
0
100
AcDbLine
 10
309.5067206275826
 20
274.1476438864597
 30
0.0
 11
311.6054448736077
 21
272.8712551220783
 31
0.0
  0
LINE
  5
1A7
330
1F
100
AcDbEntity
  8
0
100
AcDbLine
 10
307.6774391782646
 20
275.6136350258716
 30
0.0
 11
309.5067206275826
 21
274.1476438864597
 31
0.0
  0
LINE
  5
1A8
330
1F
100
AcDbEntity
  8
0
100
AcDbLine
 10
312.3668942106133
 20
299.679427586449
 30
0.0
 11
310.378006423748
 21
298.6297152861484
 31
0.0
  0
LINE
  5
1A9
330
1F
100
AcDbEntity
  8
0
100
AcDbLine
 10
318.0701646459465
 20
300.8751712664493
 30
0.0
 11
316.3319143903618
 21
300.7832050248513
 31
0.0
  0
LINE
  5
1AA
330
1F
100
AcDbEntity
  8
0
100
AcDbLine
 10
316.3319143903618
 20
300.7832050248513
 30
0.0
 11
315.1708457124596
 21
300.6841905340085
 31
0.0
  0
LINE
  5
1AB
330
1F
100
AcDbEntity
  8
0
100
AcDbLine
 10
315.1708457124596
 20
300.6841905340085
 30
0.0
 11
314.578435148037
 21
300.5778968259224
 31
0.0
  0
LINE
  5
1AC
330
1F
100
AcDbEntity
  8
0
100
AcDbLine
 10
314.578435148037
 20
300.5778968259224
 30
0.0
 11
312.3668942106133
 21
299.679427586449
 31
0.0
  0
LINE
  5
1AD
330
1F
100
AcDbEntity
  8
0
100
AcDbLine
 10
310.378006423748
 20
298.6297152861484
 30
0.0
 11
308.6158249032861
 21
297.4333718344101
 31
0.0
  0
LINE
  5
1AE
330
1F
100
AcDbEntity
  8
0
100
AcDbLine
 10
306.1295661580925
 20
277.2521220072636
 30
0.0
 11
307.6774391782646
 21
275.6136350258716
 31
0.0
  0
LINE
  5
1AF
330
1F
100
AcDbEntity
  8
0
100
AcDbLine
 10
308.6158249032861
 20
297.4333718344101
 30
0.0
 11
307.0843878639107
 21
296.094990514172
 31
0.0
  0
LINE
  5
1B0
330
1F
100
AcDbEntity
  8
0
100
AcDbLine
 10
303.0298117053871
 20
287.4335452839264
 30
0.0
 11
302.9912624013787
 21
285.189069054974
 31
0.0
  0
LINE
  5
1B1
330
1F
100
AcDbEntity
  8
0
100
AcDbLine
 10
303.346893514431
 20
289.4131086691746
 30
0.0
 11
303.0298117053871
 21
287.4335452839264
 31
0.0
  0
LINE
  5
1B2
330
1F
100
AcDbEntity
  8
0
100
AcDbLine
 10
307.0843878639107
 20
296.094990514172
 30
0.0
 11
305.7877335203057
 21
294.619175784243
 31
0.0
  0
LINE
  5
1B3
330
1F
100
AcDbEntity
  8
0
100
AcDbLine
 10
303.9149555814629
 20
291.2736341282257
 30
0.0
 11
303.346893514431
 21
289.4131086691746
 31
0.0
  0
LINE
  5
1B4
330
1F
100
AcDbEntity
  8
0
100
AcDbLine
 10
305.7877335203057
 20
294.619175784243
 30
0.0
 11
304.7299000871544
 21
293.0105209275612
 31
0.0
  0
LINE
  5
1B5
330
1F
100
AcDbEntity
  8
0
100
AcDbLine
 10
304.7299000871544
 20
293.0105209275612
 30
0.0
 11
303.9149555814629
 21
291.2736341282257
 31
0.0
  0
LINE
  5
1B6
330
1F
100
AcDbEntity
  8
0
100
AcDbLine
 10
303.2939496887092
 20
283.0315895303615
 30
0.0
 11
303.9258483302956
 21
280.9782020672687
 31
0.0
  0
LINE
  5
1B7
330
1F
100
AcDbEntity
  8
0
100
AcDbLine
 10
302.9912624013787
 20
285.189069054974
 30
0.0
 11
303.2939496887092
 21
283.0315895303615
 31
0.0
  0
LINE
  5
1B8
330
1F
100
AcDbEntity
  8
0
100
AcDbLine
 10
303.9258483302956
 20
280.9782020672687
 30
0.0
 11
304.8750522983436
 21
279.0460131987461
 31
0.0
  0
LINE
  5
1B9
330
1F
100
AcDbEntity
  8
0
100
AcDbLine
 10
304.8750522983436
 20
279.0460131987461
 30
0.0
 11
306.1295661580925
 21
277.2521220072636
 31
0.0
  0
LINE
  5
1BA
330
1F
100
AcDbEntity
  8
0
100
AcDbLine
 10
361.9148049009209
 20
259.8010592087635
 30
0.0
 11
362.8522667539482
 21
258.5579223855862
 31
0.0
  0
LINE
  5
1BB
330
1F
100
AcDbEntity
  8
0
100
AcDbLine
 10
362.8522667539482
 20
258.5579223855862
 30
0.0
 11
363.6931690824395
 21
257.4350677355656
 31
0.0
  0
LINE
  5
1BC
330
1F
100
AcDbEntity
  8
0
100
AcDbLine
 10
363.6931690824395
 20
257.4350677355656
 30
0.0
 11
364.4200179231529
 21
256.4558751806148
 31
0.0
  0
LINE
  5
1BD
330
1F
100
AcDbEntity
  8
0
100
AcDbLine
 10
364.4200179231529
 20
256.4558751806148
 30
0.0
 11
365.0155577314263
 21
255.6436873897442
 31
0.0
  0
LINE
  5
1BE
330
1F
100
AcDbEntity
  8
0
100
AcDbLine
 10
365.0155577314263
 20
255.6436873897442
 30
0.0
 11
365.4624435556298
 21
255.0218917354473
 31
0.0
  0
LINE
  5
1BF
330
1F
100
AcDbEntity
  8
0
100
AcDbLine
 10
365.4624435556298
 20
255.0218917354473
 30
0.0
 11
365.7432708394891
 21
254.6138532384761
 31
0.0
  0
LINE
  5
1C0
330
1F
100
AcDbEntity
  8
0
100
AcDbLine
 10
365.7432708394891
 20
254.6138532384761
 30
0.0
 11
365.8407244336968
 21
254.4429294690021
 31
0.0
  0
LINE
  5
1C1
330
1F
100
AcDbEntity
  8
0
100
AcDbLine
 10
365.4395851743584
 20
254.3993733748325
 30
0.0
 11
364.2838213098411
 21
254.3583206757434
 31
0.0
  0
LINE
  5
1C2
330
1F
100
AcDbEntity
  8
0
100
AcDbLine
 10
364.2838213098411
 20
254.3583206757434
 30
0.0
 11
362.4447199952965
 21
254.3204717263111
 31
0.0
  0
LINE
  5
1C3
330
1F
100
AcDbEntity
  8
0
100
AcDbLine
 10
362.4447199952965
 20
254.3204717263111
 30
0.0
 11
359.9937173974876
 21
254.2865268811115
 31
0.0
  0
LINE
  5
1C4
330
1F
100
AcDbEntity
  8
0
100
AcDbLine
 10
359.9937173974876
 20
254.2865268811115
 30
0.0
 11
357.002249683178
 21
254.2571715935596
 31
0.0
  0
LINE
  5
1C5
330
1F
100
AcDbEntity
  8
0
100
AcDbLine
 10
357.002249683178
 20
254.2571715935596
 30
0.0
 11
353.5416338098412
 21
254.2331285699734
 31
0.0
  0
LINE
  5
1C6
330
1F
100
AcDbEntity
  8
0
100
AcDbLine
 10
353.5416338098412
 20
254.2331285699734
 30
0.0
 11
349.6832761419182
 21
254.2150907143482
 31
0.0
  0
LINE
  5
1C7
330
1F
100
AcDbEntity
  8
0
100
AcDbLine
 10
349.6832761419182
 20
254.2150907143482
 30
0.0
 11
345.49858304385
 21
254.2037509306797
 31
0.0
  0
LINE
  5
1C8
330
1F
100
AcDbEntity
  8
0
100
AcDbLine
 10
345.49858304385
 20
254.2037509306797
 30
0.0
 11
341.0589608800774
 21
254.1998170241245
 31
0.0
  0
LINE
  5
1C9
330
1F
100
AcDbEntity
  8
0
100
AcDbLine
 10
341.0589608800774
 20
254.1998170241245
 30
0.0
 11
332.8132245195275
 21
254.206850372208
 31
0.0
  0
LINE
  5
1CA
330
1F
100
AcDbEntity
  8
0
100
AcDbLine
 10
326.2430045259362
 20
254.2414210661777
 30
0.0
 11
321.0822257650262
 21
254.323727630032
 31
0.0
  0
LINE
  5
1CB
330
1F
100
AcDbEntity
  8
0
100
AcDbLine
 10
321.0822257650262
 20
254.323727630032
 30
0.0
 11
317.0648429048424
 21
254.4739611371884
 31
0.0
  0
LINE
  5
1CC
330
1F
100
AcDbEntity
  8
0
100
AcDbLine
 10
317.0648429048424
 20
254.4739611371884
 30
0.0
 11
313.9248106134301
 21
254.7123275622257
 31
0.0
  0
LINE
  5
1CD
330
1F
100
AcDbEntity
  8
0
100
AcDbLine
 10
313.9248106134301
 20
254.7123275622257
 30
0.0
 11
311.3960537565117
 21
255.0590030774006
 31
0.0
  0
LINE
  5
1CE
330
1F
100
AcDbEntity
  8
0
100
AcDbLine
 10
311.3960537565117
 20
255.0590030774006
 30
0.0
 11
309.2125419032936
 21
255.534208558453
 31
0.0
  0
LINE
  5
1CF
330
1F
100
AcDbEntity
  8
0
100
AcDbLine
 10
309.2125419032936
 20
255.534208558453
 30
0.0
 11
307.1081999194984
 21
256.1581201776394
 31
0.0
  0
LINE
  5
1D0
330
1F
100
AcDbEntity
  8
0
100
AcDbLine
 10
380.4009470594293
 20
317.5792854204306
 30
0.0
 11
400.1733872545129
 21
317.5792854204306
 31
0.0
  0
LINE
  5
1D1
330
1F
100
AcDbEntity
  8
0
100
AcDbLine
 10
430.719039167202
 20
317.5593141391405
 30
0.0
 11
449.2811176431542
 21
317.5681412145027
 31
0.0
  0
LINE
  5
1D2
330
1F
100
AcDbEntity
  8
0
100
AcDbLine
 10
409.2986795556909
 20
298.8618716522583
 30
0.0
 11
411.1428770673638
 21
300.4890300258526
 31
0.0
  0
LINE
  5
1D3
330
1F
100
AcDbEntity
  8
0
100
AcDbLine
 10
411.1428770673638
 20
300.4890300258526
 30
0.0
 11
413.1161186349755
 21
302.2242702468761
 31
0.0
  0
LINE
  5
1D4
330
1F
100
AcDbEntity
  8
0
100
AcDbLine
 10
400.1733872545129
 20
317.5792854204306
 30
0.0
 11
400.0061664235955
 21
301.672830425156
 31
0.0
  0
LINE
  5
1D5
330
1F
100
AcDbEntity
  8
0
100
AcDbLine
 10
413.1161186349755
 20
302.2242702468761
 30
0.0
 11
415.1745352399711
 21
304.0287636145481
 31
0.0
  0
LINE
  5
1D6
330
1F
100
AcDbEntity
  8
0
100
AcDbLine
 10
415.1745352399711
 20
304.0287636145481
 30
0.0
 11
417.2740492475396
 21
305.8636665269264
 31
0.0
  0
LINE
  5
1D7
330
1F
100
AcDbEntity
  8
0
100
AcDbLine
 10
407.6277229440576
 20
297.3816163762936
 30
0.0
 11
409.2986795556909
 21
298.8618716522583
 31
0.0
  0
LINE
  5
1D8
330
1F
100
AcDbEntity
  8
0
100
AcDbLine
 10
400.0061664235955
 20
301.672830425156
 30
0.0
 11
399.9883446348076
 21
299.3949346169361
 31
0.0
  0
LINE
  5
1D9
330
1F
100
AcDbEntity
  8
0
100
AcDbLine
 10
406.1738762510185
 20
296.0871003493198
 30
0.0
 11
407.6277229440576
 21
297.3816163762936
 31
0.0
  0
LINE
  5
1DA
330
1F
100
AcDbEntity
  8
0
100
AcDbLine
 10
399.9883446348076
 20
299.3949346169361
 30
0.0
 11
399.9763044965629
 21
297.2946941777595
 31
0.0
  0
LINE
  5
1DB
330
1F
100
AcDbEntity
  8
0
100
AcDbLine
 10
404.981187309063
 20
295.0171485468277
 30
0.0
 11
406.1738762510185
 21
296.0871003493198
 31
0.0
  0
LINE
  5
1DC
330
1F
100
AcDbEntity
  8
0
100
AcDbLine
 10
404.0936741483575
 20
294.2106008454689
 30
0.0
 11
404.981187309063
 21
295.0171485468277
 31
0.0
  0
LINE
  5
1DD
330
1F
100
AcDbEntity
  8
0
100
AcDbLine
 10
399.9763044965629
 20
297.2946941777595
 30
0.0
 11
399.9700460088616
 21
295.410960160149
 31
0.0
  0
LINE
  5
1DE
330
1F
100
AcDbEntity
  8
0
100
AcDbLine
 10
403.3875975263482
 20
293.5637935921081
 30
0.0
 11
404.0936741483575
 21
294.2106008454689
 31
0.0
  0
LINE
  5
1DF
330
1F
100
AcDbEntity
  8
0
100
AcDbLine
 10
402.7176711213952
 20
292.9541274830231
 30
0.0
 11
403.3875975263482
 21
293.5637935921081
 31
0.0
  0
LINE
  5
1E0
330
1F
100
AcDbEntity
  8
0
100
AcDbLine
 10
399.9700460088616
 20
295.410960160149
 30
0.0
 11
399.9695095670586
 21
293.782594792498
 31
0.0
  0
LINE
  5
1E1
330
1F
100
AcDbEntity
  8
0
100
AcDbLine
 10
402.0956966531639
 20
292.3919923528561
 30
0.0
 11
402.7176711213952
 21
292.9541274830231
 31
0.0
  0
LINE
  5
1E2
330
1F
100
AcDbEntity
  8
0
100
AcDbLine
 10
399.9695095670586
 20
293.782594792498
 30
0.0
 11
399.9747845781213
 21
292.4484528526195
 31
0.0
  0
LINE
  5
1E3
330
1F
100
AcDbEntity
  8
0
100
AcDbLine
 10
401.5332672250634
 20
291.8878003879913
 30
0.0
 11
402.0956966531639
 21
292.3919923528561
 31
0.0
  0
LINE
  5
1E4
330
1F
100
AcDbEntity
  8
0
100
AcDbLine
 10
401.0421845567589
 20
291.4519488736519
 30
0.0
 11
401.5332672250634
 21
291.8878003879913
 31
0.0
  0
LINE
  5
1E5
330
1F
100
AcDbEntity
  8
0
100
AcDbLine
 10
399.9747845781213
 20
292.4484528526195
 30
0.0
 11
399.9858710420495
 21
291.4473928436169
 31
0.0
  0
LINE
  5
1E6
330
1F
100
AcDbEntity
  8
0
100
AcDbLine
 10
400.6341013563043
 20
291.094838820351
 30
0.0
 11
401.0421845567589
 21
291.4519488736519
 31
0.0
  0
LINE
  5
1E7
330
1F
100
AcDbEntity
  8
0
100
AcDbLine
 10
400.3208193433647
 20
290.8268675133118
 30
0.0
 11
400.6341013563043
 21
291.094838820351
 31
0.0
  0
LINE
  5
1E8
330
1F
100
AcDbEntity
  8
0
100
AcDbLine
 10
399.9858710420495
 20
291.4473928436169
 30
0.0
 11
400.0027093541984
 21
290.8182769938835
 31
0.0
  0
LINE
  5
1E9
330
1F
100
AcDbEntity
  8
0
100
AcDbLine
 10
400.1140210283165
 20
290.6584434136279
 30
0.0
 11
400.3208193433647
 21
290.8268675133118
 31
0.0
  0
LINE
  5
1EA
330
1F
100
AcDbEntity
  8
0
100
AcDbLine
 10
400.0027093541984
 20
290.8182769938835
 30
0.0
 11
400.0253889215355
 21
290.5999638065227
 31
0.0
  0
LINE
  5
1EB
330
1F
100
AcDbEntity
  8
0
100
AcDbLine
 10
400.0253889215355
 20
290.5999638065227
 30
0.0
 11
400.1140210283165
 21
290.6584434136279
 31
0.0
  0
LINE
  5
1EC
330
1F
100
AcDbEntity
  8
0
100
AcDbLine
 10
417.2740492475396
 20
305.8636665269264
 30
0.0
 11
430.719039167202
 21
317.5593141391405
 31
0.0
  0
LINE
  5
1ED
330
1F
100
AcDbEntity
  8
0
100
AcDbLine
 10
449.2811176431542
 20
317.5681412145027
 30
0.0
 11
452.3773703229791
 21
317.5572968944439
 31
0.0
  0
LINE
  5
1EE
330
1F
100
AcDbEntity
  8
0
100
AcDbLine
 10
452.3773703229791
 20
317.5572968944439
 30
0.0
 11
454.8304888856774
 21
317.534157253755
 31
0.0
  0
LINE
  5
1EF
330
1F
100
AcDbEntity
  8
0
100
AcDbLine
 10
454.8304888856774
 20
317.534157253755
 30
0.0
 11
456.7041608941918
 21
317.4961108639368
 31
0.0
  0
LINE
  5
1F0
330
1F
100
AcDbEntity
  8
0
100
AcDbLine
 10
456.7041608941918
 20
317.4961108639368
 30
0.0
 11
458.0620739114647
 21
317.4405556097158
 31
0.0
  0
LINE
  5
1F1
330
1F
100
AcDbEntity
  8
0
100
AcDbLine
 10
458.0620739114647
 20
317.4405556097158
 30
0.0
 11
458.9679155004388
 21
317.3648837878832
 31
0.0
  0
LINE
  5
1F2
330
1F
100
AcDbEntity
  8
0
100
AcDbLine
 10
458.9679155004388
 20
317.3648837878832
 30
0.0
 11
459.4854030263787
 21
317.2664914205202
 31
0.0
  0
LINE
  5
1F3
330
1F
100
AcDbEntity
  8
0
100
AcDbLine
 10
459.4854030263787
 20
317.2664914205202
 30
0.0
 11
459.6781644475822
 21
317.1427745297083
 31
0.0
  0
LINE
  5
1F4
330
1F
100
AcDbEntity
  8
0
100
AcDbLine
 10
459.6781644475822
 20
317.1427745297083
 30
0.0
 11
459.6099469316368
 21
316.9911235495933
 31
0.0
  0
LINE
  5
1F5
330
1F
100
AcDbEntity
  8
0
100
AcDbLine
 10
459.6099469316368
 20
316.9911235495933
 30
0.0
 11
458.002826894558
 21
315.6443975790866
 31
0.0
  0
LINE
  5
1F6
330
1F
100
AcDbEntity
  8
0
100
AcDbLine
 10
458.002826894558
 20
315.6443975790866
 30
0.0
 11
454.654506171978
 21
312.9394158645996
 31
0.0
  0
LINE
  5
1F7
330
1F
100
AcDbEntity
  8
0
100
AcDbLine
 10
475.1434836042291
 20
282.8548170551189
 30
0.0
 11
475.8047375333671
 21
283.8762916549572
 31
0.0
  0
LINE
  5
1F8
330
1F
100
AcDbEntity
  8
0
100
AcDbLine
 10
475.8047375333671
 20
283.8762916549572
 30
0.0
 11
476.5427920472984
 21
284.8411790951618
 31
0.0
  0
LINE
  5
1F9
330
1F
100
AcDbEntity
  8
0
100
AcDbLine
 10
454.654506171978
 20
312.9394158645996
 30
0.0
 11
450.0384840619927
 21
309.2506408616432
 31
0.0
  0
LINE
  5
1FA
330
1F
100
AcDbEntity
  8
0
100
AcDbLine
 10
476.5427920472984
 20
284.8411790951618
 30
0.0
 11
477.3560378206139
 21
285.7480078860648
 31
0.0
  0
LINE
  5
1FB
330
1F
100
AcDbEntity
  8
0
100
AcDbLine
 10
450.0384840619927
 20
309.2506408616432
 30
0.0
 11
444.6281704557305
 21
304.9525536521801
 31
0.0
  0
LINE
  5
1FC
330
1F
100
AcDbEntity
  8
0
100
AcDbLine
 10
474.5604905736809
 20
281.7782379611858
 30
0.0
 11
475.1434836042291
 21
282.8548170551189
 31
0.0
  0
LINE
  5
1FD
330
1F
100
AcDbEntity
  8
0
100
AcDbLine
 10
473.2437643659478
 20
277.8380356654056
 30
0.0
 11
473.365626062191
 21
278.5258658155331
 31
0.0
  0
LINE
  5
1FE
330
1F
100
AcDbEntity
  8
0
100
AcDbLine
 10
473.365626062191
 20
278.5258658155331
 30
0.0
 11
473.518601383007
 21
279.1680164560207
 31
0.0
  0
LINE
  5
1FF
330
1F
100
AcDbEntity
  8
0
100
AcDbLine
 10
473.518601383007
 20
279.1680164560207
 30
0.0
 11
473.7086507928734
 21
279.7894246801266
 31
0.0
  0
LINE
  5
200
330
1F
100
AcDbEntity
  8
0
100
AcDbLine
 10
444.6281704557305
 20
304.9525536521801
 30
0.0
 11
438.8970348489647
 21
300.4196241423019
 31
0.0
  0
LINE
  5
201
330
1F
100
AcDbEntity
  8
0
100
AcDbLine
 10
473.7086507928734
 20
279.7894246801266
 30
0.0
 11
473.9417049539451
 21
280.4149754270443
 31
0.0
  0
LINE
  5
202
330
1F
100
AcDbEntity
  8
0
100
AcDbLine
 10
473.9417049539451
 20
280.4149754270443
 30
0.0
 11
474.2236647260551
 21
281.0696132406124
 31
0.0
  0
LINE
  5
203
330
1F
100
AcDbEntity
  8
0
100
AcDbLine
 10
437.5561687600975
 20
269.6225933655628
 30
0.0
 11
443.1871685636406
 21
265.4589928611645
 31
0.0
  0
LINE
  5
204
330
1F
100
AcDbEntity
  8
0
100
AcDbLine
 10
438.8970348489647
 20
300.4196241423019
 30
0.0
 11
433.3185467374688
 21
296.0263334139713
 31
0.0
  0
LINE
  5
205
330
1F
100
AcDbEntity
  8
0
100
AcDbLine
 10
432.1036550653344
 20
273.6377559527286
 30
0.0
 11
437.5561687600975
 21
269.6225933655628
 31
0.0
  0
LINE
  5
206
330
1F
100
AcDbEntity
  8
0
100
AcDbLine
 10
433.3185467374688
 20
296.0263334139713
 30
0.0
 11
428.3661458146935
 21
292.1471476479896
 31
0.0
  0
LINE
  5
207
330
1F
100
AcDbEntity
  8
0
100
AcDbLine
 10
427.3204717290765
 20
277.1414883359798
 30
0.0
 11
432.1036550653344
 21
273.6377559527286
 31
0.0
  0
LINE
  5
208
330
1F
100
AcDbEntity
  8
0
100
AcDbLine
 10
428.3661458146935
 20
292.1471476479896
 30
0.0
 11
424.5133313787346
 21
289.1565442010292
 31
0.0
  0
LINE
  5
209
330
1F
100
AcDbEntity
  8
0
100
AcDbLine
 10
423.6976418149834
 20
279.7707684263119
 30
0.0
 11
427.3204717290765
 21
277.1414883359798
 31
0.0
  0
LINE
  5
20A
330
1F
100
AcDbEntity
  8
0
100
AcDbLine
 10
424.5133313787346
 20
289.1565442010292
 30
0.0
 11
422.2335133207208
 21
287.428996704472
 31
0.0
  0
LINE
  5
20B
330
1F
100
AcDbEntity
  8
0
100
AcDbLine
 10
421.726039375103
 20
281.1626188382039
 30
0.0
 11
423.6976418149834
 21
279.7707684263119
 31
0.0
  0
LINE
  5
20C
330
1F
100
AcDbEntity
  8
0
100
AcDbLine
 10
422.2335133207208
 20
287.428996704472
 30
0.0
 11
421.4094493043785
 21
286.8205599411853
 31
0.0
  0
LINE
  5
20D
330
1F
100
AcDbEntity
  8
0
100
AcDbLine
 10
421.1066279065972
 20
281.5750978812108
 30
0.0
 11
421.726039375103
 21
281.1626188382039
 31
0.0
  0
LINE
  5
20E
330
1F
100
AcDbEntity
  8
0
100
AcDbLine
 10
421.4094493043785
 20
286.8205599411853
 30
0.0
 11
420.6436488283043
 21
286.2372688874134
 31
0.0
  0
LINE
  5
20F
330
1F
100
AcDbEntity
  8
0
100
AcDbLine
 10
420.5118331563835
 20
281.9736890419849
 30
0.0
 11
421.1066279065972
 21
281.5750978812108
 31
0.0
  0
LINE
  5
210
330
1F
100
AcDbEntity
  8
0
100
AcDbLine
 10
420.6436488283043
 20
286.2372688874134
 30
0.0
 11
419.9484798562889
 21
285.689733169926
 31
0.0
  0
LINE
  5
211
330
1F
100
AcDbEntity
  8
0
100
AcDbLine
 10
419.9525627744561
 20
282.350934289349
 30
0.0
 11
420.5118331563835
 21
281.9736890419849
 31
0.0
  0
LINE
  5
212
330
1F
100
AcDbEntity
  8
0
100
AcDbLine
 10
419.9484798562889
 20
285.689733169926
 30
0.0
 11
419.3362209451562
 21
285.1885475143322
 31
0.0
  0
LINE
  5
213
330
1F
100
AcDbEntity
  8
0
100
AcDbLine
 10
419.4396350038414
 20
282.6993755921253
 30
0.0
 11
419.9525627744561
 21
282.350934289349
 31
0.0
  0
LINE
  5
214
330
1F
100
AcDbEntity
  8
0
100
AcDbLine
 10
418.9839574945336
 20
283.0115772708782
 30
0.0
 11
419.4396350038414
 21
282.6993755921253
 31
0.0
  0
LINE
  5
215
330
1F
100
AcDbEntity
  8
0
100
AcDbLine
 10
419.3362209451562
 20
285.1885475143322
 30
0.0
 11
418.8192996633415
 21
284.7443066462406
 31
0.0
  0
LINE
  5
216
330
1F
100
AcDbEntity
  8
0
100
AcDbLine
 10
418.5963782918816
 20
283.2800812944301
 30
0.0
 11
418.9839574945336
 21
283.0115772708782
 31
0.0
  0
LINE
  5
217
330
1F
100
AcDbEntity
  8
0
100
AcDbLine
 10
418.8192996633415
 20
284.7443066462406
 30
0.0
 11
418.4099945676689
 21
284.3676276430019
 31
0.0
  0
LINE
  5
218
330
1F
100
AcDbEntity
  8
0
100
AcDbLine
 10
418.2878050458795
 20
283.4974370821843
 30
0.0
 11
418.5963782918816
 21
283.2800812944301
 31
0.0
  0
LINE
  5
219
330
1F
100
AcDbEntity
  8
0
100
AcDbLine
 10
418.4099945676689
 20
284.3676276430019
 30
0.0
 11
418.1206140172844
 21
284.069105230225
 31
0.0
  0
LINE
  5
21A
330
1F
100
AcDbEntity
  8
0
100
AcDbLine
 10
418.069085801876
 20
283.6562015041241
 30
0.0
 11
418.2878050458795
 21
283.4974370821843
 31
0.0
  0
LINE
  5
21B
330
1F
100
AcDbEntity
  8
0
100
AcDbLine
 10
418.1206140172844
 20
284.069105230225
 30
0.0
 11
417.9635557783013
 21
283.859326682938
 31
0.0
  0
LINE
  5
21C
330
1F
100
AcDbEntity
  8
0
100
AcDbLine
 10
417.9635557783013
 20
283.859326682938
 30
0.0
 11
417.9510984075432
 21
283.7489090784916
 31
0.0
  0
LINE
  5
21D
330
1F
100
AcDbEntity
  8
0
100
AcDbLine
 10
417.9510984075432
 20
283.7489090784916
 30
0.0
 11
418.069085801876
 21
283.6562015041241
 31
0.0
  0
LINE
  5
21E
330
1F
100
AcDbEntity
  8
0
100
AcDbLine
 10
472.9513737810021
 20
273.8093875273594
 30
0.0
 11
473.0054649961357
 21
275.2512909397014
 31
0.0
  0
LINE
  5
21F
330
1F
100
AcDbEntity
  8
0
100
AcDbLine
 10
473.0054649961357
 20
275.2512909397014
 30
0.0
 11
473.0696293962365
 21
276.2256704195865
 31
0.0
  0
LINE
  5
220
330
1F
100
AcDbEntity
  8
0
100
AcDbLine
 10
443.1871685636406
 20
265.4589928611645
 30
0.0
 11
448.505631412304
 21
261.5099616273769
 31
0.0
  0
LINE
  5
221
330
1F
100
AcDbEntity
  8
0
100
AcDbLine
 10
473.0696293962365
 20
276.2256704195865
 30
0.0
 11
473.1470856321221
 21
277.0796038135418
 31
0.0
  0
LINE
  5
222
330
1F
100
AcDbEntity
  8
0
100
AcDbLine
 10
473.1470856321221
 20
277.0796038135418
 30
0.0
 11
473.2437643659478
 21
277.8380356654056
 31
0.0
  0
LINE
  5
223
330
1F
100
AcDbEntity
  8
0
100
AcDbLine
 10
473.4203729284173
 20
268.8630215748676
 30
0.0
 11
473.193130220211
 21
270.0125940069088
 31
0.0
  0
LINE
  5
224
330
1F
100
AcDbEntity
  8
0
100
AcDbLine
 10
473.193130220211
 20
270.0125940069088
 30
0.0
 11
473.041615213192
 21
271.2081216200718
 31
0.0
  0
LINE
  5
225
330
1F
100
AcDbEntity
  8
0
100
AcDbLine
 10
448.505631412304
 20
261.5099616273769
 30
0.0
 11
453.0206832540397
 21
258.1385068520435
 31
0.0
  0
LINE
  5
226
330
1F
100
AcDbEntity
  8
0
100
AcDbLine
 10
473.041615213192
 20
271.2081216200718
 30
0.0
 11
472.9622218263511
 21
272.4676944240459
 31
0.0
  0
LINE
  5
227
330
1F
100
AcDbEntity
  8
0
100
AcDbLine
 10
472.9622218263511
 20
272.4676944240459
 30
0.0
 11
472.9513737810021
 21
273.8093875273594
 31
0.0
  0
LINE
  5
228
330
1F
100
AcDbEntity
  8
0
100
AcDbLine
 10
453.0206832540397
 20
258.1385068520435
 30
0.0
 11
456.2413606298332
 21
255.7076059206852
 31
0.0
  0
LINE
  5
229
330
1F
100
AcDbEntity
  8
0
100
AcDbLine
 10
473.7268302095299
 20
267.7413217648396
 30
0.0
 11
473.4203729284173
 21
268.8630215748676
 31
0.0
  0
LINE
  5
22A
330
1F
100
AcDbEntity
  8
0
100
AcDbLine
 10
456.2413606298332
 20
255.7076059206852
 30
0.0
 11
457.6767298829918
 21
254.5802958234676
 31
0.0
  0
LINE
  5
22B
330
1F
100
AcDbEntity
  8
0
100
AcDbLine
 10
474.1161677492028
 20
266.6294120177158
 30
0.0
 11
473.7268302095299
 21
267.7413217648396
 31
0.0
  0
LINE
  5
22C
330
1F
100
AcDbEntity
  8
0
100
AcDbLine
 10
488.9424655092125
 20
255.1184289082417
 30
0.0
 11
487.9624459398155
 21
255.4024301394352
 31
0.0
  0
LINE
  5
22D
330
1F
100
AcDbEntity
  8
0
100
AcDbLine
 10
487.9624459398155
 20
255.4024301394352
 30
0.0
 11
485.8206126344567
 21
256.1147428974041
 31
0.0
  0
LINE
  5
22E
330
1F
100
AcDbEntity
  8
0
100
AcDbLine
 10
457.6767298829918
 20
254.5802958234676
 30
0.0
 11
457.5396988046531
 21
254.5086882933506
 31
0.0
  0
LINE
  5
22F
330
1F
100
AcDbEntity
  8
0
100
AcDbLine
 10
485.8206126344567
 20
256.1147428974041
 30
0.0
 11
483.8819417608148
 21
256.8815268501171
 31
0.0
  0
LINE
  5
230
330
1F
100
AcDbEntity
  8
0
100
AcDbLine
 10
483.8819417608148
 20
256.8815268501171
 30
0.0
 11
482.136389936245
 21
257.7097780927547
 31
0.0
  0
LINE
  5
231
330
1F
100
AcDbEntity
  8
0
100
AcDbLine
 10
456.9887134683495
 20
254.4426016434559
 30
0.0
 11
456.0517880571251
 21
254.3828256353268
 31
0.0
  0
LINE
  5
232
330
1F
100
AcDbEntity
  8
0
100
AcDbLine
 10
457.5396988046531
 20
254.5086882933506
 30
0.0
 11
456.9887134683495
 21
254.4426016434559
 31
0.0
  0
LINE
  5
233
330
1F
100
AcDbEntity
  8
0
100
AcDbLine
 10
491.4043459546929
 20
254.7247700318226
 30
0.0
 11
489.995619977749
 21
254.8954777344593
 31
0.0
  0
LINE
  5
234
330
1F
100
AcDbEntity
  8
0
100
AcDbLine
 10
489.995619977749
 20
254.8954777344593
 30
0.0
 11
488.9424655092125
 21
255.1184289082417
 31
0.0
  0
LINE
  5
235
330
1F
100
AcDbEntity
  8
0
100
AcDbLine
 10
456.0517880571251
 20
254.3828256353268
 30
0.0
 11
454.7569665563469
 21
254.3301351293453
 31
0.0
  0
LINE
  5
236
330
1F
100
AcDbEntity
  8
0
100
AcDbLine
 10
454.7569665563469
 20
254.3301351293453
 30
0.0
 11
453.1322333467369
 21
254.2852826341518
 31
0.0
  0
LINE
  5
237
330
1F
100
AcDbEntity
  8
0
100
AcDbLine
 10
453.1322333467369
 20
254.2852826341518
 30
0.0
 11
451.2055132043724
 21
254.2490430101284
 31
0.0
  0
LINE
  5
238
330
1F
100
AcDbEntity
  8
0
100
AcDbLine
 10
451.2055132043724
 20
254.2490430101284
 30
0.0
 11
449.0049693239098
 21
254.2222060188183
 31
0.0
  0
LINE
  5
239
330
1F
100
AcDbEntity
  8
0
100
AcDbLine
 10
449.0049693239098
 20
254.2222060188183
 30
0.0
 11
446.5584668767815
 21
254.2055465206035
 31
0.0
  0
LINE
  5
23A
330
1F
100
AcDbEntity
  8
0
100
AcDbLine
 10
429.7045979154472
 20
254.1998170241245
 30
0.0
 11
415.1121887815362
 21
266.5943719371685
 31
0.0
  0
LINE
  5
23B
330
1F
100
AcDbEntity
  8
0
100
AcDbLine
 10
407.0163581025964
 20
273.5146127566227
 30
0.0
 11
405.4357919347649
 21
274.8753569945225
 31
0.0
  0
LINE
  5
23C
330
1F
100
AcDbEntity
  8
0
100
AcDbLine
 10
405.4357919347649
 20
274.8753569945225
 30
0.0
 11
404.1184994829064
 21
276.0146103724369
 31
0.0
  0
LINE
  5
23D
330
1F
100
AcDbEntity
  8
0
100
AcDbLine
 10
404.1184994829064
 20
276.0146103724369
 30
0.0
 11
403.1074854982263
 21
276.8955074175724
 31
0.0
  0
LINE
  5
23E
330
1F
100
AcDbEntity
  8
0
100
AcDbLine
 10
403.1074854982263
 20
276.8955074175724
 30
0.0
 11
399.8667809617883
 21
279.8034019693264
 31
0.0
  0
LINE
  5
23F
330
1F
100
AcDbEntity
  8
0
100
AcDbLine
 10
399.8667809617883
 20
279.8034019693264
 30
0.0
 11
400.1999113214379
 21
254.1998170241245
 31
0.0
  0
LINE
  5
240
330
1F
100
AcDbEntity
  8
0
100
AcDbLine
 10
556.2841210019952
 20
303.6315359100231
 30
0.0
 11
556.8758759153252
 21
300.8834749385246
 31
0.0
  0
LINE
  5
241
330
1F
100
AcDbEntity
  8
0
100
AcDbLine
 10
556.8758759153252
 20
300.8834749385246
 30
0.0
 11
557.1119401109582
 21
298.8577142282852
 31
0.0
  0
LINE
  5
242
330
1F
100
AcDbEntity
  8
0
100
AcDbLine
 10
572.8946540010338
 20
285.2471910342106
 30
0.0
 11
572.6701829088097
 21
317.5792798324951
 31
0.0
  0
LINE
  5
243
330
1F
100
AcDbEntity
  8
0
100
AcDbLine
 10
557.1119401109582
 20
298.8577142282852
 30
0.0
 11
557.1921381605034
 21
296.9284608885177
 31
0.0
  0
LINE
  5
244
330
1F
100
AcDbEntity
  8
0
100
AcDbLine
 10
557.1921381605034
 20
296.9284608885177
 30
0.0
 11
557.1166786802179
 21
295.0963295921215
 31
0.0
  0
LINE
  5
245
330
1F
100
AcDbEntity
  8
0
100
AcDbLine
 10
557.1166786802179
 20
295.0963295921215
 30
0.0
 11
556.8856510770682
 21
293.3619350119957
 31
0.0
  0
LINE
  5
246
330
1F
100
AcDbEntity
  8
0
100
AcDbLine
 10
556.8856510770682
 20
293.3619350119957
 30
0.0
 11
556.4992639673119
 21
291.7258880957493
 31
0.0
  0
LINE
  5
247
330
1F
100
AcDbEntity
  8
0
100
AcDbLine
 10
556.4992639673119
 20
291.7258880957493
 30
0.0
 11
555.9575769555933
 21
290.1887960657009
 31
0.0
  0
LINE
  5
248
330
1F
100
AcDbEntity
  8
0
100
AcDbLine
 10
555.9575769555933
 20
290.1887960657009
 30
0.0
 11
555.2608284604912
 21
288.7512735947498
 31
0.0
  0
LINE
  5
249
330
1F
100
AcDbEntity
  8
0
100
AcDbLine
 10
555.2608284604912
 20
288.7512735947498
 30
0.0
 11
554.4091078889733
 21
287.4139279052147
 31
0.0
  0
LINE
  5
24A
330
1F
100
AcDbEntity
  8
0
100
AcDbLine
 10
554.4091078889733
 20
287.4139279052147
 30
0.0
 11
553.4025642526512
 21
286.1773624941238
 31
0.0
  0
LINE
  5
24B
330
1F
100
AcDbEntity
  8
0
100
AcDbLine
 10
553.4025642526512
 20
286.1773624941238
 30
0.0
 11
552.5625559938317
 21
285.3129424079784
 31
0.0
  0
LINE
  5
24C
330
1F
100
AcDbEntity
  8
0
100
AcDbLine
 10
552.5625559938317
 20
285.3129424079784
 30
0.0
 11
551.6907784593467
 21
284.5273010357746
 31
0.0
  0
LINE
  5
24D
330
1F
100
AcDbEntity
  8
0
100
AcDbLine
 10
551.6907784593467
 20
284.5273010357746
 30
0.0
 11
550.7753107202417
 21
283.81366952504
 31
0.0
  0
LINE
  5
24E
330
1F
100
AcDbEntity
  8
0
100
AcDbLine
 10
549.740514482296
 20
261.5480638965496
 30
0.0
 11
550.7331702363854
 21
260.2442271932491
 31
0.0
  0
LINE
  5
24F
330
1F
100
AcDbEntity
  8
0
100
AcDbLine
 10
550.7753107202417
 20
283.81366952504
 30
0.0
 11
549.8042914522057
 21
283.1652976497539
 31
0.0
  0
LINE
  5
250
330
1F
100
AcDbEntity
  8
0
100
AcDbLine
 10
549.8042914522057
 20
283.1652976497539
 30
0.0
 11
548.7657699239617
 21
282.5754202827343
 31
0.0
  0
LINE
  5
251
330
1F
100
AcDbEntity
  8
0
100
AcDbLine
 10
542.9178390157585
 20
270.4683981760869
 30
0.0
 11
549.740514482296
 21
261.5480638965496
 31
0.0
  0
LINE
  5
252
330
1F
100
AcDbEntity
  8
0
100
AcDbLine
 10
548.7657699239617
 20
282.5754202827343
 30
0.0
 11
547.647944415844
 21
282.0372871979603
 31
0.0
  0
LINE
  5
253
330
1F
100
AcDbEntity
  8
0
100
AcDbLine
 10
547.647944415844
 20
282.0372871979603
 30
0.0
 11
546.4388045919304
 21
281.5441407188305
 31
0.0
  0
LINE
  5
254
330
1F
100
AcDbEntity
  8
0
100
AcDbLine
 10
546.4388045919304
 20
281.5441407188305
 30
0.0
 11
545.126518930233
 21
281.0892082675823
 31
0.0
  0
LINE
  5
255
330
1F
100
AcDbEntity
  8
0
100
AcDbLine
 10
545.126518930233
 20
281.0892082675823
 30
0.0
 11
543.6991665017968
 21
280.6657470687755
 31
0.0
  0
LINE
  5
256
330
1F
100
AcDbEntity
  8
0
100
AcDbLine
 10
543.6991665017968
 20
280.6657470687755
 30
0.0
 11
542.6770064485436
 21
280.4029948934444
 31
0.0
  0
LINE
  5
257
330
1F
100
AcDbEntity
  8
0
100
AcDbLine
 10
542.6770064485436
 20
280.4029948934444
 30
0.0
 11
541.6064176214104
 21
280.192411683453
 31
0.0
  0
LINE
  5
258
330
1F
100
AcDbEntity
  8
0
100
AcDbLine
 10
541.6064176214104
 20
280.192411683453
 30
0.0
 11
540.3049800050621
 21
280.0258763059505
 31
0.0
  0
LINE
  5
259
330
1F
100
AcDbEntity
  8
0
100
AcDbLine
 10
540.3049800050621
 20
280.0258763059505
 30
0.0
 11
538.5903629911309
 21
279.8952825292477
 31
0.0
  0
LINE
  5
25A
330
1F
100
AcDbEntity
  8
0
100
AcDbLine
 10
538.5903629911309
 20
279.8952825292477
 30
0.0
 11
536.280265773571
 21
279.7925092204937
 31
0.0
  0
LINE
  5
25B
330
1F
100
AcDbEntity
  8
0
100
AcDbLine
 10
536.280265773571
 20
279.7925092204937
 30
0.0
 11
533.19229813937
 21
279.7094501479992
 31
0.0
  0
LINE
  5
25C
330
1F
100
AcDbEntity
  8
0
100
AcDbLine
 10
533.19229813937
 20
279.7094501479992
 30
0.0
 11
529.144069875515
 21
279.6380065306553
 31
0.0
  0
LINE
  5
25D
330
1F
100
AcDbEntity
  8
0
100
AcDbLine
 10
515.1538166654473
 20
270.4800136312374
 30
0.0
 11
542.9178390157585
 21
270.4683981760869
 31
0.0
  0
LINE
  5
25E
330
1F
100
AcDbEntity
  8
0
100
AcDbLine
 10
529.144069875515
 20
279.6380065306553
 30
0.0
 11
523.9532801759605
 21
279.5700348838695
 31
0.0
  0
LINE
  5
25F
330
1F
100
AcDbEntity
  8
0
100
AcDbLine
 10
510.9329435480004
 20
270.4985804780849
 30
0.0
 11
515.1538166654473
 21
270.4800136312374
 31
0.0
  0
LINE
  5
260
330
1F
100
AcDbEntity
  8
0
100
AcDbLine
 10
507.1538600576286
 20
270.5283529981502
 30
0.0
 11
510.9329435480004
 21
270.4985804780849
 31
0.0
  0
LINE
  5
261
330
1F
100
AcDbEntity
  8
0
100
AcDbLine
 10
510.1197275770074
 20
279.4171936735042
 30
0.0
 11
504.4395539415247
 21
279.3380685075649
 31
0.0
  0
LINE
  5
262
330
1F
100
AcDbEntity
  8
0
100
AcDbLine
 10
503.8402888429528
 20
270.5688841565975
 30
0.0
 11
507.1538600576286
 21
270.5283529981502
 31
0.0
  0
LINE
  5
263
330
1F
100
AcDbEntity
  8
0
100
AcDbLine
 10
501.0158035409813
 20
270.619764171494
 30
0.0
 11
503.8402888429528
 21
270.5688841565975
 31
0.0
  0
LINE
  5
264
330
1F
100
AcDbEntity
  8
0
100
AcDbLine
 10
504.4395539415247
 20
279.3380685075649
 30
0.0
 11
500.1788053167229
 21
279.2385362013707
 31
0.0
  0
LINE
  5
265
330
1F
100
AcDbEntity
  8
0
100
AcDbLine
 10
498.7040671956902
 20
270.680575810326
 30
0.0
 11
501.0158035409813
 21
270.619764171494
 31
0.0
  0
LINE
  5
266
330
1F
100
AcDbEntity
  8
0
100
AcDbLine
 10
500.1788053167229
 20
279.2385362013707
 30
0.0
 11
497.119298900402
 21
279.0970645769963
 31
0.0
  0
LINE
  5
267
330
1F
100
AcDbEntity
  8
0
100
AcDbLine
 10
496.9286832464105
 20
270.7508943899998
 30
0.0
 11
498.7040671956902
 21
270.680575810326
 31
0.0
  0
LINE
  5
268
330
1F
100
AcDbEntity
  8
0
100
AcDbLine
 10
495.7132849347954
 20
270.8302728756794
 30
0.0
 11
496.9286832464105
 21
270.7508943899998
 31
0.0
  0
LINE
  5
269
330
1F
100
AcDbEntity
  8
0
100
AcDbLine
 10
497.119298900402
 20
279.0970645769963
 30
0.0
 11
495.0427922857171
 21
278.8920916541942
 31
0.0
  0
LINE
  5
26A
330
1F
100
AcDbEntity
  8
0
100
AcDbLine
 10
493.4581730020408
 20
271.6984145268329
 30
0.0
 11
494.210204805172
 21
271.2450541480907
 31
0.0
  0
LINE
  5
26B
330
1F
100
AcDbEntity
  8
0
100
AcDbLine
 10
492.9657790315514
 20
278.2055281027683
 30
0.0
 11
492.528817380703
 21
277.6808507665523
 31
0.0
  0
LINE
  5
26C
330
1F
100
AcDbEntity
  8
0
100
AcDbLine
 10
493.7310132635002
 20
278.6020927056202
 30
0.0
 11
492.9657790315514
 21
278.2055281027683
 31
0.0
  0
LINE
  5
26D
330
1F
100
AcDbEntity
  8
0
100
AcDbLine
 10
492.528817380703
 20
277.6808507665523
 30
0.0
 11
492.2019157064323
 21
277.006513617886
 31
0.0
  0
LINE
  5
26E
330
1F
100
AcDbEntity
  8
0
100
AcDbLine
 10
495.0427922857171
 20
278.8920916541942
 30
0.0
 11
493.7310132635002
 21
278.6020927056202
 31
0.0
  0
LINE
  5
26F
330
1F
100
AcDbEntity
  8
0
100
AcDbLine
 10
492.2019157064323
 20
277.006513617886
 30
0.0
 11
491.8963822973138
 21
276.1370606645473
 31
0.0
  0
LINE
  5
270
330
1F
100
AcDbEntity
  8
0
100
AcDbLine
 10
491.8963822973138
 20
276.1370606645473
 30
0.0
 11
491.7656991136436
 21
275.2766676172146
 31
0.0
  0
LINE
  5
271
330
1F
100
AcDbEntity
  8
0
100
AcDbLine
 10
491.7656991136436
 20
275.2766676172146
 30
0.0
 11
491.8020281446343
 21
274.4421355351338
 31
0.0
  0
LINE
  5
272
330
1F
100
AcDbEntity
  8
0
100
AcDbLine
 10
491.8020281446343
 20
274.4421355351338
 30
0.0
 11
491.9973823678856
 21
273.6502431258091
 31
0.0
  0
LINE
  5
273
330
1F
100
AcDbEntity
  8
0
100
AcDbLine
 10
491.9973823678856
 20
273.6502431258091
 30
0.0
 11
492.3438045633201
 21
272.9177988990673
 31
0.0
  0
LINE
  5
274
330
1F
100
AcDbEntity
  8
0
100
AcDbLine
 10
492.3438045633201
 20
272.9177988990673
 30
0.0
 11
492.8333673131829
 21
272.2615890129932
 31
0.0
  0
LINE
  5
275
330
1F
100
AcDbEntity
  8
0
100
AcDbLine
 10
492.8333673131829
 20
272.2615890129932
 30
0.0
 11
493.4581730020408
 21
271.6984145268329
 31
0.0
  0
LINE
  5
276
330
1F
100
AcDbEntity
  8
0
100
AcDbLine
 10
494.210204805172
 20
271.2450541480907
 30
0.0
 11
495.081535304821
 21
270.9183089360126
 31
0.0
  0
LINE
  5
277
330
1F
100
AcDbEntity
  8
0
100
AcDbLine
 10
495.081535304821
 20
270.9183089360126
 30
0.0
 11
495.7132849347954
 21
270.8302728756794
 31
0.0
  0
LINE
  5
278
330
1F
100
AcDbEntity
  8
0
100
AcDbLine
 10
550.7331702363854
 20
260.2442271932491
 30
0.0
 11
551.659426416195
 21
259.0234942659267
 31
0.0
  0
LINE
  5
279
330
1F
100
AcDbEntity
  8
0
100
AcDbLine
 10
551.659426416195
 20
259.0234942659267
 30
0.0
 11
552.5015804422264
 21
257.9093418940433
 31
0.0
  0
LINE
  5
27A
330
1F
100
AcDbEntity
  8
0
100
AcDbLine
 10
552.5015804422264
 20
257.9093418940433
 30
0.0
 11
553.2420191419487
 21
256.9252617582211
 31
0.0
  0
LINE
  5
27B
330
1F
100
AcDbEntity
  8
0
100
AcDbLine
 10
553.2420191419487
 20
256.9252617582211
 30
0.0
 11
553.8630101335411
 21
256.0947306379207
 31
0.0
  0
LINE
  5
27C
330
1F
100
AcDbEntity
  8
0
100
AcDbLine
 10
553.8630101335411
 20
256.0947306379207
 30
0.0
 11
554.3469402444725
 21
255.4412327631839
 31
0.0
  0
LINE
  5
27D
330
1F
100
AcDbEntity
  8
0
100
AcDbLine
 10
554.3469402444725
 20
255.4412327631839
 30
0.0
 11
554.6760770929222
 21
254.9882598146328
 31
0.0
  0
LINE
  5
27E
330
1F
100
AcDbEntity
  8
0
100
AcDbLine
 10
554.6760770929222
 20
254.9882598146328
 30
0.0
 11
554.8328075063591
 21
254.7592811211475
 31
0.0
  0
LINE
  5
27F
330
1F
100
AcDbEntity
  8
0
100
AcDbLine
 10
585.7371303689843
 20
254.1608281358608
 30
0.0
 11
573.06947442416
 21
270.2587984427341
 31
0.0
  0
LINE
  5
280
330
1F
100
AcDbEntity
  8
0
100
AcDbLine
 10
554.8328075063591
 20
254.7592811211475
 30
0.0
 11
554.7227773321038
 21
254.6063058003315
 31
0.0
  0
LINE
  5
281
330
1F
100
AcDbEntity
  8
0
100
AcDbLine
 10
554.7227773321038
 20
254.6063058003315
 30
0.0
 11
554.0965411317711
 21
254.4837437495121
 31
0.0
  0
LINE
  5
282
330
1F
100
AcDbEntity
  8
0
100
AcDbLine
 10
543.5446414602166
 20
254.2561359628566
 30
0.0
 11
538.1738457334404
 21
254.2545117362865
 31
0.0
  0
LINE
  5
283
330
1F
100
AcDbEntity
  8
0
100
AcDbLine
 10
538.1738457334404
 20
254.2545117362865
 30
0.0
 11
531.4213845384484
 21
254.270843408955
 31
0.0
  0
LINE
  5
284
330
1F
100
AcDbEntity
  8
0
100
AcDbLine
 10
493.4511396539575
 20
254.597461961163
 30
0.0
 11
491.4043459546929
 21
254.7247700318226
 31
0.0
  0
LINE
  5
285
330
1F
100
AcDbEntity
  8
0
100
AcDbLine
 10
482.136389936245
 20
257.7097780927547
 30
0.0
 11
480.5739137781029
 21
258.6065001710781
 31
0.0
  0
LINE
  5
286
330
1F
100
AcDbEntity
  8
0
100
AcDbLine
 10
480.5739137781029
 20
258.6065001710781
 30
0.0
 11
479.1845295083885
 21
259.5787264331707
 31
0.0
  0
LINE
  5
287
330
1F
100
AcDbEntity
  8
0
100
AcDbLine
 10
479.1845295083885
 20
259.5787264331707
 30
0.0
 11
477.9582831514244
 21
260.6334380730518
 31
0.0
  0
LINE
  5
288
330
1F
100
AcDbEntity
  8
0
100
AcDbLine
 10
477.9582831514244
 20
260.6334380730518
 30
0.0
 11
476.8850121152764
 21
261.7776535376438
 31
0.0
  0
LINE
  5
289
330
1F
100
AcDbEntity
  8
0
100
AcDbLine
 10
476.8850121152764
 20
261.7776535376438
 30
0.0
 11
475.9548220289116
 21
263.0183912738689
 31
0.0
  0
LINE
  5
28A
330
1F
100
AcDbEntity
  8
0
100
AcDbLine
 10
475.9548220289116
 20
263.0183912738689
 30
0.0
 11
475.1576397073632
 21
264.3626548274883
 31
0.0
  0
LINE
  5
28B
330
1F
100
AcDbEntity
  8
0
100
AcDbLine
 10
475.1576397073632
 20
264.3626548274883
 30
0.0
 11
474.5919022214776
 21
265.5092172249684
 31
0.0
  0
LINE
  5
28C
330
1F
100
AcDbEntity
  8
0
100
AcDbLine
 10
474.5919022214776
 20
265.5092172249684
 30
0.0
 11
474.1161677492028
 21
266.6294120177158
 31
0.0
  0
LINE
  5
28D
330
1F
100
AcDbEntity
  8
0
100
AcDbLine
 10
474.2236647260551
 20
281.0696132406124
 30
0.0
 11
474.5604905736809
 21
281.7782379611858
 31
0.0
  0
LINE
  5
28E
330
1F
100
AcDbEntity
  8
0
100
AcDbLine
 10
477.3560378206139
 20
285.7480078860648
 30
0.0
 11
478.2429549348716
 21
286.5953177138695
 31
0.0
  0
LINE
  5
28F
330
1F
100
AcDbEntity
  8
0
100
AcDbLine
 10
478.2429549348716
 20
286.5953177138695
 30
0.0
 11
479.2020234716302
 21
287.381629638327
 31
0.0
  0
LINE
  5
290
330
1F
100
AcDbEntity
  8
0
100
AcDbLine
 10
479.2020234716302
 20
287.381629638327
 30
0.0
 11
480.231693710125
 21
288.10547589506
 31
0.0
  0
LINE
  5
291
330
1F
100
AcDbEntity
  8
0
100
AcDbLine
 10
480.231693710125
 20
288.10547589506
 30
0.0
 11
481.3303861272698
 21
288.7653812691101
 31
0.0
  0
LINE
  5
292
330
1F
100
AcDbEntity
  8
0
100
AcDbLine
 10
481.3303861272698
 20
288.7653812691101
 30
0.0
 11
482.4966404092675
 21
289.3598817213901
 31
0.0
  0
LINE
  5
293
330
1F
100
AcDbEntity
  8
0
100
AcDbLine
 10
482.4966404092675
 20
289.3598817213901
 30
0.0
 11
484.0865347040063
 21
290.0684244855771
 31
0.0
  0
LINE
  5
294
330
1F
100
AcDbEntity
  8
0
100
AcDbLine
 10
484.0865347040063
 20
290.0684244855771
 30
0.0
 11
485.6184634817009
 21
290.6298331841358
 31
0.0
  0
LINE
  5
295
330
1F
100
AcDbEntity
  8
0
100
AcDbLine
 10
485.6184634817009
 20
290.6298331841358
 30
0.0
 11
487.2863802564507
 21
291.0612478777298
 31
0.0
  0
LINE
  5
296
330
1F
100
AcDbEntity
  8
0
100
AcDbLine
 10
487.2863802564507
 20
291.0612478777298
 30
0.0
 11
489.2843279493218
 21
291.3798160776028
 31
0.0
  0
LINE
  5
297
330
1F
100
AcDbEntity
  8
0
100
AcDbLine
 10
489.2843279493218
 20
291.3798160776028
 30
0.0
 11
491.8062302720909
 21
291.6026778444179
 31
0.0
  0
LINE
  5
298
330
1F
100
AcDbEntity
  8
0
100
AcDbLine
 10
491.8062302720909
 20
291.6026778444179
 30
0.0
 11
495.0462195527916
 21
291.7469806894192
 31
0.0
  0
LINE
  5
299
330
1F
100
AcDbEntity
  8
0
100
AcDbLine
 10
495.0462195527916
 20
291.7469806894192
 30
0.0
 11
499.1981598985558
 21
291.8298609479793
 31
0.0
  0
LINE
  5
29A
330
1F
100
AcDbEntity
  8
0
100
AcDbLine
 10
516.9916662824517
 20
301.3035312219986
 30
0.0
 11
483.3027336252099
 21
301.3061724528202
 31
0.0
  0
LINE
  5
29B
330
1F
100
AcDbEntity
  8
0
100
AcDbLine
 10
499.1981598985558
 20
291.8298609479793
 30
0.0
 11
504.4560644281273
 21
291.8684698566326
 31
0.0
  0
LINE
  5
29C
330
1F
100
AcDbEntity
  8
0
100
AcDbLine
 10
514.6227392804986
 20
291.8884895666965
 30
0.0
 11
518.1043061864739
 21
291.9096492155918
 31
0.0
  0
LINE
  5
29D
330
1F
100
AcDbEntity
  8
0
100
AcDbLine
 10
518.1043061864739
 20
291.9096492155918
 30
0.0
 11
521.3940355432397
 21
291.9422045275101
 31
0.0
  0
LINE
  5
29E
330
1F
100
AcDbEntity
  8
0
100
AcDbLine
 10
523.2647571218378
 20
301.2853145524391
 30
0.0
 11
516.9916662824517
 21
301.3035312219986
 31
0.0
  0
LINE
  5
29F
330
1F
100
AcDbEntity
  8
0
100
AcDbLine
 10
521.3940355432397
 20
291.9422045275101
 30
0.0
 11
524.4271371019249
 21
291.9849149807819
 31
0.0
  0
LINE
  5
2A0
330
1F
100
AcDbEntity
  8
0
100
AcDbLine
 10
528.0098828924066
 20
301.2360699399837
 30
0.0
 11
523.2647571218378
 21
301.2853145524391
 31
0.0
  0
LINE
  5
2A1
330
1F
100
AcDbEntity
  8
0
100
AcDbLine
 10
524.4271371019249
 20
291.9849149807819
 30
0.0
 11
527.1389696252709
 21
292.0365549548992
 31
0.0
  0
LINE
  5
2A2
330
1F
100
AcDbEntity
  8
0
100
AcDbLine
 10
527.1389696252709
 20
292.0365549548992
 30
0.0
 11
529.4647428644066
 21
292.0958876534828
 31
0.0
  0
LINE
  5
2A3
330
1F
100
AcDbEntity
  8
0
100
AcDbLine
 10
531.4616772783165
 20
301.1403560563454
 30
0.0
 11
528.0098828924066
 21
301.2360699399837
 31
0.0
  0
LINE
  5
2A4
330
1F
100
AcDbEntity
  8
0
100
AcDbLine
 10
529.4647428644066
 20
292.0958876534828
 30
0.0
 11
531.3398155820732
 21
292.1616837307342
 31
0.0
  0
LINE
  5
2A5
330
1F
100
AcDbEntity
  8
0
100
AcDbLine
 10
531.3398155820732
 20
292.1616837307342
 30
0.0
 11
532.6994571340448
 21
292.2327026649841
 31
0.0
  0
LINE
  5
2A6
330
1F
100
AcDbEntity
  8
0
100
AcDbLine
 10
533.8545653474692
 20
300.9827352985272
 30
0.0
 11
531.4616772783165
 21
301.1403560563454
 31
0.0
  0
LINE
  5
2A7
330
1F
100
AcDbEntity
  8
0
100
AcDbLine
 10
532.6994571340448
 20
292.2327026649841
 30
0.0
 11
533.4789368760947
 21
292.3077262863049
 31
0.0
  0
LINE
  5
2A8
330
1F
100
AcDbEntity
  8
0
100
AcDbLine
 10
533.4789368760947
 20
292.3077262863049
 30
0.0
 11
534.5384094369774
 21
292.5194755121597
 31
0.0
  0
LINE
  5
2A9
330
1F
100
AcDbEntity
  8
0
100
AcDbLine
 10
534.5384094369774
 20
292.5194755121597
 30
0.0
 11
535.4444298398859
 21
292.7865378483662
 31
0.0
  0
LINE
  5
2AA
330
1F
100
AcDbEntity
  8
0
100
AcDbLine
 10
538.0998167646294
 20
296.7974647804626
 30
0.0
 11
538.0856904638176
 21
297.1615075990089
 31
0.0
  0
LINE
  5
2AB
330
1F
100
AcDbEntity
  8
0
100
AcDbLine
 10
538.0646202218895
 20
295.9456175490745
 30
0.0
 11
538.0998167646294
 21
296.7974647804626
 31
0.0
  0
LINE
  5
2AC
330
1F
100
AcDbEntity
  8
0
100
AcDbLine
 10
535.4444298398859
 20
292.7865378483662
 30
0.0
 11
536.2042698514825
 21
293.1159652694591
 31
0.0
  0
LINE
  5
2AD
330
1F
100
AcDbEntity
  8
0
100
AcDbLine
 10
537.9268440854912
 20
295.1984882279762
 30
0.0
 11
538.0646202218895
 21
295.9456175490745
 31
0.0
  0
LINE
  5
2AE
330
1F
100
AcDbEntity
  8
0
100
AcDbLine
 10
536.2042698514825
 20
293.1159652694591
 30
0.0
 11
536.8251416337853
 21
293.5148172005543
 31
0.0
  0
LINE
  5
2AF
330
1F
100
AcDbEntity
  8
0
100
AcDbLine
 10
537.6791569841271
 20
294.5490173920521
 30
0.0
 11
537.9268440854912
 21
295.1984882279762
 31
0.0
  0
LINE
  5
2B0
330
1F
100
AcDbEntity
  8
0
100
AcDbLine
 10
536.8251416337853
 20
293.5148172005543
 30
0.0
 11
537.3143765581017
 21
293.9901493414768
 31
0.0
  0
LINE
  5
2B1
330
1F
100
AcDbEntity
  8
0
100
AcDbLine
 10
537.3143765581017
 20
293.9901493414768
 30
0.0
 11
537.6791569841271
 21
294.5490173920521
 31
0.0
  0
LINE
  5
2B2
330
1F
100
AcDbEntity
  8
0
100
AcDbLine
 10
535.4230615747338
 20
300.7477514370808
 30
0.0
 11
533.8545653474692
 21
300.9827352985272
 31
0.0
  0
LINE
  5
2B3
330
1F
100
AcDbEntity
  8
0
100
AcDbLine
 10
538.0856904638176
 20
297.1615075990089
 30
0.0
 11
538.055351699627
 21
297.5251592620738
 31
0.0
  0
LINE
  5
2B4
330
1F
100
AcDbEntity
  8
0
100
AcDbLine
 10
538.055351699627
 20
297.5251592620738
 30
0.0
 11
538.0104097974663
 21
297.8808574303516
 31
0.0
  0
LINE
  5
2B5
330
1F
100
AcDbEntity
  8
0
100
AcDbLine
 10
538.0104097974663
 20
297.8808574303516
 30
0.0
 11
537.9526230943566
 21
298.2210285886654
 31
0.0
  0
LINE
  5
2B6
330
1F
100
AcDbEntity
  8
0
100
AcDbLine
 10
537.9526230943566
 20
298.2210285886654
 30
0.0
 11
537.8835115087395
 21
298.5381103977093
 31
0.0
  0
LINE
  5
2B7
330
1F
100
AcDbEntity
  8
0
100
AcDbLine
 10
536.4017400396233
 20
300.4199631437191
 30
0.0
 11
535.4230615747338
 21
300.7477514370808
 31
0.0
  0
LINE
  5
2B8
330
1F
100
AcDbEntity
  8
0
100
AcDbLine
 10
537.0249960077172
 20
299.9839253648648
 30
0.0
 11
536.4017400396233
 21
300.4199631437191
 31
0.0
  0
LINE
  5
2B9
330
1F
100
AcDbEntity
  8
0
100
AcDbLine
 10
537.8835115087395
 20
298.5381103977093
 30
0.0
 11
537.8048035753136
 21
298.8245367928871
 31
0.0
  0
LINE
  5
2BA
330
1F
100
AcDbEntity
  8
0
100
AcDbLine
 10
537.5274333608513
 20
299.4241967722305
 30
0.0
 11
537.0249960077172
 21
299.9839253648648
 31
0.0
  0
LINE
  5
2BB
330
1F
100
AcDbEntity
  8
0
100
AcDbLine
 10
537.8048035753136
 20
298.8245367928871
 30
0.0
 11
537.7181384218103
 21
299.0727379843124
 31
0.0
  0
LINE
  5
2BC
330
1F
100
AcDbEntity
  8
0
100
AcDbLine
 10
537.7181384218103
 20
299.0727379843124
 30
0.0
 11
537.6250955713158
 21
299.2751441820988
 31
0.0
  0
LINE
  5
2BD
330
1F
100
AcDbEntity
  8
0
100
AcDbLine
 10
537.6250955713158
 20
299.2751441820988
 30
0.0
 11
537.5274333608513
 21
299.4241967722305
 31
0.0
  0
LINE
  5
2BE
330
1F
100
AcDbEntity
  8
0
100
AcDbLine
 10
470.6883642328148
 20
317.5792686566242
 30
0.0
 11
512.4647829187279
 21
317.5690110697874
 31
0.0
  0
LINE
  5
2BF
330
1F
100
AcDbEntity
  8
0
100
AcDbLine
 10
960.1564023149375
 20
352.1611231304237
 30
0.0
 11
56.06815148789337
 21
352.1611231304237
 31
0.0
  0
LINE
  5
2C0
330
1F
100
AcDbEntity
  8
0
100
AcDbLine
 10
512.4647829187279
 20
317.5690110697874
 30
0.0
 11
519.7546097886925
 21
317.5551082863935
 31
0.0
  0
LINE
  5
2C1
330
1F
100
AcDbEntity
  8
0
100
AcDbLine
 10
519.7546097886925
 20
317.5551082863935
 30
0.0
 11
525.4785332334404
 21
317.526868723286
 31
0.0
  0
LINE
  5
2C2
330
1F
100
AcDbEntity
  8
0
100
AcDbLine
 10
525.4785332334404
 20
317.526868723286
 30
0.0
 11
529.8683855188256
 21
317.4792054965624
 31
0.0
  0
LINE
  5
2C3
330
1F
100
AcDbEntity
  8
0
100
AcDbLine
 10
529.8683855188256
 20
317.4792054965624
 30
0.0
 11
533.1559691083794
 21
317.4070242717394
 31
0.0
  0
LINE
  5
2C4
330
1F
100
AcDbEntity
  8
0
100
AcDbLine
 10
533.1559691083794
 20
317.4070242717394
 30
0.0
 11
535.5731162679559
 21
317.3052400275596
 31
0.0
  0
LINE
  5
2C5
330
1F
100
AcDbEntity
  8
0
100
AcDbLine
 10
535.5731162679559
 20
317.3052400275596
 30
0.0
 11
537.3516592634087
 21
317.1687640174754
 31
0.0
  0
LINE
  5
2C6
330
1F
100
AcDbEntity
  8
0
100
AcDbLine
 10
537.3516592634087
 20
317.1687640174754
 30
0.0
 11
538.7234005582695
 21
316.9925019070038
 31
0.0
  0
LINE
  5
2C7
330
1F
100
AcDbEntity
  8
0
100
AcDbLine
 10
538.7234005582695
 20
316.9925019070038
 30
0.0
 11
539.9201724183922
 21
316.7713649495968
 31
0.0
  0
LINE
  5
2C8
330
1F
100
AcDbEntity
  8
0
100
AcDbLine
 10
539.9201724183922
 20
316.7713649495968
 30
0.0
 11
543.1284818303947
 21
315.9586667939552
 31
0.0
  0
LINE
  5
2C9
330
1F
100
AcDbEntity
  8
0
100
AcDbLine
 10
543.1284818303947
 20
315.9586667939552
 30
0.0
 11
545.9976706159478
 21
314.9153396412262
 31
0.0
  0
LINE
  5
2CA
330
1F
100
AcDbEntity
  8
0
100
AcDbLine
 10
545.9976706159478
 20
314.9153396412262
 30
0.0
 11
548.5311958444481
 21
313.6381611153015
 31
0.0
  0
LINE
  5
2CB
330
1F
100
AcDbEntity
  8
0
100
AcDbLine
 10
548.5311958444481
 20
313.6381611153015
 30
0.0
 11
550.732454980648
 21
312.1239013894923
 31
0.0
  0
LINE
  5
2CC
330
1F
100
AcDbEntity
  8
0
100
AcDbLine
 10
550.732454980648
 20
312.1239013894923
 30
0.0
 11
552.6049348962669
 21
310.3693380876907
 31
0.0
  0
LINE
  5
2CD
330
1F
100
AcDbEntity
  8
0
100
AcDbLine
 10
552.6049348962669
 20
310.3693380876907
 30
0.0
 11
554.1520628583794
 21
308.3712413832077
 31
0.0
  0
LINE
  5
2CE
330
1F
100
AcDbEntity
  8
0
100
AcDbLine
 10
554.1520628583794
 20
308.3712413832077
 30
0.0
 11
555.3773257387046
 21
306.1263851746449
 31
0.0
  0
LINE
  5
2CF
330
1F
100
AcDbEntity
  8
0
100
AcDbLine
 10
555.3773257387046
 20
306.1263851746449
 30
0.0
 11
556.2841210019952
 21
303.6315359100231
 31
0.0
  0
LINE
  5
2D0
330
1F
100
AcDbEntity
  8
0
100
AcDbLine
 10
572.6701829088097
 20
317.5792798324951
 30
0.0
 11
592.3795315873984
 21
317.5792798324951
 31
0.0
  0
LINE
  5
2D1
330
1F
100
AcDbEntity
  8
0
100
AcDbLine
 10
658.9510056627159
 20
317.5344496890434
 30
0.0
 11
660.8479234826927
 21
317.5604373141655
 31
0.0
  0
LINE
  5
2D2
330
1F
100
AcDbEntity
  8
0
100
AcDbLine
 10
592.3795315873984
 20
301.3578720315823
 30
0.0
 11
619.2282054078942
 21
301.1585131212601
 31
0.0
  0
LINE
  5
2D3
330
1F
100
AcDbEntity
  8
0
100
AcDbLine
 10
592.3795315873984
 20
317.5792798324951
 30
0.0
 11
592.3795315873984
 21
301.3578720315823
 31
0.0
  0
LINE
  5
2D4
330
1F
100
AcDbEntity
  8
0
100
AcDbLine
 10
619.2282054078942
 20
301.1585131212601
 30
0.0
 11
623.9797684800988
 21
301.111444078339
 31
0.0
  0
LINE
  5
2D5
330
1F
100
AcDbEntity
  8
0
100
AcDbLine
 10
623.9797684800988
 20
301.111444078339
 30
0.0
 11
627.683481897152
 21
301.0559447034725
 31
0.0
  0
LINE
  5
2D6
330
1F
100
AcDbEntity
  8
0
100
AcDbLine
 10
627.683481897152
 20
301.0559447034725
 30
0.0
 11
630.5116626870995
 21
300.984244041098
 31
0.0
  0
LINE
  5
2D7
330
1F
100
AcDbEntity
  8
0
100
AcDbLine
 10
630.5116626870995
 20
300.984244041098
 30
0.0
 11
632.6369259012108
 21
300.8885785862335
 31
0.0
  0
LINE
  5
2D8
330
1F
100
AcDbEntity
  8
0
100
AcDbLine
 10
632.6369259012108
 20
300.8885785862335
 30
0.0
 11
634.2318269861106
 21
300.7611773833164
 31
0.0
  0
LINE
  5
2D9
330
1F
100
AcDbEntity
  8
0
100
AcDbLine
 10
654.7393414628868
 20
317.0439798309931
 30
0.0
 11
654.7586533677942
 21
317.1736888512501
 31
0.0
  0
LINE
  5
2DA
330
1F
100
AcDbEntity
  8
0
100
AcDbLine
 10
634.2318269861106
 20
300.7611773833164
 30
0.0
 11
635.4688021791343
 21
300.5942881032357
 31
0.0
  0
LINE
  5
2DB
330
1F
100
AcDbEntity
  8
0
100
AcDbLine
 10
635.4688021791343
 20
300.5942881032357
 30
0.0
 11
636.5202877176171
 21
300.3801397904285
 31
0.0
  0
LINE
  5
2DC
330
1F
100
AcDbEntity
  8
0
100
AcDbLine
 10
636.5202877176171
 20
300.3801397904285
 30
0.0
 11
637.5587794435387
 21
300.1109652146229
 31
0.0
  0
LINE
  5
2DD
330
1F
100
AcDbEntity
  8
0
100
AcDbLine
 10
637.5587794435387
 20
300.1109652146229
 30
0.0
 11
641.5744039667015
 21
298.7876750453838
 31
0.0
  0
LINE
  5
2DE
330
1F
100
AcDbEntity
  8
0
100
AcDbLine
 10
656.660577977932
 20
314.1911730095276
 30
0.0
 11
654.7393414628868
 21
317.0439798309931
 31
0.0
  0
LINE
  5
2DF
330
1F
100
AcDbEntity
  8
0
100
AcDbLine
 10
641.5744039667015
 20
298.7876750453838
 30
0.0
 11
645.1434704912072
 21
297.150387607468
 31
0.0
  0
LINE
  5
2E0
330
1F
100
AcDbEntity
  8
0
100
AcDbLine
 10
660.7275221002465
 20
308.3870403393635
 30
0.0
 11
656.660577977932
 21
314.1911730095276
 31
0.0
  0
LINE
  5
2E1
330
1F
100
AcDbEntity
  8
0
100
AcDbLine
 10
645.1434704912072
 20
297.150387607468
 30
0.0
 11
648.2591244829064
 21
295.2071122750172
 31
0.0
  0
LINE
  5
2E2
330
1F
100
AcDbEntity
  8
0
100
AcDbLine
 10
648.2591244829064
 20
295.2071122750172
 30
0.0
 11
650.9144518030052
 21
292.9658658727536
 31
0.0
  0
LINE
  5
2E3
330
1F
100
AcDbEntity
  8
0
100
AcDbLine
 10
666.3227889192467
 20
300.4932023509868
 30
0.0
 11
660.7275221002465
 21
308.3870403393635
 31
0.0
  0
LINE
  5
2E4
330
1F
100
AcDbEntity
  8
0
100
AcDbLine
 10
650.9144518030052
 20
292.9658658727536
 30
0.0
 11
653.1025383127098
 21
290.434661500109
 31
0.0
  0
LINE
  5
2E5
330
1F
100
AcDbEntity
  8
0
100
AcDbLine
 10
653.1025383127098
 20
290.434661500109
 30
0.0
 11
654.8164102685814
 21
287.6214936300644
 31
0.0
  0
LINE
  5
2E6
330
1F
100
AcDbEntity
  8
0
100
AcDbLine
 10
672.8288743150597
 20
291.371281437529
 30
0.0
 11
666.3227889192467
 21
300.4932023509868
 31
0.0
  0
LINE
  5
2E7
330
1F
100
AcDbEntity
  8
0
100
AcDbLine
 10
654.8164102685814
 20
287.6214936300644
 30
0.0
 11
656.0492131364707
 21
284.5343939885028
 31
0.0
  0
LINE
  5
2E8
330
1F
100
AcDbEntity
  8
0
100
AcDbLine
 10
656.0492131364707
 20
284.5343939885028
 30
0.0
 11
656.7939135682944
 21
281.1813495978245
 31
0.0
  0
LINE
  5
2E9
330
1F
100
AcDbEntity
  8
0
100
AcDbLine
 10
679.6283933771019
 20
281.8828888162502
 30
0.0
 11
672.8288743150597
 21
291.371281437529
 31
0.0
  0
LINE
  5
2EA
330
1F
100
AcDbEntity
  8
0
100
AcDbLine
 10
656.7939135682944
 20
281.1813495978245
 30
0.0
 11
657.043776239193
 21
277.5703959092029
 31
0.0
  0
LINE
  5
2EB
330
1F
100
AcDbEntity
  8
0
100
AcDbLine
 10
657.043776239193
 20
277.5703959092029
 30
0.0
 11
656.7809793603783
 21
274.1263948305972
 31
0.0
  0
LINE
  5
2EC
330
1F
100
AcDbEntity
  8
0
100
AcDbLine
 10
686.1038419855004
 20
272.8896580561527
 30
0.0
 11
679.6283933771019
 21
281.8828888162502
 31
0.0
  0
LINE
  5
2ED
330
1F
100
AcDbEntity
  8
0
100
AcDbLine
 10
656.7809793603783
 20
274.1263948305972
 30
0.0
 11
656.0039732110863
 21
270.8830974921116
 31
0.0
  0
LINE
  5
2EE
330
1F
100
AcDbEntity
  8
0
100
AcDbLine
 10
656.0039732110863
 20
270.8830974921116
 30
0.0
 11
654.7292086732749
 21
267.8594060167202
 31
0.0
  0
LINE
  5
2EF
330
1F
100
AcDbEntity
  8
0
100
AcDbLine
 10
691.6377756250267
 20
265.2532003744968
 30
0.0
 11
686.1038419855004
 21
272.8896580561527
 31
0.0
  0
LINE
  5
2F0
330
1F
100
AcDbEntity
  8
0
100
AcDbLine
 10
654.7292086732749
 20
267.8594060167202
 30
0.0
 11
652.9733750474816
 21
265.0742374285587
 31
0.0
  0
LINE
  5
2F1
330
1F
100
AcDbEntity
  8
0
100
AcDbLine
 10
695.6128093850976
 20
259.8351307138332
 30
0.0
 11
691.6377756250267
 21
265.2532003744968
 31
0.0
  0
LINE
  5
2F2
330
1F
100
AcDbEntity
  8
0
100
AcDbLine
 10
652.9733750474816
 20
265.0742374285587
 30
0.0
 11
650.7530424249534
 21
262.5464938506016
 31
0.0
  0
LINE
  5
2F3
330
1F
100
AcDbEntity
  8
0
100
AcDbLine
 10
697.411379541195
 20
257.4970714672932
 30
0.0
 11
695.6128093850976
 21
259.8351307138332
 31
0.0
  0
LINE
  5
2F4
330
1F
100
AcDbEntity
  8
0
100
AcDbLine
 10
650.7530424249534
 20
262.5464938506016
 30
0.0
 11
648.0847808969384
 21
260.2950923069843
 31
0.0
  0
LINE
  5
2F5
330
1F
100
AcDbEntity
  8
0
100
AcDbLine
 10
698.4167310846215
 20
256.5484709962734
 30
0.0
 11
697.411379541195
 21
257.4970714672932
 31
0.0
  0
LINE
  5
2F6
330
1F
100
AcDbEntity
  8
0
100
AcDbLine
 10
648.0847808969384
 20
260.2950923069843
 30
0.0
 11
644.9852797639733
 21
258.338942371262
 31
0.0
  0
LINE
  5
2F7
330
1F
100
AcDbEntity
  8
0
100
AcDbLine
 10
699.4388911378746
 20
255.7245261892208
 30
0.0
 11
698.4167310846215
 21
256.5484709962734
 31
0.0
  0
LINE
  5
2F8
330
1F
100
AcDbEntity
  8
0
100
AcDbLine
 10
700.4865619790916
 20
255.021601162804
 30
0.0
 11
699.4388911378746
 21
255.7245261892208
 31
0.0
  0
LINE
  5
2F9
330
1F
100
AcDbEntity
  8
0
100
AcDbLine
 10
644.9852797639733
 20
258.338942371262
 30
0.0
 11
641.471049512661
 21
256.6969536169894
 31
0.0
  0
LINE
  5
2FA
330
1F
100
AcDbEntity
  8
0
100
AcDbLine
 10
701.5682670724754
 20
254.4360823854336
 30
0.0
 11
700.4865619790916
 21
255.021601162804
 31
0.0
  0
LINE
  5
2FB
330
1F
100
AcDbEntity
  8
0
100
AcDbLine
 10
702.692768300808
 20
253.9643786772617
 30
0.0
 11
701.5682670724754
 21
254.4360823854336
 31
0.0
  0
LINE
  5
2FC
330
1F
100
AcDbEntity
  8
0
100
AcDbLine
 10
641.471049512661
 20
256.6969536169894
 30
0.0
 11
637.5587794435387
 21
255.3880281671414
 31
0.0
  0
LINE
  5
2FD
330
1F
100
AcDbEntity
  8
0
100
AcDbLine
 10
637.5587794435387
 20
255.3880281671414
 30
0.0
 11
636.5092012536888
 21
255.1134072169193
 31
0.0
  0
LINE
  5
2FE
330
1F
100
AcDbEntity
  8
0
100
AcDbLine
 10
635.4348275316123
 20
254.8961333855518
 30
0.0
 11
634.1299030435447
 21
254.7281153425106
 31
0.0
  0
LINE
  5
2FF
330
1F
100
AcDbEntity
  8
0
100
AcDbLine
 10
634.1299030435447
 20
254.7281153425106
 30
0.0
 11
632.388732160366
 21
254.6012245043644
 31
0.0
  0
LINE
  5
300
330
1F
100
AcDbEntity
  8
0
100
AcDbLine
 10
632.388732160366
 20
254.6012245043644
 30
0.0
 11
630.0053808343772
 21
254.5073918923267
 31
0.0
  0
LINE
  5
301
330
1F
100
AcDbEntity
  8
0
100
AcDbLine
 10
612.1116492402916
 20
284.9641285761722
 30
0.0
 11
572.8946540010338
 21
285.2471910342106
 31
0.0
  0
LINE
  5
302
330
1F
100
AcDbEntity
  8
0
100
AcDbLine
 10
573.06947442416
 20
270.2587984427341
 30
0.0
 11
631.1352464807396
 21
270.6870354637035
 31
0.0
  0
LINE
  5
303
330
1F
100
AcDbEntity
  8
0
100
AcDbLine
 10
619.5453021180992
 20
284.8959483131298
 30
0.0
 11
612.1116492402916
 21
284.9641285761722
 31
0.0
  0
LINE
  5
304
330
1F
100
AcDbEntity
  8
0
100
AcDbLine
 10
625.0629040849572
 20
284.7996942623981
 30
0.0
 11
619.5453021180992
 21
284.8959483131298
 31
0.0
  0
LINE
  5
305
330
1F
100
AcDbEntity
  8
0
100
AcDbLine
 10
628.9836380136376
 20
284.646517775906
 30
0.0
 11
625.0629040849572
 21
284.7996942623981
 31
0.0
  0
LINE
  5
306
330
1F
100
AcDbEntity
  8
0
100
AcDbLine
 10
631.1352464807396
 20
270.6870354637035
 30
0.0
 11
633.1663343561058
 21
271.6873355134853
 31
0.0
  0
LINE
  5
307
330
1F
100
AcDbEntity
  8
0
100
AcDbLine
 10
631.6262099397544
 20
284.4076000079044
 30
0.0
 11
628.9836380136376
 21
284.646517775906
 31
0.0
  0
LINE
  5
308
330
1F
100
AcDbEntity
  8
0
100
AcDbLine
 10
633.1663343561058
 20
271.6873355134853
 30
0.0
 11
633.9290949952964
 21
272.1023626550564
 31
0.0
  0
LINE
  5
309
330
1F
100
AcDbEntity
  8
0
100
AcDbLine
 10
633.9290949952964
 20
272.1023626550564
 30
0.0
 11
634.6136543405419
 21
272.5577197893986
 31
0.0
  0
LINE
  5
30A
330
1F
100
AcDbEntity
  8
0
100
AcDbLine
 10
635.7484671724205
 20
273.5901765450367
 30
0.0
 11
636.199197496212
 21
274.1676784976848
 31
0.0
  0
LINE
  5
30B
330
1F
100
AcDbEntity
  8
0
100
AcDbLine
 10
636.8677231920128
 20
275.446198128117
 30
0.0
 11
637.0858761918907
 21
276.147603236092
 31
0.0
  0
LINE
  5
30C
330
1F
100
AcDbEntity
  8
0
100
AcDbLine
 10
635.2200123918418
 20
273.0535857304462
 30
0.0
 11
635.7484671724205
 21
273.5901765450367
 31
0.0
  0
LINE
  5
30D
330
1F
100
AcDbEntity
  8
0
100
AcDbLine
 10
637.0858761918907
 20
276.147603236092
 30
0.0
 11
637.2269007814293
 21
276.8907017930874
 31
0.0
  0
LINE
  5
30E
330
1F
100
AcDbEntity
  8
0
100
AcDbLine
 10
634.6136543405419
 20
272.5577197893986
 30
0.0
 11
635.2200123918418
 21
273.0535857304462
 31
0.0
  0
LINE
  5
30F
330
1F
100
AcDbEntity
  8
0
100
AcDbLine
 10
635.7949587953453
 20
282.0177666767963
 30
0.0
 11
635.0752327096825
 21
282.8880242928394
 31
0.0
  0
LINE
  5
310
330
1F
100
AcDbEntity
  8
0
100
AcDbLine
 10
633.3097431314354
 20
284.0541072114834
 30
0.0
 11
631.6262099397544
 21
284.4076000079044
 31
0.0
  0
LINE
  5
311
330
1F
100
AcDbEntity
  8
0
100
AcDbLine
 10
635.0752327096825
 20
282.8880242928394
 30
0.0
 11
634.3531224382286
 21
283.5571832879909
 31
0.0
  0
LINE
  5
312
330
1F
100
AcDbEntity
  8
0
100
AcDbLine
 10
634.3531224382286
 20
283.5571832879909
 30
0.0
 11
633.3097431314354
 21
284.0541072114834
 31
0.0
  0
LINE
  5
313
330
1F
100
AcDbEntity
  8
0
100
AcDbLine
 10
636.199197496212
 20
274.1676784976848
 30
0.0
 11
636.5721437585715
 21
274.7862927540668
 31
0.0
  0
LINE
  5
314
330
1F
100
AcDbEntity
  8
0
100
AcDbLine
 10
636.5721437585715
 20
274.7862927540668
 30
0.0
 11
636.8677231920128
 21
275.446198128117
 31
0.0
  0
LINE
  5
315
330
1F
100
AcDbEntity
  8
0
100
AcDbLine
 10
637.2269007814293
 20
276.8907017930874
 30
0.0
 11
637.3003337037926
 21
277.5925315841564
 31
0.0
  0
LINE
  5
316
330
1F
100
AcDbEntity
  8
0
100
AcDbLine
 10
636.2122509134178
 20
281.4883433207401
 30
0.0
 11
635.7949587953453
 21
282.0177666767963
 31
0.0
  0
LINE
  5
317
330
1F
100
AcDbEntity
  8
0
100
AcDbLine
 10
637.3003337037926
 20
277.5925315841564
 30
0.0
 11
637.3219701898461
 21
278.2383404597172
 31
0.0
  0
LINE
  5
318
330
1F
100
AcDbEntity
  8
0
100
AcDbLine
 10
636.5585538995628
 20
280.971839271439
 30
0.0
 11
636.2122509134178
 21
281.4883433207401
 31
0.0
  0
LINE
  5
319
330
1F
100
AcDbEntity
  8
0
100
AcDbLine
 10
637.3219701898461
 20
278.2383404597172
 30
0.0
 11
637.2892472398644
 21
278.83799298848
 31
0.0
  0
LINE
  5
31A
330
1F
100
AcDbEntity
  8
0
100
AcDbLine
 10
636.8366691720848
 20
280.4583899601826
 30
0.0
 11
636.5585538995628
 21
280.971839271439
 31
0.0
  0
LINE
  5
31B
330
1F
100
AcDbEntity
  8
0
100
AcDbLine
 10
637.2892472398644
 20
278.83799298848
 30
0.0
 11
637.1992442262534
 21
279.4013239368328
 31
0.0
  0
LINE
  5
31C
330
1F
100
AcDbEntity
  8
0
100
AcDbLine
 10
637.1992442262534
 20
279.4013239368328
 30
0.0
 11
637.0493385446434
 21
279.9381680711636
 31
0.0
  0
LINE
  5
31D
330
1F
100
AcDbEntity
  8
0
100
AcDbLine
 10
637.0493385446434
 20
279.9381680711636
 30
0.0
 11
636.8366691720848
 21
280.4583899601826
 31
0.0
  0
LINE
  5
31E
330
1F
100
AcDbEntity
  8
0
100
AcDbLine
 10
654.7586533677942
 20
317.1736888512501
 30
0.0
 11
655.0053569925194
 21
317.2820463701614
 31
0.0
  0
LINE
  5
31F
330
1F
100
AcDbEntity
  8
0
100
AcDbLine
 10
655.0053569925194
 20
317.2820463701614
 30
0.0
 11
655.5138442170983
 21
317.3706710263618
 31
0.0
  0
LINE
  5
320
330
1F
100
AcDbEntity
  8
0
100
AcDbLine
 10
655.5138442170983
 20
317.3706710263618
 30
0.0
 11
656.3181492936974
 21
317.441194497002
 31
0.0
  0
LINE
  5
321
330
1F
100
AcDbEntity
  8
0
100
AcDbLine
 10
656.3181492936974
 20
317.441194497002
 30
0.0
 11
657.4524852884177
 21
317.4952447339425
 31
0.0
  0
LINE
  5
322
330
1F
100
AcDbEntity
  8
0
100
AcDbLine
 10
657.4524852884177
 20
317.4952447339425
 30
0.0
 11
658.9510056627159
 21
317.5344496890434
 31
0.0
  0
LINE
  5
323
330
1F
100
AcDbEntity
  8
0
100
AcDbLine
 10
660.8479234826927
 20
317.5604373141655
 30
0.0
 11
663.1772133958702
 21
317.5748336985239
 31
0.0
  0
LINE
  5
324
330
1F
100
AcDbEntity
  8
0
100
AcDbLine
 10
663.1772133958702
 20
317.5748336985239
 30
0.0
 11
677.5230381143456
 21
317.5792723819145
 31
0.0
  0
LINE
  5
325
330
1F
100
AcDbEntity
  8
0
100
AcDbLine
 10
691.7895886552695
 20
317.4767933710942
 30
0.0
 11
695.4236838472252
 21
317.4919422640928
 31
0.0
  0
LINE
  5
326
330
1F
100
AcDbEntity
  8
0
100
AcDbLine
 10
713.9733645570641
 20
301.423060886515
 30
0.0
 11
697.9406091821556
 21
301.2871995493301
 31
0.0
  0
LINE
  5
327
330
1F
100
AcDbEntity
  8
0
100
AcDbLine
 10
697.9406091821556
 20
301.2871995493301
 30
0.0
 11
691.2047478807335
 21
310.6790959760078
 31
0.0
  0
LINE
  5
328
330
1F
100
AcDbEntity
  8
0
100
AcDbLine
 10
691.2047478807335
 20
310.6790959760078
 30
0.0
 11
690.2483317506675
 21
312.032318852795
 31
0.0
  0
LINE
  5
329
330
1F
100
AcDbEntity
  8
0
100
AcDbLine
 10
690.2483317506675
 20
312.032318852795
 30
0.0
 11
689.3724414956934
 21
313.2858119830021
 31
0.0
  0
LINE
  5
32A
330
1F
100
AcDbEntity
  8
0
100
AcDbLine
 10
710.5303022516136
 20
280.0707884057888
 30
0.0
 11
711.9698736322289
 21
282.1759127005466
 31
0.0
  0
LINE
  5
32B
330
1F
100
AcDbEntity
  8
0
100
AcDbLine
 10
709.4158742082482
 20
278.4793145879635
 30
0.0
 11
710.5303022516136
 21
280.0707884057888
 31
0.0
  0
LINE
  5
32C
330
1F
100
AcDbEntity
  8
0
100
AcDbLine
 10
704.4591519487267
 20
279.5070253237614
 30
0.0
 11
705.624839986599
 21
277.8759293183215
 31
0.0
  0
LINE
  5
32D
330
1F
100
AcDbEntity
  8
0
100
AcDbLine
 10
708.5767600191002
 20
277.3406945093998
 30
0.0
 11
709.4158742082482
 21
278.4793145879635
 31
0.0
  0
LINE
  5
32E
330
1F
100
AcDbEntity
  8
0
100
AcDbLine
 10
705.624839986599
 20
277.8759293183215
 30
0.0
 11
706.4058992517357
 21
276.7910353764424
 31
0.0
  0
LINE
  5
32F
330
1F
100
AcDbEntity
  8
0
100
AcDbLine
 10
707.962712968624
 20
276.5941537841686
 30
0.0
 11
708.5767600191002
 21
277.3406945093998
 31
0.0
  0
LINE
  5
330
330
1F
100
AcDbEntity
  8
0
100
AcDbLine
 10
706.4058992517357
 20
276.7910353764424
 30
0.0
 11
706.7591759813193
 21
276.3129837736019
 31
0.0
  0
LINE
  5
331
330
1F
100
AcDbEntity
  8
0
100
AcDbLine
 10
707.5240227830773
 20
276.1789031251797
 30
0.0
 11
707.962712968624
 21
276.5941537841686
 31
0.0
  0
LINE
  5
332
330
1F
100
AcDbEntity
  8
0
100
AcDbLine
 10
706.7591759813193
 20
276.3129837736019
 30
0.0
 11
706.9722029817468
 21
276.099099956406
 31
0.0
  0
LINE
  5
333
330
1F
100
AcDbEntity
  8
0
100
AcDbLine
 10
706.9722029817468
 20
276.099099956406
 30
0.0
 11
707.2105023515586
 21
276.034145794762
 31
0.0
  0
LINE
  5
334
330
1F
100
AcDbEntity
  8
0
100
AcDbLine
 10
707.2105023515586
 20
276.034145794762
 30
0.0
 11
707.5240227830773
 21
276.1789031251797
 31
0.0
  0
LINE
  5
335
330
1F
100
AcDbEntity
  8
0
100
AcDbLine
 10
718.4562298906211
 20
291.7291253730186
 30
0.0
 11
719.5240471017723
 21
293.2897090836891
 31
0.0
  0
LINE
  5
336
330
1F
100
AcDbEntity
  8
0
100
AcDbLine
 10
716.2693354738121
 20
301.4382302686104
 30
0.0
 11
713.9733645570641
 21
301.423060886515
 31
0.0
  0
LINE
  5
337
330
1F
100
AcDbEntity
  8
0
100
AcDbLine
 10
719.5240471017723
 20
293.2897090836891
 30
0.0
 11
720.5010268342858
 21
294.7126768454441
 31
0.0
  0
LINE
  5
338
330
1F
100
AcDbEntity
  8
0
100
AcDbLine
 10
718.3862540376548
 20
301.4491937979588
 30
0.0
 11
716.2693354738121
 21
301.4382302686104
 31
0.0
  0
LINE
  5
339
330
1F
100
AcDbEntity
  8
0
100
AcDbLine
 10
720.5010268342858
 20
294.7126768454441
 30
0.0
 11
721.3614198816185
 21
295.9607906564602
 31
0.0
  0
LINE
  5
33A
330
1F
100
AcDbEntity
  8
0
100
AcDbLine
 10
721.3614198816185
 20
295.9607906564602
 30
0.0
 11
722.0799538743859
 21
296.9968087896237
 31
0.0
  0
LINE
  5
33B
330
1F
100
AcDbEntity
  8
0
100
AcDbLine
 10
720.284959996975
 20
301.4558955952057
 30
0.0
 11
718.3862540376548
 21
301.4491937979588
 31
0.0
  0
LINE
  5
33C
330
1F
100
AcDbEntity
  8
0
100
AcDbLine
 10
722.0799538743859
 20
296.9968087896237
 30
0.0
 11
722.6309988153344
 21
297.7834895178208
 31
0.0
  0
LINE
  5
33D
330
1F
100
AcDbEntity
  8
0
100
AcDbLine
 10
722.6309988153344
 20
297.7834895178208
 30
0.0
 11
723.0794045579796
 21
298.4198287054428
 31
0.0
  0
LINE
  5
33E
330
1F
100
AcDbEntity
  8
0
100
AcDbLine
 10
721.92623349551
 20
301.458283506287
 30
0.0
 11
720.284959996975
 21
301.4558955952057
 31
0.0
  0
LINE
  5
33F
330
1F
100
AcDbEntity
  8
0
100
AcDbLine
 10
723.0794045579796
 20
298.4198287054428
 30
0.0
 11
723.5020014894371
 21
299.0226663574108
 31
0.0
  0
LINE
  5
340
330
1F
100
AcDbEntity
  8
0
100
AcDbLine
 10
723.5020014894371
 20
299.0226663574108
 30
0.0
 11
723.8917562616234
 21
299.5815120562443
 31
0.0
  0
LINE
  5
341
330
1F
100
AcDbEntity
  8
0
100
AcDbLine
 10
723.270914281643
 20
301.4562942012676
 30
0.0
 11
721.92623349551
 21
301.458283506287
 31
0.0
  0
LINE
  5
342
330
1F
100
AcDbEntity
  8
0
100
AcDbLine
 10
723.8917562616234
 20
299.5815120562443
 30
0.0
 11
724.2412778985862
 21
300.0858716591724
 31
0.0
  0
LINE
  5
343
330
1F
100
AcDbEntity
  8
0
100
AcDbLine
 10
724.2412778985862
 20
300.0858716591724
 30
0.0
 11
724.5434138429526
 21
300.5252733751663
 31
0.0
  0
LINE
  5
344
330
1F
100
AcDbEntity
  8
0
100
AcDbLine
 10
724.2799613130455
 20
301.4498792513737
 30
0.0
 11
723.270914281643
 21
301.4562942012676
 31
0.0
  0
LINE
  5
345
330
1F
100
AcDbEntity
  8
0
100
AcDbLine
 10
724.5434138429526
 20
300.5252733751663
 30
0.0
 11
724.7910115373497
 21
300.8892267867454
 31
0.0
  0
LINE
  5
346
330
1F
100
AcDbEntity
  8
0
100
AcDbLine
 10
724.9140355241661
 20
301.4389790519604
 30
0.0
 11
724.2799613130455
 21
301.4498792513737
 31
0.0
  0
LINE
  5
347
330
1F
100
AcDbEntity
  8
0
100
AcDbLine
 10
724.7910115373497
 20
300.8892267867454
 30
0.0
 11
724.9767396104697
 21
301.1672414764294
 31
0.0
  0
LINE
  5
348
330
1F
100
AcDbEntity
  8
0
100
AcDbLine
 10
724.9767396104697
 20
301.1672414764294
 30
0.0
 11
725.0935647142296
 21
301.3488382026085
 31
0.0
  0
LINE
  5
349
330
1F
100
AcDbEntity
  8
0
100
AcDbLine
 10
725.0935647142296
 20
301.3488382026085
 30
0.0
 11
725.1340362680321
 21
301.4235265478023
 31
0.0
  0
LINE
  5
34A
330
1F
100
AcDbEntity
  8
0
100
AcDbLine
 10
725.1340362680321
 20
301.4235265478023
 30
0.0
 11
724.9140355241661
 21
301.4389790519604
 31
0.0
  0
LINE
  5
34B
330
1F
100
AcDbEntity
  8
0
100
AcDbLine
 10
689.3724414956934
 20
313.2858119830021
 30
0.0
 11
688.5926935327415
 21
314.4161134883293
 31
0.0
  0
LINE
  5
34C
330
1F
100
AcDbEntity
  8
0
100
AcDbLine
 10
688.5926935327415
 20
314.4161134883293
 30
0.0
 11
687.9253003251915
 21
315.3997391387351
 31
0.0
  0
LINE
  5
34D
330
1F
100
AcDbEntity
  8
0
100
AcDbLine
 10
687.9253003251915
 20
315.3997391387351
 30
0.0
 11
687.3860571039086
 21
316.2132233306298
 31
0.0
  0
LINE
  5
34E
330
1F
100
AcDbEntity
  8
0
100
AcDbLine
 10
687.3860571039086
 20
316.2132233306298
 30
0.0
 11
686.9908783090478
 21
316.833089284552
 31
0.0
  0
LINE
  5
34F
330
1F
100
AcDbEntity
  8
0
100
AcDbLine
 10
686.9908783090478
 20
316.833089284552
 30
0.0
 11
686.7557379854088
 21
317.2358658089766
 31
0.0
  0
LINE
  5
350
330
1F
100
AcDbEntity
  8
0
100
AcDbLine
 10
686.7557379854088
 20
317.2358658089766
 30
0.0
 11
686.6965505731469
 21
317.3980798497328
 31
0.0
  0
LINE
  5
351
330
1F
100
AcDbEntity
  8
0
100
AcDbLine
 10
686.6965505731469
 20
317.3980798497328
 30
0.0
 11
687.3203727853661
 21
317.4296423717865
 31
0.0
  0
LINE
  5
352
330
1F
100
AcDbEntity
  8
0
100
AcDbLine
 10
687.3203727853661
 20
317.4296423717865
 30
0.0
 11
689.053258622921
 21
317.4559522345194
 31
0.0
  0
LINE
  5
353
330
1F
100
AcDbEntity
  8
0
100
AcDbLine
 10
689.053258622921
 20
317.4559522345194
 30
0.0
 11
691.7895886552695
 21
317.4767933710942
 31
0.0
  0
LINE
  5
354
330
1F
100
AcDbEntity
  8
0
100
AcDbLine
 10
695.4236838472252
 20
317.4919422640928
 30
0.0
 11
699.8499247682456
 21
317.5011847093233
 31
0.0
  0
LINE
  5
355
330
1F
100
AcDbEntity
  8
0
100
AcDbLine
 10
794.66690751437
 20
317.247516654385
 30
0.0
 11
796.3500234735375
 21
317.3500608577856
 31
0.0
  0
LINE
  5
356
330
1F
100
AcDbEntity
  8
0
100
AcDbLine
 10
763.1678197038536
 20
291.9813573285469
 30
0.0
 11
763.8071391237145
 21
294.4410398527512
 31
0.0
  0
LINE
  5
357
330
1F
100
AcDbEntity
  8
0
100
AcDbLine
 10
763.8071391237145
 20
294.4410398527512
 30
0.0
 11
764.6575185907249
 21
296.8035034760364
 31
0.0
  0
LINE
  5
358
330
1F
100
AcDbEntity
  8
0
100
AcDbLine
 10
759.8457548272972
 20
317.3651613220105
 30
0.0
 11
736.2792703760033
 21
283.2472167834171
 31
0.0
  0
LINE
  5
359
330
1F
100
AcDbEntity
  8
0
100
AcDbLine
 10
764.6575185907249
 20
296.8035034760364
 30
0.0
 11
765.7216999185448
 21
299.0748278721699
 31
0.0
  0
LINE
  5
35A
330
1F
100
AcDbEntity
  8
0
100
AcDbLine
 10
765.7216999185448
 20
299.0748278721699
 30
0.0
 11
767.0026633394127
 21
301.2610815390476
 31
0.0
  0
LINE
  5
35B
330
1F
100
AcDbEntity
  8
0
100
AcDbLine
 10
764.4736978662377
 20
274.3564315065274
 30
0.0
 11
763.9164540422325
 21
275.788619361771
 31
0.0
  0
LINE
  5
35C
330
1F
100
AcDbEntity
  8
0
100
AcDbLine
 10
763.9164540422325
 20
275.788619361771
 30
0.0
 11
763.4543988359337
 21
277.2225283011326
 31
0.0
  0
LINE
  5
35D
330
1F
100
AcDbEntity
  8
0
100
AcDbLine
 10
736.2792703760033
 20
283.2472167834171
 30
0.0
 11
732.8157636773949
 21
278.2703183516392
 31
0.0
  0
LINE
  5
35E
330
1F
100
AcDbEntity
  8
0
100
AcDbLine
 10
763.4543988359337
 20
277.2225283011326
 30
0.0
 11
763.0844328058129
 21
278.6739312037357
 31
0.0
  0
LINE
  5
35F
330
1F
100
AcDbEntity
  8
0
100
AcDbLine
 10
763.0844328058129
 20
278.6739312037357
 30
0.0
 11
762.8034565103417
 21
280.1586307510265
 31
0.0
  0
LINE
  5
360
330
1F
100
AcDbEntity
  8
0
100
AcDbLine
 10
765.1288721216088
 20
272.9101918562779
 30
0.0
 11
764.4736978662377
 21
274.3564315065274
 31
0.0
  0
LINE
  5
361
330
1F
100
AcDbEntity
  8
0
100
AcDbLine
 10
732.8157636773949
 20
278.2703183516392
 30
0.0
 11
729.5598003518944
 21
273.6174531206021
 31
0.0
  0
LINE
  5
362
330
1F
100
AcDbEntity
  8
0
100
AcDbLine
 10
766.6182729852561
 20
270.2093787416347
 30
0.0
 11
765.1288721216088
 21
272.9101918562779
 31
0.0
  0
LINE
  5
363
330
1F
100
AcDbEntity
  8
0
100
AcDbLine
 10
729.5598003518944
 20
273.6174531206021
 30
0.0
 11
726.5747997415428
 21
269.3778268917927
 31
0.0
  0
LINE
  5
364
330
1F
100
AcDbEntity
  8
0
100
AcDbLine
 10
768.3837029588584
 20
267.6908962353596
 30
0.0
 11
766.6182729852561
 21
270.2093787416347
 31
0.0
  0
LINE
  5
365
330
1F
100
AcDbEntity
  8
0
100
AcDbLine
 10
726.5747997415428
 20
269.3778268917927
 30
0.0
 11
723.9240023744469
 21
265.6406007632145
 31
0.0
  0
LINE
  5
366
330
1F
100
AcDbEntity
  8
0
100
AcDbLine
 10
770.418426717556
 20
265.3599001392254
 30
0.0
 11
768.3837029588584
 21
267.6908962353596
 31
0.0
  0
LINE
  5
367
330
1F
100
AcDbEntity
  8
0
100
AcDbLine
 10
723.9240023744469
 20
265.6406007632145
 30
0.0
 11
721.6706487787133
 21
262.4949805363544
 31
0.0
  0
LINE
  5
368
330
1F
100
AcDbEntity
  8
0
100
AcDbLine
 10
721.6706487787133
 20
262.4949805363544
 30
0.0
 11
719.8779198778038
 21
260.0301273092159
 31
0.0
  0
LINE
  5
369
330
1F
100
AcDbEntity
  8
0
100
AcDbLine
 10
772.7155897271996
 20
263.2215239032635
 30
0.0
 11
770.418426717556
 21
265.3599001392254
 31
0.0
  0
LINE
  5
36A
330
1F
100
AcDbEntity
  8
0
100
AcDbLine
 10
719.8779198778038
 20
260.0301273092159
 30
0.0
 11
718.6092350137596
 21
258.3352394327053
 31
0.0
  0
LINE
  5
36B
330
1F
100
AcDbEntity
  8
0
100
AcDbLine
 10
718.6092350137596
 20
258.3352394327053
 30
0.0
 11
717.927655900753
 21
257.4995078071484
 31
0.0
  0
LINE
  5
36C
330
1F
100
AcDbEntity
  8
0
100
AcDbLine
 10
775.2684566629296
 20
261.2809307798275
 30
0.0
 11
772.7155897271996
 21
263.2215239032635
 31
0.0
  0
LINE
  5
36D
330
1F
100
AcDbEntity
  8
0
100
AcDbLine
 10
717.927655900753
 20
257.4995078071484
 30
0.0
 11
716.9155094278221
 21
256.5257765277752
 31
0.0
  0
LINE
  5
36E
330
1F
100
AcDbEntity
  8
0
100
AcDbLine
 10
778.0702921998864
 20
259.5432840212711
 30
0.0
 11
775.2684566629296
 21
261.2809307798275
 31
0.0
  0
LINE
  5
36F
330
1F
100
AcDbEntity
  8
0
100
AcDbLine
 10
716.9155094278221
 20
256.5257765277752
 30
0.0
 11
715.9030649316674
 21
255.686684690369
 31
0.0
  0
LINE
  5
370
330
1F
100
AcDbEntity
  8
0
100
AcDbLine
 10
715.9030649316674
 20
255.686684690369
 30
0.0
 11
714.8783418786888
 21
254.9769796356091
 31
0.0
  0
LINE
  5
371
330
1F
100
AcDbEntity
  8
0
100
AcDbLine
 10
781.1142418039207
 20
258.0136947258839
 30
0.0
 11
778.0702921998864
 21
259.5432840212711
 31
0.0
  0
LINE
  5
372
330
1F
100
AcDbEntity
  8
0
100
AcDbLine
 10
714.8783418786888
 20
254.9769796356091
 30
0.0
 11
713.8292405259971
 21
254.3914385064968
 31
0.0
  0
LINE
  5
373
330
1F
100
AcDbEntity
  8
0
100
AcDbLine
 10
784.393629754818
 20
256.6973410471805
 30
0.0
 11
781.1142418039207
 21
258.0136947258839
 31
0.0
  0
LINE
  5
374
330
1F
100
AcDbEntity
  8
0
100
AcDbLine
 10
709.1443154466515
 20
253.1863890513309
 30
0.0
 11
707.7901575219994
 21
253.1432501896747
 31
0.0
  0
LINE
  5
375
330
1F
100
AcDbEntity
  8
0
100
AcDbLine
 10
703.8685295236472
 20
253.6028541549572
 30
0.0
 11
702.692768300808
 21
253.9643786772617
 31
0.0
  0
LINE
  5
376
330
1F
100
AcDbEntity
  8
0
100
AcDbLine
 10
918.2229253900414
 20
292.7413798793682
 30
0.0
 11
929.5178863656884
 21
278.3953539952167
 31
0.0
  0
LINE
  5
377
330
1F
100
AcDbEntity
  8
0
100
AcDbLine
 10
960.1564023149375
 20
53.80236282194938
 30
0.0
 11
960.1564023149375
 21
352.1611231304237
 31
0.0
  0
LINE
  5
378
330
1F
100
AcDbEntity
  8
0
100
AcDbLine
 10
929.3159458291892
 20
91.34419932211723
 30
0.0
 11
930.1884982240563
 21
89.77075590933646
 31
0.0
  0
LINE
  5
379
330
1F
100
AcDbEntity
  8
0
100
AcDbLine
 10
878.8719389093285
 20
292.7413798793682
 30
0.0
 11
918.2229253900414
 21
292.7413798793682
 31
0.0
  0
LINE
  5
37A
330
1F
100
AcDbEntity
  8
0
100
AcDbLine
 10
878.8719389093285
 20
301.2998357340225
 30
0.0
 11
878.8719389093285
 21
292.7413798793682
 31
0.0
  0
LINE
  5
37B
330
1F
100
AcDbEntity
  8
0
100
AcDbLine
 10
933.2397195947534
 20
301.5202946885952
 30
0.0
 11
878.8719389093285
 21
301.2998357340225
 31
0.0
  0
LINE
  5
37C
330
1F
100
AcDbEntity
  8
0
100
AcDbLine
 10
929.5178863656884
 20
278.3953539952167
 30
0.0
 11
878.8386795175438
 21
278.1744293793568
 31
0.0
  0
LINE
  5
37D
330
1F
100
AcDbEntity
  8
0
100
AcDbLine
 10
878.8386795175438
 20
278.1744293793568
 30
0.0
 11
879.0860387933616
 21
270.6870354637035
 31
0.0
  0
LINE
  5
37E
330
1F
100
AcDbEntity
  8
0
100
AcDbLine
 10
879.0860387933616
 20
270.6870354637035
 30
0.0
 11
920.6252905977135
 21
270.4201482161411
 31
0.0
  0
LINE
  5
37F
330
1F
100
AcDbEntity
  8
0
100
AcDbLine
 10
930.402717317379
 20
257.5548879727253
 30
0.0
 11
930.9573385370139
 21
256.8192548974881
 31
0.0
  0
LINE
  5
380
330
1F
100
AcDbEntity
  8
0
100
AcDbLine
 10
930.9573385370139
 20
256.8192548974881
 30
0.0
 11
931.3921544206505
 21
256.240344785107
 31
0.0
  0
LINE
  5
381
330
1F
100
AcDbEntity
  8
0
100
AcDbLine
 10
931.3921544206505
 20
256.240344785107
 30
0.0
 11
932.9042050493126
 21
254.1998170241245
 31
0.0
  0
LINE
  5
382
330
1F
100
AcDbEntity
  8
0
100
AcDbLine
 10
864.7130343568687
 20
224.2230318411716
 30
0.0
 11
933.1705186021691
 21
224.2230318411716
 31
0.0
  0
LINE
  5
383
330
1F
100
AcDbEntity
  8
0
100
AcDbLine
 10
932.9042050493126
 20
254.1998170241245
 30
0.0
 11
859.1729018342857
 21
254.1998170241245
 31
0.0
  0
LINE
  5
384
330
1F
100
AcDbEntity
  8
0
100
AcDbLine
 10
844.7121593606836
 20
254.7597877606281
 30
0.0
 11
844.5914003503684
 21
254.5628316625484
 31
0.0
  0
LINE
  5
385
330
1F
100
AcDbEntity
  8
0
100
AcDbLine
 10
804.5332643640404
 20
317.5151955261358
 30
0.0
 11
808.7030264985924
 21
317.5369400456079
 31
0.0
  0
LINE
  5
386
330
1F
100
AcDbEntity
  8
0
100
AcDbLine
 10
808.7030264985924
 20
317.5369400456079
 30
0.0
 11
832.8622195375327
 21
317.57927796985
 31
0.0
  0
LINE
  5
387
330
1F
100
AcDbEntity
  8
0
100
AcDbLine
 10
832.8622195375327
 20
317.57927796985
 30
0.0
 11
845.0409385812645
 21
301.5527456923851
 31
0.0
  0
LINE
  5
388
330
1F
100
AcDbEntity
  8
0
100
AcDbLine
 10
859.1729018342857
 20
254.1998170241245
 30
0.0
 11
859.1729018342857
 21
317.5792798324951
 31
0.0
  0
LINE
  5
389
330
1F
100
AcDbEntity
  8
0
100
AcDbLine
 10
859.1729018342857
 20
317.5792798324951
 30
0.0
 11
920.8083960664636
 21
317.5792798324951
 31
0.0
  0
LINE
  5
38A
330
1F
100
AcDbEntity
  8
0
100
AcDbLine
 10
920.8083960664636
 20
317.5792798324951
 30
0.0
 11
933.2397195947534
 21
301.5202946885952
 31
0.0
  0
LINE
  5
38B
330
1F
100
AcDbEntity
  8
0
100
AcDbLine
 10
894.7167012346152
 20
152.9191352352032
 30
0.0
 11
895.0044724595908
 21
152.3226268514523
 31
0.0
  0
LINE
  5
38C
330
1F
100
AcDbEntity
  8
0
100
AcDbLine
 10
895.0280162942771
 20
153.5820282920727
 30
0.0
 11
894.7167012346152
 21
152.9191352352032
 31
0.0
  0
LINE
  5
38D
330
1F
100
AcDbEntity
  8
0
100
AcDbLine
 10
895.0044724595908
 20
152.3226268514523
 30
0.0
 11
895.8334538591271
 21
150.7780767902263
 31
0.0
  0
LINE
  5
38E
330
1F
100
AcDbEntity
  8
0
100
AcDbLine
 10
895.9246489656334
 20
155.3178347572216
 30
0.0
 11
895.0280162942771
 21
153.5820282920727
 31
0.0
  0
LINE
  5
38F
330
1F
100
AcDbEntity
  8
0
100
AcDbLine
 10
895.8334538591271
 20
150.7780767902263
 30
0.0
 11
897.1523854387169
 21
148.3771122917065
 31
0.0
  0
LINE
  5
390
330
1F
100
AcDbEntity
  8
0
100
AcDbLine
 10
897.3515841615564
 20
158.023095868481
 30
0.0
 11
895.9246489656334
 21
155.3178347572216
 31
0.0
  0
LINE
  5
391
330
1F
100
AcDbEntity
  8
0
100
AcDbLine
 10
897.1523854387169
 20
148.3771122917065
 30
0.0
 11
898.9102456224327
 21
145.2113456949123
 31
0.0
  0
LINE
  5
392
330
1F
100
AcDbEntity
  8
0
100
AcDbLine
 10
899.2531511438256
 20
161.594412468327
 30
0.0
 11
897.3515841615564
 21
158.023095868481
 31
0.0
  0
LINE
  5
393
330
1F
100
AcDbEntity
  8
0
100
AcDbLine
 10
898.9102456224327
 20
145.2113456949123
 30
0.0
 11
901.0558340204126
 21
141.3723744377025
 31
0.0
  0
LINE
  5
394
330
1F
100
AcDbEntity
  8
0
100
AcDbLine
 10
901.5740964067345
 20
165.9283555969128
 30
0.0
 11
899.2531511438256
 21
161.594412468327
 31
0.0
  0
LINE
  5
395
330
1F
100
AcDbEntity
  8
0
100
AcDbLine
 10
901.0558340204126
 20
141.3723744377025
 30
0.0
 11
903.5377714288597
 21
136.9518406614193
 31
0.0
  0
LINE
  5
396
330
1F
100
AcDbEntity
  8
0
100
AcDbLine
 10
910.499176706112
 20
182.4717141612896
 30
0.0
 11
907.2525117051963
 21
176.4704205020794
 31
0.0
  0
LINE
  5
397
330
1F
100
AcDbEntity
  8
0
100
AcDbLine
 10
933.1705186021691
 20
224.2230318411716
 30
0.0
 11
910.499176706112
 21
182.4717141612896
 31
0.0
  0
LINE
  5
398
330
1F
100
AcDbEntity
  8
0
100
AcDbLine
 10
927.9567215097313
 20
93.77174749220696
 30
0.0
 11
929.3159458291892
 21
91.34419932211723
 31
0.0
  0
LINE
  5
399
330
1F
100
AcDbEntity
  8
0
100
AcDbLine
 10
930.1884982240563
 20
89.77075590933646
 30
0.0
 11
930.5224630487328
 21
89.14362563933219
 31
0.0
  0
LINE
  5
39A
330
1F
100
AcDbEntity
  8
0
100
AcDbLine
 10
930.5224630487328
 20
89.14362563933219
 30
0.0
 11
930.440685476101
 21
88.96052017058219
 31
0.0
  0
LINE
  5
39B
330
1F
100
AcDbEntity
  8
0
100
AcDbLine
 10
930.440685476101
 20
88.96052017058219
 30
0.0
 11
929.9104425561791
 21
88.81365432585562
 31
0.0
  0
LINE
  5
39C
330
1F
100
AcDbEntity
  8
0
100
AcDbLine
 10
929.9104425561791
 20
88.81365432585562
 30
0.0
 11
928.7376615655786
 21
88.69918360556449
 31
0.0
  0
LINE
  5
39D
330
1F
100
AcDbEntity
  8
0
100
AcDbLine
 10
928.7376615655786
 20
88.69918360556449
 30
0.0
 11
926.728150571621
 21
88.61308469618643
 31
0.0
  0
LINE
  5
39E
330
1F
100
AcDbEntity
  8
0
100
AcDbLine
 10
926.728150571621
 20
88.61308469618643
 30
0.0
 11
923.6877176416283
 21
88.5514534934887
 31
0.0
  0
LINE
  5
39F
330
1F
100
AcDbEntity
  8
0
100
AcDbLine
 10
923.6877176416283
 20
88.5514534934887
 30
0.0
 11
919.4221708429222
 21
88.51038589323844
 31
0.0
  0
LINE
  5
3A0
330
1F
100
AcDbEntity
  8
0
100
AcDbLine
 10
919.4221708429222
 20
88.51038589323844
 30
0.0
 11
913.7374970567589
 21
88.48591818655815
 31
0.0
  0
LINE
  5
3A1
330
1F
100
AcDbEntity
  8
0
100
AcDbLine
 10
913.7374970567589
 20
88.48591818655815
 30
0.0
 11
906.4393851411705
 21
88.474146269215
 31
0.0
  0
LINE
  5
3A2
330
1F
100
AcDbEntity
  8
0
100
AcDbLine
 10
906.4393851411705
 20
88.474146269215
 30
0.0
 11
863.8872120035057
 21
88.47107663000907
 31
0.0
  0
LINE
  5
3A3
330
1F
100
AcDbEntity
  8
0
100
AcDbLine
 10
836.4761683595543
 20
88.47107663000907
 30
0.0
 11
778.2355758798485
 21
88.47107663000907
 31
0.0
  0
LINE
  5
3A4
330
1F
100
AcDbEntity
  8
0
100
AcDbLine
 10
863.8872120035057
 20
88.47107663000907
 30
0.0
 11
854.4622275483971
 21
107.3061741813549
 31
0.0
  0
LINE
  5
3A5
330
1F
100
AcDbEntity
  8
0
100
AcDbLine
 10
854.4622275483971
 20
107.3061741813549
 30
0.0
 11
854.4622275483971
 21
203.5423733219036
 31
0.0
  0
LINE
  5
3A6
330
1F
100
AcDbEntity
  8
0
100
AcDbLine
 10
836.4761683595543
 20
224.2230318411716
 30
0.0
 11
836.4761683595543
 21
88.47107663000907
 31
0.0
  0
LINE
  5
3A7
330
1F
100
AcDbEntity
  8
0
100
AcDbLine
 10
854.4622275483971
 20
203.5423733219036
 30
0.0
 11
864.7130343568687
 21
224.2230318411716
 31
0.0
  0
LINE
  5
3A8
330
1F
100
AcDbEntity
  8
0
100
AcDbLine
 10
778.2355758798485
 20
224.2230318411716
 30
0.0
 11
836.4761683595543
 21
224.2230318411716
 31
0.0
  0
LINE
  5
3A9
330
1F
100
AcDbEntity
  8
0
100
AcDbLine
 10
840.5471655977136
 20
254.2575217708477
 30
0.0
 11
837.2664663446313
 21
254.2314670905003
 31
0.0
  0
LINE
  5
3AA
330
1F
100
AcDbEntity
  8
0
100
AcDbLine
 10
837.2664663446313
 20
254.2314670905003
 30
0.0
 11
832.6666566980248
 21
254.233523450745
 31
0.0
  0
LINE
  5
3AB
330
1F
100
AcDbEntity
  8
0
100
AcDbLine
 10
762.8034565103417
 20
280.1586307510265
 30
0.0
 11
762.6086089265709
 21
281.6923998221286
 31
0.0
  0
LINE
  5
3AC
330
1F
100
AcDbEntity
  8
0
100
AcDbLine
 10
762.6086089265709
 20
281.6923998221286
 30
0.0
 11
762.4969098222618
 21
283.2910336479076
 31
0.0
  0
LINE
  5
3AD
330
1F
100
AcDbEntity
  8
0
100
AcDbLine
 10
762.4969098222618
 20
283.2910336479076
 30
0.0
 11
762.4653789651757
 21
284.9703125580677
 31
0.0
  0
LINE
  5
3AE
330
1F
100
AcDbEntity
  8
0
100
AcDbLine
 10
762.4653789651757
 20
284.9703125580677
 30
0.0
 11
762.5109169137841
 21
286.746028058184
 31
0.0
  0
LINE
  5
3AF
330
1F
100
AcDbEntity
  8
0
100
AcDbLine
 10
762.5109169137841
 20
286.746028058184
 30
0.0
 11
762.7367589128379
 21
289.4183762296566
 31
0.0
  0
LINE
  5
3B0
330
1F
100
AcDbEntity
  8
0
100
AcDbLine
 10
762.7367589128379
 20
289.4183762296566
 30
0.0
 11
763.1678197038536
 21
291.9813573285469
 31
0.0
  0
LINE
  5
3B1
330
1F
100
AcDbEntity
  8
0
100
AcDbLine
 10
767.0026633394127
 20
301.2610815390476
 30
0.0
 11
768.5032102716332
 21
303.3683478757271
 31
0.0
  0
LINE
  5
3B2
330
1F
100
AcDbEntity
  8
0
100
AcDbLine
 10
768.5032102716332
 20
303.3683478757271
 30
0.0
 11
770.2262613428002
 21
305.402702830685
 31
0.0
  0
LINE
  5
3B3
330
1F
100
AcDbEntity
  8
0
100
AcDbLine
 10
770.2262613428002
 20
305.402702830685
 30
0.0
 11
772.1744987619285
 21
307.3702260776886
 31
0.0
  0
LINE
  5
3B4
330
1F
100
AcDbEntity
  8
0
100
AcDbLine
 10
772.1744987619285
 20
307.3702260776886
 30
0.0
 11
773.8786551607017
 21
308.8709928020367
 31
0.0
  0
LINE
  5
3B5
330
1F
100
AcDbEntity
  8
0
100
AcDbLine
 10
773.8786551607017
 20
308.8709928020367
 30
0.0
 11
775.665840829647
 21
310.2487914189228
 31
0.0
  0
LINE
  5
3B6
330
1F
100
AcDbEntity
  8
0
100
AcDbLine
 10
775.665840829647
 20
310.2487914189228
 30
0.0
 11
777.5430295122031
 21
311.507041744841
 31
0.0
  0
LINE
  5
3B7
330
1F
100
AcDbEntity
  8
0
100
AcDbLine
 10
777.5430295122031
 20
311.507041744841
 30
0.0
 11
779.5171949518088
 21
312.6491673215755
 31
0.0
  0
LINE
  5
3B8
330
1F
100
AcDbEntity
  8
0
100
AcDbLine
 10
779.5171949518088
 20
312.6491673215755
 30
0.0
 11
781.5950128686791
 21
313.678595416201
 31
0.0
  0
LINE
  5
3B9
330
1F
100
AcDbEntity
  8
0
100
AcDbLine
 10
781.5950128686791
 20
313.678595416201
 30
0.0
 11
783.7836358201865
 21
314.5987458452114
 31
0.0
  0
LINE
  5
3BA
330
1F
100
AcDbEntity
  8
0
100
AcDbLine
 10
783.7836358201865
 20
314.5987458452114
 30
0.0
 11
786.0898587358361
 21
315.4130458756812
 31
0.0
  0
LINE
  5
3BB
330
1F
100
AcDbEntity
  8
0
100
AcDbLine
 10
786.0898587358361
 20
315.4130458756812
 30
0.0
 11
788.5205957544213
 21
316.1249153241047
 31
0.0
  0
LINE
  5
3BC
330
1F
100
AcDbEntity
  8
0
100
AcDbLine
 10
788.5205957544213
 20
316.1249153241047
 30
0.0
 11
791.0827610147362
 21
316.7377814575562
 31
0.0
  0
LINE
  5
3BD
330
1F
100
AcDbEntity
  8
0
100
AcDbLine
 10
791.0827610147362
 20
316.7377814575562
 30
0.0
 11
792.1524855745201
 21
316.9456265791782
 31
0.0
  0
LINE
  5
3BE
330
1F
100
AcDbEntity
  8
0
100
AcDbLine
 10
792.1524855745201
 20
316.9456265791782
 30
0.0
 11
793.3074447763328
 21
317.1141270473131
 31
0.0
  0
LINE
  5
3BF
330
1F
100
AcDbEntity
  8
0
100
AcDbLine
 10
793.3074447763328
 20
317.1141270473131
 30
0.0
 11
794.66690751437
 21
317.247516654385
 31
0.0
  0
LINE
  5
3C0
330
1F
100
AcDbEntity
  8
0
100
AcDbLine
 10
796.3500234735375
 20
317.3500608577856
 30
0.0
 11
798.4759423387413
 21
317.4260139390358
 31
0.0
  0
LINE
  5
3C1
330
1F
100
AcDbEntity
  8
0
100
AcDbLine
 10
798.4759423387413
 20
317.4260139390358
 30
0.0
 11
801.1639926088219
 21
317.4796394928821
 31
0.0
  0
LINE
  5
3C2
330
1F
100
AcDbEntity
  8
0
100
AcDbLine
 10
801.1639926088219
 20
317.4796394928821
 30
0.0
 11
804.5332643640404
 21
317.5151955261358
 31
0.0
  0
LINE
  5
3C3
330
1F
100
AcDbEntity
  8
0
100
AcDbLine
 10
845.0409385812645
 20
301.5527456923851
 30
0.0
 11
844.6507665765648
 21
301.5085749253162
 31
0.0
  0
LINE
  5
3C4
330
1F
100
AcDbEntity
  8
0
100
AcDbLine
 10
844.6507665765648
 20
301.5085749253162
 30
0.0
 11
843.5265037668114
 21
301.4669410809406
 31
0.0
  0
LINE
  5
3C5
330
1F
100
AcDbEntity
  8
0
100
AcDbLine
 10
843.5265037668114
 20
301.4669410809406
 30
0.0
 11
841.7375299585228
 21
301.428551964415
 31
0.0
  0
LINE
  5
3C6
330
1F
100
AcDbEntity
  8
0
100
AcDbLine
 10
841.7375299585228
 20
301.428551964415
 30
0.0
 11
839.3535229814414
 21
301.3941228314766
 31
0.0
  0
LINE
  5
3C7
330
1F
100
AcDbEntity
  8
0
100
AcDbLine
 10
839.3535229814414
 20
301.3941228314766
 30
0.0
 11
836.443624223507
 21
301.3643614872821
 31
0.0
  0
LINE
  5
3C8
330
1F
100
AcDbEntity
  8
0
100
AcDbLine
 10
836.443624223507
 20
301.3643614872821
 30
0.0
 11
833.0774519098168
 21
301.3399757369885
 31
0.0
  0
LINE
  5
3C9
330
1F
100
AcDbEntity
  8
0
100
AcDbLine
 10
833.0774519098168
 20
301.3399757369885
 30
0.0
 11
829.3243858468894
 21
301.3216808363327
 31
0.0
  0
LINE
  5
3CA
330
1F
100
AcDbEntity
  8
0
100
AcDbLine
 10
829.3243858468894
 20
301.3216808363327
 30
0.0
 11
825.2538654458886
 21
301.3101808651814
 31
0.0
  0
LINE
  5
3CB
330
1F
100
AcDbEntity
  8
0
100
AcDbLine
 10
811.6116139543419
 20
270.4867862089999
 30
0.0
 11
832.8361127031211
 21
270.4707823618778
 31
0.0
  0
LINE
  5
3CC
330
1F
100
AcDbEntity
  8
0
100
AcDbLine
 10
813.2363173616294
 20
301.3011172338852
 30
0.0
 11
807.1466300142174
 21
301.2749917730221
 31
0.0
  0
LINE
  5
3CD
330
1F
100
AcDbEntity
  8
0
100
AcDbLine
 10
808.1052515161399
 20
270.5059192999729
 30
0.0
 11
811.6116139543419
 21
270.4867862089999
 31
0.0
  0
LINE
  5
3CE
330
1F
100
AcDbEntity
  8
0
100
AcDbLine
 10
805.1356885087853
 20
270.5383367761501
 30
0.0
 11
808.1052515161399
 21
270.5059192999729
 31
0.0
  0
LINE
  5
3CF
330
1F
100
AcDbEntity
  8
0
100
AcDbLine
 10
807.1466300142174
 20
301.2749917730221
 30
0.0
 11
802.4350616586571
 21
301.21143459524
 31
0.0
  0
LINE
  5
3D0
330
1F
100
AcDbEntity
  8
0
100
AcDbLine
 10
802.6507112634545
 20
270.5856479629406
 30
0.0
 11
805.1356885087853
 21
270.5383367761501
 31
0.0
  0
LINE
  5
3D1
330
1F
100
AcDbEntity
  8
0
100
AcDbLine
 10
800.5985233438378
 20
270.6494547351726
 30
0.0
 11
802.6507112634545
 21
270.5856479629406
 31
0.0
  0
LINE
  5
3D2
330
1F
100
AcDbEntity
  8
0
100
AcDbLine
 10
802.4350616586571
 20
301.21143459524
 30
0.0
 11
798.8702866685752
 21
301.0940805002579
 31
0.0
  0
LINE
  5
3D3
330
1F
100
AcDbEntity
  8
0
100
AcDbLine
 10
798.9271494996912
 20
270.7314036711582
 30
0.0
 11
800.5985233438378
 21
270.6494547351726
 31
0.0
  0
LINE
  5
3D4
330
1F
100
AcDbEntity
  8
0
100
AcDbLine
 10
797.5845548761254
 20
270.833089195145
 30
0.0
 11
798.9271494996912
 21
270.7314036711582
 31
0.0
  0
LINE
  5
3D5
330
1F
100
AcDbEntity
  8
0
100
AcDbLine
 10
791.8610188615685
 20
272.3146594985851
 30
0.0
 11
793.7211010110741
 21
271.619281910313
 31
0.0
  0
LINE
  5
3D6
330
1F
100
AcDbEntity
  8
0
100
AcDbLine
 10
793.7211010110741
 20
271.619281910313
 30
0.0
 11
795.6778618944054
 21
271.1021371110805
 31
0.0
  0
LINE
  5
3D7
330
1F
100
AcDbEntity
  8
0
100
AcDbLine
 10
798.8702866685752
 20
301.0940805002579
 30
0.0
 11
796.220919812954
 21
300.9065531119236
 31
0.0
  0
LINE
  5
3D8
330
1F
100
AcDbEntity
  8
0
100
AcDbLine
 10
795.6778618944054
 20
271.1021371110805
 30
0.0
 11
796.5187642228965
 21
270.9561280831226
 31
0.0
  0
LINE
  5
3D9
330
1F
100
AcDbEntity
  8
0
100
AcDbLine
 10
796.5187642228965
 20
270.9561280831226
 30
0.0
 11
797.5845548761254
 21
270.833089195145
 31
0.0
  0
LINE
  5
3DA
330
1F
100
AcDbEntity
  8
0
100
AcDbLine
 10
790.1141259324914
 20
273.1754325255283
 30
0.0
 11
791.8610188615685
 21
272.3146594985851
 31
0.0
  0
LINE
  5
3DB
330
1F
100
AcDbEntity
  8
0
100
AcDbLine
 10
796.220919812954
 20
300.9065531119236
 30
0.0
 11
794.2556950700646
 21
300.6324835046657
 31
0.0
  0
LINE
  5
3DC
330
1F
100
AcDbEntity
  8
0
100
AcDbLine
 10
791.452727044857
 20
299.7592270299324
 30
0.0
 11
790.1524517190819
 21
299.1272985860237
 31
0.0
  0
LINE
  5
3DD
330
1F
100
AcDbEntity
  8
0
100
AcDbLine
 10
794.2556950700646
 20
300.6324835046657
 30
0.0
 11
792.7434656274681
 21
300.2554990276226
 31
0.0
  0
LINE
  5
3DE
330
1F
100
AcDbEntity
  8
0
100
AcDbLine
 10
792.7434656274681
 20
300.2554990276226
 30
0.0
 11
791.452727044857
 21
299.7592270299324
 31
0.0
  0
LINE
  5
3DF
330
1F
100
AcDbEntity
  8
0
100
AcDbLine
 10
789.2918798578148
 20
298.636037103785
 30
0.0
 11
788.4127113473779
 21
298.0369284674057
 31
0.0
  0
LINE
  5
3E0
330
1F
100
AcDbEntity
  8
0
100
AcDbLine
 10
790.1524517190819
 20
299.1272985860237
 30
0.0
 11
789.2918798578148
 21
298.636037103785
 31
0.0
  0
LINE
  5
3E1
330
1F
100
AcDbEntity
  8
0
100
AcDbLine
 10
788.496753896511
 20
274.1887040361294
 30
0.0
 11
790.1141259324914
 21
273.1754325255283
 31
0.0
  0
LINE
  5
3E2
330
1F
100
AcDbEntity
  8
0
100
AcDbLine
 10
788.4127113473779
 20
298.0369284674057
 30
0.0
 11
787.5343773019677
 21
297.3492920323738
 31
0.0
  0
LINE
  5
3E3
330
1F
100
AcDbEntity
  8
0
100
AcDbLine
 10
787.5343773019677
 20
297.3492920323738
 30
0.0
 11
786.676606859005
 21
296.5924397035965
 31
0.0
  0
LINE
  5
3E4
330
1F
100
AcDbEntity
  8
0
100
AcDbLine
 10
787.0253536355858
 20
275.3416366800197
 30
0.0
 11
788.496753896511
 21
274.1887040361294
 31
0.0
  0
LINE
  5
3E5
330
1F
100
AcDbEntity
  8
0
100
AcDbLine
 10
785.7163164270287
 20
276.6213484033474
 30
0.0
 11
787.0253536355858
 21
275.3416366800197
 31
0.0
  0
LINE
  5
3E6
330
1F
100
AcDbEntity
  8
0
100
AcDbLine
 10
782.1101758134728
 20
286.1999116763005
 30
0.0
 11
782.1579787385826
 21
284.8385639413722
 31
0.0
  0
LINE
  5
3E7
330
1F
100
AcDbEntity
  8
0
100
AcDbLine
 10
784.5860931527976
 20
278.0149869545826
 30
0.0
 11
785.7163164270287
 21
276.6213484033474
 31
0.0
  0
LINE
  5
3E8
330
1F
100
AcDbEntity
  8
0
100
AcDbLine
 10
782.1579787385826
 20
284.8385639413722
 30
0.0
 11
782.3093745363121
 21
283.5127331241497
 31
0.0
  0
LINE
  5
3E9
330
1F
100
AcDbEntity
  8
0
100
AcDbLine
 10
783.6510750902062
 20
279.5096851810345
 30
0.0
 11
784.5860931527976
 21
278.0149869545826
 31
0.0
  0
LINE
  5
3EA
330
1F
100
AcDbEntity
  8
0
100
AcDbLine
 10
782.3093745363121
 20
283.5127331241497
 30
0.0
 11
782.5655552995568
 21
282.2536595090755
 31
0.0
  0
LINE
  5
3EB
330
1F
100
AcDbEntity
  8
0
100
AcDbLine
 10
782.5655552995568
 20
282.2536595090755
 30
0.0
 11
782.927713121212
 21
281.0925833805927
 31
0.0
  0
LINE
  5
3EC
330
1F
100
AcDbEntity
  8
0
100
AcDbLine
 10
782.927713121212
 20
281.0925833805927
 30
0.0
 11
783.6510750902062
 21
279.5096851810345
 31
0.0
  0
LINE
  5
3ED
330
1F
100
AcDbEntity
  8
0
100
AcDbLine
 10
786.676606859005
 20
296.5924397035965
 30
0.0
 11
785.8587715280418
 21
295.7856908365616
 31
0.0
  0
LINE
  5
3EE
330
1F
100
AcDbEntity
  8
0
100
AcDbLine
 10
782.1645352495079
 20
287.5655397697815
 30
0.0
 11
782.1101758134728
 21
286.1999116763005
 31
0.0
  0
LINE
  5
3EF
330
1F
100
AcDbEntity
  8
0
100
AcDbLine
 10
785.8587715280418
 20
295.7856908365616
 30
0.0
 11
785.1006004464988
 21
294.948353610886
 31
0.0
  0
LINE
  5
3F0
330
1F
100
AcDbEntity
  8
0
100
AcDbLine
 10
782.3198649537926
 20
288.9042042120823
 30
0.0
 11
782.1645352495079
 21
287.5655397697815
 31
0.0
  0
LINE
  5
3F1
330
1F
100
AcDbEntity
  8
0
100
AcDbLine
 10
785.1006004464988
 20
294.948353610886
 30
0.0
 11
784.4216439378625
 21
294.0997511073479
 31
0.0
  0
LINE
  5
3F2
330
1F
100
AcDbEntity
  8
0
100
AcDbLine
 10
782.575032438076
 20
290.1846647187599
 30
0.0
 11
782.3198649537926
 21
288.9042042120823
 31
0.0
  0
LINE
  5
3F3
330
1F
100
AcDbEntity
  8
0
100
AcDbLine
 10
782.9286667955284
 20
291.3756772800812
 30
0.0
 11
782.575032438076
 21
290.1846647187599
 31
0.0
  0
LINE
  5
3F4
330
1F
100
AcDbEntity
  8
0
100
AcDbLine
 10
784.4216439378625
 20
294.0997511073479
 30
0.0
 11
783.8415119302636
 21
293.2591952308545
 31
0.0
  0
LINE
  5
3F5
330
1F
100
AcDbEntity
  8
0
100
AcDbLine
 10
783.8415119302636
 20
293.2591952308545
 30
0.0
 11
783.3796951425438
 21
292.4460090621837
 31
0.0
  0
LINE
  5
3F6
330
1F
100
AcDbEntity
  8
0
100
AcDbLine
 10
783.3796951425438
 20
292.4460090621837
 30
0.0
 11
782.9286667955284
 21
291.3756772800812
 31
0.0
  0
LINE
  5
3F7
330
1F
100
AcDbEntity
  8
0
100
AcDbLine
 10
842.1268078935509
 20
258.2723267301449
 30
0.0
 11
842.8714487207297
 21
257.2876952513584
 31
0.0
  0
LINE
  5
3F8
330
1F
100
AcDbEntity
  8
0
100
AcDbLine
 10
842.8714487207297
 20
257.2876952513584
 30
0.0
 11
843.5060593736533
 21
256.4460553153881
 31
0.0
  0
LINE
  5
3F9
330
1F
100
AcDbEntity
  8
0
100
AcDbLine
 10
843.5060593736533
 20
256.4460553153881
 30
0.0
 11
844.0128776681787
 21
255.7709060534366
 31
0.0
  0
LINE
  5
3FA
330
1F
100
AcDbEntity
  8
0
100
AcDbLine
 10
844.0128776681787
 20
255.7709060534366
 30
0.0
 11
844.3741414201621
 21
255.2857540472874
 31
0.0
  0
LINE
  5
3FB
330
1F
100
AcDbEntity
  8
0
100
AcDbLine
 10
844.3741414201621
 20
255.2857540472874
 30
0.0
 11
844.5720288408166
 21
255.0140835269817
 31
0.0
  0
LINE
  5
3FC
330
1F
100
AcDbEntity
  8
0
100
AcDbLine
 10
844.5720288408166
 20
255.0140835269817
 30
0.0
 11
844.7121593606836
 21
254.7597877606281
 31
0.0
  0
LINE
  5
3FD
330
1F
100
AcDbEntity
  8
0
100
AcDbLine
 10
844.5914003503684
 20
254.5628316625484
 30
0.0
 11
843.9979765069846
 21
254.4173665269741
 31
0.0
  0
LINE
  5
3FE
330
1F
100
AcDbEntity
  8
0
100
AcDbLine
 10
843.9979765069846
 20
254.4173665269741
 30
0.0
 11
842.7204701555138
 21
254.3175436481365
 31
0.0
  0
LINE
  5
3FF
330
1F
100
AcDbEntity
  8
0
100
AcDbLine
 10
842.7204701555138
 20
254.3175436481365
 30
0.0
 11
840.5471655977136
 21
254.2575217708477
 31
0.0
  0
LINE
  5
400
330
1F
100
AcDbEntity
  8
0
100
AcDbLine
 10
666.2509057176476
 20
107.527724645985
 30
0.0
 11
686.1640426767235
 21
107.2978295310863
 31
0.0
  0
LINE
  5
401
330
1F
100
AcDbEntity
  8
0
100
AcDbLine
 10
686.1640426767235
 20
107.2978295310863
 30
0.0
 11
686.1640426767235
 21
144.1422171815761
 31
0.0
  0
LINE
  5
402
330
1F
100
AcDbEntity
  8
0
100
AcDbLine
 10
686.1640426767235
 20
144.1422171815761
 30
0.0
 11
666.0275671136742
 21
144.1422171815761
 31
0.0
  0
LINE
  5
403
330
1F
100
AcDbEntity
  8
0
100
AcDbLine
 10
666.0275671136742
 20
144.1422171815761
 30
0.0
 11
666.2509057176476
 21
107.527724645985
 31
0.0
  0
LINE
  5
404
330
1F
100
AcDbEntity
  8
0
100
AcDbLine
 10
246.0344496620064
 20
214.241466663731
 30
0.0
 11
309.0989801538353
 21
88.49318995322072
 31
0.0
  0
LINE
  5
405
330
1F
100
AcDbEntity
  8
0
100
AcDbLine
 10
749.7576090944176
 20
119.9466802104839
 30
0.0
 11
749.7402045381432
 21
175.9061284288296
 31
0.0
  0
LINE
  5
406
330
1F
100
AcDbEntity
  8
0
100
AcDbLine
 10
718.496105397976
 20
88.68520631636466
 30
0.0
 11
656.7692968500022
 21
88.70013727988089
 31
0.0
  0
LINE
  5
407
330
1F
100
AcDbEntity
  8
0
100
AcDbLine
 10
647.1273514879113
 20
224.0278191789517
 30
0.0
 11
658.0014440667992
 21
224.0499325021633
 31
0.0
  0
LINE
  5
408
330
1F
100
AcDbEntity
  8
0
100
AcDbLine
 10
531.4213845384484
 20
254.270843408955
 30
0.0
 11
506.2448296201592
 21
254.3877057656177
 31
0.0
  0
LINE
  5
409
330
1F
100
AcDbEntity
  8
0
100
AcDbLine
 10
692.4294445169334
 20
224.0181185230144
 30
0.0
 11
658.0014440667992
 21
224.0499325021633
 31
0.0
  0
LINE
  5
40A
330
1F
100
AcDbEntity
  8
0
100
AcDbLine
 10
207.3623004806404
 20
317.3651613220105
 30
0.0
 11
256.5554145229225
 21
317.5007302239069
 31
0.0
  0
LINE
  5
40B
330
1F
100
AcDbEntity
  8
0
100
AcDbLine
 10
234.3172195804482
 20
284.1475002392659
 30
0.0
 11
232.5219872844582
 21
281.4993031247982
 31
0.0
  0
LINE
  5
40C
330
1F
100
AcDbEntity
  8
0
100
AcDbLine
 10
238.6448446166878
 20
290.5007667764552
 30
0.0
 11
234.3172195804482
 21
284.1475002392659
 31
0.0
  0
LINE
  5
40D
330
1F
100
AcDbEntity
  8
0
100
AcDbLine
 10
238.6448446166878
 20
290.5007667764552
 30
0.0
 11
240.7900008809929
 21
293.64032968129
 31
0.0
  0
LINE
  5
40E
330
1F
100
AcDbEntity
  8
0
100
AcDbLine
 10
256.5554145229225
 20
317.5007302239069
 30
0.0
 11
267.3635992658501
 21
317.4999739899763
 31
0.0
  0
LINE
  5
40F
330
1F
100
AcDbEntity
  8
0
100
AcDbLine
 10
267.3631373298531
 20
297.913364313496
 30
0.0
 11
260.2558198821907
 21
287.5993728562721
 31
0.0
  0
LINE
  5
410
330
1F
100
AcDbEntity
  8
0
100
AcDbLine
 10
178.3836844814186
 20
313.1557099446186
 30
0.0
 11
200.5336794507866
 21
281.9144047721752
 31
0.0
  0
LINE
  5
411
330
1F
100
AcDbEntity
  8
0
100
AcDbLine
 10
415.1121887815362
 20
266.5943719371685
 30
0.0
 11
410.7955309999352
 21
270.2761880978474
 31
0.0
  0
LINE
  5
412
330
1F
100
AcDbEntity
  8
0
100
AcDbLine
 10
410.7955309999352
 20
270.2761880978474
 30
0.0
 11
407.0163581025964
 21
273.5146127566227
 31
0.0
  0
LINE
  5
413
330
1F
100
AcDbEntity
  8
0
100
AcDbLine
 10
523.9532801759605
 20
279.5700348838695
 30
0.0
 11
510.1197275770074
 21
279.4171936735042
 31
0.0
  0
LINE
  5
414
330
1F
100
AcDbEntity
  8
0
100
AcDbLine
 10
504.4560644281273
 20
291.8684698566326
 30
0.0
 11
514.6227392804986
 21
291.8884895666965
 31
0.0
  0
LINE
  5
415
330
1F
100
AcDbEntity
  8
0
100
AcDbLine
 10
677.5230381143456
 20
317.5792723819145
 30
0.0
 11
701.1460873735314
 21
284.1651953681835
 31
0.0
  0
LINE
  5
416
330
1F
100
AcDbEntity
  8
0
100
AcDbLine
 10
711.9698736322289
 20
282.1759127005466
 30
0.0
 11
716.1494705331688
 21
288.3440807386764
 31
0.0
  0
LINE
  5
417
330
1F
100
AcDbEntity
  8
0
100
AcDbLine
 10
701.1460873735314
 20
284.1651953681835
 30
0.0
 11
704.4591519487267
 21
279.5070253237614
 31
0.0
  0
LINE
  5
418
330
1F
100
AcDbEntity
  8
0
100
AcDbLine
 10
716.1494705331688
 20
288.3440807386764
 30
0.0
 11
718.4562298906211
 21
291.7291253730186
 31
0.0
  0
LINE
  5
419
330
1F
100
AcDbEntity
  8
0
100
AcDbLine
 10
699.8499247682456
 20
317.5011847093233
 30
0.0
 11
710.656485284603
 21
317.5010543241628
 31
0.0
  0
LINE
  5
41A
330
1F
100
AcDbEntity
  8
0
100
AcDbLine
 10
710.656485284603
 20
317.5010543241628
 30
0.0
 11
759.8457548272972
 21
317.3651613220105
 31
0.0
  0
LINE
  5
41B
330
1F
100
AcDbEntity
  8
0
100
AcDbLine
 10
928.1970474374657
 20
260.4685418232807
 30
0.0
 11
920.6252905977135
 21
270.4201482161411
 31
0.0
  0
LINE
  5
41C
330
1F
100
AcDbEntity
  8
0
100
AcDbLine
 10
930.402717317379
 20
257.5548879727253
 30
0.0
 11
928.1970474374657
 21
260.4685418232807
 31
0.0
  0
LINE
  5
41D
330
1F
100
AcDbEntity
  8
0
100
AcDbLine
 10
840.3784248483544
 20
260.5765975936779
 30
0.0
 11
832.8361127031211
 21
270.4707823618778
 31
0.0
  0
LINE
  5
41E
330
1F
100
AcDbEntity
  8
0
100
AcDbLine
 10
901.5740964067345
 20
165.9283555969128
 30
0.0
 11
907.2525117051963
 21
176.4704205020794
 31
0.0
  0
LINE
  5
41F
330
1F
100
AcDbEntity
  8
0
100
AcDbLine
 10
903.5377714288597
 20
136.9518406614193
 30
0.0
 11
909.3063685548668
 21
126.7324604019054
 31
0.0
  0
LINE
  5
420
330
1F
100
AcDbEntity
  8
0
100
AcDbLine
 10
923.9861580980187
 20
100.8209802135357
 30
0.0
 11
909.3063685548668
 21
126.7324604019054
 31
0.0
  0
LINE
  5
421
330
1F
100
AcDbEntity
  8
0
100
AcDbLine
 10
923.9861580980187
 20
100.8209802135357
 30
0.0
 11
927.9567215097313
 21
93.77174749220696
 31
0.0
  0
LINE
  5
422
330
1F
100
AcDbEntity
  8
0
100
AcDbLine
 10
792.153320039547
 20
254.4400237425693
 30
0.0
 11
832.6666566980248
 21
254.233523450745
 31
0.0
  0
LINE
  5
423
330
1F
100
AcDbEntity
  8
0
100
AcDbLine
 10
825.2538654458886
 20
301.3101808651814
 30
0.0
 11
813.2363173616294
 21
301.3011172338852
 31
0.0
  0
LINE
  5
424
330
1F
100
AcDbEntity
  8
0
100
AcDbLine
 10
840.3784248483544
 20
260.5765975936779
 30
0.0
 11
842.1268078935509
 21
258.2723267301449
 31
0.0
  0
LINE
  5
425
330
1F
100
AcDbEntity
  8
0
100
AcDbLine
 10
483.3027336252099
 20
301.3061724528202
 30
0.0
 11
470.6883642328148
 21
317.5792686566242
 31
0.0
  0
ENDSEC
  0
SECTION
  2
OBJECTS
  0
DICTIONARY
  5
C
330
0
100
AcDbDictionary
  3
ACAD_GROUP
350
D
  3
ACAD_LAYOUT
350
1A
  3
ACAD_MATERIAL
350
43
  3
ACAD_MLEADERSTYLE
350
448
  3
ACAD_MLINESTYLE
350
17
  3
ACAD_PLOTSETTINGS
350
19
  3
ACAD_SCALELIST
350
47
  3
ACAD_VISUALSTYLE
350
2A
  3
ACDBHEADERROUNDTRIPXREC
350
426
  3
ACDBVARIABLEDICTIONARY
350
446
  0
DICTIONARY
  5
44D
330
8
100
AcDbDictionary
280
     1
  3
ACAD_XREC_ROUNDTRIP
360
44E
  0
DICTIONARY
  5
D
102
{ACAD_REACTORS
330
C
102
}
330
C
100
AcDbDictionary
  0
DICTIONARY
  5
1A
102
{ACAD_REACTORS
330
C
102
}
330
C
100
AcDbDictionary
  0
DICTIONARY
  5
43
102
{ACAD_REACTORS
330
C
102
}
330
C
100
AcDbDictionary
  3
BYBLOCK
350
45
  3
BYLAYER
350
44
  3
GLOBAL
350
46
  0
DICTIONARY
  5
448
102
{ACAD_REACTORS
330
C
102
}
330
C
100
AcDbDictionary
  0
DICTIONARY
  5
17
102
{ACAD_REACTORS
330
C
102
}
330
C
100
AcDbDictionary
  3
STANDARD
350
18
  0
DICTIONARY
  5
19
102
{ACAD_REACTORS
330
C
102
}
330
C
100
AcDbDictionary
  0
DICTIONARY
  5
47
102
{ACAD_REACTORS
330
C
102
}
330
C
100
AcDbDictionary
  3
A0
350
48
  3
A1
350
49
  3
A2
350
4A
  3
A3
350
4B
  3
A4
350
4C
  3
A5
350
4D
  3
A6
350
4E
  3
A7
350
4F
  3
A8
350
50
  3
A9
350
51
  3
B0
350
52
  3
B1
350
53
  3
B2
350
54
  3
B3
350
55
  3
B4
350
56
  3
B5
350
57
  3
B6
350
58
  3
B7
350
59
  3
B8
350
5A
  3
B9
350
5B
  3
C0
350
5C
  3
C1
350
5D
  3
C2
350
5E
  3
C3
350
5F
  3
C4
350
60
  3
C5
350
61
  3
C6
350
62
  3
C7
350
63
  3
C8
350
64
  3
C9
350
65
  3
D0
350
66
  3
D1
350
67
  3
D2
350
68
  0
DICTIONARY
  5
2A
102
{ACAD_REACTORS
330
C
102
}
330
C
100
AcDbDictionary
  3
2DWIREFRAME
350
2F
  3
BASIC
350
32
  3
BRIGHTEN
350
36
  3
COLORCHANGE
350
3A
  3
CONCEPTUAL
350
34
  3
DIM
350
35
  3
EDGECOLOROFF
350
3D
  3
FACEPATTERN
350
39
  3
FLAT
350
2B
  3
FLATWITHEDGES
350
2C
  3
GOURAUD
350
2D
  3
GOURAUDWITHEDGES
350
2E
  3
HIDDEN
350
31
  3
JITTEROFF
350
3B
  3
LINEPATTERN
350
38
  3
OVERHANGOFF
350
3C
  3
REALISTIC
350
33
  3
SHADED
350
42
  3
SHADED_WITH_EDGES
350
41
  3
SHADES_OF_GRAY
350
3E
  3
SKETCHY
350
3F
  3
THICKEN
350
37
  3
WIREFRAME
350
30
  3
X-RAY
350
40
  0
DICTIONARY
  5
426
102
{ACAD_REACTORS
330
C
102
}
330
C
100
AcDbDictionary
  3
CEPSNTYPE
350
42F
  3
DIMSTYLEDATA
350
445
  3
FINGERPRINTGUID
350
430
  3
HYPERLINKBASE
350
429
  3
INSUNITS
350
42E
  3
LAYOUTDICT
350
42B
  3
LWETCUNION
350
42D
  3
PLOTSETDICT
350
42C
  3
PSVPSCALE
350
432
  3
PUCSBASE
350
435
  3
PUCSORGBACK
350
43B
  3
PUCSORGBOTTOM
350
437
  3
PUCSORGFRONT
350
43A
  3
PUCSORGLEFT
350
438
  3
PUCSORGRIGHT
350
439
  3
PUCSORGTOP
350
436
  3
PUCSORTHOREF
350
433
  3
PUCSORTHOVIEW
350
434
  3
STYLESHEET
350
42A
  3
TSTACKALIGN
350
427
  3
TSTACKSIZE
350
428
  3
UCSBASE
350
43E
  3
UCSORGBACK
350
444
  3
UCSORGBOTTOM
350
440
  3
UCSORGFRONT
350
443
  3
UCSORGLEFT
350
441
  3
UCSORGRIGHT
350
442
  3
UCSORGTOP
350
43F
  3
UCSORTHOREF
350
43C
  3
UCSORTHOVIEW
350
43D
  3
VERSIONGUID
350
431
  0
DICTIONARY
  5
446
102
{ACAD_REACTORS
330
C
102
}
330
C
100
AcDbDictionary
  3
CANNOSCALE
350
44F
  3
DIMASSOC
350
44B
  3
HIDETEXT
350
44C
  3
MSLTSCALE
350
450
  0
XRECORD
  5
44E
102
{ACAD_REACTORS
330
44D
102
}
330
44D
100
AcDbXrecord
102
VTR_0.000_0.000_1.000_1.000_GRIDDISPLAY
 70
     3
102
VTR_0.000_0.000_1.000_1.000_GRIDMAJOR
 70
     5
102
VTR_0.000_0.000_1.000_1.000_DEFAULTLIGHTING
280
     1
102
VTR_0.000_0.000_1.000_1.000_DEFAULTLIGHTINGTYPE
 70
     1
102
VTR_0.000_0.000_1.000_1.000_BRIGHTNESS
141
0.0
102
VTR_0.000_0.000_1.000_1.000_CONTRAST
142
0.0
  0
MATERIAL
  5
45
102
{ACAD_REACTORS
330
43
102
}
102
{ACAD_XDICTIONARY
360
453
102
}
330
43
100
AcDbMaterial
  1
BYBLOCK
  0
MATERIAL
  5
44
102
{ACAD_REACTORS
330
43
102
}
102
{ACAD_XDICTIONARY
360
451
102
}
330
43
100
AcDbMaterial
  1
BYLAYER
  0
MATERIAL
  5
46
102
{ACAD_REACTORS
330
43
102
}
102
{ACAD_XDICTIONARY
360
455
102
}
330
43
100
AcDbMaterial
  1
GLOBAL
  0
MLINESTYLE
  5
18
102
{ACAD_REACTORS
330
17
102
}
330
17
100
AcDbMlineStyle
  2
Standard
 70
     0
  3

 62
   256
 51
90.0
 52
90.0
 71
     2
 49
0.5
 62
   256
  6
BYLAYER
 49
-0.5
 62
   256
  6
BYLAYER
  0
ACAD_PROXY_OBJECT
  5
48
102
{ACAD_REACTORS
330
47
102
}
330
47
100
AcDbProxyObject
 90
      499
 91
      503
 93
       41
310
903313A31580
  0
ACAD_PROXY_OBJECT
  5
49
102
{ACAD_REACTORS
330
47
102
}
330
47
100
AcDbProxyObject
 90
      499
 91
      503
 93
      105
310
903313A324000000000000004000
  0
ACAD_PROXY_OBJECT
  5
4A
102
{ACAD_REACTORS
330
47
102
}
330
47
100
AcDbProxyObject
 90
      499
 91
      503
 93
      105
310
903313A344000000000000104000
  0
ACAD_PROXY_OBJECT
  5
4B
102
{ACAD_REACTORS
330
47
102
}
330
47
100
AcDbProxyObject
 90
      499
 91
      503
 93
      105
310
903313A354000000000000144000
  0
ACAD_PROXY_OBJECT
  5
4C
102
{ACAD_REACTORS
330
47
102
}
330
47
100
AcDbProxyObject
 90
      499
 91
      503
 93
      105
310
903313A384000000000000204000
  0
ACAD_PROXY_OBJECT
  5
4D
102
{ACAD_REACTORS
330
47
102
}
330
47
100
AcDbProxyObject
 90
      499
 91
      503
 93
      113
310
904313A31304000000000000244000
  0
ACAD_PROXY_OBJECT
  5
4E
102
{ACAD_REACTORS
330
47
102
}
330
47
100
AcDbProxyObject
 90
      499
 91
      503
 93
      113
310
904313A31364000000000000304000
  0
ACAD_PROXY_OBJECT
  5
4F
102
{ACAD_REACTORS
330
47
102
}
330
47
100
AcDbProxyObject
 90
      499
 91
      503
 93
      113
310
904313A32304000000000000344000
  0
ACAD_PROXY_OBJECT
  5
50
102
{ACAD_REACTORS
330
47
102
}
330
47
100
AcDbProxyObject
 90
      499
 91
      503
 93
      113
310
904313A333040000000000003E4000
  0
ACAD_PROXY_OBJECT
  5
51
102
{ACAD_REACTORS
330
47
102
}
330
47
100
AcDbProxyObject
 90
      499
 91
      503
 93
      113
310
904313A34304000000000000444000
  0
ACAD_PROXY_OBJECT
  5
52
102
{ACAD_REACTORS
330
47
102
}
330
47
100
AcDbProxyObject
 90
      499
 91
      503
 93
      113
310
904313A35304000000000000494000
  0
ACAD_PROXY_OBJECT
  5
53
102
{ACAD_REACTORS
330
47
102
}
330
47
100
AcDbProxyObject
 90
      499
 91
      503
 93
      121
310
905313A3130304000000000000594000
  0
ACAD_PROXY_OBJECT
  5
54
102
{ACAD_REACTORS
330
47
102
}
330
47
100
AcDbProxyObject
 90
      499
 91
      503
 93
      105
310
903323A310000000000000010100
  0
ACAD_PROXY_OBJECT
  5
55
102
{ACAD_REACTORS
330
47
102
}
330
47
100
AcDbProxyObject
 90
      499
 91
      503
 93
      105
310
903343A310000000000000410100
  0
ACAD_PROXY_OBJECT
  5
56
102
{ACAD_REACTORS
330
47
102
}
330
47
100
AcDbProxyObject
 90
      499
 91
      503
 93
      105
310
903383A310000000000000810100
  0
ACAD_PROXY_OBJECT
  5
57
102
{ACAD_REACTORS
330
47
102
}
330
47
100
AcDbProxyObject
 90
      499
 91
      503
 93
      113
310
90431303A310000000000000910100
  0
ACAD_PROXY_OBJECT
  5
58
102
{ACAD_REACTORS
330
47
102
}
330
47
100
AcDbProxyObject
 90
      499
 91
      503
 93
      121
310
9053130303A310000000000001650100
  0
ACAD_PROXY_OBJECT
  5
59
102
{ACAD_REACTORS
330
47
102
}
330
47
100
AcDbProxyObject
 90
      499
 91
      503
 93
      257
310
90E312F31323822203D2031272D3022000000000000200FC000000000000284000
  0
ACAD_PROXY_OBJECT
  5
5A
102
{ACAD_REACTORS
330
47
102
}
330
47
100
AcDbProxyObject
 90
      499
 91
      503
 93
      249
310
90D312F363422203D2031272D3022000000000000240FC000000000000284000
  0
ACAD_PROXY_OBJECT
  5
5B
102
{ACAD_REACTORS
330
47
102
}
330
47
100
AcDbProxyObject
 90
      499
 91
      503
 93
      249
310
90D312F333222203D2031272D3022000000000000280FC000000000000284000
  0
ACAD_PROXY_OBJECT
  5
5C
102
{ACAD_REACTORS
330
47
102
}
330
47
100
AcDbProxyObject
 90
      499
 91
      503
 93
      249
310
90D312F313622203D2031272D30220000000000002C0FC000000000000284000
  0
ACAD_PROXY_OBJECT
  5
5D
102
{ACAD_REACTORS
330
47
102
}
330
47
100
AcDbProxyObject
 90
      499
 91
      503
 93
      249
310
90D332F333222203D2031272D30220000000000002E0FC000000000000284000
  0
ACAD_PROXY_OBJECT
  5
5E
102
{ACAD_REACTORS
330
47
102
}
330
47
100
AcDbProxyObject
 90
      499
 91
      503
 93
      241
310
90C312F3822203D2031272D3022000000000000300FC000000000000284000
  0
ACAD_PROXY_OBJECT
  5
5F
102
{ACAD_REACTORS
330
47
102
}
330
47
100
AcDbProxyObject
 90
      499
 91
      503
 93
      249
310
90D332F313622203D2031272D3022000000000000320FC000000000000284000
  0
ACAD_PROXY_OBJECT
  5
60
102
{ACAD_REACTORS
330
47
102
}
330
47
100
AcDbProxyObject
 90
      499
 91
      503
 93
      241
310
90C312F3422203D2031272D3022000000000000340FC000000000000284000
  0
ACAD_PROXY_OBJECT
  5
61
102
{ACAD_REACTORS
330
47
102
}
330
47
100
AcDbProxyObject
 90
      499
 91
      503
 93
      241
310
90C332F3822203D2031272D3022000000000000360FC000000000000284000
  0
ACAD_PROXY_OBJECT
  5
62
102
{ACAD_REACTORS
330
47
102
}
330
47
100
AcDbProxyObject
 90
      499
 91
      503
 93
      241
310
90C312F3222203D2031272D3022000000000000380FC000000000000284000
  0
ACAD_PROXY_OBJECT
  5
63
102
{ACAD_REACTORS
330
47
102
}
330
47
100
AcDbProxyObject
 90
      499
 91
      503
 93
      241
310
90C332F3422203D2031272D30220000000000003A0FC000000000000284000
  0
ACAD_PROXY_OBJECT
  5
64
102
{ACAD_REACTORS
330
47
102
}
330
47
100
AcDbProxyObject
 90
      499
 91
      503
 93
      161
310
90A3122203D2031272D30224000000000000284000
  0
ACAD_PROXY_OBJECT
  5
65
102
{ACAD_REACTORS
330
47
102
}
330
47
100
AcDbProxyObject
 90
      499
 91
      503
 93
      257
310
90E312D312F3222203D2031272D30220000000000003E0FC000000000000284000
  0
ACAD_PROXY_OBJECT
  5
66
102
{ACAD_REACTORS
330
47
102
}
330
47
100
AcDbProxyObject
 90
      499
 91
      503
 93
      225
310
90A3322203D2031272D302200000000000002100000000000000284000
  0
ACAD_PROXY_OBJECT
  5
67
102
{ACAD_REACTORS
330
47
102
}
330
47
100
AcDbProxyObject
 90
      499
 91
      503
 93
      225
310
90A3622203D2031272D302200000000000006100000000000000284000
  0
ACAD_PROXY_OBJECT
  5
68
102
{ACAD_REACTORS
330
47
102
}
330
47
100
AcDbProxyObject
 90
      499
 91
      503
 93
      249
310
90D31272D3022203D2031272D30220000000000000A100000000000000284000
  0
ACAD_PROXY_OBJECT
  5
2F
102
{ACAD_REACTORS
330
2A
102
}
330
2A
100
AcDbProxyObject
 90
      499
 91
      501
 93
      436
310
42CC9915DA5C99599C985B595049028333333333333E33F0000000000000F90107901411070040501600405405064090741402480A0340
1001
ACAD
1000
AcDbSavedByObjectVersion
1070
     0
  0
ACAD_PROXY_OBJECT
  5
32
102
{ACAD_REACTORS
330
2A
102
}
330
2A
100
AcDbProxyObject
 90
      499
 91
      501
 93
      388
310
4150985CDA58D07406404333333333333E33F0000000000000F90107A41107004050150841D405064090741402480A0350
1001
ACAD
1000
AcDbSavedByObjectVersion
1070
     0
  0
ACAD_PROXY_OBJECT
  5
36
102
{ACAD_REACTORS
330
2A
102
}
330
2A
100
AcDbProxyObject
 90
      499
 91
      501
 93
      428
310
42109C9A59DA1D195B90C409028333333333333E33F0000000000000F9010790141107004050150841D405064090741402480A029950
1001
ACAD
1000
AcDbSavedByObjectVersion
1070
     0
  0
ACAD_PROXY_OBJECT
  5
3A
102
{ACAD_REACTORS
330
2A
102
}
330
2A
100
AcDbProxyObject
 90
      499
 91
      501
 93
      452
310
42D0DBDB1BDC90DA185B99D95104090240C333333333333E33F0000000000000F90108901411070040501508421405064090741402480A0350
1001
ACAD
1000
AcDbSavedByObjectVersion
1070
     0
  0
ACAD_PROXY_OBJECT
  5
34
102
{ACAD_REACTORS
330
2A
102
}
330
2A
100
AcDbProxyObject
 90
      499
 91
      501
 93
      500
310
4290DBDB98D95C1D1D585B10940D028333333333333E33F0000000000000F90107902409070040501000000000018199010841D405064090740C02480A0340
1001
ACAD
1000
AcDbSavedByObjectVersion
1070
     0
  0
ACAD_PROXY_OBJECT
  5
35
102
{ACAD_REACTORS
330
2A
102
}
330
2A
100
AcDbProxyObject
 90
      499
 91
      501
 93
      412
310
40D11A5B50B409028333333333333E33F0000000000000F9010790141107004050150841D405064090741402480A02677FFFFFD0
1001
ACAD
1000
AcDbSavedByObjectVersion
1070
     0
  0
ACAD_PROXY_OBJECT
  5
3D
102
{ACAD_REACTORS
330
2A
102
}
330
2A
100
AcDbProxyObject
 90
      499
 91
      501
 93
      452
310
43115919D950DBDB1BDC93D999916409028333333333333E33F0000000000000F9010790141107004050150841D405064090741402480A0350
1001
ACAD
1000
AcDbSavedByObjectVersion
1070
     0
  0
ACAD_PROXY_OBJECT
  5
39
102
{ACAD_REACTORS
330
2A
102
}
330
2A
100
AcDbProxyObject
 90
      499
 91
      501
 93
      444
310
42D19858D95C185D1D195C9B90F409028333333333333E33F0000000000000F9010790141107004050150841D405064090741402480A0350
1001
ACAD
1000
AcDbSavedByObjectVersion
1070
     0
  0
ACAD_PROXY_OBJECT
  5
2B
102
{ACAD_REACTORS
330
2A
102
}
330
2A
100
AcDbProxyObject
 90
      499
 91
      501
 93
      380
310
41119B185D240901404333333333333E33F0000000000000F9010740A907004050150841D405064090741402480A1B50
1001
ACAD
1000
AcDbSavedByObjectVersion
1070
     0
  0
ACAD_PROXY_OBJECT
  5
2C
102
{ACAD_REACTORS
330
2A
102
}
330
2A
100
AcDbProxyObject
 90
      499
 91
      501
 93
      468
310
43519B185D15DA5D1A115919D95CD0140901404333333333333E33F0000000000000F90107409019070040501600405405064090741402480A1B50
1001
ACAD
1000
AcDbSavedByObjectVersion
1070
     0
  0
ACAD_PROXY_OBJECT
  5
2D
102
{ACAD_REACTORS
330
2A
102
}
330
2A
100
AcDbProxyObject
 90
      499
 91
      501
 93
      404
310
41D1DBDD5C985D5910240902404333333333333E33F0000000000000F9010740A9070040501641D405064090741402480A1B50
1001
ACAD
1000
AcDbSavedByObjectVersion
1070
     0
  0
ACAD_PROXY_OBJECT
  5
2E
102
{ACAD_REACTORS
330
2A
102
}
330
2A
100
AcDbProxyObject
 90
      499
 91
      501
 93
      492
310
4411DBDD5C985D5915DA5D1A115919D95CD0340902404333333333333E33F0000000000000F90107409019070040501600405405064090741402480A1B50
1001
ACAD
1000
AcDbSavedByObjectVersion
1070
     0
  0
ACAD_PROXY_OBJECT
  5
31
102
{ACAD_REACTORS
330
2A
102
}
330
2A
100
AcDbProxyObject
 90
      499
 91
      501
 93
      476
310
41921A5919195B90640502408333333333333E33F0000000000000F901079024090700405020000000000001110200405405064090740C02480A0340
1001
ACAD
1000
AcDbSavedByObjectVersion
1070
     0
  0
ACAD_PROXY_OBJECT
  5
3B
102
{ACAD_REACTORS
330
2A
102
}
330
2A
100
AcDbProxyObject
 90
      499
 91
      501
 93
      428
310
42529A5D1D195C93D999914409028333333333333E33F0000000000000F9010790141107004050150A41D405064090741402480A0350
1001
ACAD
1000
AcDbSavedByObjectVersion
1070
     0
  0
ACAD_PROXY_OBJECT
  5
38
102
{ACAD_REACTORS
330
2A
102
}
330
2A
100
AcDbProxyObject
 90
      499
 91
      501
 93
      444
310
42D31A5B995C185D1D195C9B90E409028333333333333E33F0000000000000F9010790141107004050750841D405064090741402483A0350
1001
ACAD
1000
AcDbSavedByObjectVersion
1070
     0
  0
ACAD_PROXY_OBJECT
  5
3C
102
{ACAD_REACTORS
330
2A
102
}
330
2A
100
AcDbProxyObject
 90
      499
 91
      501
 93
      444
310
42D3DD995C9A185B99D3D999915409028333333333333E33F0000000000000F9010790141107004050150941D405064090741402480A0350
1001
ACAD
1000
AcDbSavedByObjectVersion
1070
     0
  0
ACAD_PROXY_OBJECT
  5
33
102
{ACAD_REACTORS
330
2A
102
}
330
2A
100
AcDbProxyObject
 90
      499
 91
      501
 93
      428
310
425499585B1A5CDD1A58D08409038333333333333E33F0000000000000F9010740A907004050150800405405064090740C02480A1B40
1001
ACAD
1000
AcDbSavedByObjectVersion
1070
     0
  0
ACAD_PROXY_OBJECT
  5
42
102
{ACAD_REACTORS
330
2A
102
}
330
2A
100
AcDbProxyObject
 90
      499
 91
      501
 93
      420
310
4194DA1859195911B40902404333333333333E33F0000000000000F9010740A41107004050150800405405064090840C02480A0B40
1001
ACAD
1000
AcDbSavedByObjectVersion
1070
     0
  0
ACAD_PROXY_OBJECT
  5
41
102
{ACAD_REACTORS
330
2A
102
}
330
2A
100
AcDbProxyObject
 90
      499
 91
      501
 93
      516
310
4454DA18591959081DDA5D1A08195919D95CD1A40902404333333333333E33F0000000000000F901074090142907004050250800405405064090740C02480A0B40
1001
ACAD
1000
AcDbSavedByObjectVersion
1070
     0
  0
ACAD_PROXY_OBJECT
  5
3E
102
{ACAD_REACTORS
330
2A
102
}
330
2A
100
AcDbProxyObject
 90
      499
 91
      501
 93
      532
310
4394DA1859195CC81BD98811DC985E5174090240C333333333333E33F0000000000000F901079024090741D01000000000000111010841D405064090740C02480A0340
1001
ACAD
1000
AcDbSavedByObjectVersion
1070
     0
  0
ACAD_PROXY_OBJECT
  5
3F
102
{ACAD_REACTORS
330
2A
102
}
330
2A
100
AcDbProxyObject
 90
      499
 91
      501
 93
      476
310
41D4DAD95D18DA1E51840502408333333333333E33F0000000000000F901079024090741D01000000000000111010B41D405064090741802480A0340
1001
ACAD
1000
AcDbSavedByObjectVersion
1070
     0
  0
ACAD_PROXY_OBJECT
  5
37
102
{ACAD_REACTORS
330
2A
102
}
330
2A
100
AcDbProxyObject
 90
      499
 91
      501
 93
      412
310
41D51A1A58DAD95B90D409028333333333333E33F0000000000000F9010790141107004050150C41D405064090741402480A0350
1001
ACAD
1000
AcDbSavedByObjectVersion
1070
     0
  0
ACAD_PROXY_OBJECT
  5
30
102
{ACAD_REACTORS
330
2A
102
}
330
2A
100
AcDbProxyObject
 90
      499
 91
      501
 93
      420
310
4255DA5C99599C985B595059028333333333333E33F0000000000000F90107901411070040501600405405064090740C02480A0340
1001
ACAD
1000
AcDbSavedByObjectVersion
1070
     0
  0
ACAD_PROXY_OBJECT
  5
40
102
{ACAD_REACTORS
330
2A
102
}
330
2A
100
AcDbProxyObject
 90
      499
 91
      501
 93
      404
310
41560B54985E51940902404000000000000E03F0000000000000F9010740501907004050150841D405064090740C02480A1B40
1001
ACAD
1000
AcDbSavedByObjectVersion
1070
     0
  0
XRECORD
  5
42F
102
{ACAD_REACTORS
330
426
102
}
330
426
100
AcDbXrecord
 90
        0
  0
XRECORD
  5
445
102
{ACAD_REACTORS
330
426
102
}
330
426
100
AcDbXrecord
1000
DSTYLE
1002
{
1070
   171
 70
     2
1070
   143
 40
25.4
1070
   274
 70
     2
1070
    41
 40
0.18
1070
   141
 40
0.09
1070
   271
 70
     4
1070
    43
 40
0.38
1070
   278
 70
    46
1070
    44
 40
0.18
1070
    42
 40
0.0625
1070
   147
 40
0.09
1070
    77
 70
     0
1070
   272
 70
     4
1070
    73
 70
     1
1070
   172
 70
     0
1070
    74
 70
     1
1070
   283
 70
     1
1070
   340
340
11
1070
   140
 40
0.18
1070
   284
 70
     0
1070
    78
 70
     0
1002
}
  0
XRECORD
  5
430
102
{ACAD_REACTORS
330
426
102
}
330
426
100
AcDbXrecord
  1
{0C3CC0B4-6A60-470F-ACD6-A19F1D7C2BAB}
  0
XRECORD
  5
429
102
{ACAD_REACTORS
330
426
102
}
330
426
100
AcDbXrecord
  1

  0
XRECORD
  5
42E
102
{ACAD_REACTORS
330
426
102
}
330
426
100
AcDbXrecord
 90
        4
  0
XRECORD
  5
42B
102
{ACAD_REACTORS
330
426
102
}
330
426
100
AcDbXrecord
340
1A
  0
XRECORD
  5
42D
102
{ACAD_REACTORS
330
426
102
}
330
426
100
AcDbXrecord
 90
    10781
  0
XRECORD
  5
42C
102
{ACAD_REACTORS
330
426
102
}
330
426
100
AcDbXrecord
340
19
  0
XRECORD
  5
432
102
{ACAD_REACTORS
330
426
102
}
330
426
100
AcDbXrecord
 40
0.0
  0
XRECORD
  5
435
102
{ACAD_REACTORS
330
426
102
}
330
426
100
AcDbXrecord
340
0
  0
XRECORD
  5
43B
102
{ACAD_REACTORS
330
426
102
}
330
426
100
AcDbXrecord
 10
0.0
 20
0.0
 30
0.0
  0
XRECORD
  5
437
102
{ACAD_REACTORS
330
426
102
}
330
426
100
AcDbXrecord
 10
0.0
 20
0.0
 30
0.0
  0
XRECORD
  5
43A
102
{ACAD_REACTORS
330
426
102
}
330
426
100
AcDbXrecord
 10
0.0
 20
0.0
 30
0.0
  0
XRECORD
  5
438
102
{ACAD_REACTORS
330
426
102
}
330
426
100
AcDbXrecord
 10
0.0
 20
0.0
 30
0.0
  0
XRECORD
  5
439
102
{ACAD_REACTORS
330
426
102
}
330
426
100
AcDbXrecord
 10
0.0
 20
0.0
 30
0.0
  0
XRECORD
  5
436
102
{ACAD_REACTORS
330
426
102
}
330
426
100
AcDbXrecord
 10
0.0
 20
0.0
 30
0.0
  0
XRECORD
  5
433
102
{ACAD_REACTORS
330
426
102
}
330
426
100
AcDbXrecord
340
0
  0
XRECORD
  5
434
102
{ACAD_REACTORS
330
426
102
}
330
426
100
AcDbXrecord
 70
     0
  0
XRECORD
  5
42A
102
{ACAD_REACTORS
330
426
102
}
330
426
100
AcDbXrecord
  1

  0
XRECORD
  5
427
102
{ACAD_REACTORS
330
426
102
}
330
426
100
AcDbXrecord
 90
        1
  0
XRECORD
  5
428
102
{ACAD_REACTORS
330
426
102
}
330
426
100
AcDbXrecord
 90
       70
  0
XRECORD
  5
43E
102
{ACAD_REACTORS
330
426
102
}
330
426
100
AcDbXrecord
340
0
  0
XRECORD
  5
444
102
{ACAD_REACTORS
330
426
102
}
330
426
100
AcDbXrecord
 10
0.0
 20
0.0
 30
0.0
  0
XRECORD
  5
440
102
{ACAD_REACTORS
330
426
102
}
330
426
100
AcDbXrecord
 10
0.0
 20
0.0
 30
0.0
  0
XRECORD
  5
443
102
{ACAD_REACTORS
330
426
102
}
330
426
100
AcDbXrecord
 10
0.0
 20
0.0
 30
0.0
  0
XRECORD
  5
441
102
{ACAD_REACTORS
330
426
102
}
330
426
100
AcDbXrecord
 10
0.0
 20
0.0
 30
0.0
  0
XRECORD
  5
442
102
{ACAD_REACTORS
330
426
102
}
330
426
100
AcDbXrecord
 10
0.0
 20
0.0
 30
0.0
  0
XRECORD
  5
43F
102
{ACAD_REACTORS
330
426
102
}
330
426
100
AcDbXrecord
 10
0.0
 20
0.0
 30
0.0
  0
XRECORD
  5
43C
102
{ACAD_REACTORS
330
426
102
}
330
426
100
AcDbXrecord
340
0
  0
XRECORD
  5
43D
102
{ACAD_REACTORS
330
426
102
}
330
426
100
AcDbXrecord
 70
     0
  0
XRECORD
  5
431
102
{ACAD_REACTORS
330
426
102
}
330
426
100
AcDbXrecord
  1
{FAEB1C32-E019-11D5-929B-00C0DF256EC4}
  0
DICTIONARYVAR
  5
44F
102
{ACAD_REACTORS
330
446
102
}
330
446
100
DictionaryVariables
280
     0
  1
1:1
  0
DICTIONARYVAR
  5
44B
102
{ACAD_REACTORS
330
446
102
}
330
446
100
DictionaryVariables
280
     0
  1
2
  0
DICTIONARYVAR
  5
44C
102
{ACAD_REACTORS
330
446
102
}
330
446
100
DictionaryVariables
280
     0
  1
1
  0
DICTIONARYVAR
  5
450
102
{ACAD_REACTORS
330
446
102
}
330
446
100
DictionaryVariables
280
     0
  1
1
  0
DICTIONARY
  5
453
330
45
100
AcDbDictionary
280
     1
  3
ACAD_XREC_ROUNDTRIP
360
454
  0
DICTIONARY
  5
451
330
44
100
AcDbDictionary
280
     1
  3
ACAD_XREC_ROUNDTRIP
360
452
  0
DICTIONARY
  5
455
330
46
100
AcDbDictionary
280
     1
  3
ACAD_XREC_ROUNDTRIP
360
456
  0
XRECORD
  5
454
102
{ACAD_REACTORS
330
453
102
}
330
453
100
AcDbXrecord
102
MATERIAL
148
0.0
149
0.0
149
0.0
 93
        0
 94
      127
282
     0
 72
     1
 77
     1
171
     1
175
     1
179
     1
273
     0
  0
XRECORD
  5
452
102
{ACAD_REACTORS
330
451
102
}
330
451
100
AcDbXrecord
102
MATERIAL
148
0.0
149
0.0
149
0.0
 93
        0
 94
      127
282
     0
 72
     1
 77
     1
171
     1
175
     1
179
     1
273
     0
  0
XRECORD
  5
456
102
{ACAD_REACTORS
330
455
102
}
330
455
100
AcDbXrecord
102
MATERIAL
148
0.0
149
0.0
149
0.0
 93
        0
 94
      127
282
     0
 72
     1
 77
     1
171
     1
175
     1
179
     1
273
     0
  0
ENDSEC
  0
EOF
