  0
SECTION
  2
HEADER
  9
$ACADVER
  1
AC1014
  9
$ACADMAINTVER
 70
     9
  9
$DWGCODEPAGE
  3
ANSI_1252
  9
$INSBASE
 10
0.0
 20
0.0
 30
0.0
  9
$EXTMIN
 10
1.000000000000000E+20
 20
1.000000000000000E+20
 30
1.000000000000000E+20
  9
$EXTMAX
 10
-1.000000000000000E+20
 20
-1.000000000000000E+20
 30
-1.000000000000000E+20
  9
$LIMMIN
 10
0.0
 20
0.0
  9
$LIMMAX
 10
12.0
 20
9.0
  9
$ORTHOMODE
 70
     0
  9
$REGENMODE
 70
     1
  9
$FILLMODE
 70
     1
  9
$QTEXTMODE
 70
     0
  9
$MIRRTEXT
 70
     1
  9
$DRAGMODE
 70
     2
  9
$LTSCALE
 40
1.0
  9
$OSMODE
 70
    37
  9
$ATTMODE
 70
     1
  9
$TEXTSIZE
 40
0.2
  9
$TRACEWID
 40
0.05
  9
$TEXTSTYLE
  7
STANDARD
  9
$CLAYER
  8
0
  9
$CELTYPE
  6
BYLAYER
  9
$CECOLOR
 62
   256
  9
$CELTSCALE
 40
1.0
  9
$DELOBJ
 70
     1
  9
$DISPSILH
 70
     0
  9
$DIMSCALE
 40
1.0
  9
$DIMASZ
 40
0.18
  9
$DIMEXO
 40
0.0625
  9
$DIMDLI
 40
0.38
  9
$DIMRND
 40
0.0
  9
$DIMDLE
 40
0.0
  9
$DIMEXE
 40
0.18
  9
$DIMTP
 40
0.0
  9
$DIMTM
 40
0.0
  9
$DIMTXT
 40
0.18
  9
$DIMCEN
 40
0.09
  9
$DIMTSZ
 40
0.0
  9
$DIMTOL
 70
     0
  9
$DIMLIM
 70
     0
  9
$DIMTIH
 70
     1
  9
$DIMTOH
 70
     1
  9
$DIMSE1
 70
     0
  9
$DIMSE2
 70
     0
  9
$DIMTAD
 70
     0
  9
$DIMZIN
 70
     0
  9
$DIMBLK
  1

  9
$DIMASO
 70
     1
  9
$DIMSHO
 70
     1
  9
$DIMPOST
  1

  9
$DIMAPOST
  1

  9
$DIMALT
 70
     0
  9
$DIMALTD
 70
     2
  9
$DIMALTF
 40
25.4
  9
$DIMLFAC
 40
1.0
  9
$DIMTOFL
 70
     0
  9
$DIMTVP
 40
0.0
  9
$DIMTIX
 70
     0
  9
$DIMSOXD
 70
     0
  9
$DIMSAH
 70
     0
  9
$DIMBLK1
  1

  9
$DIMBLK2
  1

  9
$DIMSTYLE
  2
STANDARD
  9
$DIMCLRD
 70
     0
  9
$DIMCLRE
 70
     0
  9
$DIMCLRT
 70
     0
  9
$DIMTFAC
 40
1.0
  9
$DIMGAP
 40
0.09
  9
$DIMJUST
 70
     0
  9
$DIMSD1
 70
     0
  9
$DIMSD2
 70
     0
  9
$DIMTOLJ
 70
     1
  9
$DIMTZIN
 70
     0
  9
$DIMALTZ
 70
     0
  9
$DIMALTTZ
 70
     0
  9
$DIMFIT
 70
     3
  9
$DIMUPT
 70
     0
  9
$DIMUNIT
 70
     2
  9
$DIMDEC
 70
     4
  9
$DIMTDEC
 70
     4
  9
$DIMALTU
 70
     2
  9
$DIMALTTD
 70
     2
  9
$DIMTXSTY
  7
STANDARD
  9
$DIMAUNIT
 70
     0
  9
$LUNITS
 70
     2
  9
$LUPREC
 70
     4
  9
$SKETCHINC
 40
0.1
  9
$FILLETRAD
 40
0.5
  9
$AUNITS
 70
     0
  9
$AUPREC
 70
     0
  9
$MENU
  1
.
  9
$ELEVATION
 40
0.0
  9
$PELEVATION
 40
0.0
  9
$THICKNESS
 40
0.0
  9
$LIMCHECK
 70
     0
  9
$CHAMFERA
 40
0.0
  9
$CHAMFERB
 40
0.0
  9
$CHAMFERC
 40
0.0
  9
$CHAMFERD
 40
0.0
  9
$SKPOLY
 70
     0
  9
$TDCREATE
 40
2457648.69298007
  9
$TDUPDATE
 40
2457648.692983102
  9
$TDINDWG
 40
0.0000000116
  9
$TDUSRTIMER
 40
0.0000000116
  9
$USRTIMER
 70
     1
  9
$ANGBASE
 50
0.0
  9
$ANGDIR
 70
     0
  9
$PDMODE
 70
     0
  9
$PDSIZE
 40
0.0
  9
$PLINEWID
 40
0.0
  9
$COORDS
 70
     1
  9
$SPLFRAME
 70
     0
  9
$SPLINETYPE
 70
     6
  9
$SPLINESEGS
 70
     8
  9
$ATTDIA
 70
     0
  9
$ATTREQ
 70
     1
  9
$HANDLING
 70
     1
  9
$HANDSEED
  5
4A7
  9
$SURFTAB1
 70
     6
  9
$SURFTAB2
 70
     6
  9
$SURFTYPE
 70
     6
  9
$SURFU
 70
     6
  9
$SURFV
 70
     6
  9
$UCSNAME
  2

  9
$UCSORG
 10
0.0
 20
0.0
 30
0.0
  9
$UCSXDIR
 10
1.0
 20
0.0
 30
0.0
  9
$UCSYDIR
 10
0.0
 20
1.0
 30
0.0
  9
$PUCSNAME
  2

  9
$PUCSORG
 10
0.0
 20
0.0
 30
0.0
  9
$PUCSXDIR
 10
1.0
 20
0.0
 30
0.0
  9
$PUCSYDIR
 10
0.0
 20
1.0
 30
0.0
  9
$USERI1
 70
     0
  9
$USERI2
 70
     0
  9
$USERI3
 70
     0
  9
$USERI4
 70
     0
  9
$USERI5
 70
     0
  9
$USERR1
 40
0.0
  9
$USERR2
 40
0.0
  9
$USERR3
 40
0.0
  9
$USERR4
 40
0.0
  9
$USERR5
 40
0.0
  9
$WORLDVIEW
 70
     1
  9
$SHADEDGE
 70
     3
  9
$SHADEDIF
 70
    70
  9
$TILEMODE
 70
     1
  9
$MAXACTVP
 70
    64
  9
$PINSBASE
 10
0.0
 20
0.0
 30
0.0
  9
$PLIMCHECK
 70
     0
  9
$PEXTMIN
 10
1.000000000000000E+20
 20
1.000000000000000E+20
 30
1.000000000000000E+20
  9
$PEXTMAX
 10
-1.000000000000000E+20
 20
-1.000000000000000E+20
 30
-1.000000000000000E+20
  9
$PLIMMIN
 10
0.0
 20
0.0
  9
$PLIMMAX
 10
12.0
 20
9.0
  9
$UNITMODE
 70
     0
  9
$VISRETAIN
 70
     1
  9
$PLINEGEN
 70
     0
  9
$PSLTSCALE
 70
     1
  9
$TREEDEPTH
 70
  3020
  9
$PICKSTYLE
 70
     1
  9
$CMLSTYLE
  2
STANDARD
  9
$CMLJUST
 70
     0
  9
$CMLSCALE
 40
1.0
  9
$PROXYGRAPHICS
 70
     1
  9
$MEASUREMENT
 70
     1
  0
ENDSEC
  0
SECTION
  2
CLASSES
  0
CLASS
  1
ACDBDICTIONARYWDFLT
  2
AcDbDictionaryWithDefault
  3
ObjectDBX Classes
 90
        0
280
     0
281
     0
  0
CLASS
  1
VISUALSTYLE
  2
AcDbVisualStyle
  3
ObjectDBX Classes
 90
     4095
280
     0
281
     0
  0
CLASS
  1
MATERIAL
  2
AcDbMaterial
  3
ObjectDBX Classes
 90
     1153
280
     0
281
     0
  0
CLASS
  1
SCALE
  2
AcDbScale
  3
ObjectDBX Classes
 90
     1153
280
     0
281
     0
  0
CLASS
  1
SUN
  2
AcDbSun
  3
SCENEOE
 90
     1153
280
     0
281
     0
  0
CLASS
  1
DICTIONARYVAR
  2
AcDbDictionaryVar
  3
ObjectDBX Classes
 90
        0
280
     0
281
     0
  0
CLASS
  1
XRECORD
  2
AcDbXrecord
  3
ObjectDBX Classes
 90
        0
280
     0
281
     0
  0
CLASS
  1
LWPOLYLINE
  2
AcDbPolyline
  3
ObjectDBX Classes
 90
        0
280
     0
281
     1
  0
CLASS
  1
HATCH
  2
AcDbHatch
  3
ObjectDBX Classes
 90
        0
280
     0
281
     1
  0
CLASS
  1
ACDBPLACEHOLDER
  2
AcDbPlaceHolder
  3
ObjectDBX Classes
 90
        0
280
     0
281
     0
  0
CLASS
  1
LAYOUT
  2
AcDbLayout
  3
ObjectDBX Classes
 90
        0
280
     0
281
     0
  0
ENDSEC
  0
SECTION
  2
TABLES
  0
TABLE
  2
VPORT
  5
8
102
{ACAD_XDICTIONARY
360
49D
102
}
330
0
100
AcDbSymbolTable
 70
     1
  0
VPORT
  5
29
330
8
100
AcDbSymbolTableRecord
100
AcDbViewportTableRecord
  2
*ACTIVE
 70
     0
 10
0.0
 20
0.0
 11
1.0
 21
1.0
 12
0.0
 22
0.0
 13
0.0
 23
0.0
 14
0.5
 24
0.5
 15
0.5
 25
0.5
 16
0.0
 26
0.0
 36
1.0
 17
0.0
 27
0.0
 37
-1000.0
 40
976.0982972069775
 41
2.046067415730337
 42
50.0
 43
11389.76999863207
 44
13988.36999918453
 50
0.0
 51
0.0
 71
     0
 72
   100
 73
     1
 74
     3
 75
     0
 76
     0
 77
     0
 78
     0
  0
ENDTAB
  0
TABLE
  2
LTYPE
  5
5
330
0
100
AcDbSymbolTable
 70
     1
  0
LTYPE
  5
14
330
5
100
AcDbSymbolTableRecord
100
AcDbLinetypeTableRecord
  2
BYBLOCK
 70
     0
  3

 72
    65
 73
     0
 40
0.0
  0
LTYPE
  5
15
330
5
100
AcDbSymbolTableRecord
100
AcDbLinetypeTableRecord
  2
BYLAYER
 70
     0
  3

 72
    65
 73
     0
 40
0.0
  0
LTYPE
  5
16
330
5
100
AcDbSymbolTableRecord
100
AcDbLinetypeTableRecord
  2
CONTINUOUS
 70
     0
  3
Solid line
 72
    65
 73
     0
 40
0.0
  0
ENDTAB
  0
TABLE
  2
LAYER
  5
2
330
0
100
AcDbSymbolTable
 70
     3
  0
LAYER
  5
10
330
2
100
AcDbSymbolTableRecord
100
AcDbLayerTableRecord
  2
0
 70
     0
 62
     7
  6
CONTINUOUS
  0
LAYER
  5
6A
330
2
100
AcDbSymbolTableRecord
100
AcDbLayerTableRecord
  2
PROFILEEDGES
 70
     0
 62
     7
  6
CONTINUOUS
  0
LAYER
  5
6B
330
2
100
AcDbSymbolTableRecord
100
AcDbLayerTableRecord
  2
SECTIONCUTEDGES
 70
     0
 62
     7
  6
CONTINUOUS
  0
ENDTAB
  0
TABLE
  2
STYLE
  5
3
330
0
100
AcDbSymbolTable
 70
     1
  0
STYLE
  5
11
330
3
100
AcDbSymbolTableRecord
100
AcDbTextStyleTableRecord
  2
STANDARD
 70
     0
 40
0.0
 41
1.0
 50
0.0
 71
     0
 42
0.2
  3
txt
  4

  0
ENDTAB
  0
TABLE
  2
VIEW
  5
6
330
0
100
AcDbSymbolTable
 70
     0
  0
ENDTAB
  0
TABLE
  2
UCS
  5
7
330
0
100
AcDbSymbolTable
 70
     0
  0
ENDTAB
  0
TABLE
  2
APPID
  5
9
330
0
100
AcDbSymbolTable
 70
     1
  0
APPID
  5
12
330
9
100
AcDbSymbolTableRecord
100
AcDbRegAppTableRecord
  2
ACAD
 70
     0
  0
ENDTAB
  0
TABLE
  2
DIMSTYLE
  5
A
330
0
100
AcDbSymbolTable
 70
     1
  0
DIMSTYLE
105
27
330
A
100
AcDbSymbolTableRecord
100
AcDbDimStyleTableRecord
  2
STANDARD
 70
     0
  3

  4

  5

  6

  7

 40
1.0
 41
0.18
 42
0.0625
 43
0.38
 44
0.18
 45
0.0
 46
0.0
 47
0.0
 48
0.0
140
0.18
141
0.09
142
0.0
143
25.4
144
1.0
145
0.0
146
1.0
147
0.09
 71
     0
 72
     0
 73
     1
 74
     1
 75
     0
 76
     0
 77
     0
 78
     0
170
     0
171
     2
172
     0
173
     0
174
     0
175
     0
176
     0
177
     0
178
     0
270
     2
271
     4
272
     4
273
     2
274
     2
340
11
275
     0
280
     0
281
     0
282
     0
283
     1
284
     0
285
     0
286
     0
287
     3
288
     0
  0
ENDTAB
  0
TABLE
  2
BLOCK_RECORD
  5
1
330
0
100
AcDbSymbolTable
 70
     1
  0
BLOCK_RECORD
  5
1F
330
1
100
AcDbSymbolTableRecord
100
AcDbBlockTableRecord
  2
*MODEL_SPACE
  0
BLOCK_RECORD
  5
1B
330
1
100
AcDbSymbolTableRecord
100
AcDbBlockTableRecord
  2
*PAPER_SPACE
  0
ENDTAB
  0
ENDSEC
  0
SECTION
  2
BLOCKS
  0
BLOCK
  5
20
330
1F
100
AcDbEntity
  8
0
100
AcDbBlockBegin
  2
*MODEL_SPACE
 70
     0
 10
0.0
 20
0.0
 30
0.0
  3
*MODEL_SPACE
  1

  0
ENDBLK
  5
21
330
1F
100
AcDbEntity
  8
0
100
AcDbBlockEnd
  0
BLOCK
  5
1C
330
1B
100
AcDbEntity
 67
     1
  8
0
100
AcDbBlockBegin
  2
*PAPER_SPACE
 70
     0
 10
0.0
 20
0.0
 30
0.0
  3
*PAPER_SPACE
  1

  0
ENDBLK
  5
1D
330
1B
100
AcDbEntity
 67
     1
  8
0
100
AcDbBlockEnd
  0
ENDSEC
  0
SECTION
  2
ENTITIES
  0
LINE
  5
6C
330
1F
100
AcDbEntity
  8
0
100
AcDbLine
 10
33.55252549706299
 20
70.31368996012877
 30
0.0
 11
35.57325147746403
 21
73.81370450366205
 31
0.0
  0
LINE
  5
6D
330
1F
100
AcDbEntity
  8
0
100
AcDbLine
 10
35.57325147746403
 20
66.81370521891782
 30
0.0
 11
33.55252549706299
 21
70.31368996012877
 31
0.0
  0
LINE
  5
6E
330
1F
100
AcDbEntity
  8
0
100
AcDbLine
 10
39.61470436958868
 20
66.81370521891782
 30
0.0
 11
35.57325147746403
 21
66.81370521891782
 31
0.0
  0
LINE
  5
6F
330
1F
100
AcDbEntity
  8
0
100
AcDbLine
 10
41.63543034998973
 20
70.31368996012877
 30
0.0
 11
39.61470436958868
 21
66.81370521891782
 31
0.0
  0
LINE
  5
70
330
1F
100
AcDbEntity
  8
0
100
AcDbLine
 10
39.61470436958868
 20
73.81370450366205
 30
0.0
 11
41.63543034998973
 21
70.31368996012877
 31
0.0
  0
LINE
  5
71
330
1F
100
AcDbEntity
  8
0
100
AcDbLine
 10
35.57325147746403
 20
73.81370450366205
 30
0.0
 11
39.61470436958868
 21
73.81370450366205
 31
0.0
  0
LINE
  5
72
330
1F
100
AcDbEntity
  8
0
100
AcDbLine
 10
214.8530361494263
 20
330.6726959626741
 30
0.0
 11
212.8323045810898
 21
327.172696320302
 31
0.0
  0
LINE
  5
73
330
1F
100
AcDbEntity
  8
0
100
AcDbLine
 10
212.8323045810898
 20
334.1726965363688
 30
0.0
 11
214.8530361494263
 21
330.6726959626741
 31
0.0
  0
LINE
  5
74
330
1F
100
AcDbEntity
  8
0
100
AcDbLine
 10
208.790856345578
 20
334.1726965363688
 30
0.0
 11
212.8323045810898
 21
334.1726965363688
 31
0.0
  0
LINE
  5
75
330
1F
100
AcDbEntity
  8
0
100
AcDbLine
 10
206.7701247772415
 20
330.6726959626741
 30
0.0
 11
208.790856345578
 21
334.1726965363688
 31
0.0
  0
LINE
  5
76
330
1F
100
AcDbEntity
  8
0
100
AcDbLine
 10
208.790856345578
 20
327.172696320302
 30
0.0
 11
206.7701247772415
 21
330.6726959626741
 31
0.0
  0
LINE
  5
77
330
1F
100
AcDbEntity
  8
0
100
AcDbLine
 10
212.8323045810898
 20
327.172696320302
 30
0.0
 11
208.790856345578
 21
327.172696320302
 31
0.0
  0
LINE
  5
78
330
1F
100
AcDbEntity
  8
0
100
AcDbLine
 10
206.7701247772415
 20
70.31368996012877
 30
0.0
 11
208.790856345578
 21
73.81370450366205
 31
0.0
  0
LINE
  5
79
330
1F
100
AcDbEntity
  8
0
100
AcDbLine
 10
208.790856345578
 20
66.81370521891782
 30
0.0
 11
206.7701247772415
 21
70.31368996012877
 31
0.0
  0
LINE
  5
7A
330
1F
100
AcDbEntity
  8
0
100
AcDbLine
 10
212.8323045810898
 20
66.81370521891782
 30
0.0
 11
208.790856345578
 21
66.81370521891782
 31
0.0
  0
LINE
  5
7B
330
1F
100
AcDbEntity
  8
0
100
AcDbLine
 10
214.8530361494263
 20
70.31368996012877
 30
0.0
 11
212.8323045810898
 21
66.81370521891782
 31
0.0
  0
LINE
  5
7C
330
1F
100
AcDbEntity
  8
0
100
AcDbLine
 10
212.8323045810898
 20
73.81370450366205
 30
0.0
 11
214.8530361494263
 21
70.31368996012877
 31
0.0
  0
LINE
  5
7D
330
1F
100
AcDbEntity
  8
0
100
AcDbLine
 10
208.790856345578
 20
73.81370450366205
 30
0.0
 11
212.8323045810898
 21
73.81370450366205
 31
0.0
  0
LINE
  5
7E
330
1F
100
AcDbEntity
  8
0
100
AcDbLine
 10
388.0706158718308
 20
330.6726959626741
 30
0.0
 11
386.0498992046555
 21
327.172696320302
 31
0.0
  0
LINE
  5
7F
330
1F
100
AcDbEntity
  8
0
100
AcDbLine
 10
386.0498992046555
 20
334.1726965363688
 30
0.0
 11
388.0706158718308
 21
330.6726959626741
 31
0.0
  0
LINE
  5
80
330
1F
100
AcDbEntity
  8
0
100
AcDbLine
 10
382.0084658703049
 20
334.1726965363688
 30
0.0
 11
386.0498992046555
 21
334.1726965363688
 31
0.0
  0
LINE
  5
81
330
1F
100
AcDbEntity
  8
0
100
AcDbLine
 10
379.9877194008072
 20
330.6726959626741
 30
0.0
 11
382.0084658703049
 21
334.1726965363688
 31
0.0
  0
LINE
  5
82
330
1F
100
AcDbEntity
  8
0
100
AcDbLine
 10
382.0084658703049
 20
327.172696320302
 30
0.0
 11
379.9877194008072
 21
330.6726959626741
 31
0.0
  0
LINE
  5
83
330
1F
100
AcDbEntity
  8
0
100
AcDbLine
 10
386.0498992046555
 20
327.172696320302
 30
0.0
 11
382.0084658703049
 21
327.172696320302
 31
0.0
  0
LINE
  5
84
330
1F
100
AcDbEntity
  8
0
100
AcDbLine
 10
379.9877194008072
 20
70.31368996012877
 30
0.0
 11
382.0084658703049
 21
73.81370450366205
 31
0.0
  0
LINE
  5
85
330
1F
100
AcDbEntity
  8
0
100
AcDbLine
 10
382.0084658703049
 20
66.81370521891782
 30
0.0
 11
379.9877194008072
 21
70.31368996012877
 31
0.0
  0
LINE
  5
86
330
1F
100
AcDbEntity
  8
0
100
AcDbLine
 10
386.0498992046555
 20
66.81370521891782
 30
0.0
 11
382.0084658703049
 21
66.81370521891782
 31
0.0
  0
LINE
  5
87
330
1F
100
AcDbEntity
  8
0
100
AcDbLine
 10
388.0706158718308
 20
70.31368996012877
 30
0.0
 11
386.0498992046555
 21
66.81370521891782
 31
0.0
  0
LINE
  5
88
330
1F
100
AcDbEntity
  8
0
100
AcDbLine
 10
386.0498992046555
 20
73.81370450366205
 30
0.0
 11
388.0706158718308
 21
70.31368996012877
 31
0.0
  0
LINE
  5
89
330
1F
100
AcDbEntity
  8
0
100
AcDbLine
 10
382.0084658703049
 20
73.81370450366205
 30
0.0
 11
386.0498992046555
 21
73.81370450366205
 31
0.0
  0
LINE
  5
8A
330
1F
100
AcDbEntity
  8
0
100
AcDbLine
 10
561.2882402977189
 20
330.6726959626741
 30
0.0
 11
559.2675236305436
 21
327.172696320302
 31
0.0
  0
LINE
  5
8B
330
1F
100
AcDbEntity
  8
0
100
AcDbLine
 10
559.2675236305436
 20
334.1726965363688
 30
0.0
 11
561.2882402977189
 21
330.6726959626741
 31
0.0
  0
LINE
  5
8C
330
1F
100
AcDbEntity
  8
0
100
AcDbLine
 10
555.2260306915482
 20
334.1726965363688
 30
0.0
 11
559.2675236305436
 21
334.1726965363688
 31
0.0
  0
LINE
  5
8D
330
1F
100
AcDbEntity
  8
0
100
AcDbLine
 10
553.2053140243729
 20
330.6726959626741
 30
0.0
 11
555.2260306915482
 21
334.1726965363688
 31
0.0
  0
LINE
  5
8E
330
1F
100
AcDbEntity
  8
0
100
AcDbLine
 10
555.2260306915482
 20
327.172696320302
 30
0.0
 11
553.2053140243729
 21
330.6726959626741
 31
0.0
  0
LINE
  5
8F
330
1F
100
AcDbEntity
  8
0
100
AcDbLine
 10
559.2675236305436
 20
327.172696320302
 30
0.0
 11
555.2260306915482
 21
327.172696320302
 31
0.0
  0
LINE
  5
90
330
1F
100
AcDbEntity
  8
0
100
AcDbLine
 10
553.2053140243729
 20
70.31368996012877
 30
0.0
 11
555.2260306915482
 21
73.81370450366205
 31
0.0
  0
LINE
  5
91
330
1F
100
AcDbEntity
  8
0
100
AcDbLine
 10
555.2260306915482
 20
66.81370521891782
 30
0.0
 11
553.2053140243729
 21
70.31368996012877
 31
0.0
  0
LINE
  5
92
330
1F
100
AcDbEntity
  8
0
100
AcDbLine
 10
559.2675236305436
 20
66.81370521891782
 30
0.0
 11
555.2260306915482
 21
66.81370521891782
 31
0.0
  0
LINE
  5
93
330
1F
100
AcDbEntity
  8
0
100
AcDbLine
 10
561.2882402977189
 20
70.31368996012877
 30
0.0
 11
559.2675236305436
 21
66.81370521891782
 31
0.0
  0
LINE
  5
94
330
1F
100
AcDbEntity
  8
0
100
AcDbLine
 10
559.2675236305436
 20
73.81370450366205
 30
0.0
 11
561.2882402977189
 21
70.31368996012877
 31
0.0
  0
LINE
  5
95
330
1F
100
AcDbEntity
  8
0
100
AcDbLine
 10
555.2260306915482
 20
73.81370450366205
 30
0.0
 11
559.2675236305436
 21
73.81370450366205
 31
0.0
  0
LINE
  5
96
330
1F
100
AcDbEntity
  8
0
100
AcDbLine
 10
734.5058349212845
 20
330.6726959626741
 30
0.0
 11
732.4851182541091
 21
327.172696320302
 31
0.0
  0
LINE
  5
97
330
1F
100
AcDbEntity
  8
0
100
AcDbLine
 10
732.4851182541091
 20
334.1726965363688
 30
0.0
 11
734.5058349212845
 21
330.6726959626741
 31
0.0
  0
LINE
  5
98
330
1F
100
AcDbEntity
  8
0
100
AcDbLine
 10
728.4436253151139
 20
334.1726965363688
 30
0.0
 11
732.4851182541091
 21
334.1726965363688
 31
0.0
  0
LINE
  5
99
330
1F
100
AcDbEntity
  8
0
100
AcDbLine
 10
726.4229086479387
 20
330.6726959626741
 30
0.0
 11
728.4436253151139
 21
334.1726965363688
 31
0.0
  0
LINE
  5
9A
330
1F
100
AcDbEntity
  8
0
100
AcDbLine
 10
728.4436253151139
 20
327.172696320302
 30
0.0
 11
726.4229086479387
 21
330.6726959626741
 31
0.0
  0
LINE
  5
9B
330
1F
100
AcDbEntity
  8
0
100
AcDbLine
 10
732.4851182541091
 20
327.172696320302
 30
0.0
 11
728.4436253151139
 21
327.172696320302
 31
0.0
  0
LINE
  5
9C
330
1F
100
AcDbEntity
  8
0
100
AcDbLine
 10
726.4229086479387
 20
70.31368996012877
 30
0.0
 11
728.4436253151139
 21
73.81370450366205
 31
0.0
  0
LINE
  5
9D
330
1F
100
AcDbEntity
  8
0
100
AcDbLine
 10
728.4436253151139
 20
66.81370521891782
 30
0.0
 11
726.4229086479387
 21
70.31368996012877
 31
0.0
  0
LINE
  5
9E
330
1F
100
AcDbEntity
  8
0
100
AcDbLine
 10
732.4851182541091
 20
66.81370521891782
 30
0.0
 11
728.4436253151139
 21
66.81370521891782
 31
0.0
  0
LINE
  5
9F
330
1F
100
AcDbEntity
  8
0
100
AcDbLine
 10
734.5058349212845
 20
70.31368996012877
 30
0.0
 11
732.4851182541091
 21
66.81370521891782
 31
0.0
  0
LINE
  5
A0
330
1F
100
AcDbEntity
  8
0
100
AcDbLine
 10
732.4851182541091
 20
73.81370450366205
 30
0.0
 11
734.5058349212845
 21
70.31368996012877
 31
0.0
  0
LINE
  5
A1
330
1F
100
AcDbEntity
  8
0
100
AcDbLine
 10
728.4436253151139
 20
73.81370450366205
 30
0.0
 11
732.4851182541091
 21
73.81370450366205
 31
0.0
  0
LINE
  5
A2
330
1F
100
AcDbEntity
  8
0
100
AcDbLine
 10
907.7236679634294
 20
330.6726959626741
 30
0.0
 11
905.702951296254
 21
327.172696320302
 31
0.0
  0
LINE
  5
A3
330
1F
100
AcDbEntity
  8
0
100
AcDbLine
 10
905.702951296254
 20
334.1726965363688
 30
0.0
 11
907.7236679634294
 21
330.6726959626741
 31
0.0
  0
LINE
  5
A4
330
1F
100
AcDbEntity
  8
0
100
AcDbLine
 10
901.6615179619034
 20
334.1726965363688
 30
0.0
 11
905.702951296254
 21
334.1726965363688
 31
0.0
  0
LINE
  5
A5
330
1F
100
AcDbEntity
  8
0
100
AcDbLine
 10
899.6408012947281
 20
330.6726959626741
 30
0.0
 11
901.6615179619034
 21
334.1726965363688
 31
0.0
  0
LINE
  5
A6
330
1F
100
AcDbEntity
  8
0
100
AcDbLine
 10
901.6615179619034
 20
327.172696320302
 30
0.0
 11
899.6408012947281
 21
330.6726959626741
 31
0.0
  0
LINE
  5
A7
330
1F
100
AcDbEntity
  8
0
100
AcDbLine
 10
905.702951296254
 20
327.172696320302
 30
0.0
 11
901.6615179619034
 21
327.172696320302
 31
0.0
  0
LINE
  5
A8
330
1F
100
AcDbEntity
  8
0
100
AcDbLine
 10
899.6408012947281
 20
70.31368996012877
 30
0.0
 11
901.6615179619034
 21
73.81370450366205
 31
0.0
  0
LINE
  5
A9
330
1F
100
AcDbEntity
  8
0
100
AcDbLine
 10
901.6615179619034
 20
66.81370521891782
 30
0.0
 11
899.6408012947281
 21
70.31368996012877
 31
0.0
  0
LINE
  5
AA
330
1F
100
AcDbEntity
  8
0
100
AcDbLine
 10
905.702951296254
 20
66.81370521891782
 30
0.0
 11
901.6615179619034
 21
66.81370521891782
 31
0.0
  0
LINE
  5
AB
330
1F
100
AcDbEntity
  8
0
100
AcDbLine
 10
907.7236679634294
 20
70.31368996012877
 30
0.0
 11
905.702951296254
 21
66.81370521891782
 31
0.0
  0
LINE
  5
AC
330
1F
100
AcDbEntity
  8
0
100
AcDbLine
 10
905.702951296254
 20
73.81370450366205
 30
0.0
 11
907.7236679634294
 21
70.31368996012877
 31
0.0
  0
LINE
  5
AD
330
1F
100
AcDbEntity
  8
0
100
AcDbLine
 10
901.6615179619034
 20
73.81370450366205
 30
0.0
 11
905.702951296254
 21
73.81370450366205
 31
0.0
  0
LINE
  5
AE
330
1F
100
AcDbEntity
  8
0
100
AcDbLine
 10
33.55252549706299
 20
330.6726959626741
 30
0.0
 11
35.57325147746403
 21
334.1726965363688
 31
0.0
  0
LINE
  5
AF
330
1F
100
AcDbEntity
  8
0
100
AcDbLine
 10
35.57325147746403
 20
327.172696320302
 30
0.0
 11
33.55252549706299
 21
330.6726959626741
 31
0.0
  0
LINE
  5
B0
330
1F
100
AcDbEntity
  8
0
100
AcDbLine
 10
39.61470436958868
 20
327.172696320302
 30
0.0
 11
35.57325147746403
 21
327.172696320302
 31
0.0
  0
LINE
  5
B1
330
1F
100
AcDbEntity
  8
0
100
AcDbLine
 10
41.63543034998973
 20
330.6726959626741
 30
0.0
 11
39.61470436958868
 21
327.172696320302
 31
0.0
  0
LINE
  5
B2
330
1F
100
AcDbEntity
  8
0
100
AcDbLine
 10
39.61470436958868
 20
334.1726965363688
 30
0.0
 11
41.63543034998973
 21
330.6726959626741
 31
0.0
  0
LINE
  5
B3
330
1F
100
AcDbEntity
  8
0
100
AcDbLine
 10
35.57325147746403
 20
334.1726965363688
 30
0.0
 11
39.61470436958868
 21
334.1726965363688
 31
0.0
  0
LINE
  5
B4
330
1F
100
AcDbEntity
  8
0
100
AcDbLine
 10
625.7030395111283
 20
315.0861670355863
 30
0.0
 11
640.0488642296036
 21
315.0906057189769
 31
0.0
  0
LINE
  5
B5
330
1F
100
AcDbEntity
  8
0
100
AcDbLine
 10
758.8758495887955
 20
314.861394194848
 30
0.0
 11
761.0017684539994
 21
314.9373472760982
 31
0.0
  0
LINE
  5
B6
330
1F
100
AcDbEntity
  8
0
100
AcDbLine
 10
761.0017684539994
 20
314.9373472760982
 30
0.0
 11
763.6898187240799
 21
314.9909728299446
 31
0.0
  0
LINE
  5
B7
330
1F
100
AcDbEntity
  8
0
100
AcDbLine
 10
763.6898187240799
 20
314.9909728299446
 30
0.0
 11
767.0590904792984
 21
315.0265288631982
 31
0.0
  0
LINE
  5
B8
330
1F
100
AcDbEntity
  8
0
100
AcDbLine
 10
767.0590904792984
 20
315.0265288631982
 30
0.0
 11
771.2288526138504
 21
315.0482733826703
 31
0.0
  0
LINE
  5
B9
330
1F
100
AcDbEntity
  8
0
100
AcDbLine
 10
742.043021067067
 20
310.160500658638
 30
0.0
 11
744.1208389839371
 21
311.1899287532635
 31
0.0
  0
LINE
  5
BA
330
1F
100
AcDbEntity
  8
0
100
AcDbLine
 10
744.1208389839371
 20
311.1899287532635
 30
0.0
 11
746.3094619354447
 21
312.1100791822738
 31
0.0
  0
LINE
  5
BB
330
1F
100
AcDbEntity
  8
0
100
AcDbLine
 10
746.3094619354447
 20
312.1100791822738
 30
0.0
 11
748.6156848510942
 21
312.9243792127438
 31
0.0
  0
LINE
  5
BC
330
1F
100
AcDbEntity
  8
0
100
AcDbLine
 10
748.6156848510942
 20
312.9243792127438
 30
0.0
 11
751.0464218696793
 21
313.6362486611671
 31
0.0
  0
LINE
  5
BD
330
1F
100
AcDbEntity
  8
0
100
AcDbLine
 10
738.1916669449051
 20
307.7601247559853
 30
0.0
 11
740.0688556274613
 21
309.0183750819035
 31
0.0
  0
LINE
  5
BE
330
1F
100
AcDbEntity
  8
0
100
AcDbLine
 10
289.214047535344
 20
315.0119145493574
 30
0.0
 11
293.0232313713273
 21
315.0375668983526
 31
0.0
  0
LINE
  5
BF
330
1F
100
AcDbEntity
  8
0
100
AcDbLine
 10
411.8069437584122
 20
315.0794745515652
 30
0.0
 11
414.9031964382371
 21
315.0686302315063
 31
0.0
  0
LINE
  5
C0
330
1F
100
AcDbEntity
  8
0
100
AcDbLine
 10
414.9031964382371
 20
315.0686302315063
 30
0.0
 11
417.3563150009355
 21
315.0454905908174
 31
0.0
  0
LINE
  5
C1
330
1F
100
AcDbEntity
  8
0
100
AcDbLine
 10
417.3563150009355
 20
315.0454905908174
 30
0.0
 11
419.2299870094498
 21
315.0074442009993
 31
0.0
  0
LINE
  5
C2
330
1F
100
AcDbEntity
  8
0
100
AcDbLine
 10
419.2299870094498
 20
315.0074442009993
 30
0.0
 11
420.5879000267228
 21
314.9518889467782
 31
0.0
  0
LINE
  5
C3
330
1F
100
AcDbEntity
  8
0
100
AcDbLine
 10
393.2448652824601
 20
315.0706474762029
 30
0.0
 11
411.8069437584122
 21
315.0794745515652
 31
0.0
  0
LINE
  5
C4
330
1F
100
AcDbEntity
  8
0
100
AcDbLine
 10
293.0232313713273
 20
315.0375668983526
 30
0.0
 11
316.3448897442063
 21
315.0906131695575
 31
0.0
  0
LINE
  5
C5
330
1F
100
AcDbEntity
  8
0
100
AcDbLine
 10
342.9267731746872
 20
315.090618757493
 30
0.0
 11
362.6992133697709
 21
315.090618757493
 31
0.0
  0
LINE
  5
C6
330
1F
100
AcDbEntity
  8
0
100
AcDbLine
 10
379.7998753627976
 20
303.3749998639888
 30
0.0
 11
393.2448652824601
 21
315.0706474762029
 31
0.0
  0
LINE
  5
C7
330
1F
100
AcDbEntity
  8
0
100
AcDbLine
 10
46.15661401955683
 20
251.7111503611869
 30
0.0
 11
46.15661401955683
 21
315.0906131695575
 31
0.0
  0
LINE
  5
C8
330
1F
100
AcDbEntity
  8
0
100
AcDbLine
 10
22.59397760315139
 20
345.6724564674861
 30
0.0
 11
22.59397760315139
 21
55.31370426524351
 31
0.0
  0
LINE
  5
C9
330
1F
100
AcDbEntity
  8
0
100
AcDbLine
 10
103.9689732035836
 20
315.0906131695575
 30
0.0
 11
123.2397509059151
 21
315.0906131695575
 31
0.0
  0
LINE
  5
CA
330
1F
100
AcDbEntity
  8
0
100
AcDbLine
 10
137.7269578417977
 20
315.0906150322027
 30
0.0
 11
161.1389694055756
 21
315.0512163620061
 31
0.0
  0
LINE
  5
CB
330
1F
100
AcDbEntity
  8
0
100
AcDbLine
 10
182.3368248781403
 20
85.98240996707149
 30
0.0
 11
124.0962323984345
 21
85.98240996707149
 31
0.0
  0
LINE
  5
CC
330
1F
100
AcDbEntity
  8
0
100
AcDbLine
 10
378.4706023773392
 20
85.98240996707149
 30
0.0
 11
271.6248062690934
 21
86.00452329028315
 31
0.0
  0
LINE
  5
CD
330
1F
100
AcDbEntity
  8
0
100
AcDbLine
 10
187.6381066879471
 20
85.49308563578795
 30
0.0
 11
187.6381066879471
 21
190.4930749069519
 31
0.0
  0
LINE
  5
CE
330
1F
100
AcDbEntity
  8
0
100
AcDbLine
 10
266.6381028732499
 20
85.47672416079708
 30
0.0
 11
187.6381066879471
 21
85.49308563578795
 31
0.0
  0
LINE
  5
CF
330
1F
100
AcDbEntity
  8
0
100
AcDbLine
 10
22.59397760315139
 20
55.31370426524351
 30
0.0
 11
918.6822203239641
 21
55.31370426524352
 31
0.0
  0
LINE
  5
D0
330
1F
100
AcDbEntity
  8
0
100
AcDbLine
 10
561.6381195625504
 20
85.49308563578795
 30
0.0
 11
472.6381031116684
 21
85.49308563578795
 31
0.0
  0
LINE
  5
D1
330
1F
100
AcDbEntity
  8
0
100
AcDbLine
 10
599.9487069687088
 20
86.449591172821
 30
0.0
 11
598.0123904785355
 21
86.58131743777462
 31
0.0
  0
LINE
  5
D2
330
1F
100
AcDbEntity
  8
0
100
AcDbLine
 10
598.0123904785355
 20
86.58131743777462
 30
0.0
 11
596.6672924598894
 21
86.75184632647702
 31
0.0
  0
LINE
  5
D3
330
1F
100
AcDbEntity
  8
0
100
AcDbLine
 10
596.6672924598894
 20
86.75184632647702
 30
0.0
 11
595.6291583618362
 21
86.96609522212215
 31
0.0
  0
LINE
  5
D4
330
1F
100
AcDbEntity
  8
0
100
AcDbLine
 10
595.6291583618362
 20
86.96609522212215
 30
0.0
 11
591.8932584366044
 21
88.02881623614498
 31
0.0
  0
LINE
  5
D5
330
1F
100
AcDbEntity
  8
0
100
AcDbLine
 10
868.9652112564287
 20
85.98547960627742
 30
0.0
 11
826.4130381187639
 21
85.98240996707149
 31
0.0
  0
LINE
  5
D6
330
1F
100
AcDbEntity
  8
0
100
AcDbLine
 10
876.263323172017
 20
85.99725152362058
 30
0.0
 11
868.9652112564287
 21
85.98547960627742
 31
0.0
  0
LINE
  5
D7
330
1F
100
AcDbEntity
  8
0
100
AcDbLine
 10
892.9665115913589
 20
86.47185350764461
 30
0.0
 11
892.4362686714372
 21
86.32498766291805
 31
0.0
  0
LINE
  5
D8
330
1F
100
AcDbEntity
  8
0
100
AcDbLine
 10
892.4362686714372
 20
86.32498766291805
 30
0.0
 11
891.2634876808365
 21
86.2105169426269
 31
0.0
  0
LINE
  5
D9
330
1F
100
AcDbEntity
  8
0
100
AcDbLine
 10
891.2634876808365
 20
86.2105169426269
 30
0.0
 11
889.2539766868791
 21
86.12441803324884
 31
0.0
  0
LINE
  5
DA
330
1F
100
AcDbEntity
  8
0
100
AcDbLine
 10
889.2539766868791
 20
86.12441803324884
 30
0.0
 11
886.2135437568865
 21
86.0627868305511
 31
0.0
  0
LINE
  5
DB
330
1F
100
AcDbEntity
  8
0
100
AcDbLine
 10
893.048289163991
 20
86.65495897639461
 30
0.0
 11
892.9665115913589
 21
86.47185350764461
 31
0.0
  0
LINE
  5
DC
330
1F
100
AcDbEntity
  8
0
100
AcDbLine
 10
892.7143243393143
 20
87.28208924639888
 30
0.0
 11
893.048289163991
 21
86.65495897639461
 31
0.0
  0
LINE
  5
DD
330
1F
100
AcDbEntity
  8
0
100
AcDbLine
 10
891.8417719444474
 20
88.85553265917966
 30
0.0
 11
892.7143243393143
 21
87.28208924639888
 31
0.0
  0
LINE
  5
DE
330
1F
100
AcDbEntity
  8
0
100
AcDbLine
 10
187.6381066879471
 20
190.4930749069519
 30
0.0
 11
213.6380997738083
 21
190.4930749069519
 31
0.0
  0
LINE
  5
DF
330
1F
100
AcDbEntity
  8
0
100
AcDbLine
 10
213.6380997738083
 20
190.4930749069519
 30
0.0
 11
266.6381028732499
 21
85.47672416079708
 31
0.0
  0
LINE
  5
E0
330
1F
100
AcDbEntity
  8
0
100
AcDbLine
 10
472.6381031116684
 20
85.49308563578795
 30
0.0
 11
472.6381031116684
 21
158.4930696617431
 31
0.0
  0
LINE
  5
E1
330
1F
100
AcDbEntity
  8
0
100
AcDbLine
 10
467.1162394127091
 20
202.4635949264831
 30
0.0
 11
467.1162394127091
 21
85.98240996707149
 31
0.0
  0
LINE
  5
E2
330
1F
100
AcDbEntity
  8
0
100
AcDbLine
 10
486.8152466854294
 20
163.9220246206588
 30
0.0
 11
486.8152466854294
 21
202.4635949264831
 31
0.0
  0
LINE
  5
E3
330
1F
100
AcDbEntity
  8
0
100
AcDbLine
 10
486.8152466854294
 20
202.4635949264831
 30
0.0
 11
467.1162394127091
 21
202.4635949264831
 31
0.0
  0
LINE
  5
E4
330
1F
100
AcDbEntity
  8
0
100
AcDbLine
 10
543.7711504539689
 20
163.9220246206588
 30
0.0
 11
486.8152466854294
 21
163.9220246206588
 31
0.0
  0
LINE
  5
E5
330
1F
100
AcDbEntity
  8
0
100
AcDbLine
 10
472.6381031116684
 20
158.4930696617431
 30
0.0
 11
561.6381195625504
 21
158.4930696617431
 31
0.0
  0
LINE
  5
E6
330
1F
100
AcDbEntity
  8
0
100
AcDbLine
 10
628.5625723442276
 20
181.0515948664016
 30
0.0
 11
566.7673376640518
 21
181.0515948664016
 31
0.0
  0
LINE
  5
E7
330
1F
100
AcDbEntity
  8
0
100
AcDbLine
 10
566.846909864827
 20
160.9243282209701
 30
0.0
 11
648.6898687919817
 21
160.9243282209701
 31
0.0
  0
LINE
  5
E8
330
1F
100
AcDbEntity
  8
0
100
AcDbLine
 10
648.6898687919817
 20
160.9243282209701
 30
0.0
 11
648.6898687919817
 21
202.4635949264831
 31
0.0
  0
LINE
  5
E9
330
1F
100
AcDbEntity
  8
0
100
AcDbLine
 10
567.5048855385025
 20
117.0735337864227
 30
0.0
 11
567.2821429809769
 21
120.6318565737076
 31
0.0
  0
LINE
  5
EA
330
1F
100
AcDbEntity
  8
0
100
AcDbLine
 10
567.2821429809769
 20
120.6318565737076
 30
0.0
 11
567.1482709488114
 21
125.2475508581466
 31
0.0
  0
LINE
  5
EB
330
1F
100
AcDbEntity
  8
0
100
AcDbLine
 10
561.6381195625504
 20
158.4930696617431
 30
0.0
 11
561.6381195625504
 21
85.49308563578795
 31
0.0
  0
LINE
  5
EC
330
1F
100
AcDbEntity
  8
0
100
AcDbLine
 10
567.1482709488114
 20
125.2475508581466
 30
0.0
 11
567.0686391433915
 21
131.1985978018112
 31
0.0
  0
LINE
  5
ED
330
1F
100
AcDbEntity
  8
0
100
AcDbLine
 10
567.0686391433915
 20
131.1985978018112
 30
0.0
 11
566.846909864827
 21
160.9243282209701
 31
0.0
  0
LINE
  5
EE
330
1F
100
AcDbEntity
  8
0
100
AcDbLine
 10
65.85563991872867
 20
273.9796021114654
 30
0.0
 11
65.85563991872867
 21
251.7111503611869
 31
0.0
  0
LINE
  5
EF
330
1F
100
AcDbEntity
  8
0
100
AcDbLine
 10
123.2397509059151
 20
251.7111503611869
 30
0.0
 11
103.9689732035836
 21
251.7111503611869
 31
0.0
  0
LINE
  5
F0
330
1F
100
AcDbEntity
  8
0
100
AcDbLine
 10
124.0962323984345
 20
221.734365178234
 30
0.0
 11
182.3368248781403
 21
221.734365178234
 31
0.0
  0
LINE
  5
F1
330
1F
100
AcDbEntity
  8
0
100
AcDbLine
 10
180.0767210563858
 20
256.0648822318382
 30
0.0
 11
178.8213280281265
 21
257.6959633361167
 31
0.0
  0
LINE
  5
F2
330
1F
100
AcDbEntity
  8
0
100
AcDbLine
 10
180.7777908882339
 20
255.2255445252723
 30
0.0
 11
180.0767210563858
 21
256.0648822318382
 31
0.0
  0
LINE
  5
F3
330
1F
100
AcDbEntity
  8
0
100
AcDbLine
 10
103.9689732035836
 20
251.7111503611869
 30
0.0
 11
103.9689732035836
 21
273.9796021114654
 31
0.0
  0
LINE
  5
F4
330
1F
100
AcDbEntity
  8
0
100
AcDbLine
 10
103.9689732035836
 20
273.9796021114654
 30
0.0
 11
65.85563991872867
 21
273.9796021114654
 31
0.0
  0
LINE
  5
F5
330
1F
100
AcDbEntity
  8
0
100
AcDbLine
 10
46.15661401955683
 20
221.734365178234
 30
0.0
 11
104.3972102245529
 21
221.734365178234
 31
0.0
  0
LINE
  5
F6
330
1F
100
AcDbEntity
  8
0
100
AcDbLine
 10
65.85563991872867
 20
251.7111503611869
 30
0.0
 11
46.15661401955683
 21
251.7111503611869
 31
0.0
  0
LINE
  5
F7
330
1F
100
AcDbEntity
  8
0
100
AcDbLine
 10
46.15661401955683
 20
315.0906131695575
 30
0.0
 11
65.85563991872867
 21
315.0906131695575
 31
0.0
  0
LINE
  5
F8
330
1F
100
AcDbEntity
  8
0
100
AcDbLine
 10
65.85563991872867
 20
290.6809539626903
 30
0.0
 11
103.9689732035836
 21
290.6809539626903
 31
0.0
  0
LINE
  5
F9
330
1F
100
AcDbEntity
  8
0
100
AcDbLine
 10
65.85563991872867
 20
315.0906131695575
 30
0.0
 11
65.85563991872867
 21
290.6809539626903
 31
0.0
  0
LINE
  5
FA
330
1F
100
AcDbEntity
  8
0
100
AcDbLine
 10
103.9689732035836
 20
290.6809539626903
 30
0.0
 11
103.9689732035836
 21
315.0906131695575
 31
0.0
  0
LINE
  5
FB
330
1F
100
AcDbEntity
  8
0
100
AcDbLine
 10
123.2397509059151
 20
315.0906131695575
 30
0.0
 11
123.2397509059151
 21
251.7111503611869
 31
0.0
  0
LINE
  5
FC
330
1F
100
AcDbEntity
  8
0
100
AcDbLine
 10
104.3972102245529
 20
163.0655505787201
 30
0.0
 11
124.0962323984345
 21
163.0655505787201
 31
0.0
  0
LINE
  5
FD
330
1F
100
AcDbEntity
  8
0
100
AcDbLine
 10
104.3972102245529
 20
221.734365178234
 30
0.0
 11
104.3972102245529
 21
163.0655505787201
 31
0.0
  0
LINE
  5
FE
330
1F
100
AcDbEntity
  8
0
100
AcDbLine
 10
124.0962323984345
 20
163.0655505787201
 30
0.0
 11
124.0962323984345
 21
221.734365178234
 31
0.0
  0
LINE
  5
FF
330
1F
100
AcDbEntity
  8
0
100
AcDbLine
 10
182.3368248781403
 20
221.734365178234
 30
0.0
 11
182.3368248781403
 21
85.98240996707149
 31
0.0
  0
LINE
  5
100
330
1F
100
AcDbEntity
  8
0
100
AcDbLine
 10
206.025364740773
 20
216.8302067648239
 30
0.0
 11
204.4203606685837
 21
220.0568446050949
 31
0.0
  0
LINE
  5
101
330
1F
100
AcDbEntity
  8
0
100
AcDbLine
 10
124.0962323984345
 20
143.3665135036773
 30
0.0
 11
104.3972102245529
 21
143.3665135036773
 31
0.0
  0
LINE
  5
102
330
1F
100
AcDbEntity
  8
0
100
AcDbLine
 10
124.0962323984345
 20
85.98240996707149
 30
0.0
 11
124.0962323984345
 21
143.3665135036773
 31
0.0
  0
LINE
  5
103
330
1F
100
AcDbEntity
  8
0
100
AcDbLine
 10
104.3972102245529
 20
143.3665135036773
 30
0.0
 11
104.3972102245529
 21
85.98240996707149
 31
0.0
  0
LINE
  5
104
330
1F
100
AcDbEntity
  8
0
100
AcDbLine
 10
104.3972102245529
 20
85.98240996707149
 30
0.0
 11
46.15661401955686
 21
85.98240996707149
 31
0.0
  0
LINE
  5
105
330
1F
100
AcDbEntity
  8
0
100
AcDbLine
 10
46.15661401955686
 20
85.98240996707149
 30
0.0
 11
46.15661401955683
 21
221.734365178234
 31
0.0
  0
LINE
  5
106
330
1F
100
AcDbEntity
  8
0
100
AcDbLine
 10
362.7257374366959
 20
251.7111503611869
 30
0.0
 11
342.9267135700425
 21
251.7111503611869
 31
0.0
  0
LINE
  5
107
330
1F
100
AcDbEntity
  8
0
100
AcDbLine
 10
320.2300098976334
 20
221.734365178234
 30
0.0
 11
378.4706023773392
 21
221.734365178234
 31
0.0
  0
LINE
  5
108
330
1F
100
AcDbEntity
  8
0
100
AcDbLine
 10
328.3665505489548
 20
251.9542628060646
 30
0.0
 11
327.9654112896164
 21
251.910706711895
 31
0.0
  0
LINE
  5
109
330
1F
100
AcDbEntity
  8
0
100
AcDbLine
 10
378.4706023773392
 20
221.734365178234
 30
0.0
 11
378.4706023773392
 21
85.98240996707149
 31
0.0
  0
LINE
  5
10A
330
1F
100
AcDbEntity
  8
0
100
AcDbLine
 10
408.8756171306809
 20
85.98240996707149
 30
0.0
 11
408.8756171306809
 21
221.734365178234
 31
0.0
  0
LINE
  5
10B
330
1F
100
AcDbEntity
  8
0
100
AcDbLine
 10
409.0842929920395
 20
251.716879857666
 30
0.0
 11
392.2304240307053
 21
251.7111503611869
 31
0.0
  0
LINE
  5
10C
330
1F
100
AcDbEntity
  8
0
100
AcDbLine
 10
204.4203606685837
 20
220.0568446050949
 30
0.0
 11
203.8431790909012
 21
221.2371879350013
 31
0.0
  0
LINE
  5
10D
330
1F
100
AcDbEntity
  8
0
100
AcDbLine
 10
192.3372623762329
 20
250.7127278577156
 30
0.0
 11
191.0743740638931
 21
250.681778145916
 31
0.0
  0
LINE
  5
10E
330
1F
100
AcDbEntity
  8
0
100
AcDbLine
 10
196.6398385605057
 20
251.6150974761314
 30
0.0
 11
195.6433681091507
 21
251.2609341274566
 31
0.0
  0
LINE
  5
10F
330
1F
100
AcDbEntity
  8
0
100
AcDbLine
 10
195.6433681091507
 20
251.2609341274566
 30
0.0
 11
194.6051744064529
 21
250.9964087139434
 31
0.0
  0
LINE
  5
110
330
1F
100
AcDbEntity
  8
0
100
AcDbLine
 10
203.8431790909012
 20
221.2371879350013
 30
0.0
 11
204.1437057098587
 21
221.3539385329551
 31
0.0
  0
LINE
  5
111
330
1F
100
AcDbEntity
  8
0
100
AcDbLine
 10
194.6051744064529
 20
250.9964087139434
 30
0.0
 11
193.5086575588425
 21
250.8156352769203
 31
0.0
  0
LINE
  5
112
330
1F
100
AcDbEntity
  8
0
100
AcDbLine
 10
193.5086575588425
 20
250.8156352769203
 30
0.0
 11
192.3372623762329
 21
250.7127278577156
 31
0.0
  0
LINE
  5
113
330
1F
100
AcDbEntity
  8
0
100
AcDbLine
 10
204.1437057098587
 20
221.3539385329551
 30
0.0
 11
205.1866379818161
 21
221.4502745400734
 31
0.0
  0
LINE
  5
114
330
1F
100
AcDbEntity
  8
0
100
AcDbLine
 10
197.6111856540878
 20
252.0648070703812
 30
0.0
 11
196.6398385605057
 21
251.6150974761314
 31
0.0
  0
LINE
  5
115
330
1F
100
AcDbEntity
  8
0
100
AcDbLine
 10
205.1866379818161
 20
221.4502745400734
 30
0.0
 11
207.0567039093216
 21
221.5271272789306
 31
0.0
  0
LINE
  5
116
330
1F
100
AcDbEntity
  8
0
100
AcDbLine
 10
207.0567039093216
 20
221.5271272789306
 30
0.0
 11
209.8385718902787
 21
221.585383368618
 31
0.0
  0
LINE
  5
117
330
1F
100
AcDbEntity
  8
0
100
AcDbLine
 10
209.8385718902787
 20
221.585383368618
 30
0.0
 11
213.6169699272354
 21
221.6259592305488
 31
0.0
  0
LINE
  5
118
330
1F
100
AcDbEntity
  8
0
100
AcDbLine
 10
213.6169699272354
 20
221.6259592305488
 30
0.0
 11
218.4765962204178
 21
221.6497787367172
 31
0.0
  0
LINE
  5
119
330
1F
100
AcDbEntity
  8
0
100
AcDbLine
 10
218.4765962204178
 20
221.6497787367172
 30
0.0
 11
224.5022085746963
 21
221.6577285062141
 31
0.0
  0
LINE
  5
11A
330
1F
100
AcDbEntity
  8
0
100
AcDbLine
 10
224.5022085746963
 20
221.6577285062141
 30
0.0
 11
231.7784902891357
 21
221.6507398616142
 31
0.0
  0
LINE
  5
11B
330
1F
100
AcDbEntity
  8
0
100
AcDbLine
 10
231.7784902891357
 20
221.6507398616142
 30
0.0
 11
277.1044698795517
 21
221.5202429424591
 31
0.0
  0
LINE
  5
11C
330
1F
100
AcDbEntity
  8
0
100
AcDbLine
 10
267.3427787861069
 20
254.462277246601
 30
0.0
 11
264.1113427719315
 21
255.7823487650222
 31
0.0
  0
LINE
  5
11D
330
1F
100
AcDbEntity
  8
0
100
AcDbLine
 10
269.6340260347565
 20
253.6694535147018
 30
0.0
 11
267.3427787861069
 21
254.462277246601
 31
0.0
  0
LINE
  5
11E
330
1F
100
AcDbEntity
  8
0
100
AcDbLine
 10
300.7451025089463
 20
105.0390579830474
 30
0.0
 11
320.2300098976334
 21
104.8088648449249
 31
0.0
  0
LINE
  5
11F
330
1F
100
AcDbEntity
  8
0
100
AcDbLine
 10
300.507399185582
 20
173.5574134718246
 30
0.0
 11
300.7451025089463
 21
105.0390579830474
 31
0.0
  0
LINE
  5
120
330
1F
100
AcDbEntity
  8
0
100
AcDbLine
 10
320.2300098976334
 20
104.8088648449249
 30
0.0
 11
320.2300098976334
 21
221.734365178234
 31
0.0
  0
LINE
  5
121
330
1F
100
AcDbEntity
  8
0
100
AcDbLine
 10
277.1044698795517
 20
221.5202429424591
 30
0.0
 11
300.507399185582
 21
173.5574134718246
 31
0.0
  0
LINE
  5
122
330
1F
100
AcDbEntity
  8
0
100
AcDbLine
 10
295.3390506347855
 20
251.7181837092704
 30
0.0
 11
288.7688306411943
 21
251.7527544032401
 31
0.0
  0
LINE
  5
123
330
1F
100
AcDbEntity
  8
0
100
AcDbLine
 10
595.8992270073136
 20
220.8051883708305
 30
0.0
 11
599.2282060226639
 21
221.4366250764198
 31
0.0
  0
LINE
  5
124
330
1F
100
AcDbEntity
  8
0
100
AcDbLine
 10
408.8756171306809
 20
221.734365178234
 30
0.0
 11
543.7711504539689
 21
221.734365178234
 31
0.0
  0
LINE
  5
125
330
1F
100
AcDbEntity
  8
0
100
AcDbLine
 10
463.114741190358
 20
251.9490921031303
 30
0.0
 11
458.9443532070358
 21
252.0160653721161
 31
0.0
  0
LINE
  5
126
330
1F
100
AcDbEntity
  8
0
100
AcDbLine
 10
458.9443532070358
 20
252.0160653721161
 30
0.0
 11
455.9769657692154
 21
252.1087952982254
 31
0.0
  0
LINE
  5
127
330
1F
100
AcDbEntity
  8
0
100
AcDbLine
 10
566.7673376640518
 20
181.0515948664016
 30
0.0
 11
567.044618471547
 21
185.2823772560425
 31
0.0
  0
LINE
  5
128
330
1F
100
AcDbEntity
  8
0
100
AcDbLine
 10
567.044618471547
 20
185.2823772560425
 30
0.0
 11
567.297520979329
 21
187.897784365303
 31
0.0
  0
LINE
  5
129
330
1F
100
AcDbEntity
  8
0
100
AcDbLine
 10
543.7711504539689
 20
221.734365178234
 30
0.0
 11
543.7711504539689
 21
163.9220246206588
 31
0.0
  0
LINE
  5
12A
330
1F
100
AcDbEntity
  8
0
100
AcDbLine
 10
567.297520979329
 20
187.897784365303
 30
0.0
 11
567.7093890747269
 21
190.5166187416382
 31
0.0
  0
LINE
  5
12B
330
1F
100
AcDbEntity
  8
0
100
AcDbLine
 10
567.7093890747269
 20
190.5166187416382
 30
0.0
 11
568.2722357353409
 21
193.1152024399109
 31
0.0
  0
LINE
  5
12C
330
1F
100
AcDbEntity
  8
0
100
AcDbLine
 10
467.1162394127091
 20
85.98240996707149
 30
0.0
 11
408.8756171306809
 21
85.98240996707149
 31
0.0
  0
LINE
  5
12D
330
1F
100
AcDbEntity
  8
0
100
AcDbLine
 10
740.7614019951066
 20
85.98240996707149
 30
0.0
 11
740.7614019951066
 21
221.734365178234
 31
0.0
  0
LINE
  5
12E
330
1F
100
AcDbEntity
  8
0
100
AcDbLine
 10
712.2402218422135
 20
179.8762508760757
 30
0.0
 11
712.2660306534012
 21
173.417461765892
 31
0.0
  0
LINE
  5
12F
330
1F
100
AcDbEntity
  8
0
100
AcDbLine
 10
712.2834352096756
 20
117.4580135475463
 30
0.0
 11
711.2737921318254
 21
113.60385800708
 31
0.0
  0
LINE
  5
130
330
1F
100
AcDbEntity
  8
0
100
AcDbLine
 10
711.2737921318254
 20
113.60385800708
 30
0.0
 11
710.575404508992
 21
111.1890354286499
 31
0.0
  0
LINE
  5
131
330
1F
100
AcDbEntity
  8
0
100
AcDbLine
 10
710.575404508992
 20
111.1890354286499
 30
0.0
 11
709.7771195015152
 21
108.8997998367614
 31
0.0
  0
LINE
  5
132
330
1F
100
AcDbEntity
  8
0
100
AcDbLine
 10
709.7771195015152
 20
108.8997998367614
 30
0.0
 11
708.8750032028396
 21
106.7294308077164
 31
0.0
  0
LINE
  5
133
330
1F
100
AcDbEntity
  8
0
100
AcDbLine
 10
708.8750032028396
 20
106.7294308077164
 30
0.0
 11
707.8652409156997
 21
104.6712377201385
 31
0.0
  0
LINE
  5
134
330
1F
100
AcDbEntity
  8
0
100
AcDbLine
 10
707.8652409156997
 20
104.6712377201385
 30
0.0
 11
706.7438987335404
 21
102.7184703480072
 31
0.0
  0
LINE
  5
135
330
1F
100
AcDbEntity
  8
0
100
AcDbLine
 10
706.7438987335404
 20
102.7184703480072
 30
0.0
 11
705.507102354451
 21
100.8644082676239
 31
0.0
  0
LINE
  5
136
330
1F
100
AcDbEntity
  8
0
100
AcDbLine
 10
705.507102354451
 20
100.8644082676239
 30
0.0
 11
704.1510370811661
 21
99.10234595645137
 31
0.0
  0
LINE
  5
137
330
1F
100
AcDbEntity
  8
0
100
AcDbLine
 10
704.1510370811661
 20
99.10234595645137
 30
0.0
 11
702.6719478210648
 21
97.42554808963008
 31
0.0
  0
LINE
  5
138
330
1F
100
AcDbEntity
  8
0
100
AcDbLine
 10
702.6719478210648
 20
97.42554808963008
 30
0.0
 11
701.0657814583022
 21
95.82730914462277
 31
0.0
  0
LINE
  5
139
330
1F
100
AcDbEntity
  8
0
100
AcDbLine
 10
701.0657814583022
 20
95.82730914462277
 30
0.0
 11
699.5194581588944
 21
94.45217038500972
 31
0.0
  0
LINE
  5
13A
330
1F
100
AcDbEntity
  8
0
100
AcDbLine
 10
699.5194581588944
 20
94.45217038500972
 30
0.0
 11
697.9594853958329
 21
93.2102182041473
 31
0.0
  0
LINE
  5
13B
330
1F
100
AcDbEntity
  8
0
100
AcDbLine
 10
697.9594853958329
 20
93.2102182041473
 30
0.0
 11
696.3608888229569
 21
92.08839918482967
 31
0.0
  0
LINE
  5
13C
330
1F
100
AcDbEntity
  8
0
100
AcDbLine
 10
696.3608888229569
 20
92.08839918482967
 30
0.0
 11
694.6989921173296
 21
91.0736897121734
 31
0.0
  0
LINE
  5
13D
330
1F
100
AcDbEntity
  8
0
100
AcDbLine
 10
694.6989921173296
 20
91.0736897121734
 30
0.0
 11
692.9488805374344
 21
90.15294696200557
 31
0.0
  0
LINE
  5
13E
330
1F
100
AcDbEntity
  8
0
100
AcDbLine
 10
692.9488805374344
 20
90.15294696200557
 30
0.0
 11
691.08581815569
 21
89.31320692408747
 31
0.0
  0
LINE
  5
13F
330
1F
100
AcDbEntity
  8
0
100
AcDbLine
 10
691.08581815569
 20
89.31320692408747
 30
0.0
 11
689.0848306259354
 21
88.54138637889096
 31
0.0
  0
LINE
  5
140
330
1F
100
AcDbEntity
  8
0
100
AcDbLine
 10
689.0848306259354
 20
88.54138637889096
 30
0.0
 11
686.9212416252335
 21
87.82443190921016
 31
0.0
  0
LINE
  5
141
330
1F
100
AcDbEntity
  8
0
100
AcDbLine
 10
686.9212416252335
 20
87.82443190921016
 30
0.0
 11
684.5702556213578
 21
87.14926029551694
 31
0.0
  0
LINE
  5
142
330
1F
100
AcDbEntity
  8
0
100
AcDbLine
 10
684.5702556213578
 20
87.14926029551694
 30
0.0
 11
681.021931513234
 21
86.19653965342708
 31
0.0
  0
LINE
  5
143
330
1F
100
AcDbEntity
  8
0
100
AcDbLine
 10
619.2951229652604
 20
86.2114706169433
 30
0.0
 11
612.1494797310074
 21
86.23754764903256
 31
0.0
  0
LINE
  5
144
330
1F
100
AcDbEntity
  8
0
100
AcDbLine
 10
612.1494797310074
 20
86.23754764903256
 30
0.0
 11
606.7328480323989
 21
86.28260876048274
 31
0.0
  0
LINE
  5
145
330
1F
100
AcDbEntity
  8
0
100
AcDbLine
 10
606.7328480323989
 20
86.28260876048274
 30
0.0
 11
602.7606752952775
 21
86.35166074145504
 31
0.0
  0
LINE
  5
146
330
1F
100
AcDbEntity
  8
0
100
AcDbLine
 10
602.7606752952775
 20
86.35166074145504
 30
0.0
 11
599.9487069687088
 21
86.449591172821
 31
0.0
  0
LINE
  5
147
330
1F
100
AcDbEntity
  8
0
100
AcDbLine
 10
591.8932584366044
 20
88.02881623614498
 30
0.0
 11
588.4064463218888
 21
89.34229399073786
 31
0.0
  0
LINE
  5
148
330
1F
100
AcDbEntity
  8
0
100
AcDbLine
 10
588.4064463218888
 20
89.34229399073786
 30
0.0
 11
585.1711062034806
 21
90.90479995120236
 31
0.0
  0
LINE
  5
149
330
1F
100
AcDbEntity
  8
0
100
AcDbLine
 10
585.1711062034806
 20
90.90479995120236
 30
0.0
 11
582.1893838485917
 21
92.71466518748468
 31
0.0
  0
LINE
  5
14A
330
1F
100
AcDbEntity
  8
0
100
AcDbLine
 10
582.1893838485917
 20
92.71466518748468
 30
0.0
 11
579.4635442337235
 21
94.77016116488645
 31
0.0
  0
LINE
  5
14B
330
1F
100
AcDbEntity
  8
0
100
AcDbLine
 10
579.4635442337235
 20
94.77016116488645
 30
0.0
 11
576.9958523353775
 21
97.06958915103145
 31
0.0
  0
LINE
  5
14C
330
1F
100
AcDbEntity
  8
0
100
AcDbLine
 10
576.9958523353775
 20
97.06958915103145
 30
0.0
 11
574.7886923393448
 21
99.61122061122126
 31
0.0
  0
LINE
  5
14D
330
1F
100
AcDbEntity
  8
0
100
AcDbLine
 10
574.7886923393448
 20
99.61122061122126
 30
0.0
 11
572.8442100128373
 21
102.3933568130798
 31
0.0
  0
LINE
  5
14E
330
1F
100
AcDbEntity
  8
0
100
AcDbLine
 10
572.8442100128373
 20
102.3933568130798
 30
0.0
 11
571.1647299370012
 21
105.4142543207473
 31
0.0
  0
LINE
  5
14F
330
1F
100
AcDbEntity
  8
0
100
AcDbLine
 10
571.1647299370012
 20
105.4142543207473
 30
0.0
 11
569.9778226455887
 21
107.8549900184936
 31
0.0
  0
LINE
  5
150
330
1F
100
AcDbEntity
  8
0
100
AcDbLine
 10
569.9778226455887
 20
107.8549900184936
 30
0.0
 11
569.0530565818985
 21
109.9633255134887
 31
0.0
  0
LINE
  5
151
330
1F
100
AcDbEntity
  8
0
100
AcDbLine
 10
569.0530565818985
 20
109.9633255134887
 30
0.0
 11
568.3557418426713
 21
112.0172270666427
 31
0.0
  0
LINE
  5
152
330
1F
100
AcDbEntity
  8
0
100
AcDbLine
 10
568.3557418426713
 20
112.0172270666427
 30
0.0
 11
567.8512481292923
 21
114.2946460377044
 31
0.0
  0
LINE
  5
153
330
1F
100
AcDbEntity
  8
0
100
AcDbLine
 10
567.8512481292923
 20
114.2946460377044
 30
0.0
 11
567.5048855385025
 21
117.0735337864227
 31
0.0
  0
LINE
  5
154
330
1F
100
AcDbEntity
  8
0
100
AcDbLine
 10
648.6898687919817
 20
202.4635949264831
 30
0.0
 11
628.5625723442276
 21
202.4635949264831
 31
0.0
  0
LINE
  5
155
330
1F
100
AcDbEntity
  8
0
100
AcDbLine
 10
628.5625723442276
 20
202.4635949264831
 30
0.0
 11
628.5625723442276
 21
181.0515948664016
 31
0.0
  0
LINE
  5
156
330
1F
100
AcDbEntity
  8
0
100
AcDbLine
 10
568.2722357353409
 20
193.1152024399109
 30
0.0
 11
568.9780143341263
 21
195.6698724161453
 31
0.0
  0
LINE
  5
157
330
1F
100
AcDbEntity
  8
0
100
AcDbLine
 10
568.9780143341263
 20
195.6698724161453
 30
0.0
 11
569.818797453328
 21
198.1569507252044
 31
0.0
  0
LINE
  5
158
330
1F
100
AcDbEntity
  8
0
100
AcDbLine
 10
569.818797453328
 20
198.1569507252044
 30
0.0
 11
570.7864788612565
 21
200.5527594219513
 31
0.0
  0
LINE
  5
159
330
1F
100
AcDbEntity
  8
0
100
AcDbLine
 10
570.7864788612565
 20
200.5527594219513
 30
0.0
 11
571.8731311401566
 21
202.8336503635711
 31
0.0
  0
LINE
  5
15A
330
1F
100
AcDbEntity
  8
0
100
AcDbLine
 10
571.8731311401566
 20
202.8336503635711
 30
0.0
 11
573.0707672676285
 21
204.9759158026046
 31
0.0
  0
LINE
  5
15B
330
1F
100
AcDbEntity
  8
0
100
AcDbLine
 10
573.0707672676285
 20
204.9759158026046
 30
0.0
 11
574.3713406166277
 21
206.9559224973983
 31
0.0
  0
LINE
  5
15C
330
1F
100
AcDbEntity
  8
0
100
AcDbLine
 10
574.3713406166277
 20
206.9559224973983
 30
0.0
 11
576.3118294319352
 21
209.3942442070312
 31
0.0
  0
LINE
  5
15D
330
1F
100
AcDbEntity
  8
0
100
AcDbLine
 10
576.3118294319352
 20
209.3942442070312
 30
0.0
 11
578.5212544044693
 21
211.662290347702
 31
0.0
  0
LINE
  5
15E
330
1F
100
AcDbEntity
  8
0
100
AcDbLine
 10
578.5212544044693
 20
211.662290347702
 30
0.0
 11
580.972316606923
 21
213.7441315780945
 31
0.0
  0
LINE
  5
15F
330
1F
100
AcDbEntity
  8
0
100
AcDbLine
 10
580.972316606923
 20
213.7441315780945
 30
0.0
 11
583.6378959259233
 21
215.6239428650207
 31
0.0
  0
LINE
  5
160
330
1F
100
AcDbEntity
  8
0
100
AcDbLine
 10
583.6378959259233
 20
215.6239428650207
 30
0.0
 11
586.4905146202286
 21
217.285824669487
 31
0.0
  0
LINE
  5
161
330
1F
100
AcDbEntity
  8
0
100
AcDbLine
 10
586.4905146202286
 20
217.285824669487
 30
0.0
 11
589.503171785756
 21
218.7139072548217
 31
0.0
  0
LINE
  5
162
330
1F
100
AcDbEntity
  8
0
100
AcDbLine
 10
589.503171785756
 20
218.7139072548217
 30
0.0
 11
592.6485088905533
 21
219.8923208843536
 31
0.0
  0
LINE
  5
163
330
1F
100
AcDbEntity
  8
0
100
AcDbLine
 10
592.6485088905533
 20
219.8923208843536
 30
0.0
 11
595.8992270073136
 21
220.8051883708305
 31
0.0
  0
LINE
  5
164
330
1F
100
AcDbEntity
  8
0
100
AcDbLine
 10
468.7706557354172
 20
251.8990391026801
 30
0.0
 11
463.114741190358
 21
251.9490921031303
 31
0.0
  0
LINE
  5
165
330
1F
100
AcDbEntity
  8
0
100
AcDbLine
 10
599.2282060226639
 20
221.4366250764198
 30
0.0
 11
600.1165536483963
 21
221.4687221776313
 31
0.0
  0
LINE
  5
166
330
1F
100
AcDbEntity
  8
0
100
AcDbLine
 10
600.1165536483963
 20
221.4687221776313
 30
0.0
 11
602.2309092125138
 21
221.4967289100952
 31
0.0
  0
LINE
  5
167
330
1F
100
AcDbEntity
  8
0
100
AcDbLine
 10
602.2309092125138
 20
221.4967289100952
 30
0.0
 11
605.450096472188
 21
221.520317448265
 31
0.0
  0
LINE
  5
168
330
1F
100
AcDbEntity
  8
0
100
AcDbLine
 10
605.450096472188
 20
221.520317448265
 30
0.0
 11
609.6531776031693
 21
221.5391525160141
 31
0.0
  0
LINE
  5
169
330
1F
100
AcDbEntity
  8
0
100
AcDbLine
 10
513.2442442020615
 20
251.8329002987213
 30
0.0
 11
510.2039602836808
 21
251.7891281377144
 31
0.0
  0
LINE
  5
16A
330
1F
100
AcDbEntity
  8
0
100
AcDbLine
 10
510.2039602836808
 20
251.7891281377144
 30
0.0
 11
506.0704675754747
 21
251.7674692999191
 31
0.0
  0
LINE
  5
16B
330
1F
100
AcDbEntity
  8
0
100
AcDbLine
 10
515.335622175618
 20
251.9008495937652
 30
0.0
 11
513.2442442020615
 21
251.8329002987213
 31
0.0
  0
LINE
  5
16C
330
1F
100
AcDbEntity
  8
0
100
AcDbLine
 10
516.6223672470292
 20
251.9950770865745
 30
0.0
 11
515.335622175618
 21
251.9008495937652
 31
0.0
  0
LINE
  5
16D
330
1F
100
AcDbEntity
  8
0
100
AcDbLine
 10
592.5312069496354
 20
252.0187252293891
 30
0.0
 11
589.2999795517167
 21
251.9498297106094
 31
0.0
  0
LINE
  5
16E
330
1F
100
AcDbEntity
  8
0
100
AcDbLine
 10
589.2999795517167
 20
251.9498297106094
 30
0.0
 11
585.0150016388138
 21
251.8977799545593
 31
0.0
  0
LINE
  5
16F
330
1F
100
AcDbEntity
  8
0
100
AcDbLine
 10
585.0150016388138
 20
251.8977799545593
 30
0.0
 11
579.4705775818071
 21
251.8544622789688
 31
0.0
  0
LINE
  5
170
330
1F
100
AcDbEntity
  8
0
100
AcDbLine
 10
579.4705775818071
 20
251.8544622789688
 30
0.0
 11
548.2629564842423
 21
251.6721614729232
 31
0.0
  0
LINE
  5
171
330
1F
100
AcDbEntity
  8
0
100
AcDbLine
 10
599.0350273689469
 20
252.6247405539817
 30
0.0
 11
597.9606536468704
 21
252.4074667226143
 31
0.0
  0
LINE
  5
172
330
1F
100
AcDbEntity
  8
0
100
AcDbLine
 10
654.9552706321915
 20
221.5294518600768
 30
0.0
 11
665.5265120109757
 21
221.4935326110191
 31
0.0
  0
LINE
  5
173
330
1F
100
AcDbEntity
  8
0
100
AcDbLine
 10
667.6301387390337
 20
250.8592360745735
 30
0.0
 11
666.3943556389054
 21
251.1141874920196
 31
0.0
  0
LINE
  5
174
330
1F
100
AcDbEntity
  8
0
100
AcDbLine
 10
668.9344671806534
 20
250.7072442303962
 30
0.0
 11
667.6301387390337
 21
250.8592360745735
 31
0.0
  0
LINE
  5
175
330
1F
100
AcDbEntity
  8
0
100
AcDbLine
 10
665.5265120109757
 20
221.4935326110191
 30
0.0
 11
673.4203723510942
 21
221.4019575249023
 31
0.0
  0
LINE
  5
176
330
1F
100
AcDbEntity
  8
0
100
AcDbLine
 10
670.3159836372574
 20
250.6545835267372
 30
0.0
 11
668.9344671806534
 21
250.7072442303962
 31
0.0
  0
LINE
  5
177
330
1F
100
AcDbEntity
  8
0
100
AcDbLine
 10
673.4203723510942
 20
221.4019575249023
 30
0.0
 11
679.148676737233
 21
221.2138527165718
 31
0.0
  0
LINE
  5
178
330
1F
100
AcDbEntity
  8
0
100
AcDbLine
 10
679.148676737233
 20
221.2138527165718
 30
0.0
 11
683.2227138122757
 21
220.8883741031952
 31
0.0
  0
LINE
  5
179
330
1F
100
AcDbEntity
  8
0
100
AcDbLine
 10
683.2227138122757
 20
220.8883741031952
 30
0.0
 11
686.1540702423295
 21
220.3846552501984
 31
0.0
  0
LINE
  5
17A
330
1F
100
AcDbEntity
  8
0
100
AcDbLine
 10
674.1345552047928
 20
251.0832973848648
 30
0.0
 11
672.9388860305985
 21
250.8388810883827
 31
0.0
  0
LINE
  5
17B
330
1F
100
AcDbEntity
  8
0
100
AcDbLine
 10
672.9388860305985
 20
250.8388810883827
 30
0.0
 11
671.6701415619095
 21
250.6977223883934
 31
0.0
  0
LINE
  5
17C
330
1F
100
AcDbEntity
  8
0
100
AcDbLine
 10
686.1540702423295
 20
220.3846552501984
 30
0.0
 11
688.4542134842118
 21
219.661814821846
 31
0.0
  0
LINE
  5
17D
330
1F
100
AcDbEntity
  8
0
100
AcDbLine
 10
675.2691892227373
 20
251.4361792336769
 30
0.0
 11
674.1345552047928
 21
251.0832973848648
 31
0.0
  0
LINE
  5
17E
330
1F
100
AcDbEntity
  8
0
100
AcDbLine
 10
688.4542134842118
 20
219.661814821846
 30
0.0
 11
690.63473020403
 21
218.6789938341445
 31
0.0
  0
LINE
  5
17F
330
1F
100
AcDbEntity
  8
0
100
AcDbLine
 10
690.63473020403
 20
218.6789938341445
 30
0.0
 11
693.2070878586014
 21
217.3953482042618
 31
0.0
  0
LINE
  5
180
330
1F
100
AcDbEntity
  8
0
100
AcDbLine
 10
676.3550666412552
 20
251.9027718435592
 30
0.0
 11
675.2691892227373
 21
251.4361792336769
 31
0.0
  0
LINE
  5
181
330
1F
100
AcDbEntity
  8
0
100
AcDbLine
 10
693.2070878586014
 20
217.3953482042618
 30
0.0
 11
694.4090155204972
 21
216.7920150886841
 31
0.0
  0
LINE
  5
182
330
1F
100
AcDbEntity
  8
0
100
AcDbLine
 10
694.4090155204972
 20
216.7920150886841
 30
0.0
 11
695.4442885956009
 21
216.2416705023117
 31
0.0
  0
LINE
  5
183
330
1F
100
AcDbEntity
  8
0
100
AcDbLine
 10
695.4442885956009
 20
216.2416705023117
 30
0.0
 11
696.3549879631241
 21
215.7135435472793
 31
0.0
  0
LINE
  5
184
330
1F
100
AcDbEntity
  8
0
100
AcDbLine
 10
696.3549879631241
 20
215.7135435472793
 30
0.0
 11
697.1831348976334
 21
215.1768633257217
 31
0.0
  0
LINE
  5
185
330
1F
100
AcDbEntity
  8
0
100
AcDbLine
 10
750.4273680290421
 20
253.1107046734161
 30
0.0
 11
746.919455870076
 21
254.208674384243
 31
0.0
  0
LINE
  5
186
330
1F
100
AcDbEntity
  8
0
100
AcDbLine
 10
754.6791461548052
 20
251.9513570796318
 30
0.0
 11
750.4273680290421
 21
253.1107046734161
 31
0.0
  0
LINE
  5
187
330
1F
100
AcDbEntity
  8
0
100
AcDbLine
 10
697.1831348976334
 20
215.1768633257217
 30
0.0
 11
697.9708102783403
 21
214.6009036432571
 31
0.0
  0
LINE
  5
188
330
1F
100
AcDbEntity
  8
0
100
AcDbLine
 10
697.9708102783403
 20
214.6009036432571
 30
0.0
 11
698.7600353798111
 21
213.9549085031814
 31
0.0
  0
LINE
  5
189
330
1F
100
AcDbEntity
  8
0
100
AcDbLine
 10
698.7600353798111
 20
213.9549085031814
 30
0.0
 11
699.5928910812577
 21
213.2081070076294
 31
0.0
  0
LINE
  5
18A
330
1F
100
AcDbEntity
  8
0
100
AcDbLine
 10
699.5928910812577
 20
213.2081070076294
 30
0.0
 11
700.5115178665361
 21
212.329758061058
 31
0.0
  0
LINE
  5
18B
330
1F
100
AcDbEntity
  8
0
100
AcDbLine
 10
700.5115178665361
 20
212.329758061058
 30
0.0
 11
701.5578178009231
 21
211.2891056667633
 31
0.0
  0
LINE
  5
18C
330
1F
100
AcDbEntity
  8
0
100
AcDbLine
 10
701.5578178009231
 20
211.2891056667633
 30
0.0
 11
703.1983164390763
 21
209.5702120195694
 31
0.0
  0
LINE
  5
18D
330
1F
100
AcDbEntity
  8
0
100
AcDbLine
 10
703.1983164390763
 20
209.5702120195694
 30
0.0
 11
704.6428946098526
 21
207.9023399483032
 31
0.0
  0
LINE
  5
18E
330
1F
100
AcDbEntity
  8
0
100
AcDbLine
 10
704.6428946098526
 20
207.9023399483032
 30
0.0
 11
705.9161690315445
 21
206.2419780622787
 31
0.0
  0
LINE
  5
18F
330
1F
100
AcDbEntity
  8
0
100
AcDbLine
 10
705.9161690315445
 20
206.2419780622787
 30
0.0
 11
707.0425776085099
 21
204.5456745754547
 31
0.0
  0
LINE
  5
190
330
1F
100
AcDbEntity
  8
0
100
AcDbLine
 10
707.0425776085099
 20
204.5456745754547
 30
0.0
 11
708.0468562683304
 21
202.7699031959838
 31
0.0
  0
LINE
  5
191
330
1F
100
AcDbEntity
  8
0
100
AcDbLine
 10
708.0468562683304
 20
202.7699031959838
 30
0.0
 11
708.9535025200088
 21
200.8711972366638
 31
0.0
  0
LINE
  5
192
330
1F
100
AcDbEntity
  8
0
100
AcDbLine
 10
708.9535025200088
 20
200.8711972366638
 30
0.0
 11
709.7871926864823
 21
198.8060453068084
 31
0.0
  0
LINE
  5
193
330
1F
100
AcDbEntity
  8
0
100
AcDbLine
 10
709.7871926864823
 20
198.8060453068084
 30
0.0
 11
710.572483881398
 21
196.5309807192153
 31
0.0
  0
LINE
  5
194
330
1F
100
AcDbEntity
  8
0
100
AcDbLine
 10
710.572483881398
 20
196.5309807192153
 30
0.0
 11
711.3339332184037
 21
194.0025069843597
 31
0.0
  0
LINE
  5
195
330
1F
100
AcDbEntity
  8
0
100
AcDbLine
 10
711.3339332184037
 20
194.0025069843597
 30
0.0
 11
711.612763746663
 21
192.9635384212799
 31
0.0
  0
LINE
  5
196
330
1F
100
AcDbEntity
  8
0
100
AcDbLine
 10
711.612763746663
 20
192.9635384212799
 30
0.0
 11
711.8303207000931
 21
191.8294408451385
 31
0.0
  0
LINE
  5
197
330
1F
100
AcDbEntity
  8
0
100
AcDbLine
 10
711.8303207000931
 20
191.8294408451385
 30
0.0
 11
711.9941738685807
 21
190.2769037615127
 31
0.0
  0
LINE
  5
198
330
1F
100
AcDbEntity
  8
0
100
AcDbLine
 10
711.9941738685807
 20
190.2769037615127
 30
0.0
 11
712.1120122513016
 21
187.9827060829467
 31
0.0
  0
LINE
  5
199
330
1F
100
AcDbEntity
  8
0
100
AcDbLine
 10
712.1120122513016
 20
187.9827060829467
 30
0.0
 11
712.1914652427872
 21
184.6235671173401
 31
0.0
  0
LINE
  5
19A
330
1F
100
AcDbEntity
  8
0
100
AcDbLine
 10
712.1914652427872
 20
184.6235671173401
 30
0.0
 11
712.2402218422135
 21
179.8762508760757
 31
0.0
  0
LINE
  5
19B
330
1F
100
AcDbEntity
  8
0
100
AcDbLine
 10
140.9095105966767
 20
310.667043281681
 30
0.0
 11
139.7762921890458
 21
312.2588262986011
 31
0.0
  0
LINE
  5
19C
330
1F
100
AcDbEntity
  8
0
100
AcDbLine
 10
139.7762921890458
 20
312.2588262986011
 30
0.0
 11
137.7269578417977
 21
315.0906150322027
 31
0.0
  0
LINE
  5
19D
330
1F
100
AcDbEntity
  8
0
100
AcDbLine
 10
161.1389694055756
 20
315.0512163620061
 30
0.0
 11
178.5519895395477
 21
290.3317154477901
 31
0.0
  0
LINE
  5
19E
330
1F
100
AcDbEntity
  8
0
100
AcDbLine
 10
181.5941361030777
 20
298.7538443039722
 30
0.0
 11
169.8881265958985
 21
314.8764946590729
 31
0.0
  0
LINE
  5
19F
330
1F
100
AcDbEntity
  8
0
100
AcDbLine
 10
178.5519895395477
 20
290.3317154477901
 30
0.0
 11
181.0555485328873
 21
286.7923879157371
 31
0.0
  0
LINE
  5
1A0
330
1F
100
AcDbEntity
  8
0
100
AcDbLine
 10
197.8195336899002
 20
298.9161663781471
 30
0.0
 11
181.5941361030777
 21
298.7538443039722
 31
0.0
  0
LINE
  5
1A1
330
1F
100
AcDbEntity
  8
0
100
AcDbLine
 10
181.0555485328873
 20
286.7923879157371
 30
0.0
 11
183.3708760580261
 21
283.5295365284748
 31
0.0
  0
LINE
  5
1A2
330
1F
100
AcDbEntity
  8
0
100
AcDbLine
 10
183.3708760580261
 20
283.5295365284748
 30
0.0
 11
185.4547885498245
 21
280.6035109888382
 31
0.0
  0
LINE
  5
1A3
330
1F
100
AcDbEntity
  8
0
100
AcDbLine
 10
185.4547885498245
 20
280.6035109888382
 30
0.0
 11
187.2640875419815
 21
278.0746647249526
 31
0.0
  0
LINE
  5
1A4
330
1F
100
AcDbEntity
  8
0
100
AcDbLine
 10
194.3280873140534
 20
277.9447862039871
 30
0.0
 11
195.0478133997162
 21
279.0106364618607
 31
0.0
  0
LINE
  5
1A5
330
1F
100
AcDbEntity
  8
0
100
AcDbLine
 10
193.7595782121857
 20
277.0991602073974
 30
0.0
 11
194.3280873140534
 21
277.9447862039871
 31
0.0
  0
LINE
  5
1A6
330
1F
100
AcDbEntity
  8
0
100
AcDbLine
 10
187.2640875419815
 20
278.0746647249526
 30
0.0
 11
188.7556043705185
 21
276.0033288132018
 31
0.0
  0
LINE
  5
1A7
330
1F
100
AcDbEntity
  8
0
100
AcDbLine
 10
193.2823089203079
 20
276.3919212948151
 30
0.0
 11
193.7595782121857
 21
277.0991602073974
 31
0.0
  0
LINE
  5
1A8
330
1F
100
AcDbEntity
  8
0
100
AcDbLine
 10
192.8254244169434
 20
275.7248335610695
 30
0.0
 11
193.2823089203079
 21
276.3919212948151
 31
0.0
  0
LINE
  5
1A9
330
1F
100
AcDbEntity
  8
0
100
AcDbLine
 10
192.3971799453934
 20
275.1093038450546
 30
0.0
 11
192.8254244169434
 21
275.7248335610695
 31
0.0
  0
LINE
  5
1AA
330
1F
100
AcDbEntity
  8
0
100
AcDbLine
 10
188.7556043705185
 20
276.0033288132018
 30
0.0
 11
189.8861554702958
 21
274.4498753081626
 31
0.0
  0
LINE
  5
1AB
330
1F
100
AcDbEntity
  8
0
100
AcDbLine
 10
192.0058158477982
 20
274.5567538868255
 30
0.0
 11
192.3971799453934
 21
275.1093038450546
 31
0.0
  0
LINE
  5
1AC
330
1F
100
AcDbEntity
  8
0
100
AcDbLine
 10
191.6596320709427
 20
274.0785830746956
 30
0.0
 11
192.0058158477982
 21
274.5567538868255
 31
0.0
  0
LINE
  5
1AD
330
1F
100
AcDbEntity
  8
0
100
AcDbLine
 10
191.3668689569672
 20
273.6861982475585
 30
0.0
 11
191.6596320709427
 21
274.0785830746956
 31
0.0
  0
LINE
  5
1AE
330
1F
100
AcDbEntity
  8
0
100
AcDbLine
 10
189.8861554702958
 20
274.4498753081626
 30
0.0
 11
190.6125870784958
 21
273.4746241103477
 31
0.0
  0
LINE
  5
1AF
330
1F
100
AcDbEntity
  8
0
100
AcDbLine
 10
191.135781749173
 20
273.3910285960502
 30
0.0
 11
191.3668689569672
 21
273.6861982475585
 31
0.0
  0
LINE
  5
1B0
330
1F
100
AcDbEntity
  8
0
100
AcDbLine
 10
190.9746405920227
 20
273.2044660579033
 30
0.0
 11
191.135781749173
 21
273.3910285960502
 31
0.0
  0
LINE
  5
1B1
330
1F
100
AcDbEntity
  8
0
100
AcDbLine
 10
190.6125870784958
 20
273.4746241103477
 30
0.0
 11
190.891715629979
 21
273.1379398237533
 31
0.0
  0
LINE
  5
1B2
330
1F
100
AcDbEntity
  8
0
100
AcDbLine
 10
190.891715629979
 20
273.1379398237533
 30
0.0
 11
190.9746405920227
 21
273.2044660579033
 31
0.0
  0
LINE
  5
1B3
330
1F
100
AcDbEntity
  8
0
100
AcDbLine
 10
200.2853331407745
 20
298.9255541096992
 30
0.0
 11
197.8195336899002
 21
298.9161663781471
 31
0.0
  0
LINE
  5
1B4
330
1F
100
AcDbEntity
  8
0
100
AcDbLine
 10
203.3158269962509
 20
291.1516630183525
 30
0.0
 11
204.3134150346955
 21
292.6179037522144
 31
0.0
  0
LINE
  5
1B5
330
1F
100
AcDbEntity
  8
0
100
AcDbLine
 10
202.4263915857513
 20
298.9209682773418
 30
0.0
 11
200.2853331407745
 21
298.9255541096992
 31
0.0
  0
LINE
  5
1B6
330
1F
100
AcDbEntity
  8
0
100
AcDbLine
 10
204.3134150346955
 20
292.6179037522144
 30
0.0
 11
205.2385834297378
 21
293.9831593166656
 31
0.0
  0
LINE
  5
1B7
330
1F
100
AcDbEntity
  8
0
100
AcDbLine
 10
204.2399523100098
 20
298.9024647604293
 30
0.0
 11
202.4263915857513
 21
298.9209682773418
 31
0.0
  0
LINE
  5
1B8
330
1F
100
AcDbEntity
  8
0
100
AcDbLine
 10
205.2385834297378
 20
293.9831593166656
 30
0.0
 11
206.0740170320709
 21
295.221527768261
 31
0.0
  0
LINE
  5
1B9
330
1F
100
AcDbEntity
  8
0
100
AcDbLine
 10
206.0740170320709
 20
295.221527768261
 30
0.0
 11
206.8022814830979
 21
296.3071071635551
 31
0.0
  0
LINE
  5
1BA
330
1F
100
AcDbEntity
  8
0
100
AcDbLine
 10
205.7231393894394
 20
298.8701143394775
 30
0.0
 11
204.2399523100098
 21
298.9024647604293
 31
0.0
  0
LINE
  5
1BB
330
1F
100
AcDbEntity
  8
0
100
AcDbLine
 10
206.8022814830979
 20
296.3071071635551
 30
0.0
 11
207.406031831189
 21
297.2139843832321
 31
0.0
  0
LINE
  5
1BC
330
1F
100
AcDbEntity
  8
0
100
AcDbLine
 10
206.8731961092194
 20
298.8239617179698
 30
0.0
 11
205.7231393894394
 21
298.8701143394775
 31
0.0
  0
LINE
  5
1BD
330
1F
100
AcDbEntity
  8
0
100
AcDbLine
 10
207.406031831189
 20
297.2139843832321
 30
0.0
 11
207.8678784212311
 21
297.9162649344272
 31
0.0
  0
LINE
  5
1BE
330
1F
100
AcDbEntity
  8
0
100
AcDbLine
 10
207.6872763475617
 20
298.7640851270027
 30
0.0
 11
206.8731961092194
 21
298.8239617179698
 31
0.0
  0
LINE
  5
1BF
330
1F
100
AcDbEntity
  8
0
100
AcDbLine
 10
207.8678784212311
 20
297.9162649344272
 30
0.0
 11
208.1704166969498
 21
298.3880356978244
 31
0.0
  0
LINE
  5
1C0
330
1F
100
AcDbEntity
  8
0
100
AcDbLine
 10
208.1625786861619
 20
298.6905404459304
 30
0.0
 11
207.6872763475617
 21
298.7640851270027
 31
0.0
  0
LINE
  5
1C1
330
1F
100
AcDbEntity
  8
0
100
AcDbLine
 10
208.1704166969498
 20
298.3880356978244
 30
0.0
 11
208.2963166078766
 21
298.6033872793979
 31
0.0
  0
LINE
  5
1C2
330
1F
100
AcDbEntity
  8
0
100
AcDbLine
 10
208.2963166078766
 20
298.6033872793979
 30
0.0
 11
208.1625786861619
 21
298.6905404459304
 31
0.0
  0
LINE
  5
1C3
330
1F
100
AcDbEntity
  8
0
100
AcDbLine
 10
229.8894253811081
 20
315.0113073270387
 30
0.0
 11
234.3166348776062
 21
315.0014483462639
 31
0.0
  0
LINE
  5
1C4
330
1F
100
AcDbEntity
  8
0
100
AcDbLine
 10
234.3166348776062
 20
315.0014483462639
 30
0.0
 11
237.9516986450394
 21
314.9855841975279
 31
0.0
  0
LINE
  5
1C5
330
1F
100
AcDbEntity
  8
0
100
AcDbLine
 10
237.9516986450394
 20
314.9855841975279
 30
0.0
 11
240.6890121540268
 21
314.9639495741196
 31
0.0
  0
LINE
  5
1C6
330
1F
100
AcDbEntity
  8
0
100
AcDbLine
 10
240.6890121540268
 20
314.9639495741196
 30
0.0
 11
242.4228963693817
 21
314.9367791693277
 31
0.0
  0
LINE
  5
1C7
330
1F
100
AcDbEntity
  8
0
100
AcDbLine
 10
242.4228963693817
 20
314.9367791693277
 30
0.0
 11
243.0476871570786
 21
314.9043076764411
 31
0.0
  0
LINE
  5
1C8
330
1F
100
AcDbEntity
  8
0
100
AcDbLine
 10
268.5084370216568
 20
312.635583532936
 30
0.0
 11
275.2195921978196
 21
314.4240954052276
 31
0.0
  0
LINE
  5
1C9
330
1F
100
AcDbEntity
  8
0
100
AcDbLine
 10
242.7507964214523
 20
314.3909030686683
 30
0.0
 11
241.8289658865173
 21
312.9779935907192
 31
0.0
  0
LINE
  5
1CA
330
1F
100
AcDbEntity
  8
0
100
AcDbLine
 10
252.9712495645722
 20
302.0395950506992
 30
0.0
 11
257.3033151468475
 21
306.3262344430751
 31
0.0
  0
LINE
  5
1CB
330
1F
100
AcDbEntity
  8
0
100
AcDbLine
 10
243.0476871570786
 20
314.9043076764411
 30
0.0
 11
242.7507964214523
 21
314.3909030686683
 31
0.0
  0
LINE
  5
1CC
330
1F
100
AcDbEntity
  8
0
100
AcDbLine
 10
257.3033151468475
 20
306.3262344430751
 30
0.0
 11
262.5093636354645
 21
309.8972604702778
 31
0.0
  0
LINE
  5
1CD
330
1F
100
AcDbEntity
  8
0
100
AcDbLine
 10
262.5093636354645
 20
309.8972604702778
 30
0.0
 11
268.5084370216568
 21
312.635583532936
 31
0.0
  0
LINE
  5
1CE
330
1F
100
AcDbEntity
  8
0
100
AcDbLine
 10
241.8289658865173
 20
312.9779935907192
 30
0.0
 11
240.3405783018311
 21
310.7513987551994
 31
0.0
  0
LINE
  5
1CF
330
1F
100
AcDbEntity
  8
0
100
AcDbLine
 10
240.3405783018311
 20
310.7513987551994
 30
0.0
 11
238.3440015157898
 21
307.7969492505855
 31
0.0
  0
LINE
  5
1D0
330
1F
100
AcDbEntity
  8
0
100
AcDbLine
 10
249.5941099962433
 20
297.1544356178112
 30
0.0
 11
252.9712495645722
 21
302.0395950506992
 31
0.0
  0
LINE
  5
1D1
330
1F
100
AcDbEntity
  8
0
100
AcDbLine
 10
238.3440015157898
 20
307.7969492505855
 30
0.0
 11
235.8976182779511
 21
304.200460864193
 31
0.0
  0
LINE
  5
1D2
330
1F
100
AcDbEntity
  8
0
100
AcDbLine
 10
247.252839549466
 20
291.7878643702335
 30
0.0
 11
249.5941099962433
 21
297.1544356178112
 31
0.0
  0
LINE
  5
1D3
330
1F
100
AcDbEntity
  8
0
100
AcDbLine
 10
235.8976182779511
 20
304.200460864193
 30
0.0
 11
233.0598262390335
 21
300.0477717350788
 31
0.0
  0
LINE
  5
1D4
330
1F
100
AcDbEntity
  8
0
100
AcDbLine
 10
233.0598262390335
 20
300.0477717350788
 30
0.0
 11
229.8889634451111
 21
295.4246976505585
 31
0.0
  0
LINE
  5
1D5
330
1F
100
AcDbEntity
  8
0
100
AcDbLine
 10
246.0283962330063
 20
286.0569597314663
 30
0.0
 11
247.252839549466
 21
291.7878643702335
 31
0.0
  0
LINE
  5
1D6
330
1F
100
AcDbEntity
  8
0
100
AcDbLine
 10
246.0017380556305
 20
280.0788336526222
 30
0.0
 11
246.0283962330063
 21
286.0569597314663
 31
0.0
  0
LINE
  5
1D7
330
1F
100
AcDbEntity
  8
0
100
AcDbLine
 10
247.2537932237824
 20
273.9705794583625
 30
0.0
 11
246.0017380556305
 21
280.0788336526222
 31
0.0
  0
LINE
  5
1D8
330
1F
100
AcDbEntity
  8
0
100
AcDbLine
 10
222.7816459974487
 20
285.1107061933346
 30
0.0
 11
218.4534547170837
 21
278.8613417278594
 31
0.0
  0
LINE
  5
1D9
330
1F
100
AcDbEntity
  8
0
100
AcDbLine
 10
248.3393577179154
 20
271.098425341732
 30
0.0
 11
247.2537932237824
 21
273.9705794583625
 31
0.0
  0
LINE
  5
1DA
330
1F
100
AcDbEntity
  8
0
100
AcDbLine
 10
218.4534547170837
 20
278.8613417278594
 30
0.0
 11
214.5925340494354
 21
273.3156734238929
 31
0.0
  0
LINE
  5
1DB
330
1F
100
AcDbEntity
  8
0
100
AcDbLine
 10
249.7483519157608
 20
268.3666774164504
 30
0.0
 11
248.3393577179154
 21
271.098425341732
 31
0.0
  0
LINE
  5
1DC
330
1F
100
AcDbEntity
  8
0
100
AcDbLine
 10
214.5925340494354
 20
273.3156734238929
 30
0.0
 11
211.1975875934799
 21
268.4718721638984
 31
0.0
  0
LINE
  5
1DD
330
1F
100
AcDbEntity
  8
0
100
AcDbLine
 10
251.4650252899368
 20
265.7906466256447
 30
0.0
 11
249.7483519157608
 21
268.3666774164504
 31
0.0
  0
LINE
  5
1DE
330
1F
100
AcDbEntity
  8
0
100
AcDbLine
 10
211.1975875934799
 20
268.4718721638984
 30
0.0
 11
208.2673189481934
 21
264.3281274567909
 31
0.0
  0
LINE
  5
1DF
330
1F
100
AcDbEntity
  8
0
100
AcDbLine
 10
253.4735975107392
 20
263.3856513630218
 30
0.0
 11
251.4650252899368
 21
265.7906466256447
 31
0.0
  0
LINE
  5
1E0
330
1F
100
AcDbEntity
  8
0
100
AcDbLine
 10
208.2673189481934
 20
264.3281274567909
 30
0.0
 11
205.8004019102295
 21
260.8825990091629
 31
0.0
  0
LINE
  5
1E1
330
1F
100
AcDbEntity
  8
0
100
AcDbLine
 10
205.8004019102295
 20
260.8825990091629
 30
0.0
 11
203.7955400785645
 21
258.1334614287681
 31
0.0
  0
LINE
  5
1E2
330
1F
100
AcDbEntity
  8
0
100
AcDbLine
 10
255.7582733473022
 20
261.1670025717086
 30
0.0
 11
253.4735975107392
 21
263.3856513630218
 31
0.0
  0
LINE
  5
1E3
330
1F
100
AcDbEntity
  8
0
100
AcDbLine
 10
203.7955400785645
 20
258.1334614287681
 30
0.0
 11
202.251407249852
 21
256.0788818727798
 31
0.0
  0
LINE
  5
1E4
330
1F
100
AcDbEntity
  8
0
100
AcDbLine
 10
202.251407249852
 20
256.0788818727798
 30
0.0
 11
201.1667368253906
 21
254.7170423995323
 31
0.0
  0
LINE
  5
1E5
330
1F
100
AcDbEntity
  8
0
100
AcDbLine
 10
258.3033022722443
 20
259.150026095993
 30
0.0
 11
255.7582733473022
 21
261.1670025717086
 31
0.0
  0
LINE
  5
1E6
330
1F
100
AcDbEntity
  8
0
100
AcDbLine
 10
201.1667368253906
 20
254.7170423995323
 30
0.0
 11
200.5401727995118
 21
254.0461250673599
 31
0.0
  0
LINE
  5
1E7
330
1F
100
AcDbEntity
  8
0
100
AcDbLine
 10
261.0929188570221
 20
257.3500403295822
 30
0.0
 11
258.3033022722443
 21
259.150026095993
 31
0.0
  0
LINE
  5
1E8
330
1F
100
AcDbEntity
  8
0
100
AcDbLine
 10
200.5401727995118
 20
254.0461250673599
 30
0.0
 11
199.5447603306015
 21
253.2744311820335
 31
0.0
  0
LINE
  5
1E9
330
1F
100
AcDbEntity
  8
0
100
AcDbLine
 10
199.5447603306015
 20
253.2744311820335
 30
0.0
 11
198.5739645799835
 21
252.6159488688774
 31
0.0
  0
LINE
  5
1EA
330
1F
100
AcDbEntity
  8
0
100
AcDbLine
 10
264.1113427719315
 20
255.7823487650222
 30
0.0
 11
261.0929188570221
 21
257.3500403295822
 31
0.0
  0
LINE
  5
1EB
330
1F
100
AcDbEntity
  8
0
100
AcDbLine
 10
198.5739645799835
 20
252.6159488688774
 30
0.0
 11
197.6111856540878
 21
252.0648070703812
 31
0.0
  0
LINE
  5
1EC
330
1F
100
AcDbEntity
  8
0
100
AcDbLine
 10
191.0743740638931
 20
250.681778145916
 30
0.0
 11
189.6885362705429
 21
250.730907274372
 31
0.0
  0
LINE
  5
1ED
330
1F
100
AcDbEntity
  8
0
100
AcDbLine
 10
189.6885362705429
 20
250.730907274372
 30
0.0
 11
188.402655466481
 21
250.8765288721389
 31
0.0
  0
LINE
  5
1EE
330
1F
100
AcDbEntity
  8
0
100
AcDbLine
 10
188.402655466481
 20
250.8765288721389
 30
0.0
 11
187.19978903143
 21
251.1261233221359
 31
0.0
  0
LINE
  5
1EF
330
1F
100
AcDbEntity
  8
0
100
AcDbLine
 10
187.19978903143
 20
251.1261233221359
 30
0.0
 11
186.0630390485962
 21
251.4871710072822
 31
0.0
  0
LINE
  5
1F0
330
1F
100
AcDbEntity
  8
0
100
AcDbLine
 10
186.0630390485962
 20
251.4871710072822
 30
0.0
 11
184.9754032930572
 21
251.9671150575942
 31
0.0
  0
LINE
  5
1F1
330
1F
100
AcDbEntity
  8
0
100
AcDbLine
 10
184.9754032930572
 20
251.9671150575942
 30
0.0
 11
183.9200136503418
 21
252.5734582077331
 31
0.0
  0
LINE
  5
1F2
330
1F
100
AcDbEntity
  8
0
100
AcDbLine
 10
183.9200136503418
 20
252.5734582077331
 30
0.0
 11
182.8798827966889
 21
253.3136659394569
 31
0.0
  0
LINE
  5
1F3
330
1F
100
AcDbEntity
  8
0
100
AcDbLine
 10
182.8798827966889
 20
253.3136659394569
 30
0.0
 11
181.8381277164658
 21
254.1952037345237
 31
0.0
  0
LINE
  5
1F4
330
1F
100
AcDbEntity
  8
0
100
AcDbLine
 10
181.8381277164658
 20
254.1952037345237
 30
0.0
 11
180.7777908882339
 21
255.2255445252723
 31
0.0
  0
LINE
  5
1F5
330
1F
100
AcDbEntity
  8
0
100
AcDbLine
 10
178.8213280281265
 20
257.6959633361167
 30
0.0
 11
177.0725128492554
 21
260.0351476203269
 31
0.0
  0
LINE
  5
1F6
330
1F
100
AcDbEntity
  8
0
100
AcDbLine
 10
177.0725128492554
 20
260.0351476203269
 30
0.0
 11
174.8912212690552
 21
262.9988246690101
 31
0.0
  0
LINE
  5
1F7
330
1F
100
AcDbEntity
  8
0
100
AcDbLine
 10
174.8912212690552
 20
262.9988246690101
 30
0.0
 11
172.338339432164
 21
266.5033542643852
 31
0.0
  0
LINE
  5
1F8
330
1F
100
AcDbEntity
  8
0
100
AcDbLine
 10
172.338339432164
 20
266.5033542643852
 30
0.0
 11
169.4748130878647
 21
270.4651036392517
 31
0.0
  0
LINE
  5
1F9
330
1F
100
AcDbEntity
  8
0
100
AcDbLine
 10
169.4748130878647
 20
270.4651036392517
 30
0.0
 11
166.3615581831177
 21
274.8004400264091
 31
0.0
  0
LINE
  5
1FA
330
1F
100
AcDbEntity
  8
0
100
AcDbLine
 10
166.3615581831177
 20
274.8004400264091
 30
0.0
 11
163.0595055660446
 21
279.4257381092376
 31
0.0
  0
LINE
  5
1FB
330
1F
100
AcDbEntity
  8
0
100
AcDbLine
 10
275.2195921978196
 20
314.4240954052276
 30
0.0
 11
276.1548784813126
 21
314.5601318310565
 31
0.0
  0
LINE
  5
1FC
330
1F
100
AcDbEntity
  8
0
100
AcDbLine
 10
276.1548784813126
 20
314.5601318310565
 30
0.0
 11
277.3748961528977
 21
314.6768246870107
 31
0.0
  0
LINE
  5
1FD
330
1F
100
AcDbEntity
  8
0
100
AcDbLine
 10
277.3748961528977
 20
314.6768246870107
 30
0.0
 11
278.9216068824967
 21
314.7753753792114
 31
0.0
  0
LINE
  5
1FE
330
1F
100
AcDbEntity
  8
0
100
AcDbLine
 10
278.9216068824967
 20
314.7753753792114
 30
0.0
 11
280.8369127353866
 21
314.8569741379089
 31
0.0
  0
LINE
  5
1FF
330
1F
100
AcDbEntity
  8
0
100
AcDbLine
 10
280.8369127353866
 20
314.8569741379089
 30
0.0
 11
283.1628051838119
 21
314.9228056054181
 31
0.0
  0
LINE
  5
200
330
1F
100
AcDbEntity
  8
0
100
AcDbLine
 10
283.1628051838119
 20
314.9228056054181
 30
0.0
 11
285.9411862930497
 21
314.9740544240541
 31
0.0
  0
LINE
  5
201
330
1F
100
AcDbEntity
  8
0
100
AcDbLine
 10
285.9411862930497
 20
314.9740544240541
 30
0.0
 11
289.214047535344
 21
315.0119145493574
 31
0.0
  0
LINE
  5
202
330
1F
100
AcDbEntity
  8
0
100
AcDbLine
 10
316.3448897442063
 20
315.0906131695575
 30
0.0
 11
328.7766901096543
 21
299.0316280256576
 31
0.0
  0
LINE
  5
203
330
1F
100
AcDbEntity
  8
0
100
AcDbLine
 10
342.9267135700425
 20
251.7111503611869
 30
0.0
 11
342.9267731746872
 21
315.090618757493
 31
0.0
  0
LINE
  5
204
330
1F
100
AcDbEntity
  8
0
100
AcDbLine
 10
298.2452241024216
 20
298.7486736010379
 30
0.0
 11
293.4923795303544
 21
298.6884915362663
 31
0.0
  0
LINE
  5
205
330
1F
100
AcDbEntity
  8
0
100
AcDbLine
 10
279.333117350026
 20
268.2110869418449
 30
0.0
 11
316.3235512813767
 21
267.9347151051826
 31
0.0
  0
LINE
  5
206
330
1F
100
AcDbEntity
  8
0
100
AcDbLine
 10
328.7766901096543
 20
299.0316280256576
 30
0.0
 11
298.2452241024216
 21
298.7486736010379
 31
0.0
  0
LINE
  5
207
330
1F
100
AcDbEntity
  8
0
100
AcDbLine
 10
316.3235512813767
 20
267.9347151051826
 30
0.0
 11
323.4238055786332
 21
258.6524465214081
 31
0.0
  0
LINE
  5
208
330
1F
100
AcDbEntity
  8
0
100
AcDbLine
 10
323.4238055786332
 20
258.6524465214081
 30
0.0
 11
324.4406310161789
 21
257.3123925458259
 31
0.0
  0
LINE
  5
209
330
1F
100
AcDbEntity
  8
0
100
AcDbLine
 10
324.4406310161789
 20
257.3123925458259
 30
0.0
 11
325.3780928692062
 21
256.0692557226486
 31
0.0
  0
LINE
  5
20A
330
1F
100
AcDbEntity
  8
0
100
AcDbLine
 10
293.4923795303544
 20
298.6884915362663
 30
0.0
 11
289.3596318802078
 21
298.6224160622425
 31
0.0
  0
LINE
  5
20B
330
1F
100
AcDbEntity
  8
0
100
AcDbLine
 10
289.3596318802078
 20
298.6224160622425
 30
0.0
 11
285.8383384784897
 21
298.5502124856777
 31
0.0
  0
LINE
  5
20C
330
1F
100
AcDbEntity
  8
0
100
AcDbLine
 10
285.8383384784897
 20
298.5502124856777
 30
0.0
 11
282.9200056633194
 21
298.4716535638637
 31
0.0
  0
LINE
  5
20D
330
1F
100
AcDbEntity
  8
0
100
AcDbLine
 10
276.4874425968369
 20
269.3129235040016
 30
0.0
 11
279.333117350026
 21
268.2110869418449
 31
0.0
  0
LINE
  5
20E
330
1F
100
AcDbEntity
  8
0
100
AcDbLine
 10
282.9200056633194
 20
298.4716535638637
 30
0.0
 11
280.5959907612046
 21
298.3865046035118
 31
0.0
  0
LINE
  5
20F
330
1F
100
AcDbEntity
  8
0
100
AcDbLine
 10
274.1312709888657
 20
270.3825884591407
 30
0.0
 11
276.4874425968369
 21
269.3129235040016
 31
0.0
  0
LINE
  5
210
330
1F
100
AcDbEntity
  8
0
100
AcDbLine
 10
272.0325467428406
 20
271.6589772235221
 30
0.0
 11
274.1312709888657
 21
270.3825884591407
 31
0.0
  0
LINE
  5
211
330
1F
100
AcDbEntity
  8
0
100
AcDbLine
 10
270.2032652935227
 20
273.1249683629341
 30
0.0
 11
272.0325467428406
 21
271.6589772235221
 31
0.0
  0
LINE
  5
212
330
1F
100
AcDbEntity
  8
0
100
AcDbLine
 10
274.8927203258713
 20
297.1907609235115
 30
0.0
 11
272.9038325390061
 21
296.1410486232108
 31
0.0
  0
LINE
  5
213
330
1F
100
AcDbEntity
  8
0
100
AcDbLine
 10
280.5959907612046
 20
298.3865046035118
 30
0.0
 11
278.8577405056199
 21
298.2945383619136
 31
0.0
  0
LINE
  5
214
330
1F
100
AcDbEntity
  8
0
100
AcDbLine
 10
278.8577405056199
 20
298.2945383619136
 30
0.0
 11
277.6966718277176
 21
298.1955238710709
 31
0.0
  0
LINE
  5
215
330
1F
100
AcDbEntity
  8
0
100
AcDbLine
 10
277.6966718277176
 20
298.1955238710709
 30
0.0
 11
277.104261263295
 21
298.0892301629848
 31
0.0
  0
LINE
  5
216
330
1F
100
AcDbEntity
  8
0
100
AcDbLine
 10
277.104261263295
 20
298.0892301629848
 30
0.0
 11
274.8927203258713
 21
297.1907609235115
 31
0.0
  0
LINE
  5
217
330
1F
100
AcDbEntity
  8
0
100
AcDbLine
 10
272.9038325390061
 20
296.1410486232108
 30
0.0
 11
271.1416510185441
 21
294.9447051714725
 31
0.0
  0
LINE
  5
218
330
1F
100
AcDbEntity
  8
0
100
AcDbLine
 10
268.6553922733505
 20
274.763455344326
 30
0.0
 11
270.2032652935227
 21
273.1249683629341
 31
0.0
  0
LINE
  5
219
330
1F
100
AcDbEntity
  8
0
100
AcDbLine
 10
271.1416510185441
 20
294.9447051714725
 30
0.0
 11
269.6102139791687
 21
293.6063238512344
 31
0.0
  0
LINE
  5
21A
330
1F
100
AcDbEntity
  8
0
100
AcDbLine
 10
265.5556378206452
 20
284.9448786209888
 30
0.0
 11
265.5170885166366
 21
282.7004023920364
 31
0.0
  0
LINE
  5
21B
330
1F
100
AcDbEntity
  8
0
100
AcDbLine
 10
265.8727196296891
 20
286.924442006237
 30
0.0
 11
265.5556378206452
 21
284.9448786209888
 31
0.0
  0
LINE
  5
21C
330
1F
100
AcDbEntity
  8
0
100
AcDbLine
 10
269.6102139791687
 20
293.6063238512344
 30
0.0
 11
268.3135596355637
 21
292.1305091213054
 31
0.0
  0
LINE
  5
21D
330
1F
100
AcDbEntity
  8
0
100
AcDbLine
 10
266.4407816967209
 20
288.7849674652881
 30
0.0
 11
265.8727196296891
 21
286.924442006237
 31
0.0
  0
LINE
  5
21E
330
1F
100
AcDbEntity
  8
0
100
AcDbLine
 10
268.3135596355637
 20
292.1305091213054
 30
0.0
 11
267.2557262024125
 21
290.5218542646236
 31
0.0
  0
LINE
  5
21F
330
1F
100
AcDbEntity
  8
0
100
AcDbLine
 10
267.2557262024125
 20
290.5218542646236
 30
0.0
 11
266.4407816967209
 21
288.7849674652881
 31
0.0
  0
LINE
  5
220
330
1F
100
AcDbEntity
  8
0
100
AcDbLine
 10
265.8197758039673
 20
280.542922867424
 30
0.0
 11
266.4516744455536
 21
278.4895354043312
 31
0.0
  0
LINE
  5
221
330
1F
100
AcDbEntity
  8
0
100
AcDbLine
 10
265.5170885166366
 20
282.7004023920364
 30
0.0
 11
265.8197758039673
 21
280.542922867424
 31
0.0
  0
LINE
  5
222
330
1F
100
AcDbEntity
  8
0
100
AcDbLine
 10
266.4516744455536
 20
278.4895354043312
 30
0.0
 11
267.4008784136017
 21
276.5573465358086
 31
0.0
  0
LINE
  5
223
330
1F
100
AcDbEntity
  8
0
100
AcDbLine
 10
267.4008784136017
 20
276.5573465358086
 30
0.0
 11
268.6553922733505
 21
274.763455344326
 31
0.0
  0
LINE
  5
224
330
1F
100
AcDbEntity
  8
0
100
AcDbLine
 10
325.3780928692062
 20
256.0692557226486
 30
0.0
 11
326.2189951976975
 21
254.946401072628
 31
0.0
  0
LINE
  5
225
330
1F
100
AcDbEntity
  8
0
100
AcDbLine
 10
326.2189951976975
 20
254.946401072628
 30
0.0
 11
326.945844038411
 21
253.9672085176773
 31
0.0
  0
LINE
  5
226
330
1F
100
AcDbEntity
  8
0
100
AcDbLine
 10
326.945844038411
 20
253.9672085176773
 30
0.0
 11
327.5413838466843
 21
253.1550207268066
 31
0.0
  0
LINE
  5
227
330
1F
100
AcDbEntity
  8
0
100
AcDbLine
 10
327.5413838466843
 20
253.1550207268066
 30
0.0
 11
327.9882696708878
 21
252.5332250725097
 31
0.0
  0
LINE
  5
228
330
1F
100
AcDbEntity
  8
0
100
AcDbLine
 10
327.9882696708878
 20
252.5332250725097
 30
0.0
 11
328.2690969547471
 21
252.1251865755386
 31
0.0
  0
LINE
  5
229
330
1F
100
AcDbEntity
  8
0
100
AcDbLine
 10
328.2690969547471
 20
252.1251865755386
 30
0.0
 11
328.3665505489548
 21
251.9542628060646
 31
0.0
  0
LINE
  5
22A
330
1F
100
AcDbEntity
  8
0
100
AcDbLine
 10
327.9654112896164
 20
251.910706711895
 30
0.0
 11
326.8096474250992
 21
251.8696540128059
 31
0.0
  0
LINE
  5
22B
330
1F
100
AcDbEntity
  8
0
100
AcDbLine
 10
326.8096474250992
 20
251.8696540128059
 30
0.0
 11
324.9705461105546
 21
251.8318050633735
 31
0.0
  0
LINE
  5
22C
330
1F
100
AcDbEntity
  8
0
100
AcDbLine
 10
324.9705461105546
 20
251.8318050633735
 30
0.0
 11
322.5195435127457
 21
251.7978602181739
 31
0.0
  0
LINE
  5
22D
330
1F
100
AcDbEntity
  8
0
100
AcDbLine
 10
322.5195435127457
 20
251.7978602181739
 30
0.0
 11
319.5280757984361
 21
251.7685049306221
 31
0.0
  0
LINE
  5
22E
330
1F
100
AcDbEntity
  8
0
100
AcDbLine
 10
319.5280757984361
 20
251.7685049306221
 30
0.0
 11
316.0674599250992
 21
251.7444619070358
 31
0.0
  0
LINE
  5
22F
330
1F
100
AcDbEntity
  8
0
100
AcDbLine
 10
316.0674599250992
 20
251.7444619070358
 30
0.0
 11
312.2091022571763
 21
251.7264240514106
 31
0.0
  0
LINE
  5
230
330
1F
100
AcDbEntity
  8
0
100
AcDbLine
 10
312.2091022571763
 20
251.7264240514106
 30
0.0
 11
308.024409159108
 21
251.7150842677421
 31
0.0
  0
LINE
  5
231
330
1F
100
AcDbEntity
  8
0
100
AcDbLine
 10
308.024409159108
 20
251.7150842677421
 30
0.0
 11
303.5847869953354
 21
251.7111503611869
 31
0.0
  0
LINE
  5
232
330
1F
100
AcDbEntity
  8
0
100
AcDbLine
 10
303.5847869953354
 20
251.7111503611869
 30
0.0
 11
295.3390506347855
 21
251.7181837092704
 31
0.0
  0
LINE
  5
233
330
1F
100
AcDbEntity
  8
0
100
AcDbLine
 10
288.7688306411943
 20
251.7527544032401
 30
0.0
 11
283.6080518802842
 21
251.8350609670944
 31
0.0
  0
LINE
  5
234
330
1F
100
AcDbEntity
  8
0
100
AcDbLine
 10
283.6080518802842
 20
251.8350609670944
 30
0.0
 11
279.5906690201004
 21
251.9852944742508
 31
0.0
  0
LINE
  5
235
330
1F
100
AcDbEntity
  8
0
100
AcDbLine
 10
279.5906690201004
 20
251.9852944742508
 30
0.0
 11
276.4506367286881
 21
252.2236608992881
 31
0.0
  0
LINE
  5
236
330
1F
100
AcDbEntity
  8
0
100
AcDbLine
 10
276.4506367286881
 20
252.2236608992881
 30
0.0
 11
273.9218798717697
 21
252.570336414463
 31
0.0
  0
LINE
  5
237
330
1F
100
AcDbEntity
  8
0
100
AcDbLine
 10
273.9218798717697
 20
252.570336414463
 30
0.0
 11
271.7383680185517
 21
253.0455418955154
 31
0.0
  0
LINE
  5
238
330
1F
100
AcDbEntity
  8
0
100
AcDbLine
 10
271.7383680185517
 20
253.0455418955154
 30
0.0
 11
269.6340260347565
 21
253.6694535147018
 31
0.0
  0
LINE
  5
239
330
1F
100
AcDbEntity
  8
0
100
AcDbLine
 10
371.8245056709488
 20
296.3732049893208
 30
0.0
 11
373.6687031826219
 21
298.000363362915
 31
0.0
  0
LINE
  5
23A
330
1F
100
AcDbEntity
  8
0
100
AcDbLine
 10
373.6687031826219
 20
298.000363362915
 30
0.0
 11
375.6419447502335
 21
299.7356035839386
 31
0.0
  0
LINE
  5
23B
330
1F
100
AcDbEntity
  8
0
100
AcDbLine
 10
362.6992133697709
 20
315.090618757493
 30
0.0
 11
362.5319925388535
 21
299.1841637622184
 31
0.0
  0
LINE
  5
23C
330
1F
100
AcDbEntity
  8
0
100
AcDbLine
 10
375.6419447502335
 20
299.7356035839386
 30
0.0
 11
377.7003613552292
 21
301.5400969516105
 31
0.0
  0
LINE
  5
23D
330
1F
100
AcDbEntity
  8
0
100
AcDbLine
 10
377.7003613552292
 20
301.5400969516105
 30
0.0
 11
379.7998753627976
 21
303.3749998639888
 31
0.0
  0
LINE
  5
23E
330
1F
100
AcDbEntity
  8
0
100
AcDbLine
 10
370.1535490593155
 20
294.892949713356
 30
0.0
 11
371.8245056709488
 21
296.3732049893208
 31
0.0
  0
LINE
  5
23F
330
1F
100
AcDbEntity
  8
0
100
AcDbLine
 10
362.5319925388535
 20
299.1841637622184
 30
0.0
 11
362.5141707500657
 21
296.9062679539986
 31
0.0
  0
LINE
  5
240
330
1F
100
AcDbEntity
  8
0
100
AcDbLine
 10
368.6997023662766
 20
293.5984336863823
 30
0.0
 11
370.1535490593155
 21
294.892949713356
 31
0.0
  0
LINE
  5
241
330
1F
100
AcDbEntity
  8
0
100
AcDbLine
 10
362.5141707500657
 20
296.9062679539986
 30
0.0
 11
362.502130611821
 21
294.8060275148219
 31
0.0
  0
LINE
  5
242
330
1F
100
AcDbEntity
  8
0
100
AcDbLine
 10
367.507013424321
 20
292.5284818838901
 30
0.0
 11
368.6997023662766
 21
293.5984336863823
 31
0.0
  0
LINE
  5
243
330
1F
100
AcDbEntity
  8
0
100
AcDbLine
 10
366.6195002636155
 20
291.7219341825314
 30
0.0
 11
367.507013424321
 21
292.5284818838901
 31
0.0
  0
LINE
  5
244
330
1F
100
AcDbEntity
  8
0
100
AcDbLine
 10
362.502130611821
 20
294.8060275148219
 30
0.0
 11
362.4958721241196
 21
292.9222934972114
 31
0.0
  0
LINE
  5
245
330
1F
100
AcDbEntity
  8
0
100
AcDbLine
 10
365.9134236416062
 20
291.0751269291706
 30
0.0
 11
366.6195002636155
 21
291.7219341825314
 31
0.0
  0
LINE
  5
246
330
1F
100
AcDbEntity
  8
0
100
AcDbLine
 10
365.2434972366532
 20
290.4654608200855
 30
0.0
 11
365.9134236416062
 21
291.0751269291706
 31
0.0
  0
LINE
  5
247
330
1F
100
AcDbEntity
  8
0
100
AcDbLine
 10
362.4958721241196
 20
292.9222934972114
 30
0.0
 11
362.4953356823166
 21
291.2939281295605
 31
0.0
  0
LINE
  5
248
330
1F
100
AcDbEntity
  8
0
100
AcDbLine
 10
364.621522768422
 20
289.9033256899185
 30
0.0
 11
365.2434972366532
 21
290.4654608200855
 31
0.0
  0
LINE
  5
249
330
1F
100
AcDbEntity
  8
0
100
AcDbLine
 10
362.4953356823166
 20
291.2939281295605
 30
0.0
 11
362.5006106933793
 21
289.9597861896819
 31
0.0
  0
LINE
  5
24A
330
1F
100
AcDbEntity
  8
0
100
AcDbLine
 10
364.0590933403214
 20
289.3991337250538
 30
0.0
 11
364.621522768422
 21
289.9033256899185
 31
0.0
  0
LINE
  5
24B
330
1F
100
AcDbEntity
  8
0
100
AcDbLine
 10
363.568010672017
 20
288.9632822107143
 30
0.0
 11
364.0590933403214
 21
289.3991337250538
 31
0.0
  0
LINE
  5
24C
330
1F
100
AcDbEntity
  8
0
100
AcDbLine
 10
362.5006106933793
 20
289.9597861896819
 30
0.0
 11
362.5116971573075
 21
288.9587261806793
 31
0.0
  0
LINE
  5
24D
330
1F
100
AcDbEntity
  8
0
100
AcDbLine
 10
363.1599274715622
 20
288.6061721574134
 30
0.0
 11
363.568010672017
 21
288.9632822107143
 31
0.0
  0
LINE
  5
24E
330
1F
100
AcDbEntity
  8
0
100
AcDbLine
 10
362.8466454586228
 20
288.3382008503742
 30
0.0
 11
363.1599274715622
 21
288.6061721574134
 31
0.0
  0
LINE
  5
24F
330
1F
100
AcDbEntity
  8
0
100
AcDbLine
 10
362.5116971573075
 20
288.9587261806793
 30
0.0
 11
362.5285354694565
 21
288.3296103309459
 31
0.0
  0
LINE
  5
250
330
1F
100
AcDbEntity
  8
0
100
AcDbLine
 10
362.6398471435745
 20
288.1697767506905
 30
0.0
 11
362.8466454586228
 21
288.3382008503742
 31
0.0
  0
LINE
  5
251
330
1F
100
AcDbEntity
  8
0
100
AcDbLine
 10
362.5285354694565
 20
288.3296103309459
 30
0.0
 11
362.5512150367936
 21
288.1112971435851
 31
0.0
  0
LINE
  5
252
330
1F
100
AcDbEntity
  8
0
100
AcDbLine
 10
362.5512150367936
 20
288.1112971435851
 30
0.0
 11
362.6398471435745
 21
288.1697767506905
 31
0.0
  0
LINE
  5
253
330
1F
100
AcDbEntity
  8
0
100
AcDbLine
 10
420.5879000267228
 20
314.9518889467782
 30
0.0
 11
421.4937416156968
 21
314.8762171249456
 31
0.0
  0
LINE
  5
254
330
1F
100
AcDbEntity
  8
0
100
AcDbLine
 10
433.2141903480729
 20
315.0906019936866
 30
0.0
 11
474.9906090339859
 21
315.0803444068499
 31
0.0
  0
LINE
  5
255
330
1F
100
AcDbEntity
  8
0
100
AcDbLine
 10
421.4937416156968
 20
314.8762171249456
 30
0.0
 11
422.0112291416368
 21
314.7778247575827
 31
0.0
  0
LINE
  5
256
330
1F
100
AcDbEntity
  8
0
100
AcDbLine
 10
422.0112291416368
 20
314.7778247575827
 30
0.0
 11
422.2039905628403
 21
314.6541078667707
 31
0.0
  0
LINE
  5
257
330
1F
100
AcDbEntity
  8
0
100
AcDbLine
 10
422.2039905628403
 20
314.6541078667707
 30
0.0
 11
422.1357730468949
 21
314.5024568866558
 31
0.0
  0
LINE
  5
258
330
1F
100
AcDbEntity
  8
0
100
AcDbLine
 10
422.1357730468949
 20
314.5024568866558
 30
0.0
 11
420.528653009816
 21
313.1557309161491
 31
0.0
  0
LINE
  5
259
330
1F
100
AcDbEntity
  8
0
100
AcDbLine
 10
420.528653009816
 20
313.1557309161491
 30
0.0
 11
417.1803322872361
 21
310.450749201662
 31
0.0
  0
LINE
  5
25A
330
1F
100
AcDbEntity
  8
0
100
AcDbLine
 10
437.669309719487
 20
280.3661503921813
 30
0.0
 11
438.3305636486252
 21
281.3876249920196
 31
0.0
  0
LINE
  5
25B
330
1F
100
AcDbEntity
  8
0
100
AcDbLine
 10
438.3305636486252
 20
281.3876249920196
 30
0.0
 11
439.0686181625565
 21
282.3525124322243
 31
0.0
  0
LINE
  5
25C
330
1F
100
AcDbEntity
  8
0
100
AcDbLine
 10
417.1803322872361
 20
310.450749201662
 30
0.0
 11
412.5643101772507
 21
306.7619741987056
 31
0.0
  0
LINE
  5
25D
330
1F
100
AcDbEntity
  8
0
100
AcDbLine
 10
439.0686181625565
 20
282.3525124322243
 30
0.0
 11
439.8818639358719
 21
283.2593412231274
 31
0.0
  0
LINE
  5
25E
330
1F
100
AcDbEntity
  8
0
100
AcDbLine
 10
412.5643101772507
 20
306.7619741987056
 30
0.0
 11
407.1539965709885
 21
302.4638869892425
 31
0.0
  0
LINE
  5
25F
330
1F
100
AcDbEntity
  8
0
100
AcDbLine
 10
437.086316688939
 20
279.2895712982483
 30
0.0
 11
437.669309719487
 21
280.3661503921813
 31
0.0
  0
LINE
  5
260
330
1F
100
AcDbEntity
  8
0
100
AcDbLine
 10
435.7695904812058
 20
275.3493690024681
 30
0.0
 11
435.8914521774491
 21
276.0371991525955
 31
0.0
  0
LINE
  5
261
330
1F
100
AcDbEntity
  8
0
100
AcDbLine
 10
435.8914521774491
 20
276.0371991525955
 30
0.0
 11
436.0444274982651
 21
276.6793497930831
 31
0.0
  0
LINE
  5
262
330
1F
100
AcDbEntity
  8
0
100
AcDbLine
 10
436.0444274982651
 20
276.6793497930831
 30
0.0
 11
436.2344769081315
 21
277.300758017189
 31
0.0
  0
LINE
  5
263
330
1F
100
AcDbEntity
  8
0
100
AcDbLine
 10
407.1539965709885
 20
302.4638869892425
 30
0.0
 11
401.4228609642228
 21
297.9309574793643
 31
0.0
  0
LINE
  5
264
330
1F
100
AcDbEntity
  8
0
100
AcDbLine
 10
436.2344769081315
 20
277.300758017189
 30
0.0
 11
436.4675310692032
 21
277.9263087641067
 31
0.0
  0
LINE
  5
265
330
1F
100
AcDbEntity
  8
0
100
AcDbLine
 10
436.4675310692032
 20
277.9263087641067
 30
0.0
 11
436.7494908413132
 21
278.5809465776748
 31
0.0
  0
LINE
  5
266
330
1F
100
AcDbEntity
  8
0
100
AcDbLine
 10
400.0819948753556
 20
267.1339267026253
 30
0.0
 11
405.7129946788987
 21
262.9703261982269
 31
0.0
  0
LINE
  5
267
330
1F
100
AcDbEntity
  8
0
100
AcDbLine
 10
401.4228609642228
 20
297.9309574793643
 30
0.0
 11
395.8443728527268
 21
293.5376667510338
 31
0.0
  0
LINE
  5
268
330
1F
100
AcDbEntity
  8
0
100
AcDbLine
 10
394.6294811805924
 20
271.1490892897911
 30
0.0
 11
400.0819948753556
 21
267.1339267026253
 31
0.0
  0
LINE
  5
269
330
1F
100
AcDbEntity
  8
0
100
AcDbLine
 10
395.8443728527268
 20
293.5376667510338
 30
0.0
 11
390.8919719299515
 21
289.6584809850521
 31
0.0
  0
LINE
  5
26A
330
1F
100
AcDbEntity
  8
0
100
AcDbLine
 10
389.8462978443345
 20
274.6528216730422
 30
0.0
 11
394.6294811805924
 21
271.1490892897911
 31
0.0
  0
LINE
  5
26B
330
1F
100
AcDbEntity
  8
0
100
AcDbLine
 10
390.8919719299515
 20
289.6584809850521
 30
0.0
 11
387.0391574939927
 21
286.6678775380916
 31
0.0
  0
LINE
  5
26C
330
1F
100
AcDbEntity
  8
0
100
AcDbLine
 10
386.2234679302414
 20
277.2821017633743
 30
0.0
 11
389.8462978443345
 21
274.6528216730422
 31
0.0
  0
LINE
  5
26D
330
1F
100
AcDbEntity
  8
0
100
AcDbLine
 10
387.0391574939927
 20
286.6678775380916
 30
0.0
 11
384.7593394359788
 21
284.9403300415344
 31
0.0
  0
LINE
  5
26E
330
1F
100
AcDbEntity
  8
0
100
AcDbLine
 10
384.2518654903611
 20
278.6739521752662
 30
0.0
 11
386.2234679302414
 21
277.2821017633743
 31
0.0
  0
LINE
  5
26F
330
1F
100
AcDbEntity
  8
0
100
AcDbLine
 10
384.7593394359788
 20
284.9403300415344
 30
0.0
 11
383.9352754196366
 21
284.3318932782478
 31
0.0
  0
LINE
  5
270
330
1F
100
AcDbEntity
  8
0
100
AcDbLine
 10
383.6324540218552
 20
279.0864312182731
 30
0.0
 11
384.2518654903611
 21
278.6739521752662
 31
0.0
  0
LINE
  5
271
330
1F
100
AcDbEntity
  8
0
100
AcDbLine
 10
383.9352754196366
 20
284.3318932782478
 30
0.0
 11
383.1694749435624
 21
283.7486022244758
 31
0.0
  0
LINE
  5
272
330
1F
100
AcDbEntity
  8
0
100
AcDbLine
 10
383.0376592716416
 20
279.4850223790474
 30
0.0
 11
383.6324540218552
 21
279.0864312182731
 31
0.0
  0
LINE
  5
273
330
1F
100
AcDbEntity
  8
0
100
AcDbLine
 10
383.1694749435624
 20
283.7486022244758
 30
0.0
 11
382.474305971547
 21
283.2010665069885
 31
0.0
  0
LINE
  5
274
330
1F
100
AcDbEntity
  8
0
100
AcDbLine
 10
382.4783888897141
 20
279.8622676264114
 30
0.0
 11
383.0376592716416
 21
279.4850223790474
 31
0.0
  0
LINE
  5
275
330
1F
100
AcDbEntity
  8
0
100
AcDbLine
 10
382.474305971547
 20
283.2010665069885
 30
0.0
 11
381.8620470604142
 21
282.6998808513947
 31
0.0
  0
LINE
  5
276
330
1F
100
AcDbEntity
  8
0
100
AcDbLine
 10
381.9654611190995
 20
280.2107089291878
 30
0.0
 11
382.4783888897141
 21
279.8622676264114
 31
0.0
  0
LINE
  5
277
330
1F
100
AcDbEntity
  8
0
100
AcDbLine
 10
381.5097836097916
 20
280.5229106079406
 30
0.0
 11
381.9654611190995
 21
280.2107089291878
 31
0.0
  0
LINE
  5
278
330
1F
100
AcDbEntity
  8
0
100
AcDbLine
 10
381.8620470604142
 20
282.6998808513947
 30
0.0
 11
381.3451257785996
 21
282.2556399833031
 31
0.0
  0
LINE
  5
279
330
1F
100
AcDbEntity
  8
0
100
AcDbLine
 10
381.1222044071396
 20
280.7914146314926
 30
0.0
 11
381.5097836097916
 21
280.5229106079406
 31
0.0
  0
LINE
  5
27A
330
1F
100
AcDbEntity
  8
0
100
AcDbLine
 10
381.3451257785996
 20
282.2556399833031
 30
0.0
 11
380.935820682927
 21
281.8789609800644
 31
0.0
  0
LINE
  5
27B
330
1F
100
AcDbEntity
  8
0
100
AcDbLine
 10
380.8136311611374
 20
281.0087704192466
 30
0.0
 11
381.1222044071396
 21
280.7914146314926
 31
0.0
  0
LINE
  5
27C
330
1F
100
AcDbEntity
  8
0
100
AcDbLine
 10
380.935820682927
 20
281.8789609800644
 30
0.0
 11
380.6464401325425
 21
281.5804385672874
 31
0.0
  0
LINE
  5
27D
330
1F
100
AcDbEntity
  8
0
100
AcDbLine
 10
380.5949119171341
 20
281.1675348411865
 30
0.0
 11
380.8136311611374
 21
281.0087704192466
 31
0.0
  0
LINE
  5
27E
330
1F
100
AcDbEntity
  8
0
100
AcDbLine
 10
380.6464401325425
 20
281.5804385672874
 30
0.0
 11
380.4893818935593
 21
281.3706600200004
 31
0.0
  0
LINE
  5
27F
330
1F
100
AcDbEntity
  8
0
100
AcDbLine
 10
380.4893818935593
 20
281.3706600200004
 30
0.0
 11
380.4769245228013
 21
281.260242415554
 31
0.0
  0
LINE
  5
280
330
1F
100
AcDbEntity
  8
0
100
AcDbLine
 10
380.4769245228013
 20
281.260242415554
 30
0.0
 11
380.5949119171341
 21
281.1675348411865
 31
0.0
  0
LINE
  5
281
330
1F
100
AcDbEntity
  8
0
100
AcDbLine
 10
435.4771998962601
 20
271.3207208644218
 30
0.0
 11
435.5312911113938
 21
272.7626242767639
 31
0.0
  0
LINE
  5
282
330
1F
100
AcDbEntity
  8
0
100
AcDbLine
 10
435.5312911113938
 20
272.7626242767639
 30
0.0
 11
435.5954555114945
 21
273.737003756649
 31
0.0
  0
LINE
  5
283
330
1F
100
AcDbEntity
  8
0
100
AcDbLine
 10
405.7129946788987
 20
262.9703261982269
 30
0.0
 11
411.031457527562
 21
259.0212949644394
 31
0.0
  0
LINE
  5
284
330
1F
100
AcDbEntity
  8
0
100
AcDbLine
 10
435.5954555114945
 20
273.737003756649
 30
0.0
 11
435.6729117473802
 21
274.5909371506042
 31
0.0
  0
LINE
  5
285
330
1F
100
AcDbEntity
  8
0
100
AcDbLine
 10
435.6729117473802
 20
274.5909371506042
 30
0.0
 11
435.7695904812058
 21
275.3493690024681
 31
0.0
  0
LINE
  5
286
330
1F
100
AcDbEntity
  8
0
100
AcDbLine
 10
435.9461990436753
 20
266.37435491193
 30
0.0
 11
435.7189563354692
 21
267.5239273439712
 31
0.0
  0
LINE
  5
287
330
1F
100
AcDbEntity
  8
0
100
AcDbLine
 10
435.7189563354692
 20
267.5239273439712
 30
0.0
 11
435.5674413284501
 21
268.7194549571342
 31
0.0
  0
LINE
  5
288
330
1F
100
AcDbEntity
  8
0
100
AcDbLine
 10
411.031457527562
 20
259.0212949644394
 30
0.0
 11
415.5465093692978
 21
255.6498401891059
 31
0.0
  0
LINE
  5
289
330
1F
100
AcDbEntity
  8
0
100
AcDbLine
 10
435.5674413284501
 20
268.7194549571342
 30
0.0
 11
435.4880479416092
 21
269.9790277611083
 31
0.0
  0
LINE
  5
28A
330
1F
100
AcDbEntity
  8
0
100
AcDbLine
 10
435.4880479416092
 20
269.9790277611083
 30
0.0
 11
435.4771998962601
 21
271.3207208644218
 31
0.0
  0
LINE
  5
28B
330
1F
100
AcDbEntity
  8
0
100
AcDbLine
 10
415.5465093692978
 20
255.6498401891059
 30
0.0
 11
418.7671867450913
 21
253.2189392577476
 31
0.0
  0
LINE
  5
28C
330
1F
100
AcDbEntity
  8
0
100
AcDbLine
 10
436.2526563247879
 20
265.252655101902
 30
0.0
 11
435.9461990436753
 21
266.37435491193
 31
0.0
  0
LINE
  5
28D
330
1F
100
AcDbEntity
  8
0
100
AcDbLine
 10
418.7671867450913
 20
253.2189392577476
 30
0.0
 11
420.2025559982499
 21
252.0916291605301
 31
0.0
  0
LINE
  5
28E
330
1F
100
AcDbEntity
  8
0
100
AcDbLine
 10
436.6419938644608
 20
264.1407453547782
 30
0.0
 11
436.2526563247879
 21
265.252655101902
 31
0.0
  0
LINE
  5
28F
330
1F
100
AcDbEntity
  8
0
100
AcDbLine
 10
451.4682916244706
 20
252.6297622453041
 30
0.0
 11
450.4882720550737
 21
252.9137634764976
 31
0.0
  0
LINE
  5
290
330
1F
100
AcDbEntity
  8
0
100
AcDbLine
 10
450.4882720550737
 20
252.9137634764976
 30
0.0
 11
448.3464387497147
 21
253.6260762344666
 31
0.0
  0
LINE
  5
291
330
1F
100
AcDbEntity
  8
0
100
AcDbLine
 10
420.2025559982499
 20
252.0916291605301
 30
0.0
 11
420.0655249199112
 21
252.020021630413
 31
0.0
  0
LINE
  5
292
330
1F
100
AcDbEntity
  8
0
100
AcDbLine
 10
448.3464387497147
 20
253.6260762344666
 30
0.0
 11
446.4077678760727
 21
254.3928601871795
 31
0.0
  0
LINE
  5
293
330
1F
100
AcDbEntity
  8
0
100
AcDbLine
 10
446.4077678760727
 20
254.3928601871795
 30
0.0
 11
444.662216051503
 21
255.2211114298172
 31
0.0
  0
LINE
  5
294
330
1F
100
AcDbEntity
  8
0
100
AcDbLine
 10
419.5145395836075
 20
251.9539349805183
 30
0.0
 11
418.5776141723832
 21
251.8941589723892
 31
0.0
  0
LINE
  5
295
330
1F
100
AcDbEntity
  8
0
100
AcDbLine
 10
420.0655249199112
 20
252.020021630413
 30
0.0
 11
419.5145395836075
 21
251.9539349805183
 31
0.0
  0
LINE
  5
296
330
1F
100
AcDbEntity
  8
0
100
AcDbLine
 10
453.930172069951
 20
252.236103368885
 30
0.0
 11
452.5214460930069
 21
252.4068110715217
 31
0.0
  0
LINE
  5
297
330
1F
100
AcDbEntity
  8
0
100
AcDbLine
 10
452.5214460930069
 20
252.4068110715217
 30
0.0
 11
451.4682916244706
 21
252.6297622453041
 31
0.0
  0
LINE
  5
298
330
1F
100
AcDbEntity
  8
0
100
AcDbLine
 10
418.5776141723832
 20
251.8941589723892
 30
0.0
 11
417.2827926716049
 21
251.8414684664078
 31
0.0
  0
LINE
  5
299
330
1F
100
AcDbEntity
  8
0
100
AcDbLine
 10
417.2827926716049
 20
251.8414684664078
 30
0.0
 11
415.658059461995
 21
251.7966159712143
 31
0.0
  0
LINE
  5
29A
330
1F
100
AcDbEntity
  8
0
100
AcDbLine
 10
415.658059461995
 20
251.7966159712143
 30
0.0
 11
413.7313393196305
 21
251.7603763471908
 31
0.0
  0
LINE
  5
29B
330
1F
100
AcDbEntity
  8
0
100
AcDbLine
 10
413.7313393196305
 20
251.7603763471908
 30
0.0
 11
411.5307954391679
 21
251.7335393558807
 31
0.0
  0
LINE
  5
29C
330
1F
100
AcDbEntity
  8
0
100
AcDbLine
 10
411.5307954391679
 20
251.7335393558807
 30
0.0
 11
409.0842929920395
 21
251.716879857666
 31
0.0
  0
LINE
  5
29D
330
1F
100
AcDbEntity
  8
0
100
AcDbLine
 10
392.2304240307053
 20
251.7111503611869
 30
0.0
 11
377.6380148967942
 21
264.1057052742309
 31
0.0
  0
LINE
  5
29E
330
1F
100
AcDbEntity
  8
0
100
AcDbLine
 10
369.5421842178544
 20
271.0259460936851
 30
0.0
 11
367.9616180500229
 21
272.3866903315849
 31
0.0
  0
LINE
  5
29F
330
1F
100
AcDbEntity
  8
0
100
AcDbLine
 10
367.9616180500229
 20
272.3866903315849
 30
0.0
 11
366.6443255981644
 21
273.5259437094993
 31
0.0
  0
LINE
  5
2A0
330
1F
100
AcDbEntity
  8
0
100
AcDbLine
 10
366.6443255981644
 20
273.5259437094993
 30
0.0
 11
365.6333116134843
 21
274.4068407546348
 31
0.0
  0
LINE
  5
2A1
330
1F
100
AcDbEntity
  8
0
100
AcDbLine
 10
365.6333116134843
 20
274.4068407546348
 30
0.0
 11
362.3926070770463
 21
277.3147353063889
 31
0.0
  0
LINE
  5
2A2
330
1F
100
AcDbEntity
  8
0
100
AcDbLine
 10
362.3926070770463
 20
277.3147353063889
 30
0.0
 11
362.7257374366959
 21
251.7111503611869
 31
0.0
  0
LINE
  5
2A3
330
1F
100
AcDbEntity
  8
0
100
AcDbLine
 10
518.8099471172532
 20
301.1428692470855
 30
0.0
 11
519.4017020305832
 21
298.394808275587
 31
0.0
  0
LINE
  5
2A4
330
1F
100
AcDbEntity
  8
0
100
AcDbLine
 10
519.4017020305832
 20
298.394808275587
 30
0.0
 11
519.6377662262162
 21
296.3690475653476
 31
0.0
  0
LINE
  5
2A5
330
1F
100
AcDbEntity
  8
0
100
AcDbLine
 10
535.4204801162919
 20
282.758524371273
 30
0.0
 11
535.1960090240676
 21
315.0906131695575
 31
0.0
  0
LINE
  5
2A6
330
1F
100
AcDbEntity
  8
0
100
AcDbLine
 10
519.6377662262162
 20
296.3690475653476
 30
0.0
 11
519.7179642757615
 21
294.4397942255802
 31
0.0
  0
LINE
  5
2A7
330
1F
100
AcDbEntity
  8
0
100
AcDbLine
 10
519.7179642757615
 20
294.4397942255802
 30
0.0
 11
519.6425047954758
 21
292.6076629291839
 31
0.0
  0
LINE
  5
2A8
330
1F
100
AcDbEntity
  8
0
100
AcDbLine
 10
519.6425047954758
 20
292.6076629291839
 30
0.0
 11
519.4114771923264
 21
290.8732683490582
 31
0.0
  0
LINE
  5
2A9
330
1F
100
AcDbEntity
  8
0
100
AcDbLine
 10
519.4114771923264
 20
290.8732683490582
 30
0.0
 11
519.02509008257
 21
289.2372214328117
 31
0.0
  0
LINE
  5
2AA
330
1F
100
AcDbEntity
  8
0
100
AcDbLine
 10
519.02509008257
 20
289.2372214328117
 30
0.0
 11
518.4834030708512
 21
287.7001294027634
 31
0.0
  0
LINE
  5
2AB
330
1F
100
AcDbEntity
  8
0
100
AcDbLine
 10
518.4834030708512
 20
287.7001294027634
 30
0.0
 11
517.7866545757493
 21
286.2626069318122
 31
0.0
  0
LINE
  5
2AC
330
1F
100
AcDbEntity
  8
0
100
AcDbLine
 10
517.7866545757493
 20
286.2626069318122
 30
0.0
 11
516.9349340042313
 21
284.9252612422771
 31
0.0
  0
LINE
  5
2AD
330
1F
100
AcDbEntity
  8
0
100
AcDbLine
 10
516.9349340042313
 20
284.9252612422771
 30
0.0
 11
515.9283903679093
 21
283.6886958311863
 31
0.0
  0
LINE
  5
2AE
330
1F
100
AcDbEntity
  8
0
100
AcDbLine
 10
515.9283903679093
 20
283.6886958311863
 30
0.0
 11
515.0883821090897
 21
282.8242757450408
 31
0.0
  0
LINE
  5
2AF
330
1F
100
AcDbEntity
  8
0
100
AcDbLine
 10
515.0883821090897
 20
282.8242757450408
 30
0.0
 11
514.2166045746048
 21
282.038634372837
 31
0.0
  0
LINE
  5
2B0
330
1F
100
AcDbEntity
  8
0
100
AcDbLine
 10
514.2166045746048
 20
282.038634372837
 30
0.0
 11
513.3011368354996
 21
281.3250028621025
 31
0.0
  0
LINE
  5
2B1
330
1F
100
AcDbEntity
  8
0
100
AcDbLine
 10
512.2663405975541
 20
259.0593972336121
 30
0.0
 11
513.2589963516434
 21
257.7555605303116
 31
0.0
  0
LINE
  5
2B2
330
1F
100
AcDbEntity
  8
0
100
AcDbLine
 10
513.3011368354996
 20
281.3250028621025
 30
0.0
 11
512.3301175674637
 21
280.6766309868164
 31
0.0
  0
LINE
  5
2B3
330
1F
100
AcDbEntity
  8
0
100
AcDbLine
 10
512.3301175674637
 20
280.6766309868164
 30
0.0
 11
511.2915960392197
 21
280.0867536197968
 31
0.0
  0
LINE
  5
2B4
330
1F
100
AcDbEntity
  8
0
100
AcDbLine
 10
505.4436651310166
 20
267.9797315131492
 30
0.0
 11
512.2663405975541
 21
259.0593972336121
 31
0.0
  0
LINE
  5
2B5
330
1F
100
AcDbEntity
  8
0
100
AcDbLine
 10
511.2915960392197
 20
280.0867536197968
 30
0.0
 11
510.173770531102
 21
279.5486205350227
 31
0.0
  0
LINE
  5
2B6
330
1F
100
AcDbEntity
  8
0
100
AcDbLine
 10
510.173770531102
 20
279.5486205350227
 30
0.0
 11
508.9646307071885
 21
279.0554740558929
 31
0.0
  0
LINE
  5
2B7
330
1F
100
AcDbEntity
  8
0
100
AcDbLine
 10
508.9646307071885
 20
279.0554740558929
 30
0.0
 11
507.6523450454911
 21
278.6005416046447
 31
0.0
  0
LINE
  5
2B8
330
1F
100
AcDbEntity
  8
0
100
AcDbLine
 10
507.6523450454911
 20
278.6005416046447
 30
0.0
 11
506.2249926170548
 21
278.177080405838
 31
0.0
  0
LINE
  5
2B9
330
1F
100
AcDbEntity
  8
0
100
AcDbLine
 10
506.2249926170548
 20
278.177080405838
 30
0.0
 11
505.2028325638016
 21
277.9143282305068
 31
0.0
  0
LINE
  5
2BA
330
1F
100
AcDbEntity
  8
0
100
AcDbLine
 10
505.2028325638016
 20
277.9143282305068
 30
0.0
 11
504.1322437366684
 21
277.7037450205154
 31
0.0
  0
LINE
  5
2BB
330
1F
100
AcDbEntity
  8
0
100
AcDbLine
 10
504.1322437366684
 20
277.7037450205154
 30
0.0
 11
502.8308061203202
 21
277.5372096430129
 31
0.0
  0
LINE
  5
2BC
330
1F
100
AcDbEntity
  8
0
100
AcDbLine
 10
502.8308061203202
 20
277.5372096430129
 30
0.0
 11
501.1161891063889
 21
277.4066158663101
 31
0.0
  0
LINE
  5
2BD
330
1F
100
AcDbEntity
  8
0
100
AcDbLine
 10
501.1161891063889
 20
277.4066158663101
 30
0.0
 11
498.8060918888291
 21
277.3038425575561
 31
0.0
  0
LINE
  5
2BE
330
1F
100
AcDbEntity
  8
0
100
AcDbLine
 10
498.8060918888291
 20
277.3038425575561
 30
0.0
 11
495.718124254628
 21
277.2207834850616
 31
0.0
  0
LINE
  5
2BF
330
1F
100
AcDbEntity
  8
0
100
AcDbLine
 10
495.718124254628
 20
277.2207834850616
 30
0.0
 11
491.6698959907731
 21
277.1493398677177
 31
0.0
  0
LINE
  5
2C0
330
1F
100
AcDbEntity
  8
0
100
AcDbLine
 10
477.6796427807053
 20
267.9913469682999
 30
0.0
 11
505.4436651310166
 21
267.9797315131492
 31
0.0
  0
LINE
  5
2C1
330
1F
100
AcDbEntity
  8
0
100
AcDbLine
 10
491.6698959907731
 20
277.1493398677177
 30
0.0
 11
486.4791062912187
 21
277.0813682209319
 31
0.0
  0
LINE
  5
2C2
330
1F
100
AcDbEntity
  8
0
100
AcDbLine
 10
473.4587696632584
 20
268.0099138151473
 30
0.0
 11
477.6796427807053
 21
267.9913469682999
 31
0.0
  0
LINE
  5
2C3
330
1F
100
AcDbEntity
  8
0
100
AcDbLine
 10
469.6796861728868
 20
268.0396863352127
 30
0.0
 11
473.4587696632584
 21
268.0099138151473
 31
0.0
  0
LINE
  5
2C4
330
1F
100
AcDbEntity
  8
0
100
AcDbLine
 10
472.6455536922654
 20
276.9285270105667
 30
0.0
 11
466.9653800567826
 21
276.8494018446273
 31
0.0
  0
LINE
  5
2C5
330
1F
100
AcDbEntity
  8
0
100
AcDbLine
 10
466.3661149582109
 20
268.0802174936599
 30
0.0
 11
469.6796861728868
 21
268.0396863352127
 31
0.0
  0
LINE
  5
2C6
330
1F
100
AcDbEntity
  8
0
100
AcDbLine
 10
463.5416296562394
 20
268.1310975085563
 30
0.0
 11
466.3661149582109
 21
268.0802174936599
 31
0.0
  0
LINE
  5
2C7
330
1F
100
AcDbEntity
  8
0
100
AcDbLine
 10
466.9653800567826
 20
276.8494018446273
 30
0.0
 11
462.704631431981
 21
276.7498695384331
 31
0.0
  0
LINE
  5
2C8
330
1F
100
AcDbEntity
  8
0
100
AcDbLine
 10
461.2298933109482
 20
268.1919091473884
 30
0.0
 11
463.5416296562394
 21
268.1310975085563
 31
0.0
  0
LINE
  5
2C9
330
1F
100
AcDbEntity
  8
0
100
AcDbLine
 10
462.704631431981
 20
276.7498695384331
 30
0.0
 11
459.6451250156601
 21
276.6083979140586
 31
0.0
  0
LINE
  5
2CA
330
1F
100
AcDbEntity
  8
0
100
AcDbLine
 10
459.4545093616684
 20
268.2622277270622
 30
0.0
 11
461.2298933109482
 21
268.1919091473884
 31
0.0
  0
LINE
  5
2CB
330
1F
100
AcDbEntity
  8
0
100
AcDbLine
 10
458.2391110500535
 20
268.3416062127419
 30
0.0
 11
459.4545093616684
 21
268.2622277270622
 31
0.0
  0
LINE
  5
2CC
330
1F
100
AcDbEntity
  8
0
100
AcDbLine
 10
459.6451250156601
 20
276.6083979140586
 30
0.0
 11
457.5686184009751
 21
276.4034249912567
 31
0.0
  0
LINE
  5
2CD
330
1F
100
AcDbEntity
  8
0
100
AcDbLine
 10
455.9839991172989
 20
269.2097478638954
 30
0.0
 11
456.73603092043
 21
268.7563874851531
 31
0.0
  0
LINE
  5
2CE
330
1F
100
AcDbEntity
  8
0
100
AcDbLine
 10
455.4916051468095
 20
275.7168614398307
 30
0.0
 11
455.054643495961
 21
275.1921841036147
 31
0.0
  0
LINE
  5
2CF
330
1F
100
AcDbEntity
  8
0
100
AcDbLine
 10
456.2568393787582
 20
276.1134260426826
 30
0.0
 11
455.4916051468095
 21
275.7168614398307
 31
0.0
  0
LINE
  5
2D0
330
1F
100
AcDbEntity
  8
0
100
AcDbLine
 10
455.054643495961
 20
275.1921841036147
 30
0.0
 11
454.7277418216904
 21
274.5178469549484
 31
0.0
  0
LINE
  5
2D1
330
1F
100
AcDbEntity
  8
0
100
AcDbLine
 10
457.5686184009751
 20
276.4034249912567
 30
0.0
 11
456.2568393787582
 21
276.1134260426826
 31
0.0
  0
LINE
  5
2D2
330
1F
100
AcDbEntity
  8
0
100
AcDbLine
 10
454.7277418216904
 20
274.5178469549484
 30
0.0
 11
454.4222084125718
 21
273.6483940016097
 31
0.0
  0
LINE
  5
2D3
330
1F
100
AcDbEntity
  8
0
100
AcDbLine
 10
454.4222084125718
 20
273.6483940016097
 30
0.0
 11
454.2915252289017
 21
272.788000954277
 31
0.0
  0
LINE
  5
2D4
330
1F
100
AcDbEntity
  8
0
100
AcDbLine
 10
454.2915252289017
 20
272.788000954277
 30
0.0
 11
454.3278542598924
 21
271.9534688721962
 31
0.0
  0
LINE
  5
2D5
330
1F
100
AcDbEntity
  8
0
100
AcDbLine
 10
454.3278542598924
 20
271.9534688721962
 30
0.0
 11
454.5232084831437
 21
271.1615764628716
 31
0.0
  0
LINE
  5
2D6
330
1F
100
AcDbEntity
  8
0
100
AcDbLine
 10
454.5232084831437
 20
271.1615764628716
 30
0.0
 11
454.8696306785782
 21
270.4291322361298
 31
0.0
  0
LINE
  5
2D7
330
1F
100
AcDbEntity
  8
0
100
AcDbLine
 10
454.8696306785782
 20
270.4291322361298
 30
0.0
 11
455.3591934284408
 21
269.7729223500557
 31
0.0
  0
LINE
  5
2D8
330
1F
100
AcDbEntity
  8
0
100
AcDbLine
 10
455.3591934284408
 20
269.7729223500557
 30
0.0
 11
455.9839991172989
 21
269.2097478638954
 31
0.0
  0
LINE
  5
2D9
330
1F
100
AcDbEntity
  8
0
100
AcDbLine
 10
456.73603092043
 20
268.7563874851531
 30
0.0
 11
457.6073614200791
 21
268.4296422730751
 31
0.0
  0
LINE
  5
2DA
330
1F
100
AcDbEntity
  8
0
100
AcDbLine
 10
457.6073614200791
 20
268.4296422730751
 30
0.0
 11
458.2391110500535
 21
268.3416062127419
 31
0.0
  0
LINE
  5
2DB
330
1F
100
AcDbEntity
  8
0
100
AcDbLine
 10
513.2589963516434
 20
257.7555605303116
 30
0.0
 11
514.185252531453
 21
256.5348276029891
 31
0.0
  0
LINE
  5
2DC
330
1F
100
AcDbEntity
  8
0
100
AcDbLine
 10
514.185252531453
 20
256.5348276029891
 30
0.0
 11
515.0274065574845
 21
255.4206752311058
 31
0.0
  0
LINE
  5
2DD
330
1F
100
AcDbEntity
  8
0
100
AcDbLine
 10
515.0274065574845
 20
255.4206752311058
 30
0.0
 11
515.7678452572068
 21
254.4365950952835
 31
0.0
  0
LINE
  5
2DE
330
1F
100
AcDbEntity
  8
0
100
AcDbLine
 10
515.7678452572068
 20
254.4365950952835
 30
0.0
 11
516.3888362487991
 21
253.6060639749832
 31
0.0
  0
LINE
  5
2DF
330
1F
100
AcDbEntity
  8
0
100
AcDbLine
 10
516.3888362487991
 20
253.6060639749832
 30
0.0
 11
516.8727663597306
 21
252.9525661002464
 31
0.0
  0
LINE
  5
2E0
330
1F
100
AcDbEntity
  8
0
100
AcDbLine
 10
516.8727663597306
 20
252.9525661002464
 30
0.0
 11
517.2019032081803
 21
252.4995931516952
 31
0.0
  0
LINE
  5
2E1
330
1F
100
AcDbEntity
  8
0
100
AcDbLine
 10
517.2019032081803
 20
252.4995931516952
 30
0.0
 11
517.3586336216172
 21
252.27061445821
 31
0.0
  0
LINE
  5
2E2
330
1F
100
AcDbEntity
  8
0
100
AcDbLine
 10
548.2629564842423
 20
251.6721614729232
 30
0.0
 11
535.5953005394181
 21
267.7701317797966
 31
0.0
  0
LINE
  5
2E3
330
1F
100
AcDbEntity
  8
0
100
AcDbLine
 10
517.3586336216172
 20
252.27061445821
 30
0.0
 11
517.2486034473619
 21
252.1176391373939
 31
0.0
  0
LINE
  5
2E4
330
1F
100
AcDbEntity
  8
0
100
AcDbLine
 10
517.2486034473619
 20
252.1176391373939
 30
0.0
 11
516.6223672470292
 21
251.9950770865745
 31
0.0
  0
LINE
  5
2E5
330
1F
100
AcDbEntity
  8
0
100
AcDbLine
 10
506.0704675754747
 20
251.7674692999191
 30
0.0
 11
500.6996718486985
 21
251.765845073349
 31
0.0
  0
LINE
  5
2E6
330
1F
100
AcDbEntity
  8
0
100
AcDbLine
 10
500.6996718486985
 20
251.765845073349
 30
0.0
 11
493.9472106537064
 21
251.7821767460174
 31
0.0
  0
LINE
  5
2E7
330
1F
100
AcDbEntity
  8
0
100
AcDbLine
 10
455.9769657692154
 20
252.1087952982254
 30
0.0
 11
453.930172069951
 21
252.236103368885
 31
0.0
  0
LINE
  5
2E8
330
1F
100
AcDbEntity
  8
0
100
AcDbLine
 10
444.662216051503
 20
255.2211114298172
 30
0.0
 11
443.099739893361
 21
256.1178335081405
 31
0.0
  0
LINE
  5
2E9
330
1F
100
AcDbEntity
  8
0
100
AcDbLine
 10
443.099739893361
 20
256.1178335081405
 30
0.0
 11
441.7103556236466
 21
257.0900597702331
 31
0.0
  0
LINE
  5
2EA
330
1F
100
AcDbEntity
  8
0
100
AcDbLine
 10
441.7103556236466
 20
257.0900597702331
 30
0.0
 11
440.4841092666825
 21
258.1447714101143
 31
0.0
  0
LINE
  5
2EB
330
1F
100
AcDbEntity
  8
0
100
AcDbLine
 10
440.4841092666825
 20
258.1447714101143
 30
0.0
 11
439.4108382305345
 21
259.2889868747062
 31
0.0
  0
LINE
  5
2EC
330
1F
100
AcDbEntity
  8
0
100
AcDbLine
 10
439.4108382305345
 20
259.2889868747062
 30
0.0
 11
438.4806481441697
 21
260.5297246109314
 31
0.0
  0
LINE
  5
2ED
330
1F
100
AcDbEntity
  8
0
100
AcDbLine
 10
438.4806481441697
 20
260.5297246109314
 30
0.0
 11
437.6834658226212
 21
261.8739881645507
 31
0.0
  0
LINE
  5
2EE
330
1F
100
AcDbEntity
  8
0
100
AcDbLine
 10
437.6834658226212
 20
261.8739881645507
 30
0.0
 11
437.1177283367356
 21
263.0205505620307
 31
0.0
  0
LINE
  5
2EF
330
1F
100
AcDbEntity
  8
0
100
AcDbLine
 10
437.1177283367356
 20
263.0205505620307
 30
0.0
 11
436.6419938644608
 21
264.1407453547782
 31
0.0
  0
LINE
  5
2F0
330
1F
100
AcDbEntity
  8
0
100
AcDbLine
 10
436.7494908413132
 20
278.5809465776748
 30
0.0
 11
437.086316688939
 21
279.2895712982483
 31
0.0
  0
LINE
  5
2F1
330
1F
100
AcDbEntity
  8
0
100
AcDbLine
 10
439.8818639358719
 20
283.2593412231274
 30
0.0
 11
440.7687810501297
 21
284.1066510509319
 31
0.0
  0
LINE
  5
2F2
330
1F
100
AcDbEntity
  8
0
100
AcDbLine
 10
440.7687810501297
 20
284.1066510509319
 30
0.0
 11
441.7278495868882
 21
284.8929629753894
 31
0.0
  0
LINE
  5
2F3
330
1F
100
AcDbEntity
  8
0
100
AcDbLine
 10
441.7278495868882
 20
284.8929629753894
 30
0.0
 11
442.757519825383
 21
285.6168092321224
 31
0.0
  0
LINE
  5
2F4
330
1F
100
AcDbEntity
  8
0
100
AcDbLine
 10
442.757519825383
 20
285.6168092321224
 30
0.0
 11
443.8562122425279
 21
286.2767146061725
 31
0.0
  0
LINE
  5
2F5
330
1F
100
AcDbEntity
  8
0
100
AcDbLine
 10
443.8562122425279
 20
286.2767146061725
 30
0.0
 11
445.0224665245256
 21
286.8712150584526
 31
0.0
  0
LINE
  5
2F6
330
1F
100
AcDbEntity
  8
0
100
AcDbLine
 10
445.0224665245256
 20
286.8712150584526
 30
0.0
 11
446.6123608192642
 21
287.5797578226394
 31
0.0
  0
LINE
  5
2F7
330
1F
100
AcDbEntity
  8
0
100
AcDbLine
 10
446.6123608192642
 20
287.5797578226394
 30
0.0
 11
448.144289596959
 21
288.1411665211982
 31
0.0
  0
LINE
  5
2F8
330
1F
100
AcDbEntity
  8
0
100
AcDbLine
 10
448.144289596959
 20
288.1411665211982
 30
0.0
 11
449.8122063717088
 21
288.5725812147922
 31
0.0
  0
LINE
  5
2F9
330
1F
100
AcDbEntity
  8
0
100
AcDbLine
 10
449.8122063717088
 20
288.5725812147922
 30
0.0
 11
451.8101540645799
 21
288.8911494146652
 31
0.0
  0
LINE
  5
2FA
330
1F
100
AcDbEntity
  8
0
100
AcDbLine
 10
451.8101540645799
 20
288.8911494146652
 30
0.0
 11
454.3320563873489
 21
289.1140111814804
 31
0.0
  0
LINE
  5
2FB
330
1F
100
AcDbEntity
  8
0
100
AcDbLine
 10
454.3320563873489
 20
289.1140111814804
 30
0.0
 11
457.5720456680497
 21
289.2583140264816
 31
0.0
  0
LINE
  5
2FC
330
1F
100
AcDbEntity
  8
0
100
AcDbLine
 10
457.5720456680497
 20
289.2583140264816
 30
0.0
 11
461.7239860138138
 21
289.3411942850418
 31
0.0
  0
LINE
  5
2FD
330
1F
100
AcDbEntity
  8
0
100
AcDbLine
 10
479.5174923977098
 20
298.814864559061
 30
0.0
 11
445.8285597404679
 21
298.8175057898826
 31
0.0
  0
LINE
  5
2FE
330
1F
100
AcDbEntity
  8
0
100
AcDbLine
 10
461.7239860138138
 20
289.3411942850418
 30
0.0
 11
466.9818905433854
 21
289.379803193695
 31
0.0
  0
LINE
  5
2FF
330
1F
100
AcDbEntity
  8
0
100
AcDbLine
 10
477.1485653957566
 20
289.399822903759
 30
0.0
 11
480.6301323017319
 21
289.4209825526542
 31
0.0
  0
LINE
  5
300
330
1F
100
AcDbEntity
  8
0
100
AcDbLine
 10
480.6301323017319
 20
289.4209825526542
 30
0.0
 11
483.9198616584977
 21
289.4535378645725
 31
0.0
  0
LINE
  5
301
330
1F
100
AcDbEntity
  8
0
100
AcDbLine
 10
485.7905832370957
 20
298.7966478895016
 30
0.0
 11
479.5174923977098
 21
298.814864559061
 31
0.0
  0
LINE
  5
302
330
1F
100
AcDbEntity
  8
0
100
AcDbLine
 10
483.9198616584977
 20
289.4535378645725
 30
0.0
 11
486.952963217183
 21
289.4962483178443
 31
0.0
  0
LINE
  5
303
330
1F
100
AcDbEntity
  8
0
100
AcDbLine
 10
490.5357090076646
 20
298.7474032770462
 30
0.0
 11
485.7905832370957
 21
298.7966478895016
 31
0.0
  0
LINE
  5
304
330
1F
100
AcDbEntity
  8
0
100
AcDbLine
 10
486.952963217183
 20
289.4962483178443
 30
0.0
 11
489.664795740529
 21
289.5478882919616
 31
0.0
  0
LINE
  5
305
330
1F
100
AcDbEntity
  8
0
100
AcDbLine
 10
489.664795740529
 20
289.5478882919616
 30
0.0
 11
491.9905689796647
 21
289.6072209905453
 31
0.0
  0
LINE
  5
306
330
1F
100
AcDbEntity
  8
0
100
AcDbLine
 10
493.9875033935746
 20
298.6516893934078
 30
0.0
 11
490.5357090076646
 21
298.7474032770462
 31
0.0
  0
LINE
  5
307
330
1F
100
AcDbEntity
  8
0
100
AcDbLine
 10
491.9905689796647
 20
289.6072209905453
 30
0.0
 11
493.8656416973313
 21
289.6730170677967
 31
0.0
  0
LINE
  5
308
330
1F
100
AcDbEntity
  8
0
100
AcDbLine
 10
493.8656416973313
 20
289.6730170677967
 30
0.0
 11
495.2252832493027
 21
289.7440360020465
 31
0.0
  0
LINE
  5
309
330
1F
100
AcDbEntity
  8
0
100
AcDbLine
 10
496.3803914627275
 20
298.4940686355895
 30
0.0
 11
493.9875033935746
 21
298.6516893934078
 31
0.0
  0
LINE
  5
30A
330
1F
100
AcDbEntity
  8
0
100
AcDbLine
 10
495.2252832493027
 20
289.7440360020465
 30
0.0
 11
496.0047629913529
 21
289.8190596233673
 31
0.0
  0
LINE
  5
30B
330
1F
100
AcDbEntity
  8
0
100
AcDbLine
 10
496.0047629913529
 20
289.8190596233673
 30
0.0
 11
497.0642355522355
 21
290.0308088492221
 31
0.0
  0
LINE
  5
30C
330
1F
100
AcDbEntity
  8
0
100
AcDbLine
 10
497.0642355522355
 20
290.0308088492221
 30
0.0
 11
497.9702559551438
 21
290.2978711854286
 31
0.0
  0
LINE
  5
30D
330
1F
100
AcDbEntity
  8
0
100
AcDbLine
 10
500.6256428798874
 20
294.308798117525
 30
0.0
 11
500.6115165790756
 21
294.6728409360714
 31
0.0
  0
LINE
  5
30E
330
1F
100
AcDbEntity
  8
0
100
AcDbLine
 10
500.5904463371476
 20
293.456950886137
 30
0.0
 11
500.6256428798874
 21
294.308798117525
 31
0.0
  0
LINE
  5
30F
330
1F
100
AcDbEntity
  8
0
100
AcDbLine
 10
497.9702559551438
 20
290.2978711854286
 30
0.0
 11
498.7300959667405
 21
290.6272986065215
 31
0.0
  0
LINE
  5
310
330
1F
100
AcDbEntity
  8
0
100
AcDbLine
 10
500.4526702007493
 20
292.7098215650387
 30
0.0
 11
500.5904463371476
 21
293.456950886137
 31
0.0
  0
LINE
  5
311
330
1F
100
AcDbEntity
  8
0
100
AcDbLine
 10
498.7300959667405
 20
290.6272986065215
 30
0.0
 11
499.3509677490434
 21
291.0261505376167
 31
0.0
  0
LINE
  5
312
330
1F
100
AcDbEntity
  8
0
100
AcDbLine
 10
500.2049830993851
 20
292.0603507291145
 30
0.0
 11
500.4526702007493
 21
292.7098215650387
 31
0.0
  0
LINE
  5
313
330
1F
100
AcDbEntity
  8
0
100
AcDbLine
 10
499.3509677490434
 20
291.0261505376167
 30
0.0
 11
499.8402026733597
 21
291.5014826785393
 31
0.0
  0
LINE
  5
314
330
1F
100
AcDbEntity
  8
0
100
AcDbLine
 10
499.8402026733597
 20
291.5014826785393
 30
0.0
 11
500.2049830993851
 21
292.0603507291145
 31
0.0
  0
LINE
  5
315
330
1F
100
AcDbEntity
  8
0
100
AcDbLine
 10
497.9488876899919
 20
298.2590847741432
 30
0.0
 11
496.3803914627275
 21
298.4940686355895
 31
0.0
  0
LINE
  5
316
330
1F
100
AcDbEntity
  8
0
100
AcDbLine
 10
500.6115165790756
 20
294.6728409360714
 30
0.0
 11
500.5811778148849
 21
295.0364925991364
 31
0.0
  0
LINE
  5
317
330
1F
100
AcDbEntity
  8
0
100
AcDbLine
 10
500.5811778148849
 20
295.0364925991364
 30
0.0
 11
500.5362359127244
 21
295.392190767414
 31
0.0
  0
LINE
  5
318
330
1F
100
AcDbEntity
  8
0
100
AcDbLine
 10
500.5362359127244
 20
295.392190767414
 30
0.0
 11
500.4784492096146
 21
295.7323619257278
 31
0.0
  0
LINE
  5
319
330
1F
100
AcDbEntity
  8
0
100
AcDbLine
 10
500.4784492096146
 20
295.7323619257278
 30
0.0
 11
500.4093376239975
 21
296.0494437347717
 31
0.0
  0
LINE
  5
31A
330
1F
100
AcDbEntity
  8
0
100
AcDbLine
 10
498.9275661548814
 20
297.9312964807815
 30
0.0
 11
497.9488876899919
 21
298.2590847741432
 31
0.0
  0
LINE
  5
31B
330
1F
100
AcDbEntity
  8
0
100
AcDbLine
 10
499.5508221229751
 20
297.4952587019271
 30
0.0
 11
498.9275661548814
 21
297.9312964807815
 31
0.0
  0
LINE
  5
31C
330
1F
100
AcDbEntity
  8
0
100
AcDbLine
 10
500.4093376239975
 20
296.0494437347717
 30
0.0
 11
500.3306296905717
 21
296.3358701299496
 31
0.0
  0
LINE
  5
31D
330
1F
100
AcDbEntity
  8
0
100
AcDbLine
 10
500.0532594761094
 20
296.9355301092929
 30
0.0
 11
499.5508221229751
 21
297.4952587019271
 31
0.0
  0
LINE
  5
31E
330
1F
100
AcDbEntity
  8
0
100
AcDbLine
 10
500.3306296905717
 20
296.3358701299496
 30
0.0
 11
500.2439645370683
 21
296.5840713213749
 31
0.0
  0
LINE
  5
31F
330
1F
100
AcDbEntity
  8
0
100
AcDbLine
 10
500.2439645370683
 20
296.5840713213749
 30
0.0
 11
500.1509216865738
 21
296.7864775191612
 31
0.0
  0
LINE
  5
320
330
1F
100
AcDbEntity
  8
0
100
AcDbLine
 10
500.1509216865738
 20
296.7864775191612
 30
0.0
 11
500.0532594761094
 21
296.9355301092929
 31
0.0
  0
LINE
  5
321
330
1F
100
AcDbEntity
  8
0
100
AcDbLine
 10
474.9906090339859
 20
315.0803444068499
 30
0.0
 11
482.2804359039505
 21
315.066441623456
 31
0.0
  0
LINE
  5
322
330
1F
100
AcDbEntity
  8
0
100
AcDbLine
 10
482.2804359039505
 20
315.066441623456
 30
0.0
 11
488.0043593486985
 21
315.0382020603485
 31
0.0
  0
LINE
  5
323
330
1F
100
AcDbEntity
  8
0
100
AcDbLine
 10
488.0043593486985
 20
315.0382020603485
 30
0.0
 11
492.3942116340837
 21
314.9905388336248
 31
0.0
  0
LINE
  5
324
330
1F
100
AcDbEntity
  8
0
100
AcDbLine
 10
492.3942116340837
 20
314.9905388336248
 30
0.0
 11
495.6817952236375
 21
314.9183576088018
 31
0.0
  0
LINE
  5
325
330
1F
100
AcDbEntity
  8
0
100
AcDbLine
 10
495.6817952236375
 20
314.9183576088018
 30
0.0
 11
498.0989423832139
 21
314.8165733646221
 31
0.0
  0
LINE
  5
326
330
1F
100
AcDbEntity
  8
0
100
AcDbLine
 10
498.0989423832139
 20
314.8165733646221
 30
0.0
 11
499.8774853786667
 21
314.680097354538
 31
0.0
  0
LINE
  5
327
330
1F
100
AcDbEntity
  8
0
100
AcDbLine
 10
499.8774853786667
 20
314.680097354538
 30
0.0
 11
501.2492266735276
 21
314.5038352440662
 31
0.0
  0
LINE
  5
328
330
1F
100
AcDbEntity
  8
0
100
AcDbLine
 10
501.2492266735276
 20
314.5038352440662
 30
0.0
 11
502.4459985336503
 21
314.2826982866592
 31
0.0
  0
LINE
  5
329
330
1F
100
AcDbEntity
  8
0
100
AcDbLine
 10
502.4459985336503
 20
314.2826982866592
 30
0.0
 11
505.6543079456528
 21
313.4700001310177
 31
0.0
  0
LINE
  5
32A
330
1F
100
AcDbEntity
  8
0
100
AcDbLine
 10
505.6543079456528
 20
313.4700001310177
 30
0.0
 11
508.5234967312059
 21
312.4266729782887
 31
0.0
  0
LINE
  5
32B
330
1F
100
AcDbEntity
  8
0
100
AcDbLine
 10
508.5234967312059
 20
312.4266729782887
 30
0.0
 11
511.0570219597062
 21
311.149494452364
 31
0.0
  0
LINE
  5
32C
330
1F
100
AcDbEntity
  8
0
100
AcDbLine
 10
511.0570219597062
 20
311.149494452364
 30
0.0
 11
513.2582810959061
 21
309.6352347265548
 31
0.0
  0
LINE
  5
32D
330
1F
100
AcDbEntity
  8
0
100
AcDbLine
 10
513.2582810959061
 20
309.6352347265548
 30
0.0
 11
515.130761011525
 21
307.8806714247532
 31
0.0
  0
LINE
  5
32E
330
1F
100
AcDbEntity
  8
0
100
AcDbLine
 10
515.130761011525
 20
307.8806714247532
 30
0.0
 11
516.6778889736374
 21
305.8825747202702
 31
0.0
  0
LINE
  5
32F
330
1F
100
AcDbEntity
  8
0
100
AcDbLine
 10
516.6778889736374
 20
305.8825747202702
 30
0.0
 11
517.9031518539628
 21
303.6377185117073
 31
0.0
  0
LINE
  5
330
330
1F
100
AcDbEntity
  8
0
100
AcDbLine
 10
517.9031518539628
 20
303.6377185117073
 30
0.0
 11
518.8099471172532
 21
301.1428692470855
 31
0.0
  0
LINE
  5
331
330
1F
100
AcDbEntity
  8
0
100
AcDbLine
 10
535.1960090240676
 20
315.0906131695575
 30
0.0
 11
554.9053577026565
 21
315.0906131695575
 31
0.0
  0
LINE
  5
332
330
1F
100
AcDbEntity
  8
0
100
AcDbLine
 10
581.7540315231522
 20
298.6698464583225
 30
0.0
 11
586.5055945953568
 21
298.6227774154015
 31
0.0
  0
LINE
  5
333
330
1F
100
AcDbEntity
  8
0
100
AcDbLine
 10
586.5055945953568
 20
298.6227774154015
 30
0.0
 11
590.20930801241
 21
298.5672780405349
 31
0.0
  0
LINE
  5
334
330
1F
100
AcDbEntity
  8
0
100
AcDbLine
 10
554.9053577026565
 20
315.0906131695575
 30
0.0
 11
554.9053577026565
 21
298.8692053686447
 31
0.0
  0
LINE
  5
335
330
1F
100
AcDbEntity
  8
0
100
AcDbLine
 10
554.9053577026565
 20
298.8692053686447
 30
0.0
 11
581.7540315231522
 21
298.6698464583225
 31
0.0
  0
LINE
  5
336
330
1F
100
AcDbEntity
  8
0
100
AcDbLine
 10
590.20930801241
 20
298.5672780405349
 30
0.0
 11
593.0374888023575
 21
298.4955773781605
 31
0.0
  0
LINE
  5
337
330
1F
100
AcDbEntity
  8
0
100
AcDbLine
 10
593.0374888023575
 20
298.4955773781605
 30
0.0
 11
595.162752016469
 21
298.399911923296
 31
0.0
  0
LINE
  5
338
330
1F
100
AcDbEntity
  8
0
100
AcDbLine
 10
595.162752016469
 20
298.399911923296
 30
0.0
 11
596.7576531013688
 21
298.2725107203788
 31
0.0
  0
LINE
  5
339
330
1F
100
AcDbEntity
  8
0
100
AcDbLine
 10
617.2651675781449
 20
314.5553131680555
 30
0.0
 11
617.2844794830522
 21
314.6850221883125
 31
0.0
  0
LINE
  5
33A
330
1F
100
AcDbEntity
  8
0
100
AcDbLine
 10
596.7576531013688
 20
298.2725107203788
 30
0.0
 11
597.9946282943924
 21
298.1056214402981
 31
0.0
  0
LINE
  5
33B
330
1F
100
AcDbEntity
  8
0
100
AcDbLine
 10
597.9946282943924
 20
298.1056214402981
 30
0.0
 11
599.0461138328751
 21
297.891473127491
 31
0.0
  0
LINE
  5
33C
330
1F
100
AcDbEntity
  8
0
100
AcDbLine
 10
599.0461138328751
 20
297.891473127491
 30
0.0
 11
600.0846055587967
 21
297.6222985516853
 31
0.0
  0
LINE
  5
33D
330
1F
100
AcDbEntity
  8
0
100
AcDbLine
 10
600.0846055587967
 20
297.6222985516853
 30
0.0
 11
604.1002300819596
 21
296.2990083824463
 31
0.0
  0
LINE
  5
33E
330
1F
100
AcDbEntity
  8
0
100
AcDbLine
 10
619.18640409319
 20
311.70250634659
 30
0.0
 11
617.2651675781449
 21
314.5553131680555
 31
0.0
  0
LINE
  5
33F
330
1F
100
AcDbEntity
  8
0
100
AcDbLine
 10
604.1002300819596
 20
296.2990083824463
 30
0.0
 11
607.6692966064652
 21
294.6617209445304
 31
0.0
  0
LINE
  5
340
330
1F
100
AcDbEntity
  8
0
100
AcDbLine
 10
623.2533482155045
 20
305.8983736764259
 30
0.0
 11
619.18640409319
 21
311.70250634659
 31
0.0
  0
LINE
  5
341
330
1F
100
AcDbEntity
  8
0
100
AcDbLine
 10
607.6692966064652
 20
294.6617209445304
 30
0.0
 11
610.7849505981645
 21
292.7184456120796
 31
0.0
  0
LINE
  5
342
330
1F
100
AcDbEntity
  8
0
100
AcDbLine
 10
610.7849505981645
 20
292.7184456120796
 30
0.0
 11
613.4402779182634
 21
290.4771992098159
 31
0.0
  0
LINE
  5
343
330
1F
100
AcDbEntity
  8
0
100
AcDbLine
 10
628.8486150345047
 20
298.0045356880493
 30
0.0
 11
623.2533482155045
 21
305.8983736764259
 31
0.0
  0
LINE
  5
344
330
1F
100
AcDbEntity
  8
0
100
AcDbLine
 10
613.4402779182634
 20
290.4771992098159
 30
0.0
 11
615.6283644279679
 21
287.9459948371716
 31
0.0
  0
LINE
  5
345
330
1F
100
AcDbEntity
  8
0
100
AcDbLine
 10
615.6283644279679
 20
287.9459948371716
 30
0.0
 11
617.3422363838396
 21
285.1328269671268
 31
0.0
  0
LINE
  5
346
330
1F
100
AcDbEntity
  8
0
100
AcDbLine
 10
635.3547004303178
 20
288.8826147745914
 30
0.0
 11
628.8486150345047
 21
298.0045356880493
 31
0.0
  0
LINE
  5
347
330
1F
100
AcDbEntity
  8
0
100
AcDbLine
 10
617.3422363838396
 20
285.1328269671268
 30
0.0
 11
618.5750392517288
 21
282.0457273255653
 31
0.0
  0
LINE
  5
348
330
1F
100
AcDbEntity
  8
0
100
AcDbLine
 10
618.5750392517288
 20
282.0457273255653
 30
0.0
 11
619.3197396835525
 21
278.6926829348869
 31
0.0
  0
LINE
  5
349
330
1F
100
AcDbEntity
  8
0
100
AcDbLine
 10
642.1542194923601
 20
279.3942221533126
 30
0.0
 11
635.3547004303178
 21
288.8826147745914
 31
0.0
  0
LINE
  5
34A
330
1F
100
AcDbEntity
  8
0
100
AcDbLine
 10
619.3197396835525
 20
278.6926829348869
 30
0.0
 11
619.569602354451
 21
275.0817292462654
 31
0.0
  0
LINE
  5
34B
330
1F
100
AcDbEntity
  8
0
100
AcDbLine
 10
619.569602354451
 20
275.0817292462654
 30
0.0
 11
619.3068054756365
 21
271.6377281676597
 31
0.0
  0
LINE
  5
34C
330
1F
100
AcDbEntity
  8
0
100
AcDbLine
 10
648.6296681007584
 20
270.4009913932151
 30
0.0
 11
642.1542194923601
 21
279.3942221533126
 31
0.0
  0
LINE
  5
34D
330
1F
100
AcDbEntity
  8
0
100
AcDbLine
 10
619.3068054756365
 20
271.6377281676597
 30
0.0
 11
618.5297993263443
 21
268.394430829174
 31
0.0
  0
LINE
  5
34E
330
1F
100
AcDbEntity
  8
0
100
AcDbLine
 10
618.5297993263443
 20
268.394430829174
 30
0.0
 11
617.2550347885331
 21
265.3707393537827
 31
0.0
  0
LINE
  5
34F
330
1F
100
AcDbEntity
  8
0
100
AcDbLine
 10
654.1636017402848
 20
262.7645337115592
 30
0.0
 11
648.6296681007584
 21
270.4009913932151
 31
0.0
  0
LINE
  5
350
330
1F
100
AcDbEntity
  8
0
100
AcDbLine
 10
617.2550347885331
 20
265.3707393537827
 30
0.0
 11
615.4992011627397
 21
262.5855707656212
 31
0.0
  0
LINE
  5
351
330
1F
100
AcDbEntity
  8
0
100
AcDbLine
 10
658.1386355003557
 20
257.3464640508956
 30
0.0
 11
654.1636017402848
 21
262.7645337115592
 31
0.0
  0
LINE
  5
352
330
1F
100
AcDbEntity
  8
0
100
AcDbLine
 10
615.4992011627397
 20
262.5855707656212
 30
0.0
 11
613.2788685402115
 21
260.057827187664
 31
0.0
  0
LINE
  5
353
330
1F
100
AcDbEntity
  8
0
100
AcDbLine
 10
659.937205656453
 20
255.0084048043556
 30
0.0
 11
658.1386355003557
 21
257.3464640508956
 31
0.0
  0
LINE
  5
354
330
1F
100
AcDbEntity
  8
0
100
AcDbLine
 10
613.2788685402115
 20
260.057827187664
 30
0.0
 11
610.6106070121964
 21
257.8064256440468
 31
0.0
  0
LINE
  5
355
330
1F
100
AcDbEntity
  8
0
100
AcDbLine
 10
660.9425571998795
 20
254.0598043333358
 30
0.0
 11
659.937205656453
 21
255.0084048043556
 31
0.0
  0
LINE
  5
356
330
1F
100
AcDbEntity
  8
0
100
AcDbLine
 10
610.6106070121964
 20
257.8064256440468
 30
0.0
 11
607.5111058792313
 21
255.8502757083244
 31
0.0
  0
LINE
  5
357
330
1F
100
AcDbEntity
  8
0
100
AcDbLine
 10
661.9647172531327
 20
253.2358595262832
 30
0.0
 11
660.9425571998795
 21
254.0598043333358
 31
0.0
  0
LINE
  5
358
330
1F
100
AcDbEntity
  8
0
100
AcDbLine
 10
663.0123880943497
 20
252.5329344998665
 30
0.0
 11
661.9647172531327
 21
253.2358595262832
 31
0.0
  0
LINE
  5
359
330
1F
100
AcDbEntity
  8
0
100
AcDbLine
 10
607.5111058792313
 20
255.8502757083244
 30
0.0
 11
603.996875627919
 21
254.2082869540519
 31
0.0
  0
LINE
  5
35A
330
1F
100
AcDbEntity
  8
0
100
AcDbLine
 10
664.0940931877335
 20
251.947415722496
 30
0.0
 11
663.0123880943497
 21
252.5329344998665
 31
0.0
  0
LINE
  5
35B
330
1F
100
AcDbEntity
  8
0
100
AcDbLine
 10
665.218594416066
 20
251.4757120143241
 30
0.0
 11
664.0940931877335
 21
251.947415722496
 31
0.0
  0
LINE
  5
35C
330
1F
100
AcDbEntity
  8
0
100
AcDbLine
 10
603.996875627919
 20
254.2082869540519
 30
0.0
 11
600.0846055587967
 21
252.8993615042038
 31
0.0
  0
LINE
  5
35D
330
1F
100
AcDbEntity
  8
0
100
AcDbLine
 10
600.0846055587967
 20
252.8993615042038
 30
0.0
 11
599.0350273689469
 21
252.6247405539817
 31
0.0
  0
LINE
  5
35E
330
1F
100
AcDbEntity
  8
0
100
AcDbLine
 10
597.9606536468704
 20
252.4074667226143
 30
0.0
 11
596.6557291588027
 21
252.239448679573
 31
0.0
  0
LINE
  5
35F
330
1F
100
AcDbEntity
  8
0
100
AcDbLine
 10
596.6557291588027
 20
252.239448679573
 30
0.0
 11
594.9145582756241
 21
252.1125578414268
 31
0.0
  0
LINE
  5
360
330
1F
100
AcDbEntity
  8
0
100
AcDbLine
 10
594.9145582756241
 20
252.1125578414268
 30
0.0
 11
592.5312069496354
 21
252.0187252293891
 31
0.0
  0
LINE
  5
361
330
1F
100
AcDbEntity
  8
0
100
AcDbLine
 10
574.6374753555498
 20
282.4754619132347
 30
0.0
 11
535.4204801162919
 21
282.758524371273
 31
0.0
  0
LINE
  5
362
330
1F
100
AcDbEntity
  8
0
100
AcDbLine
 10
535.5953005394181
 20
267.7701317797966
 30
0.0
 11
593.6610725959977
 21
268.198368800766
 31
0.0
  0
LINE
  5
363
330
1F
100
AcDbEntity
  8
0
100
AcDbLine
 10
582.0711282333573
 20
282.4072816501923
 30
0.0
 11
574.6374753555498
 21
282.4754619132347
 31
0.0
  0
LINE
  5
364
330
1F
100
AcDbEntity
  8
0
100
AcDbLine
 10
587.5887302002152
 20
282.3110275994605
 30
0.0
 11
582.0711282333573
 21
282.4072816501923
 31
0.0
  0
LINE
  5
365
330
1F
100
AcDbEntity
  8
0
100
AcDbLine
 10
591.5094641288956
 20
282.1578511129684
 30
0.0
 11
587.5887302002152
 21
282.3110275994605
 31
0.0
  0
LINE
  5
366
330
1F
100
AcDbEntity
  8
0
100
AcDbLine
 10
593.6610725959977
 20
268.198368800766
 30
0.0
 11
595.6921604713639
 21
269.1986688505478
 31
0.0
  0
LINE
  5
367
330
1F
100
AcDbEntity
  8
0
100
AcDbLine
 10
594.1520360550126
 20
281.9189333449668
 30
0.0
 11
591.5094641288956
 21
282.1578511129684
 31
0.0
  0
LINE
  5
368
330
1F
100
AcDbEntity
  8
0
100
AcDbLine
 10
595.6921604713639
 20
269.1986688505478
 30
0.0
 11
596.4549211105546
 21
269.6136959921188
 31
0.0
  0
LINE
  5
369
330
1F
100
AcDbEntity
  8
0
100
AcDbLine
 10
596.4549211105546
 20
269.6136959921188
 30
0.0
 11
597.1394804558
 21
270.069053126461
 31
0.0
  0
LINE
  5
36A
330
1F
100
AcDbEntity
  8
0
100
AcDbLine
 10
598.2742932876786
 20
271.1015098820991
 30
0.0
 11
598.7250236114701
 21
271.6790118347473
 31
0.0
  0
LINE
  5
36B
330
1F
100
AcDbEntity
  8
0
100
AcDbLine
 10
599.3935493072709
 20
272.9575314651794
 30
0.0
 11
599.6117023071488
 21
273.6589365731544
 31
0.0
  0
LINE
  5
36C
330
1F
100
AcDbEntity
  8
0
100
AcDbLine
 10
597.7458385070998
 20
270.5649190675086
 30
0.0
 11
598.2742932876786
 21
271.1015098820991
 31
0.0
  0
LINE
  5
36D
330
1F
100
AcDbEntity
  8
0
100
AcDbLine
 10
599.6117023071488
 20
273.6589365731544
 30
0.0
 11
599.7527268966874
 21
274.4020351301498
 31
0.0
  0
LINE
  5
36E
330
1F
100
AcDbEntity
  8
0
100
AcDbLine
 10
597.1394804558
 20
270.069053126461
 30
0.0
 11
597.7458385070998
 21
270.5649190675086
 31
0.0
  0
LINE
  5
36F
330
1F
100
AcDbEntity
  8
0
100
AcDbLine
 10
598.3207849106034
 20
279.5291000138587
 30
0.0
 11
597.6010588249405
 21
280.3993576299019
 31
0.0
  0
LINE
  5
370
330
1F
100
AcDbEntity
  8
0
100
AcDbLine
 10
595.8355692466935
 20
281.5654405485458
 30
0.0
 11
594.1520360550126
 21
281.9189333449668
 31
0.0
  0
LINE
  5
371
330
1F
100
AcDbEntity
  8
0
100
AcDbLine
 10
597.6010588249405
 20
280.3993576299019
 30
0.0
 11
596.8789485534867
 21
281.0685166250533
 31
0.0
  0
LINE
  5
372
330
1F
100
AcDbEntity
  8
0
100
AcDbLine
 10
596.8789485534867
 20
281.0685166250533
 30
0.0
 11
595.8355692466935
 21
281.5654405485458
 31
0.0
  0
LINE
  5
373
330
1F
100
AcDbEntity
  8
0
100
AcDbLine
 10
598.7250236114701
 20
271.6790118347473
 30
0.0
 11
599.0979698738297
 21
272.2976260911292
 31
0.0
  0
LINE
  5
374
330
1F
100
AcDbEntity
  8
0
100
AcDbLine
 10
599.0979698738297
 20
272.2976260911292
 30
0.0
 11
599.3935493072709
 21
272.9575314651794
 31
0.0
  0
LINE
  5
375
330
1F
100
AcDbEntity
  8
0
100
AcDbLine
 10
599.7527268966874
 20
274.4020351301498
 30
0.0
 11
599.8261598190506
 21
275.1038649212188
 31
0.0
  0
LINE
  5
376
330
1F
100
AcDbEntity
  8
0
100
AcDbLine
 10
598.7380770286759
 20
278.9996766578025
 30
0.0
 11
598.3207849106034
 21
279.5291000138587
 31
0.0
  0
LINE
  5
377
330
1F
100
AcDbEntity
  8
0
100
AcDbLine
 10
599.8261598190506
 20
275.1038649212188
 30
0.0
 11
599.8477963051042
 21
275.7496737967796
 31
0.0
  0
LINE
  5
378
330
1F
100
AcDbEntity
  8
0
100
AcDbLine
 10
599.0843800148209
 20
278.4831726085014
 30
0.0
 11
598.7380770286759
 21
278.9996766578025
 31
0.0
  0
LINE
  5
379
330
1F
100
AcDbEntity
  8
0
100
AcDbLine
 10
599.8477963051042
 20
275.7496737967796
 30
0.0
 11
599.8150733551224
 21
276.3493263255424
 31
0.0
  0
LINE
  5
37A
330
1F
100
AcDbEntity
  8
0
100
AcDbLine
 10
599.3624952873429
 20
277.969723297245
 30
0.0
 11
599.0843800148209
 21
278.4831726085014
 31
0.0
  0
LINE
  5
37B
330
1F
100
AcDbEntity
  8
0
100
AcDbLine
 10
599.8150733551224
 20
276.3493263255424
 30
0.0
 11
599.7250703415116
 21
276.9126572738953
 31
0.0
  0
LINE
  5
37C
330
1F
100
AcDbEntity
  8
0
100
AcDbLine
 10
599.7250703415116
 20
276.9126572738953
 30
0.0
 11
599.5751646599015
 21
277.449501408226
 31
0.0
  0
LINE
  5
37D
330
1F
100
AcDbEntity
  8
0
100
AcDbLine
 10
599.5751646599015
 20
277.449501408226
 30
0.0
 11
599.3624952873429
 21
277.969723297245
 31
0.0
  0
LINE
  5
37E
330
1F
100
AcDbEntity
  8
0
100
AcDbLine
 10
617.2844794830522
 20
314.6850221883125
 30
0.0
 11
617.5311831077775
 21
314.7933797072238
 31
0.0
  0
LINE
  5
37F
330
1F
100
AcDbEntity
  8
0
100
AcDbLine
 10
617.5311831077775
 20
314.7933797072238
 30
0.0
 11
618.0396703323564
 21
314.8820043634242
 31
0.0
  0
LINE
  5
380
330
1F
100
AcDbEntity
  8
0
100
AcDbLine
 10
618.0396703323564
 20
314.8820043634242
 30
0.0
 11
618.8439754089555
 21
314.9525278340644
 31
0.0
  0
LINE
  5
381
330
1F
100
AcDbEntity
  8
0
100
AcDbLine
 10
618.8439754089555
 20
314.9525278340644
 30
0.0
 11
619.9783114036758
 21
315.0065780710048
 31
0.0
  0
LINE
  5
382
330
1F
100
AcDbEntity
  8
0
100
AcDbLine
 10
619.9783114036758
 20
315.0065780710048
 30
0.0
 11
621.476831777974
 21
315.0457830261058
 31
0.0
  0
LINE
  5
383
330
1F
100
AcDbEntity
  8
0
100
AcDbLine
 10
621.476831777974
 20
315.0457830261058
 30
0.0
 11
623.3737495979508
 21
315.0717706512279
 31
0.0
  0
LINE
  5
384
330
1F
100
AcDbEntity
  8
0
100
AcDbLine
 10
623.3737495979508
 20
315.0717706512279
 30
0.0
 11
625.7030395111283
 21
315.0861670355863
 31
0.0
  0
LINE
  5
385
330
1F
100
AcDbEntity
  8
0
100
AcDbLine
 10
676.4991906723221
 20
298.9343942235774
 30
0.0
 11
660.4664352974137
 21
298.7985328863925
 31
0.0
  0
LINE
  5
386
330
1F
100
AcDbEntity
  8
0
100
AcDbLine
 10
660.4664352974137
 20
298.7985328863925
 30
0.0
 11
653.7305739959916
 21
308.1904293130703
 31
0.0
  0
LINE
  5
387
330
1F
100
AcDbEntity
  8
0
100
AcDbLine
 10
653.7305739959916
 20
308.1904293130703
 30
0.0
 11
652.7741578659256
 21
309.5436521898575
 31
0.0
  0
LINE
  5
388
330
1F
100
AcDbEntity
  8
0
100
AcDbLine
 10
652.7741578659256
 20
309.5436521898575
 30
0.0
 11
651.8982676109514
 21
310.7971453200645
 31
0.0
  0
LINE
  5
389
330
1F
100
AcDbEntity
  8
0
100
AcDbLine
 10
673.0561283668717
 20
277.5821217428512
 30
0.0
 11
674.4956997474869
 21
279.687246037609
 31
0.0
  0
LINE
  5
38A
330
1F
100
AcDbEntity
  8
0
100
AcDbLine
 10
671.9417003235062
 20
275.9906479250259
 30
0.0
 11
673.0561283668717
 21
277.5821217428512
 31
0.0
  0
LINE
  5
38B
330
1F
100
AcDbEntity
  8
0
100
AcDbLine
 10
666.9849780639847
 20
277.0183586608238
 30
0.0
 11
668.1506661018572
 21
275.3872626553841
 31
0.0
  0
LINE
  5
38C
330
1F
100
AcDbEntity
  8
0
100
AcDbLine
 10
671.1025861343583
 20
274.8520278464622
 30
0.0
 11
671.9417003235062
 21
275.9906479250259
 31
0.0
  0
LINE
  5
38D
330
1F
100
AcDbEntity
  8
0
100
AcDbLine
 10
668.1506661018572
 20
275.3872626553841
 30
0.0
 11
668.9317253669938
 21
274.3023687135047
 31
0.0
  0
LINE
  5
38E
330
1F
100
AcDbEntity
  8
0
100
AcDbLine
 10
670.4885390838821
 20
274.105487121231
 30
0.0
 11
671.1025861343583
 21
274.8520278464622
 31
0.0
  0
LINE
  5
38F
330
1F
100
AcDbEntity
  8
0
100
AcDbLine
 10
668.9317253669938
 20
274.3023687135047
 30
0.0
 11
669.2850020965774
 21
273.8243171106643
 31
0.0
  0
LINE
  5
390
330
1F
100
AcDbEntity
  8
0
100
AcDbLine
 10
670.0498488983353
 20
273.6902364622421
 30
0.0
 11
670.4885390838821
 21
274.105487121231
 31
0.0
  0
LINE
  5
391
330
1F
100
AcDbEntity
  8
0
100
AcDbLine
 10
669.2850020965774
 20
273.8243171106643
 30
0.0
 11
669.4980290970049
 21
273.6104332934684
 31
0.0
  0
LINE
  5
392
330
1F
100
AcDbEntity
  8
0
100
AcDbLine
 10
669.4980290970049
 20
273.6104332934684
 30
0.0
 11
669.7363284668168
 21
273.5454791318245
 31
0.0
  0
LINE
  5
393
330
1F
100
AcDbEntity
  8
0
100
AcDbLine
 10
669.7363284668168
 20
273.5454791318245
 30
0.0
 11
670.0498488983353
 21
273.6902364622421
 31
0.0
  0
LINE
  5
394
330
1F
100
AcDbEntity
  8
0
100
AcDbLine
 10
680.9820560058793
 20
289.2404587100811
 30
0.0
 11
682.0498732170305
 21
290.8010424207515
 31
0.0
  0
LINE
  5
395
330
1F
100
AcDbEntity
  8
0
100
AcDbLine
 10
678.7951615890702
 20
298.9495636056728
 30
0.0
 11
676.4991906723221
 21
298.9343942235774
 31
0.0
  0
LINE
  5
396
330
1F
100
AcDbEntity
  8
0
100
AcDbLine
 10
682.0498732170305
 20
290.8010424207515
 30
0.0
 11
683.0268529495438
 21
292.2240101825065
 31
0.0
  0
LINE
  5
397
330
1F
100
AcDbEntity
  8
0
100
AcDbLine
 10
680.912080152913
 20
298.9605271350212
 30
0.0
 11
678.7951615890702
 21
298.9495636056728
 31
0.0
  0
LINE
  5
398
330
1F
100
AcDbEntity
  8
0
100
AcDbLine
 10
683.0268529495438
 20
292.2240101825065
 30
0.0
 11
683.8872459968766
 21
293.4721239935226
 31
0.0
  0
LINE
  5
399
330
1F
100
AcDbEntity
  8
0
100
AcDbLine
 10
683.8872459968766
 20
293.4721239935226
 30
0.0
 11
684.6057799896439
 21
294.508142126686
 31
0.0
  0
LINE
  5
39A
330
1F
100
AcDbEntity
  8
0
100
AcDbLine
 10
682.810786112233
 20
298.9672289322681
 30
0.0
 11
680.912080152913
 21
298.9605271350212
 31
0.0
  0
LINE
  5
39B
330
1F
100
AcDbEntity
  8
0
100
AcDbLine
 10
684.6057799896439
 20
294.508142126686
 30
0.0
 11
685.1568249305924
 21
295.2948228548831
 31
0.0
  0
LINE
  5
39C
330
1F
100
AcDbEntity
  8
0
100
AcDbLine
 10
685.1568249305924
 20
295.2948228548831
 30
0.0
 11
685.6052306732377
 21
295.9311620425053
 31
0.0
  0
LINE
  5
39D
330
1F
100
AcDbEntity
  8
0
100
AcDbLine
 10
684.4520596107682
 20
298.9696168433494
 30
0.0
 11
682.810786112233
 21
298.9672289322681
 31
0.0
  0
LINE
  5
39E
330
1F
100
AcDbEntity
  8
0
100
AcDbLine
 10
685.6052306732377
 20
295.9311620425053
 30
0.0
 11
686.0278276046952
 21
296.5339996944733
 31
0.0
  0
LINE
  5
39F
330
1F
100
AcDbEntity
  8
0
100
AcDbLine
 10
686.0278276046952
 20
296.5339996944733
 30
0.0
 11
686.4175823768816
 21
297.0928453933067
 31
0.0
  0
LINE
  5
3A0
330
1F
100
AcDbEntity
  8
0
100
AcDbLine
 10
685.796740396901
 20
298.9676275383301
 30
0.0
 11
684.4520596107682
 21
298.9696168433494
 31
0.0
  0
LINE
  5
3A1
330
1F
100
AcDbEntity
  8
0
100
AcDbLine
 10
686.4175823768816
 20
297.0928453933067
 30
0.0
 11
686.7671040138443
 21
297.5972049962348
 31
0.0
  0
LINE
  5
3A2
330
1F
100
AcDbEntity
  8
0
100
AcDbLine
 10
686.7671040138443
 20
297.5972049962348
 30
0.0
 11
687.0692399582107
 21
298.0366067122288
 31
0.0
  0
LINE
  5
3A3
330
1F
100
AcDbEntity
  8
0
100
AcDbLine
 10
686.8057874283036
 20
298.9612125884361
 30
0.0
 11
685.796740396901
 21
298.9676275383301
 31
0.0
  0
LINE
  5
3A4
330
1F
100
AcDbEntity
  8
0
100
AcDbLine
 10
687.0692399582107
 20
298.0366067122288
 30
0.0
 11
687.3168376526078
 21
298.4005601238079
 31
0.0
  0
LINE
  5
3A5
330
1F
100
AcDbEntity
  8
0
100
AcDbLine
 10
687.4398616394242
 20
298.9503123890228
 30
0.0
 11
686.8057874283036
 21
298.9612125884361
 31
0.0
  0
LINE
  5
3A6
330
1F
100
AcDbEntity
  8
0
100
AcDbLine
 10
687.3168376526078
 20
298.4005601238079
 30
0.0
 11
687.5025657257278
 21
298.6785748134918
 31
0.0
  0
LINE
  5
3A7
330
1F
100
AcDbEntity
  8
0
100
AcDbLine
 10
687.5025657257278
 20
298.6785748134918
 30
0.0
 11
687.6193908294877
 21
298.8601715396709
 31
0.0
  0
LINE
  5
3A8
330
1F
100
AcDbEntity
  8
0
100
AcDbLine
 10
687.6193908294877
 20
298.8601715396709
 30
0.0
 11
687.6598623832901
 21
298.9348598848647
 31
0.0
  0
LINE
  5
3A9
330
1F
100
AcDbEntity
  8
0
100
AcDbLine
 10
687.6598623832901
 20
298.9348598848647
 30
0.0
 11
687.4398616394242
 21
298.9503123890228
 31
0.0
  0
LINE
  5
3AA
330
1F
100
AcDbEntity
  8
0
100
AcDbLine
 10
651.8982676109514
 20
310.7971453200645
 30
0.0
 11
651.1185196479996
 21
311.9274468253917
 31
0.0
  0
LINE
  5
3AB
330
1F
100
AcDbEntity
  8
0
100
AcDbLine
 10
651.1185196479996
 20
311.9274468253917
 30
0.0
 11
650.4511264404496
 21
312.9110724757976
 31
0.0
  0
LINE
  5
3AC
330
1F
100
AcDbEntity
  8
0
100
AcDbLine
 10
650.4511264404496
 20
312.9110724757976
 30
0.0
 11
649.9118832191666
 21
313.7245566676921
 31
0.0
  0
LINE
  5
3AD
330
1F
100
AcDbEntity
  8
0
100
AcDbLine
 10
649.9118832191666
 20
313.7245566676921
 30
0.0
 11
649.5167044243059
 21
314.3444226216144
 31
0.0
  0
LINE
  5
3AE
330
1F
100
AcDbEntity
  8
0
100
AcDbLine
 10
649.5167044243059
 20
314.3444226216144
 30
0.0
 11
649.2815641006669
 21
314.747199146039
 31
0.0
  0
LINE
  5
3AF
330
1F
100
AcDbEntity
  8
0
100
AcDbLine
 10
649.2815641006669
 20
314.747199146039
 30
0.0
 11
649.2223766884049
 21
314.9094131867952
 31
0.0
  0
LINE
  5
3B0
330
1F
100
AcDbEntity
  8
0
100
AcDbLine
 10
649.2223766884049
 20
314.9094131867952
 30
0.0
 11
649.8461989006241
 21
314.940975708849
 31
0.0
  0
LINE
  5
3B1
330
1F
100
AcDbEntity
  8
0
100
AcDbLine
 10
649.8461989006241
 20
314.940975708849
 30
0.0
 11
651.5790847381791
 21
314.9672855715818
 31
0.0
  0
LINE
  5
3B2
330
1F
100
AcDbEntity
  8
0
100
AcDbLine
 10
651.5790847381791
 20
314.9672855715818
 30
0.0
 11
654.3154147705277
 21
314.9881267081565
 31
0.0
  0
LINE
  5
3B3
330
1F
100
AcDbEntity
  8
0
100
AcDbLine
 10
654.3154147705277
 20
314.9881267081565
 30
0.0
 11
657.9495099624834
 21
315.0032756011552
 31
0.0
  0
LINE
  5
3B4
330
1F
100
AcDbEntity
  8
0
100
AcDbLine
 10
657.9495099624834
 20
315.0032756011552
 30
0.0
 11
662.3757508835038
 21
315.0125180463858
 31
0.0
  0
LINE
  5
3B5
330
1F
100
AcDbEntity
  8
0
100
AcDbLine
 10
725.6936458191117
 20
289.4926906656094
 30
0.0
 11
726.3329652389725
 21
291.9523731898136
 31
0.0
  0
LINE
  5
3B6
330
1F
100
AcDbEntity
  8
0
100
AcDbLine
 10
726.3329652389725
 20
291.9523731898136
 30
0.0
 11
727.1833447059829
 21
294.3148368130989
 31
0.0
  0
LINE
  5
3B7
330
1F
100
AcDbEntity
  8
0
100
AcDbLine
 10
722.3715809425553
 20
314.8764946590729
 30
0.0
 11
698.8050964912613
 21
280.7585501204796
 31
0.0
  0
LINE
  5
3B8
330
1F
100
AcDbEntity
  8
0
100
AcDbLine
 10
727.1833447059829
 20
294.3148368130989
 30
0.0
 11
728.2475260338028
 21
296.5861612092323
 31
0.0
  0
LINE
  5
3B9
330
1F
100
AcDbEntity
  8
0
100
AcDbLine
 10
728.2475260338028
 20
296.5861612092323
 30
0.0
 11
729.5284894546708
 21
298.77241487611
 31
0.0
  0
LINE
  5
3BA
330
1F
100
AcDbEntity
  8
0
100
AcDbLine
 10
726.9995239814957
 20
271.8677648435897
 30
0.0
 11
726.4422801574906
 21
273.2999526988335
 31
0.0
  0
LINE
  5
3BB
330
1F
100
AcDbEntity
  8
0
100
AcDbLine
 10
726.4422801574906
 20
273.2999526988335
 30
0.0
 11
725.9802249511918
 21
274.733861638195
 31
0.0
  0
LINE
  5
3BC
330
1F
100
AcDbEntity
  8
0
100
AcDbLine
 10
698.8050964912613
 20
280.7585501204796
 30
0.0
 11
695.3415897926529
 21
275.7816516887016
 31
0.0
  0
LINE
  5
3BD
330
1F
100
AcDbEntity
  8
0
100
AcDbLine
 10
725.9802249511918
 20
274.733861638195
 30
0.0
 11
725.6102589210709
 21
276.1852645407981
 31
0.0
  0
LINE
  5
3BE
330
1F
100
AcDbEntity
  8
0
100
AcDbLine
 10
725.6102589210709
 20
276.1852645407981
 30
0.0
 11
725.3292826255998
 21
277.6699640880889
 31
0.0
  0
LINE
  5
3BF
330
1F
100
AcDbEntity
  8
0
100
AcDbLine
 10
727.6546982368668
 20
270.4215251933403
 30
0.0
 11
726.9995239814957
 21
271.8677648435897
 31
0.0
  0
LINE
  5
3C0
330
1F
100
AcDbEntity
  8
0
100
AcDbLine
 10
695.3415897926529
 20
275.7816516887016
 30
0.0
 11
692.0856264671525
 21
271.1287864576644
 31
0.0
  0
LINE
  5
3C1
330
1F
100
AcDbEntity
  8
0
100
AcDbLine
 10
729.1440991005143
 20
267.7207120786971
 30
0.0
 11
727.6546982368668
 21
270.4215251933403
 31
0.0
  0
LINE
  5
3C2
330
1F
100
AcDbEntity
  8
0
100
AcDbLine
 10
692.0856264671525
 20
271.1287864576644
 30
0.0
 11
689.1006258568009
 21
266.8891602288551
 31
0.0
  0
LINE
  5
3C3
330
1F
100
AcDbEntity
  8
0
100
AcDbLine
 10
730.9095290741166
 20
265.202229572422
 30
0.0
 11
729.1440991005143
 21
267.7207120786971
 31
0.0
  0
LINE
  5
3C4
330
1F
100
AcDbEntity
  8
0
100
AcDbLine
 10
689.1006258568009
 20
266.8891602288551
 30
0.0
 11
686.4498284897049
 21
263.1519341002769
 31
0.0
  0
LINE
  5
3C5
330
1F
100
AcDbEntity
  8
0
100
AcDbLine
 10
732.9442528328141
 20
262.8712334762878
 30
0.0
 11
730.9095290741166
 21
265.202229572422
 31
0.0
  0
LINE
  5
3C6
330
1F
100
AcDbEntity
  8
0
100
AcDbLine
 10
686.4498284897049
 20
263.1519341002769
 30
0.0
 11
684.1964748939713
 21
260.0063138734169
 31
0.0
  0
LINE
  5
3C7
330
1F
100
AcDbEntity
  8
0
100
AcDbLine
 10
684.1964748939713
 20
260.0063138734169
 30
0.0
 11
682.4037459930619
 21
257.5414606462783
 31
0.0
  0
LINE
  5
3C8
330
1F
100
AcDbEntity
  8
0
100
AcDbLine
 10
735.2414158424576
 20
260.7328572403259
 30
0.0
 11
732.9442528328141
 21
262.8712334762878
 31
0.0
  0
LINE
  5
3C9
330
1F
100
AcDbEntity
  8
0
100
AcDbLine
 10
682.4037459930619
 20
257.5414606462783
 30
0.0
 11
681.1350611290177
 21
255.8465727697677
 31
0.0
  0
LINE
  5
3CA
330
1F
100
AcDbEntity
  8
0
100
AcDbLine
 10
681.1350611290177
 20
255.8465727697677
 30
0.0
 11
680.4534820160111
 21
255.0108411442108
 31
0.0
  0
LINE
  5
3CB
330
1F
100
AcDbEntity
  8
0
100
AcDbLine
 10
737.7942827781876
 20
258.7922641168899
 30
0.0
 11
735.2414158424576
 21
260.7328572403259
 31
0.0
  0
LINE
  5
3CC
330
1F
100
AcDbEntity
  8
0
100
AcDbLine
 10
680.4534820160111
 20
255.0108411442108
 30
0.0
 11
679.4413355430802
 21
254.0371098648376
 31
0.0
  0
LINE
  5
3CD
330
1F
100
AcDbEntity
  8
0
100
AcDbLine
 10
740.5961183151444
 20
257.0546173583335
 30
0.0
 11
737.7942827781876
 21
258.7922641168899
 31
0.0
  0
LINE
  5
3CE
330
1F
100
AcDbEntity
  8
0
100
AcDbLine
 10
679.4413355430802
 20
254.0371098648376
 30
0.0
 11
678.4288910469254
 21
253.1980180274315
 31
0.0
  0
LINE
  5
3CF
330
1F
100
AcDbEntity
  8
0
100
AcDbLine
 10
678.4288910469254
 20
253.1980180274315
 30
0.0
 11
677.4041679939469
 21
252.4883129726715
 31
0.0
  0
LINE
  5
3D0
330
1F
100
AcDbEntity
  8
0
100
AcDbLine
 10
743.6400679191787
 20
255.5250280629463
 30
0.0
 11
740.5961183151444
 21
257.0546173583335
 31
0.0
  0
LINE
  5
3D1
330
1F
100
AcDbEntity
  8
0
100
AcDbLine
 10
677.4041679939469
 20
252.4883129726715
 30
0.0
 11
676.3550666412552
 21
251.9027718435592
 31
0.0
  0
LINE
  5
3D2
330
1F
100
AcDbEntity
  8
0
100
AcDbLine
 10
746.919455870076
 20
254.208674384243
 30
0.0
 11
743.6400679191787
 21
255.5250280629463
 31
0.0
  0
LINE
  5
3D3
330
1F
100
AcDbEntity
  8
0
100
AcDbLine
 10
671.6701415619095
 20
250.6977223883934
 30
0.0
 11
670.3159836372574
 21
250.6545835267372
 31
0.0
  0
LINE
  5
3D4
330
1F
100
AcDbEntity
  8
0
100
AcDbLine
 10
666.3943556389054
 20
251.1141874920196
 30
0.0
 11
665.218594416066
 21
251.4757120143241
 31
0.0
  0
LINE
  5
3D5
330
1F
100
AcDbEntity
  8
0
100
AcDbLine
 10
918.6822203239641
 20
55.31370426524352
 30
0.0
 11
918.6822203239641
 21
345.6724564674861
 31
0.0
  0
LINE
  5
3D6
330
1F
100
AcDbEntity
  8
0
100
AcDbLine
 10
827.2388604721268
 20
221.734365178234
 30
0.0
 11
895.6963447174271
 21
221.734365178234
 31
0.0
  0
LINE
  5
3D7
330
1F
100
AcDbEntity
  8
0
100
AcDbLine
 10
895.4300311645707
 20
251.7111503611869
 30
0.0
 11
821.6987279495438
 21
251.7111503611869
 31
0.0
  0
LINE
  5
3D8
330
1F
100
AcDbEntity
  8
0
100
AcDbLine
 10
807.2379854759416
 20
252.2711210976906
 30
0.0
 11
807.1172264656266
 21
252.0741649996109
 31
0.0
  0
LINE
  5
3D9
330
1F
100
AcDbEntity
  8
0
100
AcDbLine
 10
918.6822203239641
 20
345.6724564674861
 30
0.0
 11
22.59397760315139
 21
345.6724564674861
 31
0.0
  0
LINE
  5
3DA
330
1F
100
AcDbEntity
  8
0
100
AcDbLine
 10
841.3977650245866
 20
290.2527132164306
 30
0.0
 11
880.7487515052993
 21
290.2527132164306
 31
0.0
  0
LINE
  5
3DB
330
1F
100
AcDbEntity
  8
0
100
AcDbLine
 10
841.3977650245866
 20
298.811169071085
 30
0.0
 11
841.3977650245866
 21
290.2527132164306
 31
0.0
  0
LINE
  5
3DC
330
1F
100
AcDbEntity
  8
0
100
AcDbLine
 10
895.7655457100113
 20
299.0316280256576
 30
0.0
 11
841.3977650245866
 21
298.811169071085
 31
0.0
  0
LINE
  5
3DD
330
1F
100
AcDbEntity
  8
0
100
AcDbLine
 10
880.7487515052993
 20
290.2527132164306
 30
0.0
 11
892.0437124809464
 21
275.9066873322792
 31
0.0
  0
LINE
  5
3DE
330
1F
100
AcDbEntity
  8
0
100
AcDbLine
 10
892.0437124809464
 20
275.9066873322792
 30
0.0
 11
841.364505632802
 21
275.6857627164192
 31
0.0
  0
LINE
  5
3DF
330
1F
100
AcDbEntity
  8
0
100
AcDbLine
 10
841.364505632802
 20
275.6857627164192
 30
0.0
 11
841.6118649086197
 21
268.198368800766
 31
0.0
  0
LINE
  5
3E0
330
1F
100
AcDbEntity
  8
0
100
AcDbLine
 10
841.6118649086197
 20
268.198368800766
 30
0.0
 11
883.1511167129714
 21
267.9314815532035
 31
0.0
  0
LINE
  5
3E1
330
1F
100
AcDbEntity
  8
0
100
AcDbLine
 10
892.928543432637
 20
255.0662213097877
 30
0.0
 11
893.4831646522721
 21
254.3305882345504
 31
0.0
  0
LINE
  5
3E2
330
1F
100
AcDbEntity
  8
0
100
AcDbLine
 10
893.4831646522721
 20
254.3305882345504
 30
0.0
 11
893.9179805359087
 21
253.7516781221695
 31
0.0
  0
LINE
  5
3E3
330
1F
100
AcDbEntity
  8
0
100
AcDbLine
 10
893.9179805359087
 20
253.7516781221695
 30
0.0
 11
895.4300311645707
 21
251.7111503611869
 31
0.0
  0
LINE
  5
3E4
330
1F
100
AcDbEntity
  8
0
100
AcDbLine
 10
821.6987279495438
 20
251.7111503611869
 30
0.0
 11
821.6987279495438
 21
315.0906131695575
 31
0.0
  0
LINE
  5
3E5
330
1F
100
AcDbEntity
  8
0
100
AcDbLine
 10
821.6987279495438
 20
315.0906131695575
 30
0.0
 11
883.3342221817215
 21
315.0906131695575
 31
0.0
  0
LINE
  5
3E6
330
1F
100
AcDbEntity
  8
0
100
AcDbLine
 10
883.3342221817215
 20
315.0906131695575
 30
0.0
 11
895.7655457100113
 21
299.0316280256576
 31
0.0
  0
LINE
  5
3E7
330
1F
100
AcDbEntity
  8
0
100
AcDbLine
 10
857.2425273498734
 20
150.4304685722656
 30
0.0
 11
857.530298574849
 21
149.8339601885147
 31
0.0
  0
LINE
  5
3E8
330
1F
100
AcDbEntity
  8
0
100
AcDbLine
 10
857.5538424095353
 20
151.0933616291351
 30
0.0
 11
857.2425273498734
 21
150.4304685722656
 31
0.0
  0
LINE
  5
3E9
330
1F
100
AcDbEntity
  8
0
100
AcDbLine
 10
857.530298574849
 20
149.8339601885147
 30
0.0
 11
858.3592799743851
 21
148.2894101272888
 31
0.0
  0
LINE
  5
3EA
330
1F
100
AcDbEntity
  8
0
100
AcDbLine
 10
858.4504750808915
 20
152.829168094284
 30
0.0
 11
857.5538424095353
 21
151.0933616291351
 31
0.0
  0
LINE
  5
3EB
330
1F
100
AcDbEntity
  8
0
100
AcDbLine
 10
858.3592799743851
 20
148.2894101272888
 30
0.0
 11
859.6782115539751
 21
145.8884456287689
 31
0.0
  0
LINE
  5
3EC
330
1F
100
AcDbEntity
  8
0
100
AcDbLine
 10
859.8774102768143
 20
155.5344292055435
 30
0.0
 11
858.4504750808915
 21
152.829168094284
 31
0.0
  0
LINE
  5
3ED
330
1F
100
AcDbEntity
  8
0
100
AcDbLine
 10
859.6782115539751
 20
145.8884456287689
 30
0.0
 11
861.4360717376908
 21
142.7226790319748
 31
0.0
  0
LINE
  5
3EE
330
1F
100
AcDbEntity
  8
0
100
AcDbLine
 10
861.7789772590835
 20
159.1057458053894
 30
0.0
 11
859.8774102768143
 21
155.5344292055435
 31
0.0
  0
LINE
  5
3EF
330
1F
100
AcDbEntity
  8
0
100
AcDbLine
 10
861.4360717376908
 20
142.7226790319748
 30
0.0
 11
863.5816601356705
 21
138.883707774765
 31
0.0
  0
LINE
  5
3F0
330
1F
100
AcDbEntity
  8
0
100
AcDbLine
 10
864.0999225219925
 20
163.4396889339752
 30
0.0
 11
861.7789772590835
 21
159.1057458053894
 31
0.0
  0
LINE
  5
3F1
330
1F
100
AcDbEntity
  8
0
100
AcDbLine
 10
863.5816601356705
 20
138.883707774765
 30
0.0
 11
866.0635975441179
 21
134.4631739984817
 31
0.0
  0
LINE
  5
3F2
330
1F
100
AcDbEntity
  8
0
100
AcDbLine
 10
873.02500282137
 20
179.983047498352
 30
0.0
 11
869.7783378204545
 21
173.9817538391418
 31
0.0
  0
LINE
  5
3F3
330
1F
100
AcDbEntity
  8
0
100
AcDbLine
 10
895.6963447174271
 20
221.734365178234
 30
0.0
 11
873.02500282137
 21
179.983047498352
 31
0.0
  0
LINE
  5
3F4
330
1F
100
AcDbEntity
  8
0
100
AcDbLine
 10
888.6886862358292
 20
94.47273398745722
 30
0.0
 11
890.4825476249894
 21
91.28308082926938
 31
0.0
  0
LINE
  5
3F5
330
1F
100
AcDbEntity
  8
0
100
AcDbLine
 10
890.4825476249894
 20
91.28308082926938
 30
0.0
 11
891.8417719444474
 21
88.85553265917966
 31
0.0
  0
LINE
  5
3F6
330
1F
100
AcDbEntity
  8
0
100
AcDbLine
 10
886.2135437568865
 20
86.0627868305511
 30
0.0
 11
881.9479969581804
 21
86.02171923030086
 31
0.0
  0
LINE
  5
3F7
330
1F
100
AcDbEntity
  8
0
100
AcDbLine
 10
881.9479969581804
 20
86.02171923030086
 30
0.0
 11
876.263323172017
 21
85.99725152362058
 31
0.0
  0
LINE
  5
3F8
330
1F
100
AcDbEntity
  8
0
100
AcDbLine
 10
826.4130381187639
 20
85.98240996707149
 30
0.0
 11
816.9880536636553
 21
104.8175075184173
 31
0.0
  0
LINE
  5
3F9
330
1F
100
AcDbEntity
  8
0
100
AcDbLine
 10
816.9880536636553
 20
104.8175075184173
 30
0.0
 11
816.9880536636553
 21
201.053706658966
 31
0.0
  0
LINE
  5
3FA
330
1F
100
AcDbEntity
  8
0
100
AcDbLine
 10
799.0019944748125
 20
221.734365178234
 30
0.0
 11
799.0019944748125
 21
85.98240996707149
 31
0.0
  0
LINE
  5
3FB
330
1F
100
AcDbEntity
  8
0
100
AcDbLine
 10
816.9880536636553
 20
201.053706658966
 30
0.0
 11
827.2388604721268
 21
221.734365178234
 31
0.0
  0
LINE
  5
3FC
330
1F
100
AcDbEntity
  8
0
100
AcDbLine
 10
807.1172264656266
 20
252.0741649996109
 30
0.0
 11
806.5238026222428
 21
251.9286998640365
 31
0.0
  0
LINE
  5
3FD
330
1F
100
AcDbEntity
  8
0
100
AcDbLine
 10
740.7614019951066
 20
221.734365178234
 30
0.0
 11
799.0019944748125
 21
221.734365178234
 31
0.0
  0
LINE
  5
3FE
330
1F
100
AcDbEntity
  8
0
100
AcDbLine
 10
799.0019944748125
 20
85.98240996707149
 30
0.0
 11
740.7614019951066
 21
85.98240996707149
 31
0.0
  0
LINE
  5
3FF
330
1F
100
AcDbEntity
  8
0
100
AcDbLine
 10
803.0729917129715
 20
251.7688551079101
 30
0.0
 11
799.7922924598893
 21
251.7428004275627
 31
0.0
  0
LINE
  5
400
330
1F
100
AcDbEntity
  8
0
100
AcDbLine
 10
799.7922924598893
 20
251.7428004275627
 30
0.0
 11
795.1924828132829
 21
251.7448567878074
 31
0.0
  0
LINE
  5
401
330
1F
100
AcDbEntity
  8
0
100
AcDbLine
 10
725.3292826255998
 20
277.6699640880889
 30
0.0
 11
725.134435041829
 21
279.2037331591911
 31
0.0
  0
LINE
  5
402
330
1F
100
AcDbEntity
  8
0
100
AcDbLine
 10
725.134435041829
 20
279.2037331591911
 30
0.0
 11
725.0227359375199
 21
280.80236698497
 31
0.0
  0
LINE
  5
403
330
1F
100
AcDbEntity
  8
0
100
AcDbLine
 10
725.0227359375199
 20
280.80236698497
 30
0.0
 11
724.9912050804337
 21
282.4816458951302
 31
0.0
  0
LINE
  5
404
330
1F
100
AcDbEntity
  8
0
100
AcDbLine
 10
724.9912050804337
 20
282.4816458951302
 30
0.0
 11
725.0367430290421
 21
284.2573613952464
 31
0.0
  0
LINE
  5
405
330
1F
100
AcDbEntity
  8
0
100
AcDbLine
 10
725.0367430290421
 20
284.2573613952464
 30
0.0
 11
725.262585028096
 21
286.929709566719
 31
0.0
  0
LINE
  5
406
330
1F
100
AcDbEntity
  8
0
100
AcDbLine
 10
725.262585028096
 20
286.929709566719
 30
0.0
 11
725.6936458191117
 21
289.4926906656094
 31
0.0
  0
LINE
  5
407
330
1F
100
AcDbEntity
  8
0
100
AcDbLine
 10
729.5284894546708
 20
298.77241487611
 30
0.0
 11
731.0290363868912
 21
300.8796812127895
 31
0.0
  0
LINE
  5
408
330
1F
100
AcDbEntity
  8
0
100
AcDbLine
 10
731.0290363868912
 20
300.8796812127895
 30
0.0
 11
732.7520874580582
 21
302.9140361677474
 31
0.0
  0
LINE
  5
409
330
1F
100
AcDbEntity
  8
0
100
AcDbLine
 10
732.7520874580582
 20
302.9140361677474
 30
0.0
 11
734.7003248771866
 21
304.8815594147511
 31
0.0
  0
LINE
  5
40A
330
1F
100
AcDbEntity
  8
0
100
AcDbLine
 10
734.7003248771866
 20
304.8815594147511
 30
0.0
 11
736.4044812759597
 21
306.3823261390991
 31
0.0
  0
LINE
  5
40B
330
1F
100
AcDbEntity
  8
0
100
AcDbLine
 10
736.4044812759597
 20
306.3823261390991
 30
0.0
 11
738.1916669449051
 21
307.7601247559853
 31
0.0
  0
LINE
  5
40C
330
1F
100
AcDbEntity
  8
0
100
AcDbLine
 10
740.0688556274613
 20
309.0183750819035
 30
0.0
 11
742.043021067067
 21
310.160500658638
 31
0.0
  0
LINE
  5
40D
330
1F
100
AcDbEntity
  8
0
100
AcDbLine
 10
751.0464218696793
 20
313.6362486611671
 30
0.0
 11
753.6085871299942
 21
314.2491147946186
 31
0.0
  0
LINE
  5
40E
330
1F
100
AcDbEntity
  8
0
100
AcDbLine
 10
753.6085871299942
 20
314.2491147946186
 30
0.0
 11
754.6783116897782
 21
314.4569599162407
 31
0.0
  0
LINE
  5
40F
330
1F
100
AcDbEntity
  8
0
100
AcDbLine
 10
754.6783116897782
 20
314.4569599162407
 30
0.0
 11
755.8332708915908
 21
314.6254603843756
 31
0.0
  0
LINE
  5
410
330
1F
100
AcDbEntity
  8
0
100
AcDbLine
 10
755.8332708915908
 20
314.6254603843756
 30
0.0
 11
757.192733629628
 21
314.7588499914474
 31
0.0
  0
LINE
  5
411
330
1F
100
AcDbEntity
  8
0
100
AcDbLine
 10
757.192733629628
 20
314.7588499914474
 30
0.0
 11
758.8758495887955
 21
314.861394194848
 31
0.0
  0
LINE
  5
412
330
1F
100
AcDbEntity
  8
0
100
AcDbLine
 10
771.2288526138504
 20
315.0482733826703
 30
0.0
 11
795.3880456527909
 21
315.0906113069124
 31
0.0
  0
LINE
  5
413
330
1F
100
AcDbEntity
  8
0
100
AcDbLine
 10
795.3880456527909
 20
315.0906113069124
 30
0.0
 11
807.5667646965226
 21
299.0640790294476
 31
0.0
  0
LINE
  5
414
330
1F
100
AcDbEntity
  8
0
100
AcDbLine
 10
807.5667646965226
 20
299.0640790294476
 30
0.0
 11
807.1765926918229
 21
299.0199082623786
 31
0.0
  0
LINE
  5
415
330
1F
100
AcDbEntity
  8
0
100
AcDbLine
 10
804.2633560737809
 20
298.9398853014774
 30
0.0
 11
801.8793490966996
 21
298.905456168539
 31
0.0
  0
LINE
  5
416
330
1F
100
AcDbEntity
  8
0
100
AcDbLine
 10
801.8793490966996
 20
298.905456168539
 30
0.0
 11
798.969450338765
 21
298.8756948243446
 31
0.0
  0
LINE
  5
417
330
1F
100
AcDbEntity
  8
0
100
AcDbLine
 10
798.969450338765
 20
298.8756948243446
 30
0.0
 11
795.6032780250748
 21
298.8513090740508
 31
0.0
  0
LINE
  5
418
330
1F
100
AcDbEntity
  8
0
100
AcDbLine
 10
795.6032780250748
 20
298.8513090740508
 30
0.0
 11
791.8502119621476
 21
298.8330141733951
 31
0.0
  0
LINE
  5
419
330
1F
100
AcDbEntity
  8
0
100
AcDbLine
 10
791.8502119621476
 20
298.8330141733951
 30
0.0
 11
787.7796915611466
 21
298.8215142022437
 31
0.0
  0
LINE
  5
41A
330
1F
100
AcDbEntity
  8
0
100
AcDbLine
 10
774.1374400696
 20
267.9981195460625
 30
0.0
 11
795.3619388183793
 21
267.9821156989403
 31
0.0
  0
LINE
  5
41B
330
1F
100
AcDbEntity
  8
0
100
AcDbLine
 10
775.7621434768876
 20
298.8124505709476
 30
0.0
 11
769.6724561294754
 21
298.7863251100845
 31
0.0
  0
LINE
  5
41C
330
1F
100
AcDbEntity
  8
0
100
AcDbLine
 10
770.631077631398
 20
268.0172526370353
 30
0.0
 11
774.1374400696
 21
267.9981195460625
 31
0.0
  0
LINE
  5
41D
330
1F
100
AcDbEntity
  8
0
100
AcDbLine
 10
767.6615146240433
 20
268.0496701132125
 30
0.0
 11
770.631077631398
 21
268.0172526370353
 31
0.0
  0
LINE
  5
41E
330
1F
100
AcDbEntity
  8
0
100
AcDbLine
 10
769.6724561294754
 20
298.7863251100845
 30
0.0
 11
764.9608877739151
 21
298.7227679323024
 31
0.0
  0
LINE
  5
41F
330
1F
100
AcDbEntity
  8
0
100
AcDbLine
 10
765.1765373787125
 20
268.096981300003
 30
0.0
 11
767.6615146240433
 21
268.0496701132125
 31
0.0
  0
LINE
  5
420
330
1F
100
AcDbEntity
  8
0
100
AcDbLine
 10
763.1243494590958
 20
268.1607880722351
 30
0.0
 11
765.1765373787125
 21
268.096981300003
 31
0.0
  0
LINE
  5
421
330
1F
100
AcDbEntity
  8
0
100
AcDbLine
 10
764.9608877739151
 20
298.7227679323024
 30
0.0
 11
761.3961127838334
 21
298.6054138373203
 31
0.0
  0
LINE
  5
422
330
1F
100
AcDbEntity
  8
0
100
AcDbLine
 10
761.4529756149492
 20
268.2427370082206
 30
0.0
 11
763.1243494590958
 21
268.1607880722351
 31
0.0
  0
LINE
  5
423
330
1F
100
AcDbEntity
  8
0
100
AcDbLine
 10
760.1103809913834
 20
268.3444225322074
 30
0.0
 11
761.4529756149492
 21
268.2427370082206
 31
0.0
  0
LINE
  5
424
330
1F
100
AcDbEntity
  8
0
100
AcDbLine
 10
754.3868449768266
 20
269.8259928356476
 30
0.0
 11
756.2469271263321
 21
269.1306152473754
 31
0.0
  0
LINE
  5
425
330
1F
100
AcDbEntity
  8
0
100
AcDbLine
 10
756.2469271263321
 20
269.1306152473754
 30
0.0
 11
758.2036880096636
 21
268.6134704481429
 31
0.0
  0
LINE
  5
426
330
1F
100
AcDbEntity
  8
0
100
AcDbLine
 10
761.3961127838334
 20
298.6054138373203
 30
0.0
 11
758.746745928212
 21
298.4178864489861
 31
0.0
  0
LINE
  5
427
330
1F
100
AcDbEntity
  8
0
100
AcDbLine
 10
758.2036880096636
 20
268.6134704481429
 30
0.0
 11
759.0445903381545
 21
268.4674614201851
 31
0.0
  0
LINE
  5
428
330
1F
100
AcDbEntity
  8
0
100
AcDbLine
 10
759.0445903381545
 20
268.4674614201851
 30
0.0
 11
760.1103809913834
 21
268.3444225322074
 31
0.0
  0
LINE
  5
429
330
1F
100
AcDbEntity
  8
0
100
AcDbLine
 10
752.6399520477495
 20
270.6867658625907
 30
0.0
 11
754.3868449768266
 21
269.8259928356476
 31
0.0
  0
LINE
  5
42A
330
1F
100
AcDbEntity
  8
0
100
AcDbLine
 10
758.746745928212
 20
298.4178864489861
 30
0.0
 11
756.7815211853226
 21
298.1438168417282
 31
0.0
  0
LINE
  5
42B
330
1F
100
AcDbEntity
  8
0
100
AcDbLine
 10
753.9785531601151
 20
297.2705603669948
 30
0.0
 11
752.67827783434
 21
296.6386319230862
 31
0.0
  0
LINE
  5
42C
330
1F
100
AcDbEntity
  8
0
100
AcDbLine
 10
756.7815211853226
 20
298.1438168417282
 30
0.0
 11
755.2692917427262
 21
297.766832364685
 31
0.0
  0
LINE
  5
42D
330
1F
100
AcDbEntity
  8
0
100
AcDbLine
 10
755.2692917427262
 20
297.766832364685
 30
0.0
 11
753.9785531601151
 21
297.2705603669948
 31
0.0
  0
LINE
  5
42E
330
1F
100
AcDbEntity
  8
0
100
AcDbLine
 10
751.817705973073
 20
296.1473704408473
 30
0.0
 11
750.938537462636
 21
295.5482618044682
 31
0.0
  0
LINE
  5
42F
330
1F
100
AcDbEntity
  8
0
100
AcDbLine
 10
752.67827783434
 20
296.6386319230862
 30
0.0
 11
751.817705973073
 21
296.1473704408473
 31
0.0
  0
LINE
  5
430
330
1F
100
AcDbEntity
  8
0
100
AcDbLine
 10
751.0225800117692
 20
271.7000373731918
 30
0.0
 11
752.6399520477495
 21
270.6867658625907
 31
0.0
  0
LINE
  5
431
330
1F
100
AcDbEntity
  8
0
100
AcDbLine
 10
750.938537462636
 20
295.5482618044682
 30
0.0
 11
750.0602034172257
 21
294.8606253694363
 31
0.0
  0
LINE
  5
432
330
1F
100
AcDbEntity
  8
0
100
AcDbLine
 10
750.0602034172257
 20
294.8606253694363
 30
0.0
 11
749.202432974263
 21
294.1037730406589
 31
0.0
  0
LINE
  5
433
330
1F
100
AcDbEntity
  8
0
100
AcDbLine
 10
749.5511797508439
 20
272.8529700170822
 30
0.0
 11
751.0225800117692
 21
271.7000373731918
 31
0.0
  0
LINE
  5
434
330
1F
100
AcDbEntity
  8
0
100
AcDbLine
 10
748.2421425422867
 20
274.1326817404099
 30
0.0
 11
749.5511797508439
 21
272.8529700170822
 31
0.0
  0
LINE
  5
435
330
1F
100
AcDbEntity
  8
0
100
AcDbLine
 10
744.6360019287308
 20
283.7112450133628
 30
0.0
 11
744.6838048538407
 21
282.3498972784347
 31
0.0
  0
LINE
  5
436
330
1F
100
AcDbEntity
  8
0
100
AcDbLine
 10
747.1119192680558
 20
275.526320291645
 30
0.0
 11
748.2421425422867
 21
274.1326817404099
 31
0.0
  0
LINE
  5
437
330
1F
100
AcDbEntity
  8
0
100
AcDbLine
 10
744.6838048538407
 20
282.3498972784347
 30
0.0
 11
744.8352006515702
 21
281.0240664612122
 31
0.0
  0
LINE
  5
438
330
1F
100
AcDbEntity
  8
0
100
AcDbLine
 10
746.1769012054642
 20
277.0210185180969
 30
0.0
 11
747.1119192680558
 21
275.526320291645
 31
0.0
  0
LINE
  5
439
330
1F
100
AcDbEntity
  8
0
100
AcDbLine
 10
744.8352006515702
 20
281.0240664612122
 30
0.0
 11
745.0913814148148
 21
279.764992846138
 31
0.0
  0
LINE
  5
43A
330
1F
100
AcDbEntity
  8
0
100
AcDbLine
 10
745.0913814148148
 20
279.764992846138
 30
0.0
 11
745.4535392364701
 21
278.6039167176551
 31
0.0
  0
LINE
  5
43B
330
1F
100
AcDbEntity
  8
0
100
AcDbLine
 10
745.4535392364701
 20
278.6039167176551
 30
0.0
 11
746.1769012054642
 21
277.0210185180969
 31
0.0
  0
LINE
  5
43C
330
1F
100
AcDbEntity
  8
0
100
AcDbLine
 10
749.202432974263
 20
294.1037730406589
 30
0.0
 11
748.3845976432998
 21
293.297024173624
 31
0.0
  0
LINE
  5
43D
330
1F
100
AcDbEntity
  8
0
100
AcDbLine
 10
744.690361364766
 20
285.0768731068439
 30
0.0
 11
744.6360019287308
 21
283.7112450133628
 31
0.0
  0
LINE
  5
43E
330
1F
100
AcDbEntity
  8
0
100
AcDbLine
 10
748.3845976432998
 20
293.297024173624
 30
0.0
 11
747.6264265617568
 21
292.4596869479485
 31
0.0
  0
LINE
  5
43F
330
1F
100
AcDbEntity
  8
0
100
AcDbLine
 10
744.8456910690506
 20
286.4155375491447
 30
0.0
 11
744.690361364766
 21
285.0768731068439
 31
0.0
  0
LINE
  5
440
330
1F
100
AcDbEntity
  8
0
100
AcDbLine
 10
747.6264265617568
 20
292.4596869479485
 30
0.0
 11
746.9474700531206
 21
291.6110844444103
 31
0.0
  0
LINE
  5
441
330
1F
100
AcDbEntity
  8
0
100
AcDbLine
 10
745.1008585533341
 20
287.6959980558223
 30
0.0
 11
744.8456910690506
 21
286.4155375491447
 31
0.0
  0
LINE
  5
442
330
1F
100
AcDbEntity
  8
0
100
AcDbLine
 10
745.4544929107866
 20
288.8870106171436
 30
0.0
 11
745.1008585533341
 21
287.6959980558223
 31
0.0
  0
LINE
  5
443
330
1F
100
AcDbEntity
  8
0
100
AcDbLine
 10
746.9474700531206
 20
291.6110844444103
 30
0.0
 11
746.3673380455217
 21
290.7705285679168
 31
0.0
  0
LINE
  5
444
330
1F
100
AcDbEntity
  8
0
100
AcDbLine
 10
746.3673380455217
 20
290.7705285679168
 30
0.0
 11
745.905521257802
 21
289.9573423992462
 31
0.0
  0
LINE
  5
445
330
1F
100
AcDbEntity
  8
0
100
AcDbLine
 10
745.905521257802
 20
289.9573423992462
 30
0.0
 11
745.4544929107866
 21
288.8870106171436
 31
0.0
  0
LINE
  5
446
330
1F
100
AcDbEntity
  8
0
100
AcDbLine
 10
804.6526340088088
 20
255.7836600672073
 30
0.0
 11
805.3972748359879
 21
254.7990285884208
 31
0.0
  0
LINE
  5
447
330
1F
100
AcDbEntity
  8
0
100
AcDbLine
 10
805.3972748359879
 20
254.7990285884208
 30
0.0
 11
806.0318854889115
 21
253.9573886524505
 31
0.0
  0
LINE
  5
448
330
1F
100
AcDbEntity
  8
0
100
AcDbLine
 10
806.0318854889115
 20
253.9573886524505
 30
0.0
 11
806.5387037834367
 21
253.2822393904991
 31
0.0
  0
LINE
  5
449
330
1F
100
AcDbEntity
  8
0
100
AcDbLine
 10
806.5387037834367
 20
253.2822393904991
 30
0.0
 11
806.8999675354203
 21
252.7970873843498
 31
0.0
  0
LINE
  5
44A
330
1F
100
AcDbEntity
  8
0
100
AcDbLine
 10
806.8999675354203
 20
252.7970873843498
 30
0.0
 11
807.0978549560746
 21
252.5254168640441
 31
0.0
  0
LINE
  5
44B
330
1F
100
AcDbEntity
  8
0
100
AcDbLine
 10
807.0978549560746
 20
252.5254168640441
 30
0.0
 11
807.2379854759416
 21
252.2711210976906
 31
0.0
  0
LINE
  5
44C
330
1F
100
AcDbEntity
  8
0
100
AcDbLine
 10
806.5238026222428
 20
251.9286998640365
 30
0.0
 11
805.2462962707718
 21
251.8288769851989
 31
0.0
  0
LINE
  5
44D
330
1F
100
AcDbEntity
  8
0
100
AcDbLine
 10
805.2462962707718
 20
251.8288769851989
 30
0.0
 11
803.0729917129715
 21
251.7688551079101
 31
0.0
  0
LINE
  5
44E
330
1F
100
AcDbEntity
  8
0
100
AcDbLine
 10
804.2633560737809
 20
298.9398853014774
 30
0.0
 11
806.0523298820696
 21
298.978274418003
 31
0.0
  0
LINE
  5
44F
330
1F
100
AcDbEntity
  8
0
100
AcDbLine
 10
806.0523298820696
 20
298.978274418003
 30
0.0
 11
807.1765926918229
 21
299.0199082623786
 31
0.0
  0
LINE
  5
450
330
1F
100
AcDbEntity
  8
0
100
AcDbLine
 10
628.7767318329056
 20
105.0390579830474
 30
0.0
 11
648.6898687919817
 21
104.8091628681488
 31
0.0
  0
LINE
  5
451
330
1F
100
AcDbEntity
  8
0
100
AcDbLine
 10
648.6898687919817
 20
104.8091628681488
 30
0.0
 11
648.6898687919817
 21
141.6535505186386
 31
0.0
  0
LINE
  5
452
330
1F
100
AcDbEntity
  8
0
100
AcDbLine
 10
648.6898687919817
 20
141.6535505186386
 30
0.0
 11
628.5533932289322
 21
141.6535505186386
 31
0.0
  0
LINE
  5
453
330
1F
100
AcDbEntity
  8
0
100
AcDbLine
 10
628.5533932289322
 20
141.6535505186386
 30
0.0
 11
628.7767318329056
 21
105.0390579830474
 31
0.0
  0
LINE
  5
454
330
1F
100
AcDbEntity
  8
0
100
AcDbLine
 10
722.3715809425553
 20
314.8764946590729
 30
0.0
 11
673.1823113998612
 21
315.0123876612253
 31
0.0
  0
LINE
  5
455
330
1F
100
AcDbEntity
  8
0
100
AcDbLine
 10
681.021931513234
 20
86.19653965342708
 30
0.0
 11
619.2951229652604
 21
86.2114706169433
 31
0.0
  0
LINE
  5
456
330
1F
100
AcDbEntity
  8
0
100
AcDbLine
 10
888.6886862358292
 20
94.47273398745722
 30
0.0
 11
881.2180784782607
 21
107.6929696928329
 31
0.0
  0
LINE
  5
457
330
1F
100
AcDbEntity
  8
0
100
AcDbLine
 10
206.025364740773
 20
216.8302067648239
 30
0.0
 11
271.6248062690934
 21
86.00452329028315
 31
0.0
  0
LINE
  5
458
330
1F
100
AcDbEntity
  8
0
100
AcDbLine
 10
712.2834352096756
 20
117.4580135475463
 30
0.0
 11
712.2660306534012
 21
173.417461765892
 31
0.0
  0
LINE
  5
459
330
1F
100
AcDbEntity
  8
0
100
AcDbLine
 10
609.6531776031693
 20
221.5391525160141
 30
0.0
 11
620.5272701820574
 21
221.5612658392257
 31
0.0
  0
LINE
  5
45A
330
1F
100
AcDbEntity
  8
0
100
AcDbLine
 10
493.9472106537064
 20
251.7821767460174
 30
0.0
 11
468.7706557354172
 21
251.8990391026801
 31
0.0
  0
LINE
  5
45B
330
1F
100
AcDbEntity
  8
0
100
AcDbLine
 10
654.9552706321915
 20
221.5294518600768
 30
0.0
 11
620.5272701820574
 21
221.5612658392257
 31
0.0
  0
LINE
  5
45C
330
1F
100
AcDbEntity
  8
0
100
AcDbLine
 10
196.8430456957062
 20
281.6588335763283
 30
0.0
 11
201.1706707319458
 21
288.0121001135177
 31
0.0
  0
LINE
  5
45D
330
1F
100
AcDbEntity
  8
0
100
AcDbLine
 10
196.8430456957062
 20
281.6588335763283
 30
0.0
 11
195.0478133997162
 21
279.0106364618607
 31
0.0
  0
LINE
  5
45E
330
1F
100
AcDbEntity
  8
0
100
AcDbLine
 10
201.1706707319458
 20
288.0121001135177
 30
0.0
 11
203.3158269962509
 21
291.1516630183525
 31
0.0
  0
LINE
  5
45F
330
1F
100
AcDbEntity
  8
0
100
AcDbLine
 10
219.0812406381806
 20
315.0120635609694
 30
0.0
 11
169.8881265958985
 21
314.8764946590729
 31
0.0
  0
LINE
  5
460
330
1F
100
AcDbEntity
  8
0
100
AcDbLine
 10
219.0812406381806
 20
315.0120635609694
 30
0.0
 11
229.8894253811081
 21
315.0113073270387
 31
0.0
  0
LINE
  5
461
330
1F
100
AcDbEntity
  8
0
100
AcDbLine
 10
229.8889634451111
 20
295.4246976505585
 30
0.0
 11
222.7816459974487
 21
285.1107061933346
 31
0.0
  0
LINE
  5
462
330
1F
100
AcDbEntity
  8
0
100
AcDbLine
 10
140.9095105966767
 20
310.667043281681
 30
0.0
 11
163.0595055660446
 21
279.4257381092376
 31
0.0
  0
LINE
  5
463
330
1F
100
AcDbEntity
  8
0
100
AcDbLine
 10
377.6380148967942
 20
264.1057052742309
 30
0.0
 11
373.3213571151933
 21
267.7875214349098
 31
0.0
  0
LINE
  5
464
330
1F
100
AcDbEntity
  8
0
100
AcDbLine
 10
373.3213571151933
 20
267.7875214349098
 30
0.0
 11
369.5421842178544
 21
271.0259460936851
 31
0.0
  0
LINE
  5
465
330
1F
100
AcDbEntity
  8
0
100
AcDbLine
 10
486.4791062912187
 20
277.0813682209319
 30
0.0
 11
472.6455536922654
 21
276.9285270105667
 31
0.0
  0
LINE
  5
466
330
1F
100
AcDbEntity
  8
0
100
AcDbLine
 10
466.9818905433854
 20
289.379803193695
 30
0.0
 11
477.1485653957566
 21
289.399822903759
 31
0.0
  0
LINE
  5
467
330
1F
100
AcDbEntity
  8
0
100
AcDbLine
 10
640.0488642296036
 20
315.0906057189769
 30
0.0
 11
663.6719134887894
 21
281.676528705246
 31
0.0
  0
LINE
  5
468
330
1F
100
AcDbEntity
  8
0
100
AcDbLine
 10
674.4956997474869
 20
279.687246037609
 30
0.0
 11
678.6752966484269
 21
285.8554140757389
 31
0.0
  0
LINE
  5
469
330
1F
100
AcDbEntity
  8
0
100
AcDbLine
 10
663.6719134887894
 20
281.676528705246
 30
0.0
 11
666.9849780639847
 21
277.0183586608238
 31
0.0
  0
LINE
  5
46A
330
1F
100
AcDbEntity
  8
0
100
AcDbLine
 10
678.6752966484269
 20
285.8554140757389
 30
0.0
 11
680.9820560058793
 21
289.2404587100811
 31
0.0
  0
LINE
  5
46B
330
1F
100
AcDbEntity
  8
0
100
AcDbLine
 10
662.3757508835038
 20
315.0125180463858
 30
0.0
 11
673.1823113998612
 21
315.0123876612253
 31
0.0
  0
LINE
  5
46C
330
1F
100
AcDbEntity
  8
0
100
AcDbLine
 10
890.7228735527236
 20
257.9798751603431
 30
0.0
 11
883.1511167129714
 21
267.9314815532035
 31
0.0
  0
LINE
  5
46D
330
1F
100
AcDbEntity
  8
0
100
AcDbLine
 10
892.928543432637
 20
255.0662213097877
 30
0.0
 11
890.7228735527236
 21
257.9798751603431
 31
0.0
  0
LINE
  5
46E
330
1F
100
AcDbEntity
  8
0
100
AcDbLine
 10
802.9042509636124
 20
258.0879309307403
 30
0.0
 11
795.3619388183793
 21
267.9821156989403
 31
0.0
  0
LINE
  5
46F
330
1F
100
AcDbEntity
  8
0
100
AcDbLine
 10
864.0999225219925
 20
163.4396889339752
 30
0.0
 11
869.7783378204545
 21
173.9817538391418
 31
0.0
  0
LINE
  5
470
330
1F
100
AcDbEntity
  8
0
100
AcDbLine
 10
866.0635975441179
 20
134.4631739984817
 30
0.0
 11
871.832194670125
 21
124.2437937389679
 31
0.0
  0
LINE
  5
471
330
1F
100
AcDbEntity
  8
0
100
AcDbLine
 10
881.2180784782607
 20
107.6929696928329
 30
0.0
 11
871.832194670125
 21
124.2437937389679
 31
0.0
  0
LINE
  5
472
330
1F
100
AcDbEntity
  8
0
100
AcDbLine
 10
754.6791461548052
 20
251.9513570796318
 30
0.0
 11
795.1924828132829
 21
251.7448567878074
 31
0.0
  0
LINE
  5
473
330
1F
100
AcDbEntity
  8
0
100
AcDbLine
 10
787.7796915611466
 20
298.8215142022437
 30
0.0
 11
775.7621434768876
 21
298.8124505709476
 31
0.0
  0
LINE
  5
474
330
1F
100
AcDbEntity
  8
0
100
AcDbLine
 10
802.9042509636124
 20
258.0879309307403
 30
0.0
 11
804.6526340088088
 21
255.7836600672073
 31
0.0
  0
LINE
  5
475
330
1F
100
AcDbEntity
  8
0
100
AcDbLine
 10
445.8285597404679
 20
298.8175057898826
 30
0.0
 11
433.2141903480729
 21
315.0906019936866
 31
0.0
  0
ENDSEC
  0
SECTION
  2
OBJECTS
  0
DICTIONARY
  5
C
330
0
100
AcDbDictionary
  3
ACAD_GROUP
350
D
  3
ACAD_LAYOUT
350
1A
  3
ACAD_MATERIAL
350
43
  3
ACAD_MLEADERSTYLE
350
498
  3
ACAD_MLINESTYLE
350
17
  3
ACAD_PLOTSETTINGS
350
19
  3
ACAD_SCALELIST
350
47
  3
ACAD_VISUALSTYLE
350
2A
  3
ACDBHEADERROUNDTRIPXREC
350
476
  3
ACDBVARIABLEDICTIONARY
350
496
  0
DICTIONARY
  5
49D
330
8
100
AcDbDictionary
280
     1
  3
ACAD_XREC_ROUNDTRIP
360
49E
  0
DICTIONARY
  5
D
102
{ACAD_REACTORS
330
C
102
}
330
C
100
AcDbDictionary
  0
DICTIONARY
  5
1A
102
{ACAD_REACTORS
330
C
102
}
330
C
100
AcDbDictionary
  0
DICTIONARY
  5
43
102
{ACAD_REACTORS
330
C
102
}
330
C
100
AcDbDictionary
  3
BYBLOCK
350
45
  3
BYLAYER
350
44
  3
GLOBAL
350
46
  0
DICTIONARY
  5
498
102
{ACAD_REACTORS
330
C
102
}
330
C
100
AcDbDictionary
  0
DICTIONARY
  5
17
102
{ACAD_REACTORS
330
C
102
}
330
C
100
AcDbDictionary
  3
STANDARD
350
18
  0
DICTIONARY
  5
19
102
{ACAD_REACTORS
330
C
102
}
330
C
100
AcDbDictionary
  0
DICTIONARY
  5
47
102
{ACAD_REACTORS
330
C
102
}
330
C
100
AcDbDictionary
  3
A0
350
48
  3
A1
350
49
  3
A2
350
4A
  3
A3
350
4B
  3
A4
350
4C
  3
A5
350
4D
  3
A6
350
4E
  3
A7
350
4F
  3
A8
350
50
  3
A9
350
51
  3
B0
350
52
  3
B1
350
53
  3
B2
350
54
  3
B3
350
55
  3
B4
350
56
  3
B5
350
57
  3
B6
350
58
  3
B7
350
59
  3
B8
350
5A
  3
B9
350
5B
  3
C0
350
5C
  3
C1
350
5D
  3
C2
350
5E
  3
C3
350
5F
  3
C4
350
60
  3
C5
350
61
  3
C6
350
62
  3
C7
350
63
  3
C8
350
64
  3
C9
350
65
  3
D0
350
66
  3
D1
350
67
  3
D2
350
68
  0
DICTIONARY
  5
2A
102
{ACAD_REACTORS
330
C
102
}
330
C
100
AcDbDictionary
  3
2DWIREFRAME
350
2F
  3
BASIC
350
32
  3
BRIGHTEN
350
36
  3
COLORCHANGE
350
3A
  3
CONCEPTUAL
350
34
  3
DIM
350
35
  3
EDGECOLOROFF
350
3D
  3
FACEPATTERN
350
39
  3
FLAT
350
2B
  3
FLATWITHEDGES
350
2C
  3
GOURAUD
350
2D
  3
GOURAUDWITHEDGES
350
2E
  3
HIDDEN
350
31
  3
JITTEROFF
350
3B
  3
LINEPATTERN
350
38
  3
OVERHANGOFF
350
3C
  3
REALISTIC
350
33
  3
SHADED
350
42
  3
SHADED_WITH_EDGES
350
41
  3
SHADES_OF_GRAY
350
3E
  3
SKETCHY
350
3F
  3
THICKEN
350
37
  3
WIREFRAME
350
30
  3
X-RAY
350
40
  0
DICTIONARY
  5
476
102
{ACAD_REACTORS
330
C
102
}
330
C
100
AcDbDictionary
  3
CEPSNTYPE
350
47F
  3
DIMSTYLEDATA
350
495
  3
FINGERPRINTGUID
350
480
  3
HYPERLINKBASE
350
479
  3
INSUNITS
350
47E
  3
LAYOUTDICT
350
47B
  3
LWETCUNION
350
47D
  3
PLOTSETDICT
350
47C
  3
PSVPSCALE
350
482
  3
PUCSBASE
350
485
  3
PUCSORGBACK
350
48B
  3
PUCSORGBOTTOM
350
487
  3
PUCSORGFRONT
350
48A
  3
PUCSORGLEFT
350
488
  3
PUCSORGRIGHT
350
489
  3
PUCSORGTOP
350
486
  3
PUCSORTHOREF
350
483
  3
PUCSORTHOVIEW
350
484
  3
STYLESHEET
350
47A
  3
TSTACKALIGN
350
477
  3
TSTACKSIZE
350
478
  3
UCSBASE
350
48E
  3
UCSORGBACK
350
494
  3
UCSORGBOTTOM
350
490
  3
UCSORGFRONT
350
493
  3
UCSORGLEFT
350
491
  3
UCSORGRIGHT
350
492
  3
UCSORGTOP
350
48F
  3
UCSORTHOREF
350
48C
  3
UCSORTHOVIEW
350
48D
  3
VERSIONGUID
350
481
  0
DICTIONARY
  5
496
102
{ACAD_REACTORS
330
C
102
}
330
C
100
AcDbDictionary
  3
CANNOSCALE
350
49F
  3
DIMASSOC
350
49B
  3
HIDETEXT
350
49C
  3
MSLTSCALE
350
4A0
  0
XRECORD
  5
49E
102
{ACAD_REACTORS
330
49D
102
}
330
49D
100
AcDbXrecord
102
VTR_0.000_0.000_1.000_1.000_GRIDDISPLAY
 70
     3
102
VTR_0.000_0.000_1.000_1.000_GRIDMAJOR
 70
     5
102
VTR_0.000_0.000_1.000_1.000_DEFAULTLIGHTING
280
     1
102
VTR_0.000_0.000_1.000_1.000_DEFAULTLIGHTINGTYPE
 70
     1
102
VTR_0.000_0.000_1.000_1.000_BRIGHTNESS
141
0.0
102
VTR_0.000_0.000_1.000_1.000_CONTRAST
142
0.0
  0
MATERIAL
  5
45
102
{ACAD_REACTORS
330
43
102
}
102
{ACAD_XDICTIONARY
360
4A3
102
}
330
43
100
AcDbMaterial
  1
BYBLOCK
  0
MATERIAL
  5
44
102
{ACAD_REACTORS
330
43
102
}
102
{ACAD_XDICTIONARY
360
4A1
102
}
330
43
100
AcDbMaterial
  1
BYLAYER
  0
MATERIAL
  5
46
102
{ACAD_REACTORS
330
43
102
}
102
{ACAD_XDICTIONARY
360
4A5
102
}
330
43
100
AcDbMaterial
  1
GLOBAL
  0
MLINESTYLE
  5
18
102
{ACAD_REACTORS
330
17
102
}
330
17
100
AcDbMlineStyle
  2
Standard
 70
     0
  3

 62
   256
 51
90.0
 52
90.0
 71
     2
 49
0.5
 62
   256
  6
BYLAYER
 49
-0.5
 62
   256
  6
BYLAYER
  0
ACAD_PROXY_OBJECT
  5
48
102
{ACAD_REACTORS
330
47
102
}
330
47
100
AcDbProxyObject
 90
      499
 91
      503
 93
       41
310
903313A31580
  0
ACAD_PROXY_OBJECT
  5
49
102
{ACAD_REACTORS
330
47
102
}
330
47
100
AcDbProxyObject
 90
      499
 91
      503
 93
      105
310
903313A324000000000000004000
  0
ACAD_PROXY_OBJECT
  5
4A
102
{ACAD_REACTORS
330
47
102
}
330
47
100
AcDbProxyObject
 90
      499
 91
      503
 93
      105
310
903313A344000000000000104000
  0
ACAD_PROXY_OBJECT
  5
4B
102
{ACAD_REACTORS
330
47
102
}
330
47
100
AcDbProxyObject
 90
      499
 91
      503
 93
      105
310
903313A354000000000000144000
  0
ACAD_PROXY_OBJECT
  5
4C
102
{ACAD_REACTORS
330
47
102
}
330
47
100
AcDbProxyObject
 90
      499
 91
      503
 93
      105
310
903313A384000000000000204000
  0
ACAD_PROXY_OBJECT
  5
4D
102
{ACAD_REACTORS
330
47
102
}
330
47
100
AcDbProxyObject
 90
      499
 91
      503
 93
      113
310
904313A31304000000000000244000
  0
ACAD_PROXY_OBJECT
  5
4E
102
{ACAD_REACTORS
330
47
102
}
330
47
100
AcDbProxyObject
 90
      499
 91
      503
 93
      113
310
904313A31364000000000000304000
  0
ACAD_PROXY_OBJECT
  5
4F
102
{ACAD_REACTORS
330
47
102
}
330
47
100
AcDbProxyObject
 90
      499
 91
      503
 93
      113
310
904313A32304000000000000344000
  0
ACAD_PROXY_OBJECT
  5
50
102
{ACAD_REACTORS
330
47
102
}
330
47
100
AcDbProxyObject
 90
      499
 91
      503
 93
      113
310
904313A333040000000000003E4000
  0
ACAD_PROXY_OBJECT
  5
51
102
{ACAD_REACTORS
330
47
102
}
330
47
100
AcDbProxyObject
 90
      499
 91
      503
 93
      113
310
904313A34304000000000000444000
  0
ACAD_PROXY_OBJECT
  5
52
102
{ACAD_REACTORS
330
47
102
}
330
47
100
AcDbProxyObject
 90
      499
 91
      503
 93
      113
310
904313A35304000000000000494000
  0
ACAD_PROXY_OBJECT
  5
53
102
{ACAD_REACTORS
330
47
102
}
330
47
100
AcDbProxyObject
 90
      499
 91
      503
 93
      121
310
905313A3130304000000000000594000
  0
ACAD_PROXY_OBJECT
  5
54
102
{ACAD_REACTORS
330
47
102
}
330
47
100
AcDbProxyObject
 90
      499
 91
      503
 93
      105
310
903323A310000000000000010100
  0
ACAD_PROXY_OBJECT
  5
55
102
{ACAD_REACTORS
330
47
102
}
330
47
100
AcDbProxyObject
 90
      499
 91
      503
 93
      105
310
903343A310000000000000410100
  0
ACAD_PROXY_OBJECT
  5
56
102
{ACAD_REACTORS
330
47
102
}
330
47
100
AcDbProxyObject
 90
      499
 91
      503
 93
      105
310
903383A310000000000000810100
  0
ACAD_PROXY_OBJECT
  5
57
102
{ACAD_REACTORS
330
47
102
}
330
47
100
AcDbProxyObject
 90
      499
 91
      503
 93
      113
310
90431303A310000000000000910100
  0
ACAD_PROXY_OBJECT
  5
58
102
{ACAD_REACTORS
330
47
102
}
330
47
100
AcDbProxyObject
 90
      499
 91
      503
 93
      121
310
9053130303A310000000000001650100
  0
ACAD_PROXY_OBJECT
  5
59
102
{ACAD_REACTORS
330
47
102
}
330
47
100
AcDbProxyObject
 90
      499
 91
      503
 93
      257
310
90E312F31323822203D2031272D3022000000000000200FC000000000000284000
  0
ACAD_PROXY_OBJECT
  5
5A
102
{ACAD_REACTORS
330
47
102
}
330
47
100
AcDbProxyObject
 90
      499
 91
      503
 93
      249
310
90D312F363422203D2031272D3022000000000000240FC000000000000284000
  0
ACAD_PROXY_OBJECT
  5
5B
102
{ACAD_REACTORS
330
47
102
}
330
47
100
AcDbProxyObject
 90
      499
 91
      503
 93
      249
310
90D312F333222203D2031272D3022000000000000280FC000000000000284000
  0
ACAD_PROXY_OBJECT
  5
5C
102
{ACAD_REACTORS
330
47
102
}
330
47
100
AcDbProxyObject
 90
      499
 91
      503
 93
      249
310
90D312F313622203D2031272D30220000000000002C0FC000000000000284000
  0
ACAD_PROXY_OBJECT
  5
5D
102
{ACAD_REACTORS
330
47
102
}
330
47
100
AcDbProxyObject
 90
      499
 91
      503
 93
      249
310
90D332F333222203D2031272D30220000000000002E0FC000000000000284000
  0
ACAD_PROXY_OBJECT
  5
5E
102
{ACAD_REACTORS
330
47
102
}
330
47
100
AcDbProxyObject
 90
      499
 91
      503
 93
      241
310
90C312F3822203D2031272D3022000000000000300FC000000000000284000
  0
ACAD_PROXY_OBJECT
  5
5F
102
{ACAD_REACTORS
330
47
102
}
330
47
100
AcDbProxyObject
 90
      499
 91
      503
 93
      249
310
90D332F313622203D2031272D3022000000000000320FC000000000000284000
  0
ACAD_PROXY_OBJECT
  5
60
102
{ACAD_REACTORS
330
47
102
}
330
47
100
AcDbProxyObject
 90
      499
 91
      503
 93
      241
310
90C312F3422203D2031272D3022000000000000340FC000000000000284000
  0
ACAD_PROXY_OBJECT
  5
61
102
{ACAD_REACTORS
330
47
102
}
330
47
100
AcDbProxyObject
 90
      499
 91
      503
 93
      241
310
90C332F3822203D2031272D3022000000000000360FC000000000000284000
  0
ACAD_PROXY_OBJECT
  5
62
102
{ACAD_REACTORS
330
47
102
}
330
47
100
AcDbProxyObject
 90
      499
 91
      503
 93
      241
310
90C312F3222203D2031272D3022000000000000380FC000000000000284000
  0
ACAD_PROXY_OBJECT
  5
63
102
{ACAD_REACTORS
330
47
102
}
330
47
100
AcDbProxyObject
 90
      499
 91
      503
 93
      241
310
90C332F3422203D2031272D30220000000000003A0FC000000000000284000
  0
ACAD_PROXY_OBJECT
  5
64
102
{ACAD_REACTORS
330
47
102
}
330
47
100
AcDbProxyObject
 90
      499
 91
      503
 93
      161
310
90A3122203D2031272D30224000000000000284000
  0
ACAD_PROXY_OBJECT
  5
65
102
{ACAD_REACTORS
330
47
102
}
330
47
100
AcDbProxyObject
 90
      499
 91
      503
 93
      257
310
90E312D312F3222203D2031272D30220000000000003E0FC000000000000284000
  0
ACAD_PROXY_OBJECT
  5
66
102
{ACAD_REACTORS
330
47
102
}
330
47
100
AcDbProxyObject
 90
      499
 91
      503
 93
      225
310
90A3322203D2031272D302200000000000002100000000000000284000
  0
ACAD_PROXY_OBJECT
  5
67
102
{ACAD_REACTORS
330
47
102
}
330
47
100
AcDbProxyObject
 90
      499
 91
      503
 93
      225
310
90A3622203D2031272D302200000000000006100000000000000284000
  0
ACAD_PROXY_OBJECT
  5
68
102
{ACAD_REACTORS
330
47
102
}
330
47
100
AcDbProxyObject
 90
      499
 91
      503
 93
      249
310
90D31272D3022203D2031272D30220000000000000A100000000000000284000
  0
ACAD_PROXY_OBJECT
  5
2F
102
{ACAD_REACTORS
330
2A
102
}
330
2A
100
AcDbProxyObject
 90
      499
 91
      501
 93
      436
310
42CC9915DA5C99599C985B595049028333333333333E33F0000000000000F90107901411070040501600405405064090741402480A0340
1001
ACAD
1000
AcDbSavedByObjectVersion
1070
     0
  0
ACAD_PROXY_OBJECT
  5
32
102
{ACAD_REACTORS
330
2A
102
}
330
2A
100
AcDbProxyObject
 90
      499
 91
      501
 93
      388
310
4150985CDA58D07406404333333333333E33F0000000000000F90107A41107004050150841D405064090741402480A0350
1001
ACAD
1000
AcDbSavedByObjectVersion
1070
     0
  0
ACAD_PROXY_OBJECT
  5
36
102
{ACAD_REACTORS
330
2A
102
}
330
2A
100
AcDbProxyObject
 90
      499
 91
      501
 93
      428
310
42109C9A59DA1D195B90C409028333333333333E33F0000000000000F9010790141107004050150841D405064090741402480A029950
1001
ACAD
1000
AcDbSavedByObjectVersion
1070
     0
  0
ACAD_PROXY_OBJECT
  5
3A
102
{ACAD_REACTORS
330
2A
102
}
330
2A
100
AcDbProxyObject
 90
      499
 91
      501
 93
      452
310
42D0DBDB1BDC90DA185B99D95104090240C333333333333E33F0000000000000F90108901411070040501508421405064090741402480A0350
1001
ACAD
1000
AcDbSavedByObjectVersion
1070
     0
  0
ACAD_PROXY_OBJECT
  5
34
102
{ACAD_REACTORS
330
2A
102
}
330
2A
100
AcDbProxyObject
 90
      499
 91
      501
 93
      500
310
4290DBDB98D95C1D1D585B10940D028333333333333E33F0000000000000F90107902409070040501000000000018199010841D405064090740C02480A0340
1001
ACAD
1000
AcDbSavedByObjectVersion
1070
     0
  0
ACAD_PROXY_OBJECT
  5
35
102
{ACAD_REACTORS
330
2A
102
}
330
2A
100
AcDbProxyObject
 90
      499
 91
      501
 93
      412
310
40D11A5B50B409028333333333333E33F0000000000000F9010790141107004050150841D405064090741402480A02677FFFFFD0
1001
ACAD
1000
AcDbSavedByObjectVersion
1070
     0
  0
ACAD_PROXY_OBJECT
  5
3D
102
{ACAD_REACTORS
330
2A
102
}
330
2A
100
AcDbProxyObject
 90
      499
 91
      501
 93
      452
310
43115919D950DBDB1BDC93D999916409028333333333333E33F0000000000000F9010790141107004050150841D405064090741402480A0350
1001
ACAD
1000
AcDbSavedByObjectVersion
1070
     0
  0
ACAD_PROXY_OBJECT
  5
39
102
{ACAD_REACTORS
330
2A
102
}
330
2A
100
AcDbProxyObject
 90
      499
 91
      501
 93
      444
310
42D19858D95C185D1D195C9B90F409028333333333333E33F0000000000000F9010790141107004050150841D405064090741402480A0350
1001
ACAD
1000
AcDbSavedByObjectVersion
1070
     0
  0
ACAD_PROXY_OBJECT
  5
2B
102
{ACAD_REACTORS
330
2A
102
}
330
2A
100
AcDbProxyObject
 90
      499
 91
      501
 93
      380
310
41119B185D240901404333333333333E33F0000000000000F9010740A907004050150841D405064090741402480A1B50
1001
ACAD
1000
AcDbSavedByObjectVersion
1070
     0
  0
ACAD_PROXY_OBJECT
  5
2C
102
{ACAD_REACTORS
330
2A
102
}
330
2A
100
AcDbProxyObject
 90
      499
 91
      501
 93
      468
310
43519B185D15DA5D1A115919D95CD0140901404333333333333E33F0000000000000F90107409019070040501600405405064090741402480A1B50
1001
ACAD
1000
AcDbSavedByObjectVersion
1070
     0
  0
ACAD_PROXY_OBJECT
  5
2D
102
{ACAD_REACTORS
330
2A
102
}
330
2A
100
AcDbProxyObject
 90
      499
 91
      501
 93
      404
310
41D1DBDD5C985D5910240902404333333333333E33F0000000000000F9010740A9070040501641D405064090741402480A1B50
1001
ACAD
1000
AcDbSavedByObjectVersion
1070
     0
  0
ACAD_PROXY_OBJECT
  5
2E
102
{ACAD_REACTORS
330
2A
102
}
330
2A
100
AcDbProxyObject
 90
      499
 91
      501
 93
      492
310
4411DBDD5C985D5915DA5D1A115919D95CD0340902404333333333333E33F0000000000000F90107409019070040501600405405064090741402480A1B50
1001
ACAD
1000
AcDbSavedByObjectVersion
1070
     0
  0
ACAD_PROXY_OBJECT
  5
31
102
{ACAD_REACTORS
330
2A
102
}
330
2A
100
AcDbProxyObject
 90
      499
 91
      501
 93
      476
310
41921A5919195B90640502408333333333333E33F0000000000000F901079024090700405020000000000001110200405405064090740C02480A0340
1001
ACAD
1000
AcDbSavedByObjectVersion
1070
     0
  0
ACAD_PROXY_OBJECT
  5
3B
102
{ACAD_REACTORS
330
2A
102
}
330
2A
100
AcDbProxyObject
 90
      499
 91
      501
 93
      428
310
42529A5D1D195C93D999914409028333333333333E33F0000000000000F9010790141107004050150A41D405064090741402480A0350
1001
ACAD
1000
AcDbSavedByObjectVersion
1070
     0
  0
ACAD_PROXY_OBJECT
  5
38
102
{ACAD_REACTORS
330
2A
102
}
330
2A
100
AcDbProxyObject
 90
      499
 91
      501
 93
      444
310
42D31A5B995C185D1D195C9B90E409028333333333333E33F0000000000000F9010790141107004050750841D405064090741402483A0350
1001
ACAD
1000
AcDbSavedByObjectVersion
1070
     0
  0
ACAD_PROXY_OBJECT
  5
3C
102
{ACAD_REACTORS
330
2A
102
}
330
2A
100
AcDbProxyObject
 90
      499
 91
      501
 93
      444
310
42D3DD995C9A185B99D3D999915409028333333333333E33F0000000000000F9010790141107004050150941D405064090741402480A0350
1001
ACAD
1000
AcDbSavedByObjectVersion
1070
     0
  0
ACAD_PROXY_OBJECT
  5
33
102
{ACAD_REACTORS
330
2A
102
}
330
2A
100
AcDbProxyObject
 90
      499
 91
      501
 93
      428
310
425499585B1A5CDD1A58D08409038333333333333E33F0000000000000F9010740A907004050150800405405064090740C02480A1B40
1001
ACAD
1000
AcDbSavedByObjectVersion
1070
     0
  0
ACAD_PROXY_OBJECT
  5
42
102
{ACAD_REACTORS
330
2A
102
}
330
2A
100
AcDbProxyObject
 90
      499
 91
      501
 93
      420
310
4194DA1859195911B40902404333333333333E33F0000000000000F9010740A41107004050150800405405064090840C02480A0B40
1001
ACAD
1000
AcDbSavedByObjectVersion
1070
     0
  0
ACAD_PROXY_OBJECT
  5
41
102
{ACAD_REACTORS
330
2A
102
}
330
2A
100
AcDbProxyObject
 90
      499
 91
      501
 93
      516
310
4454DA18591959081DDA5D1A08195919D95CD1A40902404333333333333E33F0000000000000F901074090142907004050250800405405064090740C02480A0B40
1001
ACAD
1000
AcDbSavedByObjectVersion
1070
     0
  0
ACAD_PROXY_OBJECT
  5
3E
102
{ACAD_REACTORS
330
2A
102
}
330
2A
100
AcDbProxyObject
 90
      499
 91
      501
 93
      532
310
4394DA1859195CC81BD98811DC985E5174090240C333333333333E33F0000000000000F901079024090741D01000000000000111010841D405064090740C02480A0340
1001
ACAD
1000
AcDbSavedByObjectVersion
1070
     0
  0
ACAD_PROXY_OBJECT
  5
3F
102
{ACAD_REACTORS
330
2A
102
}
330
2A
100
AcDbProxyObject
 90
      499
 91
      501
 93
      476
310
41D4DAD95D18DA1E51840502408333333333333E33F0000000000000F901079024090741D01000000000000111010B41D405064090741802480A0340
1001
ACAD
1000
AcDbSavedByObjectVersion
1070
     0
  0
ACAD_PROXY_OBJECT
  5
37
102
{ACAD_REACTORS
330
2A
102
}
330
2A
100
AcDbProxyObject
 90
      499
 91
      501
 93
      412
310
41D51A1A58DAD95B90D409028333333333333E33F0000000000000F9010790141107004050150C41D405064090741402480A0350
1001
ACAD
1000
AcDbSavedByObjectVersion
1070
     0
  0
ACAD_PROXY_OBJECT
  5
30
102
{ACAD_REACTORS
330
2A
102
}
330
2A
100
AcDbProxyObject
 90
      499
 91
      501
 93
      420
310
4255DA5C99599C985B595059028333333333333E33F0000000000000F90107901411070040501600405405064090740C02480A0340
1001
ACAD
1000
AcDbSavedByObjectVersion
1070
     0
  0
ACAD_PROXY_OBJECT
  5
40
102
{ACAD_REACTORS
330
2A
102
}
330
2A
100
AcDbProxyObject
 90
      499
 91
      501
 93
      404
310
41560B54985E51940902404000000000000E03F0000000000000F9010740501907004050150841D405064090740C02480A1B40
1001
ACAD
1000
AcDbSavedByObjectVersion
1070
     0
  0
XRECORD
  5
47F
102
{ACAD_REACTORS
330
476
102
}
330
476
100
AcDbXrecord
 90
        0
  0
XRECORD
  5
495
102
{ACAD_REACTORS
330
476
102
}
330
476
100
AcDbXrecord
1000
DSTYLE
1002
{
1070
   171
 70
     2
1070
   143
 40
25.4
1070
   274
 70
     2
1070
    41
 40
0.18
1070
   141
 40
0.09
1070
   271
 70
     4
1070
    43
 40
0.38
1070
   278
 70
    46
1070
    44
 40
0.18
1070
    42
 40
0.0625
1070
   147
 40
0.09
1070
    77
 70
     0
1070
   272
 70
     4
1070
    73
 70
     1
1070
   172
 70
     0
1070
    74
 70
     1
1070
   283
 70
     1
1070
   340
340
11
1070
   140
 40
0.18
1070
   284
 70
     0
1070
    78
 70
     0
1002
}
  0
XRECORD
  5
480
102
{ACAD_REACTORS
330
476
102
}
330
476
100
AcDbXrecord
  1
{510BA59D-1094-40ED-8ABA-550D5DF2BD9B}
  0
XRECORD
  5
479
102
{ACAD_REACTORS
330
476
102
}
330
476
100
AcDbXrecord
  1

  0
XRECORD
  5
47E
102
{ACAD_REACTORS
330
476
102
}
330
476
100
AcDbXrecord
 90
        4
  0
XRECORD
  5
47B
102
{ACAD_REACTORS
330
476
102
}
330
476
100
AcDbXrecord
340
1A
  0
XRECORD
  5
47D
102
{ACAD_REACTORS
330
476
102
}
330
476
100
AcDbXrecord
 90
    10781
  0
XRECORD
  5
47C
102
{ACAD_REACTORS
330
476
102
}
330
476
100
AcDbXrecord
340
19
  0
XRECORD
  5
482
102
{ACAD_REACTORS
330
476
102
}
330
476
100
AcDbXrecord
 40
0.0
  0
XRECORD
  5
485
102
{ACAD_REACTORS
330
476
102
}
330
476
100
AcDbXrecord
340
0
  0
XRECORD
  5
48B
102
{ACAD_REACTORS
330
476
102
}
330
476
100
AcDbXrecord
 10
0.0
 20
0.0
 30
0.0
  0
XRECORD
  5
487
102
{ACAD_REACTORS
330
476
102
}
330
476
100
AcDbXrecord
 10
0.0
 20
0.0
 30
0.0
  0
XRECORD
  5
48A
102
{ACAD_REACTORS
330
476
102
}
330
476
100
AcDbXrecord
 10
0.0
 20
0.0
 30
0.0
  0
XRECORD
  5
488
102
{ACAD_REACTORS
330
476
102
}
330
476
100
AcDbXrecord
 10
0.0
 20
0.0
 30
0.0
  0
XRECORD
  5
489
102
{ACAD_REACTORS
330
476
102
}
330
476
100
AcDbXrecord
 10
0.0
 20
0.0
 30
0.0
  0
XRECORD
  5
486
102
{ACAD_REACTORS
330
476
102
}
330
476
100
AcDbXrecord
 10
0.0
 20
0.0
 30
0.0
  0
XRECORD
  5
483
102
{ACAD_REACTORS
330
476
102
}
330
476
100
AcDbXrecord
340
0
  0
XRECORD
  5
484
102
{ACAD_REACTORS
330
476
102
}
330
476
100
AcDbXrecord
 70
     0
  0
XRECORD
  5
47A
102
{ACAD_REACTORS
330
476
102
}
330
476
100
AcDbXrecord
  1

  0
XRECORD
  5
477
102
{ACAD_REACTORS
330
476
102
}
330
476
100
AcDbXrecord
 90
        1
  0
XRECORD
  5
478
102
{ACAD_REACTORS
330
476
102
}
330
476
100
AcDbXrecord
 90
       70
  0
XRECORD
  5
48E
102
{ACAD_REACTORS
330
476
102
}
330
476
100
AcDbXrecord
340
0
  0
XRECORD
  5
494
102
{ACAD_REACTORS
330
476
102
}
330
476
100
AcDbXrecord
 10
0.0
 20
0.0
 30
0.0
  0
XRECORD
  5
490
102
{ACAD_REACTORS
330
476
102
}
330
476
100
AcDbXrecord
 10
0.0
 20
0.0
 30
0.0
  0
XRECORD
  5
493
102
{ACAD_REACTORS
330
476
102
}
330
476
100
AcDbXrecord
 10
0.0
 20
0.0
 30
0.0
  0
XRECORD
  5
491
102
{ACAD_REACTORS
330
476
102
}
330
476
100
AcDbXrecord
 10
0.0
 20
0.0
 30
0.0
  0
XRECORD
  5
492
102
{ACAD_REACTORS
330
476
102
}
330
476
100
AcDbXrecord
 10
0.0
 20
0.0
 30
0.0
  0
XRECORD
  5
48F
102
{ACAD_REACTORS
330
476
102
}
330
476
100
AcDbXrecord
 10
0.0
 20
0.0
 30
0.0
  0
XRECORD
  5
48C
102
{ACAD_REACTORS
330
476
102
}
330
476
100
AcDbXrecord
340
0
  0
XRECORD
  5
48D
102
{ACAD_REACTORS
330
476
102
}
330
476
100
AcDbXrecord
 70
     0
  0
XRECORD
  5
481
102
{ACAD_REACTORS
330
476
102
}
330
476
100
AcDbXrecord
  1
{FAEB1C32-E019-11D5-929B-00C0DF256EC4}
  0
DICTIONARYVAR
  5
49F
102
{ACAD_REACTORS
330
496
102
}
330
496
100
DictionaryVariables
280
     0
  1
1:1
  0
DICTIONARYVAR
  5
49B
102
{ACAD_REACTORS
330
496
102
}
330
496
100
DictionaryVariables
280
     0
  1
2
  0
DICTIONARYVAR
  5
49C
102
{ACAD_REACTORS
330
496
102
}
330
496
100
DictionaryVariables
280
     0
  1
1
  0
DICTIONARYVAR
  5
4A0
102
{ACAD_REACTORS
330
496
102
}
330
496
100
DictionaryVariables
280
     0
  1
1
  0
DICTIONARY
  5
4A3
330
45
100
AcDbDictionary
280
     1
  3
ACAD_XREC_ROUNDTRIP
360
4A4
  0
DICTIONARY
  5
4A1
330
44
100
AcDbDictionary
280
     1
  3
ACAD_XREC_ROUNDTRIP
360
4A2
  0
DICTIONARY
  5
4A5
330
46
100
AcDbDictionary
280
     1
  3
ACAD_XREC_ROUNDTRIP
360
4A6
  0
XRECORD
  5
4A4
102
{ACAD_REACTORS
330
4A3
102
}
330
4A3
100
AcDbXrecord
102
MATERIAL
148
0.0
149
0.0
149
0.0
 93
        0
 94
      127
282
     0
 72
     1
 77
     1
171
     1
175
     1
179
     1
273
     0
  0
XRECORD
  5
4A2
102
{ACAD_REACTORS
330
4A1
102
}
330
4A1
100
AcDbXrecord
102
MATERIAL
148
0.0
149
0.0
149
0.0
 93
        0
 94
      127
282
     0
 72
     1
 77
     1
171
     1
175
     1
179
     1
273
     0
  0
XRECORD
  5
4A6
102
{ACAD_REACTORS
330
4A5
102
}
330
4A5
100
AcDbXrecord
102
MATERIAL
148
0.0
149
0.0
149
0.0
 93
        0
 94
      127
282
     0
 72
     1
 77
     1
171
     1
175
     1
179
     1
273
     0
  0
ENDSEC
  0
EOF
