  0
SECTION
  2
HEADER
  9
$ACADVER
  1
AC1014
  9
$ACADMAINTVER
 70
     9
  9
$DWGCODEPAGE
  3
ANSI_1252
  9
$INSBASE
 10
0.0
 20
0.0
 30
0.0
  9
$EXTMIN
 10
1.000000000000000E+20
 20
1.000000000000000E+20
 30
1.000000000000000E+20
  9
$EXTMAX
 10
-1.000000000000000E+20
 20
-1.000000000000000E+20
 30
-1.000000000000000E+20
  9
$LIMMIN
 10
0.0
 20
0.0
  9
$LIMMAX
 10
12.0
 20
9.0
  9
$ORTHOMODE
 70
     0
  9
$REGENMODE
 70
     1
  9
$FILLMODE
 70
     1
  9
$QTEXTMODE
 70
     0
  9
$MIRRTEXT
 70
     1
  9
$DRAGMODE
 70
     2
  9
$LTSCALE
 40
1.0
  9
$OSMODE
 70
    37
  9
$ATTMODE
 70
     1
  9
$TEXTSIZE
 40
0.2
  9
$TRACEWID
 40
0.05
  9
$TEXTSTYLE
  7
STANDARD
  9
$CLAYER
  8
0
  9
$CELTYPE
  6
BYLAYER
  9
$CECOLOR
 62
   256
  9
$CELTSCALE
 40
1.0
  9
$DELOBJ
 70
     1
  9
$DISPSILH
 70
     0
  9
$DIMSCALE
 40
1.0
  9
$DIMASZ
 40
0.18
  9
$DIMEXO
 40
0.0625
  9
$DIMDLI
 40
0.38
  9
$DIMRND
 40
0.0
  9
$DIMDLE
 40
0.0
  9
$DIMEXE
 40
0.18
  9
$DIMTP
 40
0.0
  9
$DIMTM
 40
0.0
  9
$DIMTXT
 40
0.18
  9
$DIMCEN
 40
0.09
  9
$DIMTSZ
 40
0.0
  9
$DIMTOL
 70
     0
  9
$DIMLIM
 70
     0
  9
$DIMTIH
 70
     1
  9
$DIMTOH
 70
     1
  9
$DIMSE1
 70
     0
  9
$DIMSE2
 70
     0
  9
$DIMTAD
 70
     0
  9
$DIMZIN
 70
     0
  9
$DIMBLK
  1

  9
$DIMASO
 70
     1
  9
$DIMSHO
 70
     1
  9
$DIMPOST
  1

  9
$DIMAPOST
  1

  9
$DIMALT
 70
     0
  9
$DIMALTD
 70
     2
  9
$DIMALTF
 40
25.4
  9
$DIMLFAC
 40
1.0
  9
$DIMTOFL
 70
     0
  9
$DIMTVP
 40
0.0
  9
$DIMTIX
 70
     0
  9
$DIMSOXD
 70
     0
  9
$DIMSAH
 70
     0
  9
$DIMBLK1
  1

  9
$DIMBLK2
  1

  9
$DIMSTYLE
  2
STANDARD
  9
$DIMCLRD
 70
     0
  9
$DIMCLRE
 70
     0
  9
$DIMCLRT
 70
     0
  9
$DIMTFAC
 40
1.0
  9
$DIMGAP
 40
0.09
  9
$DIMJUST
 70
     0
  9
$DIMSD1
 70
     0
  9
$DIMSD2
 70
     0
  9
$DIMTOLJ
 70
     1
  9
$DIMTZIN
 70
     0
  9
$DIMALTZ
 70
     0
  9
$DIMALTTZ
 70
     0
  9
$DIMFIT
 70
     3
  9
$DIMUPT
 70
     0
  9
$DIMUNIT
 70
     2
  9
$DIMDEC
 70
     4
  9
$DIMTDEC
 70
     4
  9
$DIMALTU
 70
     2
  9
$DIMALTTD
 70
     2
  9
$DIMTXSTY
  7
STANDARD
  9
$DIMAUNIT
 70
     0
  9
$LUNITS
 70
     2
  9
$LUPREC
 70
     4
  9
$SKETCHINC
 40
0.1
  9
$FILLETRAD
 40
0.5
  9
$AUNITS
 70
     0
  9
$AUPREC
 70
     0
  9
$MENU
  1
.
  9
$ELEVATION
 40
0.0
  9
$PELEVATION
 40
0.0
  9
$THICKNESS
 40
0.0
  9
$LIMCHECK
 70
     0
  9
$CHAMFERA
 40
0.0
  9
$CHAMFERB
 40
0.0
  9
$CHAMFERC
 40
0.0
  9
$CHAMFERD
 40
0.0
  9
$SKPOLY
 70
     0
  9
$TDCREATE
 40
2457647.70296404
  9
$TDUPDATE
 40
2457647.702964224
  9
$TDINDWG
 40
0.0000000116
  9
$TDUSRTIMER
 40
0.0000000116
  9
$USRTIMER
 70
     1
  9
$ANGBASE
 50
0.0
  9
$ANGDIR
 70
     0
  9
$PDMODE
 70
     0
  9
$PDSIZE
 40
0.0
  9
$PLINEWID
 40
0.0
  9
$COORDS
 70
     1
  9
$SPLFRAME
 70
     0
  9
$SPLINETYPE
 70
     6
  9
$SPLINESEGS
 70
     8
  9
$ATTDIA
 70
     0
  9
$ATTREQ
 70
     1
  9
$HANDLING
 70
     1
  9
$HANDSEED
  5
251
  9
$SURFTAB1
 70
     6
  9
$SURFTAB2
 70
     6
  9
$SURFTYPE
 70
     6
  9
$SURFU
 70
     6
  9
$SURFV
 70
     6
  9
$UCSNAME
  2

  9
$UCSORG
 10
0.0
 20
0.0
 30
0.0
  9
$UCSXDIR
 10
1.0
 20
0.0
 30
0.0
  9
$UCSYDIR
 10
0.0
 20
1.0
 30
0.0
  9
$PUCSNAME
  2

  9
$PUCSORG
 10
0.0
 20
0.0
 30
0.0
  9
$PUCSXDIR
 10
1.0
 20
0.0
 30
0.0
  9
$PUCSYDIR
 10
0.0
 20
1.0
 30
0.0
  9
$USERI1
 70
     0
  9
$USERI2
 70
     0
  9
$USERI3
 70
     0
  9
$USERI4
 70
     0
  9
$USERI5
 70
     0
  9
$USERR1
 40
0.0
  9
$USERR2
 40
0.0
  9
$USERR3
 40
0.0
  9
$USERR4
 40
0.0
  9
$USERR5
 40
0.0
  9
$WORLDVIEW
 70
     1
  9
$SHADEDGE
 70
     3
  9
$SHADEDIF
 70
    70
  9
$TILEMODE
 70
     1
  9
$MAXACTVP
 70
    64
  9
$PINSBASE
 10
0.0
 20
0.0
 30
0.0
  9
$PLIMCHECK
 70
     0
  9
$PEXTMIN
 10
1.000000000000000E+20
 20
1.000000000000000E+20
 30
1.000000000000000E+20
  9
$PEXTMAX
 10
-1.000000000000000E+20
 20
-1.000000000000000E+20
 30
-1.000000000000000E+20
  9
$PLIMMIN
 10
0.0
 20
0.0
  9
$PLIMMAX
 10
12.0
 20
9.0
  9
$UNITMODE
 70
     0
  9
$VISRETAIN
 70
     1
  9
$PLINEGEN
 70
     0
  9
$PSLTSCALE
 70
     1
  9
$TREEDEPTH
 70
  3020
  9
$PICKSTYLE
 70
     1
  9
$CMLSTYLE
  2
STANDARD
  9
$CMLJUST
 70
     0
  9
$CMLSCALE
 40
1.0
  9
$PROXYGRAPHICS
 70
     1
  9
$MEASUREMENT
 70
     1
  0
ENDSEC
  0
SECTION
  2
CLASSES
  0
CLASS
  1
ACDBDICTIONARYWDFLT
  2
AcDbDictionaryWithDefault
  3
ObjectDBX Classes
 90
        0
280
     0
281
     0
  0
CLASS
  1
VISUALSTYLE
  2
AcDbVisualStyle
  3
ObjectDBX Classes
 90
     4095
280
     0
281
     0
  0
CLASS
  1
MATERIAL
  2
AcDbMaterial
  3
ObjectDBX Classes
 90
     1153
280
     0
281
     0
  0
CLASS
  1
SCALE
  2
AcDbScale
  3
ObjectDBX Classes
 90
     1153
280
     0
281
     0
  0
CLASS
  1
SUN
  2
AcDbSun
  3
SCENEOE
 90
     1153
280
     0
281
     0
  0
CLASS
  1
DICTIONARYVAR
  2
AcDbDictionaryVar
  3
ObjectDBX Classes
 90
        0
280
     0
281
     0
  0
CLASS
  1
XRECORD
  2
AcDbXrecord
  3
ObjectDBX Classes
 90
        0
280
     0
281
     0
  0
CLASS
  1
LWPOLYLINE
  2
AcDbPolyline
  3
ObjectDBX Classes
 90
        0
280
     0
281
     1
  0
CLASS
  1
HATCH
  2
AcDbHatch
  3
ObjectDBX Classes
 90
        0
280
     0
281
     1
  0
CLASS
  1
ACDBPLACEHOLDER
  2
AcDbPlaceHolder
  3
ObjectDBX Classes
 90
        0
280
     0
281
     0
  0
CLASS
  1
LAYOUT
  2
AcDbLayout
  3
ObjectDBX Classes
 90
        0
280
     0
281
     0
  0
ENDSEC
  0
SECTION
  2
TABLES
  0
TABLE
  2
VPORT
  5
8
102
{ACAD_XDICTIONARY
360
247
102
}
330
0
100
AcDbSymbolTable
 70
     1
  0
VPORT
  5
29
330
8
100
AcDbSymbolTableRecord
100
AcDbViewportTableRecord
  2
*ACTIVE
 70
     0
 10
0.0
 20
0.0
 11
1.0
 21
1.0
 12
0.0
 22
0.0
 13
0.0
 23
0.0
 14
0.5
 24
0.5
 15
0.5
 25
0.5
 16
0.0
 26
0.0
 36
1.0
 17
0.0
 27
0.0
 37
-1000.0
 40
935.7878536040714
 41
2.046067415730337
 42
50.0
 43
1462.721496319435
 44
1855.310718580198
 50
0.0
 51
0.0
 71
     0
 72
   100
 73
     1
 74
     3
 75
     0
 76
     0
 77
     0
 78
     0
  0
ENDTAB
  0
TABLE
  2
LTYPE
  5
5
330
0
100
AcDbSymbolTable
 70
     1
  0
LTYPE
  5
14
330
5
100
AcDbSymbolTableRecord
100
AcDbLinetypeTableRecord
  2
BYBLOCK
 70
     0
  3

 72
    65
 73
     0
 40
0.0
  0
LTYPE
  5
15
330
5
100
AcDbSymbolTableRecord
100
AcDbLinetypeTableRecord
  2
BYLAYER
 70
     0
  3

 72
    65
 73
     0
 40
0.0
  0
LTYPE
  5
16
330
5
100
AcDbSymbolTableRecord
100
AcDbLinetypeTableRecord
  2
CONTINUOUS
 70
     0
  3
Solid line
 72
    65
 73
     0
 40
0.0
  0
ENDTAB
  0
TABLE
  2
LAYER
  5
2
330
0
100
AcDbSymbolTable
 70
     3
  0
LAYER
  5
10
330
2
100
AcDbSymbolTableRecord
100
AcDbLayerTableRecord
  2
0
 70
     0
 62
     7
  6
CONTINUOUS
  0
LAYER
  5
6A
330
2
100
AcDbSymbolTableRecord
100
AcDbLayerTableRecord
  2
PROFILEEDGES
 70
     0
 62
     7
  6
CONTINUOUS
  0
LAYER
  5
6B
330
2
100
AcDbSymbolTableRecord
100
AcDbLayerTableRecord
  2
SECTIONCUTEDGES
 70
     0
 62
     7
  6
CONTINUOUS
  0
ENDTAB
  0
TABLE
  2
STYLE
  5
3
330
0
100
AcDbSymbolTable
 70
     1
  0
STYLE
  5
11
330
3
100
AcDbSymbolTableRecord
100
AcDbTextStyleTableRecord
  2
STANDARD
 70
     0
 40
0.0
 41
1.0
 50
0.0
 71
     0
 42
0.2
  3
txt
  4

  0
ENDTAB
  0
TABLE
  2
VIEW
  5
6
330
0
100
AcDbSymbolTable
 70
     0
  0
ENDTAB
  0
TABLE
  2
UCS
  5
7
330
0
100
AcDbSymbolTable
 70
     0
  0
ENDTAB
  0
TABLE
  2
APPID
  5
9
330
0
100
AcDbSymbolTable
 70
     1
  0
APPID
  5
12
330
9
100
AcDbSymbolTableRecord
100
AcDbRegAppTableRecord
  2
ACAD
 70
     0
  0
ENDTAB
  0
TABLE
  2
DIMSTYLE
  5
A
330
0
100
AcDbSymbolTable
 70
     1
  0
DIMSTYLE
105
27
330
A
100
AcDbSymbolTableRecord
100
AcDbDimStyleTableRecord
  2
STANDARD
 70
     0
  3

  4

  5

  6

  7

 40
1.0
 41
0.18
 42
0.0625
 43
0.38
 44
0.18
 45
0.0
 46
0.0
 47
0.0
 48
0.0
140
0.18
141
0.09
142
0.0
143
25.4
144
1.0
145
0.0
146
1.0
147
0.09
 71
     0
 72
     0
 73
     1
 74
     1
 75
     0
 76
     0
 77
     0
 78
     0
170
     0
171
     2
172
     0
173
     0
174
     0
175
     0
176
     0
177
     0
178
     0
270
     2
271
     4
272
     4
273
     2
274
     2
340
11
275
     0
280
     0
281
     0
282
     0
283
     1
284
     0
285
     0
286
     0
287
     3
288
     0
  0
ENDTAB
  0
TABLE
  2
BLOCK_RECORD
  5
1
330
0
100
AcDbSymbolTable
 70
     1
  0
BLOCK_RECORD
  5
1F
330
1
100
AcDbSymbolTableRecord
100
AcDbBlockTableRecord
  2
*MODEL_SPACE
  0
BLOCK_RECORD
  5
1B
330
1
100
AcDbSymbolTableRecord
100
AcDbBlockTableRecord
  2
*PAPER_SPACE
  0
ENDTAB
  0
ENDSEC
  0
SECTION
  2
BLOCKS
  0
BLOCK
  5
20
330
1F
100
AcDbEntity
  8
0
100
AcDbBlockBegin
  2
*MODEL_SPACE
 70
     0
 10
0.0
 20
0.0
 30
0.0
  3
*MODEL_SPACE
  1

  0
ENDBLK
  5
21
330
1F
100
AcDbEntity
  8
0
100
AcDbBlockEnd
  0
BLOCK
  5
1C
330
1B
100
AcDbEntity
 67
     1
  8
0
100
AcDbBlockBegin
  2
*PAPER_SPACE
 70
     0
 10
0.0
 20
0.0
 30
0.0
  3
*PAPER_SPACE
  1

  0
ENDBLK
  5
1D
330
1B
100
AcDbEntity
 67
     1
  8
0
100
AcDbBlockEnd
  0
ENDSEC
  0
SECTION
  2
ENTITIES
  0
LINE
  5
6C
330
1F
100
AcDbEntity
  8
0
100
AcDbLine
 10
66.61979489616309
 20
295.6686235985656
 30
0.0
 11
66.52864076785
 21
296.7105127892395
 31
0.0
  0
LINE
  5
6D
330
1F
100
AcDbEntity
  8
0
100
AcDbLine
 10
66.52864076785
 20
296.7105127892395
 30
0.0
 11
66.61979489616309
 21
297.7524019799133
 31
0.0
  0
LINE
  5
6E
330
1F
100
AcDbEntity
  8
0
100
AcDbLine
 10
66.61979489616309
 20
297.7524019799133
 30
0.0
 11
66.89048566512021
 21
298.7626336536308
 31
0.0
  0
LINE
  5
6F
330
1F
100
AcDbEntity
  8
0
100
AcDbLine
 10
66.89048566512021
 20
294.6583919248482
 30
0.0
 11
66.61979489616309
 21
295.6686235985656
 31
0.0
  0
LINE
  5
70
330
1F
100
AcDbEntity
  8
0
100
AcDbLine
 10
67.33248856506499
 20
293.7105122975012
 30
0.0
 11
66.89048566512021
 21
294.6583919248482
 31
0.0
  0
LINE
  5
71
330
1F
100
AcDbEntity
  8
0
100
AcDbLine
 10
67.93237392447146
 20
292.8537867984672
 30
0.0
 11
67.33248856506499
 21
293.7105122975012
 31
0.0
  0
LINE
  5
72
330
1F
100
AcDbEntity
  8
0
100
AcDbLine
 10
68.67191576055441
 20
292.1142458937068
 30
0.0
 11
67.93237392447146
 21
292.8537867984672
 31
0.0
  0
LINE
  5
73
330
1F
100
AcDbEntity
  8
0
100
AcDbLine
 10
69.52864125958834
 20
291.5143605343004
 30
0.0
 11
68.67191576055441
 21
292.1142458937068
 31
0.0
  0
LINE
  5
74
330
1F
100
AcDbEntity
  8
0
100
AcDbLine
 10
70.47651995561274
 20
291.0723567030331
 30
0.0
 11
69.52864125958834
 21
291.5143605343004
 31
0.0
  0
LINE
  5
75
330
1F
100
AcDbEntity
  8
0
100
AcDbLine
 10
71.48675162933024
 20
290.8016659340759
 30
0.0
 11
70.47651995561274
 21
291.0723567030331
 31
0.0
  0
LINE
  5
76
330
1F
100
AcDbEntity
  8
0
100
AcDbLine
 10
72.52864082000409
 20
290.7105136684079
 30
0.0
 11
71.48675162933024
 21
290.8016659340759
 31
0.0
  0
LINE
  5
77
330
1F
100
AcDbEntity
  8
0
100
AcDbLine
 10
73.57053094200049
 20
290.8016659340759
 30
0.0
 11
72.52864082000409
 21
290.7105136684079
 31
0.0
  0
LINE
  5
78
330
1F
100
AcDbEntity
  8
0
100
AcDbLine
 10
74.58076261571797
 20
291.0723567030331
 30
0.0
 11
73.57053094200049
 21
290.8016659340759
 31
0.0
  0
LINE
  5
79
330
1F
100
AcDbEntity
  8
0
100
AcDbLine
 10
75.52864038041983
 20
291.5143605343004
 30
0.0
 11
74.58076261571797
 21
291.0723567030331
 31
0.0
  0
LINE
  5
7A
330
1F
100
AcDbEntity
  8
0
100
AcDbLine
 10
76.38536587945374
 20
292.1142458937068
 30
0.0
 11
75.52864038041983
 21
291.5143605343004
 31
0.0
  0
LINE
  5
7B
330
1F
100
AcDbEntity
  8
0
100
AcDbLine
 10
77.12490678421412
 20
292.8537867984672
 30
0.0
 11
76.38536587945374
 21
292.1142458937068
 31
0.0
  0
LINE
  5
7C
330
1F
100
AcDbEntity
  8
0
100
AcDbLine
 10
77.72479400626572
 20
293.7105122975012
 30
0.0
 11
77.12490678421412
 21
292.8537867984672
 31
0.0
  0
LINE
  5
7D
330
1F
100
AcDbEntity
  8
0
100
AcDbLine
 10
78.16679597488793
 20
294.6583919248482
 30
0.0
 11
77.72479400626572
 21
293.7105122975012
 31
0.0
  0
LINE
  5
7E
330
1F
100
AcDbEntity
  8
0
100
AcDbLine
 10
78.43748674384507
 20
295.6686235985656
 30
0.0
 11
78.16679597488793
 21
294.6583919248482
 31
0.0
  0
LINE
  5
7F
330
1F
100
AcDbEntity
  8
0
100
AcDbLine
 10
78.52864087215814
 20
296.7105127892395
 30
0.0
 11
78.43748674384507
 21
295.6686235985656
 31
0.0
  0
LINE
  5
80
330
1F
100
AcDbEntity
  8
0
100
AcDbLine
 10
78.43748674384507
 20
297.7524019799133
 30
0.0
 11
78.52864087215814
 21
296.7105127892395
 31
0.0
  0
LINE
  5
81
330
1F
100
AcDbEntity
  8
0
100
AcDbLine
 10
78.16679597488793
 20
298.7626336536308
 30
0.0
 11
78.43748674384507
 21
297.7524019799133
 31
0.0
  0
LINE
  5
82
330
1F
100
AcDbEntity
  8
0
100
AcDbLine
 10
77.72479400626572
 20
299.7105132809778
 30
0.0
 11
78.16679597488793
 21
298.7626336536308
 31
0.0
  0
LINE
  5
83
330
1F
100
AcDbEntity
  8
0
100
AcDbLine
 10
77.12490678421412
 20
300.5672387800117
 30
0.0
 11
77.72479400626572
 21
299.7105132809778
 31
0.0
  0
LINE
  5
84
330
1F
100
AcDbEntity
  8
0
100
AcDbLine
 10
76.38536587945374
 20
301.306779684772
 30
0.0
 11
77.12490678421412
 21
300.5672387800117
 31
0.0
  0
LINE
  5
85
330
1F
100
AcDbEntity
  8
0
100
AcDbLine
 10
75.52864038041983
 20
301.9066650441785
 30
0.0
 11
76.38536587945374
 21
301.306779684772
 31
0.0
  0
LINE
  5
86
330
1F
100
AcDbEntity
  8
0
100
AcDbLine
 10
74.58076261571797
 20
302.3486688754459
 30
0.0
 11
75.52864038041983
 21
301.9066650441785
 31
0.0
  0
LINE
  5
87
330
1F
100
AcDbEntity
  8
0
100
AcDbLine
 10
73.57053094200049
 20
302.619359644403
 30
0.0
 11
74.58076261571797
 21
302.3486688754459
 31
0.0
  0
LINE
  5
88
330
1F
100
AcDbEntity
  8
0
100
AcDbLine
 10
72.52864082000409
 20
302.7105128413936
 30
0.0
 11
73.57053094200049
 21
302.619359644403
 31
0.0
  0
LINE
  5
89
330
1F
100
AcDbEntity
  8
0
100
AcDbLine
 10
71.48675162933024
 20
302.619359644403
 30
0.0
 11
72.52864082000409
 21
302.7105128413936
 31
0.0
  0
LINE
  5
8A
330
1F
100
AcDbEntity
  8
0
100
AcDbLine
 10
70.47651995561274
 20
302.3486688754459
 30
0.0
 11
71.48675162933024
 21
302.619359644403
 31
0.0
  0
LINE
  5
8B
330
1F
100
AcDbEntity
  8
0
100
AcDbLine
 10
69.52864125958834
 20
301.9066650441785
 30
0.0
 11
70.47651995561274
 21
302.3486688754459
 31
0.0
  0
LINE
  5
8C
330
1F
100
AcDbEntity
  8
0
100
AcDbLine
 10
68.67191576055441
 20
301.306779684772
 30
0.0
 11
69.52864125958834
 21
301.9066650441785
 31
0.0
  0
LINE
  5
8D
330
1F
100
AcDbEntity
  8
0
100
AcDbLine
 10
67.93237392447146
 20
300.5672387800117
 30
0.0
 11
68.67191576055441
 21
301.306779684772
 31
0.0
  0
LINE
  5
8E
330
1F
100
AcDbEntity
  8
0
100
AcDbLine
 10
67.33248856506499
 20
299.7105132809778
 30
0.0
 11
67.93237392447146
 21
300.5672387800117
 31
0.0
  0
LINE
  5
8F
330
1F
100
AcDbEntity
  8
0
100
AcDbLine
 10
66.89048566512021
 20
298.7626336536308
 30
0.0
 11
67.33248856506499
 21
299.7105132809778
 31
0.0
  0
LINE
  5
90
330
1F
100
AcDbEntity
  8
0
100
AcDbLine
 10
239.8373895197288
 20
295.6686235985656
 30
0.0
 11
239.746239116706
 21
296.7105127892395
 31
0.0
  0
LINE
  5
91
330
1F
100
AcDbEntity
  8
0
100
AcDbLine
 10
239.746239116706
 20
296.7105127892395
 30
0.0
 11
239.8373895197288
 21
297.7524019799133
 31
0.0
  0
LINE
  5
92
330
1F
100
AcDbEntity
  8
0
100
AcDbLine
 10
239.8373895197288
 20
297.7524019799133
 30
0.0
 11
240.1080840139762
 21
298.7626336536308
 31
0.0
  0
LINE
  5
93
330
1F
100
AcDbEntity
  8
0
100
AcDbLine
 10
240.1080840139762
 20
294.6583919248482
 30
0.0
 11
239.8373895197288
 21
295.6686235985656
 31
0.0
  0
LINE
  5
94
330
1F
100
AcDbEntity
  8
0
100
AcDbLine
 10
240.5500822573081
 20
293.7105122975012
 30
0.0
 11
240.1080840139762
 21
294.6583919248482
 31
0.0
  0
LINE
  5
95
330
1F
100
AcDbEntity
  8
0
100
AcDbLine
 10
241.14997320465
 20
292.8537867984672
 30
0.0
 11
240.5500822573081
 21
293.7105122975012
 31
0.0
  0
LINE
  5
96
330
1F
100
AcDbEntity
  8
0
100
AcDbLine
 10
241.8895178347007
 20
292.1142458937068
 30
0.0
 11
241.14997320465
 21
292.8537867984672
 31
0.0
  0
LINE
  5
97
330
1F
100
AcDbEntity
  8
0
100
AcDbLine
 10
242.7462451963798
 20
291.5143605343004
 30
0.0
 11
241.8895178347007
 21
292.1142458937068
 31
0.0
  0
LINE
  5
98
330
1F
100
AcDbEntity
  8
0
100
AcDbLine
 10
243.6941229610816
 20
291.0723567030331
 30
0.0
 11
242.7462451963798
 21
291.5143605343004
 31
0.0
  0
LINE
  5
99
330
1F
100
AcDbEntity
  8
0
100
AcDbLine
 10
244.7043471842185
 20
290.8016659340759
 30
0.0
 11
243.6941229610816
 21
291.0723567030331
 31
0.0
  0
LINE
  5
9A
330
1F
100
AcDbEntity
  8
0
100
AcDbLine
 10
245.7462363748923
 20
290.7105136684079
 30
0.0
 11
244.7043471842185
 21
290.8016659340759
 31
0.0
  0
LINE
  5
9B
330
1F
100
AcDbEntity
  8
0
100
AcDbLine
 10
246.7881255655661
 20
290.8016659340759
 30
0.0
 11
245.7462363748923
 21
290.7105136684079
 31
0.0
  0
LINE
  5
9C
330
1F
100
AcDbEntity
  8
0
100
AcDbLine
 10
247.7983646898642
 20
291.0723567030331
 30
0.0
 11
246.7881255655661
 21
290.8016659340759
 31
0.0
  0
LINE
  5
9D
330
1F
100
AcDbEntity
  8
0
100
AcDbLine
 10
248.7462424545661
 20
291.5143605343004
 30
0.0
 11
247.7983646898642
 21
291.0723567030331
 31
0.0
  0
LINE
  5
9E
330
1F
100
AcDbEntity
  8
0
100
AcDbLine
 10
249.6029698162452
 20
292.1142458937068
 30
0.0
 11
248.7462424545661
 21
291.5143605343004
 31
0.0
  0
LINE
  5
9F
330
1F
100
AcDbEntity
  8
0
100
AcDbLine
 10
250.3425144462959
 20
292.8537867984672
 30
0.0
 11
249.6029698162452
 21
292.1142458937068
 31
0.0
  0
LINE
  5
A0
330
1F
100
AcDbEntity
  8
0
100
AcDbLine
 10
250.9423904924766
 20
293.7105122975012
 30
0.0
 11
250.3425144462959
 21
292.8537867984672
 31
0.0
  0
LINE
  5
A1
330
1F
100
AcDbEntity
  8
0
100
AcDbLine
 10
251.3844036369697
 20
294.6583919248482
 30
0.0
 11
250.9423904924766
 21
293.7105122975012
 31
0.0
  0
LINE
  5
A2
330
1F
100
AcDbEntity
  8
0
100
AcDbLine
 10
251.6550832300559
 20
295.6686235985656
 30
0.0
 11
251.3844036369697
 21
294.6583919248482
 31
0.0
  0
LINE
  5
A3
330
1F
100
AcDbEntity
  8
0
100
AcDbLine
 10
251.7462336330787
 20
296.7105127892395
 30
0.0
 11
251.6550832300559
 21
295.6686235985656
 31
0.0
  0
LINE
  5
A4
330
1F
100
AcDbEntity
  8
0
100
AcDbLine
 10
251.6550832300559
 20
297.7524019799133
 30
0.0
 11
251.7462336330787
 21
296.7105127892395
 31
0.0
  0
LINE
  5
A5
330
1F
100
AcDbEntity
  8
0
100
AcDbLine
 10
251.3844036369697
 20
298.7626336536308
 30
0.0
 11
251.6550832300559
 21
297.7524019799133
 31
0.0
  0
LINE
  5
A6
330
1F
100
AcDbEntity
  8
0
100
AcDbLine
 10
250.9423904924766
 20
299.7105132809778
 30
0.0
 11
251.3844036369697
 21
298.7626336536308
 31
0.0
  0
LINE
  5
A7
330
1F
100
AcDbEntity
  8
0
100
AcDbLine
 10
250.3425144462959
 20
300.5672387800117
 30
0.0
 11
250.9423904924766
 21
299.7105132809778
 31
0.0
  0
LINE
  5
A8
330
1F
100
AcDbEntity
  8
0
100
AcDbLine
 10
249.6029698162452
 20
301.306779684772
 30
0.0
 11
250.3425144462959
 21
300.5672387800117
 31
0.0
  0
LINE
  5
A9
330
1F
100
AcDbEntity
  8
0
100
AcDbLine
 10
248.7462424545661
 20
301.9066650441785
 30
0.0
 11
249.6029698162452
 21
301.306779684772
 31
0.0
  0
LINE
  5
AA
330
1F
100
AcDbEntity
  8
0
100
AcDbLine
 10
247.7983646898642
 20
302.3486688754459
 30
0.0
 11
248.7462424545661
 21
301.9066650441785
 31
0.0
  0
LINE
  5
AB
330
1F
100
AcDbEntity
  8
0
100
AcDbLine
 10
246.7881255655661
 20
302.619359644403
 30
0.0
 11
247.7983646898642
 21
302.3486688754459
 31
0.0
  0
LINE
  5
AC
330
1F
100
AcDbEntity
  8
0
100
AcDbLine
 10
245.7462363748923
 20
302.7105128413936
 30
0.0
 11
246.7881255655661
 21
302.619359644403
 31
0.0
  0
LINE
  5
AD
330
1F
100
AcDbEntity
  8
0
100
AcDbLine
 10
244.7043471842185
 20
302.619359644403
 30
0.0
 11
245.7462363748923
 21
302.7105128413936
 31
0.0
  0
LINE
  5
AE
330
1F
100
AcDbEntity
  8
0
100
AcDbLine
 10
243.6941229610816
 20
302.3486688754459
 30
0.0
 11
244.7043471842185
 21
302.619359644403
 31
0.0
  0
LINE
  5
AF
330
1F
100
AcDbEntity
  8
0
100
AcDbLine
 10
242.7462451963798
 20
301.9066650441785
 30
0.0
 11
243.6941229610816
 21
302.3486688754459
 31
0.0
  0
LINE
  5
B0
330
1F
100
AcDbEntity
  8
0
100
AcDbLine
 10
241.8895178347007
 20
301.306779684772
 30
0.0
 11
242.7462451963798
 21
301.9066650441785
 31
0.0
  0
LINE
  5
B1
330
1F
100
AcDbEntity
  8
0
100
AcDbLine
 10
241.14997320465
 20
300.5672387800117
 30
0.0
 11
241.8895178347007
 21
301.306779684772
 31
0.0
  0
LINE
  5
B2
330
1F
100
AcDbEntity
  8
0
100
AcDbLine
 10
240.5500822573081
 20
299.7105132809778
 30
0.0
 11
241.14997320465
 21
300.5672387800117
 31
0.0
  0
LINE
  5
B3
330
1F
100
AcDbEntity
  8
0
100
AcDbLine
 10
240.1080840139762
 20
298.7626336536308
 30
0.0
 11
240.5500822573081
 21
299.7105132809778
 31
0.0
  0
LINE
  5
B4
330
1F
100
AcDbEntity
  8
0
100
AcDbLine
 10
413.0549990444557
 20
295.6686235985656
 30
0.0
 11
412.9638337402717
 21
296.7105127892395
 31
0.0
  0
LINE
  5
B5
330
1F
100
AcDbEntity
  8
0
100
AcDbLine
 10
412.9638337402717
 20
296.7105127892395
 30
0.0
 11
413.0549990444557
 21
297.7524019799133
 31
0.0
  0
LINE
  5
B6
330
1F
100
AcDbEntity
  8
0
100
AcDbLine
 10
413.0549990444557
 20
297.7524019799133
 30
0.0
 11
413.3256935387031
 21
298.7626336536308
 31
0.0
  0
LINE
  5
B7
330
1F
100
AcDbEntity
  8
0
100
AcDbLine
 10
413.3256935387031
 20
294.6583919248482
 30
0.0
 11
413.0549990444557
 21
295.6686235985656
 31
0.0
  0
LINE
  5
B8
330
1F
100
AcDbEntity
  8
0
100
AcDbLine
 10
413.7676917820349
 20
293.7105122975012
 30
0.0
 11
413.3256935387031
 21
294.6583919248482
 31
0.0
  0
LINE
  5
B9
330
1F
100
AcDbEntity
  8
0
100
AcDbLine
 10
414.3675827293769
 20
292.8537867984672
 30
0.0
 11
413.7676917820349
 21
293.7105122975012
 31
0.0
  0
LINE
  5
BA
330
1F
100
AcDbEntity
  8
0
100
AcDbLine
 10
415.1071273594275
 20
292.1142458937068
 30
0.0
 11
414.3675827293769
 21
292.8537867984672
 31
0.0
  0
LINE
  5
BB
330
1F
100
AcDbEntity
  8
0
100
AcDbLine
 10
415.9638547211066
 20
291.5143605343004
 30
0.0
 11
415.1071273594275
 21
292.1142458937068
 31
0.0
  0
LINE
  5
BC
330
1F
100
AcDbEntity
  8
0
100
AcDbLine
 10
416.9117175846473
 20
291.0723567030331
 30
0.0
 11
415.9638547211066
 21
291.5143605343004
 31
0.0
  0
LINE
  5
BD
330
1F
100
AcDbEntity
  8
0
100
AcDbLine
 10
417.9219567089453
 20
290.8016659340759
 30
0.0
 11
416.9117175846473
 21
291.0723567030331
 31
0.0
  0
LINE
  5
BE
330
1F
100
AcDbEntity
  8
0
100
AcDbLine
 10
418.9638458996192
 20
290.7105136684079
 30
0.0
 11
417.9219567089453
 21
290.8016659340759
 31
0.0
  0
LINE
  5
BF
330
1F
100
AcDbEntity
  8
0
100
AcDbLine
 10
420.0057350902931
 20
290.8016659340759
 30
0.0
 11
418.9638458996192
 21
290.7105136684079
 31
0.0
  0
LINE
  5
C0
330
1F
100
AcDbEntity
  8
0
100
AcDbLine
 10
421.0159742145912
 20
291.0723567030331
 30
0.0
 11
420.0057350902931
 21
290.8016659340759
 31
0.0
  0
LINE
  5
C1
330
1F
100
AcDbEntity
  8
0
100
AcDbLine
 10
421.9638370781317
 20
291.5143605343004
 30
0.0
 11
421.0159742145912
 21
291.0723567030331
 31
0.0
  0
LINE
  5
C2
330
1F
100
AcDbEntity
  8
0
100
AcDbLine
 10
422.8205644398109
 20
292.1142458937068
 30
0.0
 11
421.9638370781317
 21
291.5143605343004
 31
0.0
  0
LINE
  5
C3
330
1F
100
AcDbEntity
  8
0
100
AcDbLine
 10
423.5601090698615
 20
292.8537867984672
 30
0.0
 11
422.8205644398109
 21
292.1142458937068
 31
0.0
  0
LINE
  5
C4
330
1F
100
AcDbEntity
  8
0
100
AcDbLine
 10
424.1600000172035
 20
293.7105122975012
 30
0.0
 11
423.5601090698615
 21
292.8537867984672
 31
0.0
  0
LINE
  5
C5
330
1F
100
AcDbEntity
  8
0
100
AcDbLine
 10
424.6019982605353
 20
294.6583919248482
 30
0.0
 11
424.1600000172035
 21
293.7105122975012
 31
0.0
  0
LINE
  5
C6
330
1F
100
AcDbEntity
  8
0
100
AcDbLine
 10
424.8726927547829
 20
295.6686235985656
 30
0.0
 11
424.6019982605353
 21
294.6583919248482
 31
0.0
  0
LINE
  5
C7
330
1F
100
AcDbEntity
  8
0
100
AcDbLine
 10
424.9638282566444
 20
296.7105127892395
 30
0.0
 11
424.8726927547829
 21
295.6686235985656
 31
0.0
  0
LINE
  5
C8
330
1F
100
AcDbEntity
  8
0
100
AcDbLine
 10
424.8726927547829
 20
297.7524019799133
 30
0.0
 11
424.9638282566444
 21
296.7105127892395
 31
0.0
  0
LINE
  5
C9
330
1F
100
AcDbEntity
  8
0
100
AcDbLine
 10
424.6019982605353
 20
298.7626336536308
 30
0.0
 11
424.8726927547829
 21
297.7524019799133
 31
0.0
  0
LINE
  5
CA
330
1F
100
AcDbEntity
  8
0
100
AcDbLine
 10
424.1600000172035
 20
299.7105132809778
 30
0.0
 11
424.6019982605353
 21
298.7626336536308
 31
0.0
  0
LINE
  5
CB
330
1F
100
AcDbEntity
  8
0
100
AcDbLine
 10
423.5601090698615
 20
300.5672387800117
 30
0.0
 11
424.1600000172035
 21
299.7105132809778
 31
0.0
  0
LINE
  5
CC
330
1F
100
AcDbEntity
  8
0
100
AcDbLine
 10
422.8205644398109
 20
301.306779684772
 30
0.0
 11
423.5601090698615
 21
300.5672387800117
 31
0.0
  0
LINE
  5
CD
330
1F
100
AcDbEntity
  8
0
100
AcDbLine
 10
421.9638370781317
 20
301.9066650441785
 30
0.0
 11
422.8205644398109
 21
301.306779684772
 31
0.0
  0
LINE
  5
CE
330
1F
100
AcDbEntity
  8
0
100
AcDbLine
 10
421.0159742145912
 20
302.3486688754459
 30
0.0
 11
421.9638370781317
 21
301.9066650441785
 31
0.0
  0
LINE
  5
CF
330
1F
100
AcDbEntity
  8
0
100
AcDbLine
 10
420.0057350902931
 20
302.619359644403
 30
0.0
 11
421.0159742145912
 21
302.3486688754459
 31
0.0
  0
LINE
  5
D0
330
1F
100
AcDbEntity
  8
0
100
AcDbLine
 10
418.9638458996192
 20
302.7105128413936
 30
0.0
 11
420.0057350902931
 21
302.619359644403
 31
0.0
  0
LINE
  5
D1
330
1F
100
AcDbEntity
  8
0
100
AcDbLine
 10
417.9219567089453
 20
302.619359644403
 30
0.0
 11
418.9638458996192
 21
302.7105128413936
 31
0.0
  0
LINE
  5
D2
330
1F
100
AcDbEntity
  8
0
100
AcDbLine
 10
416.9117175846473
 20
302.3486688754459
 30
0.0
 11
417.9219567089453
 21
302.619359644403
 31
0.0
  0
LINE
  5
D3
330
1F
100
AcDbEntity
  8
0
100
AcDbLine
 10
415.9638547211066
 20
301.9066650441785
 30
0.0
 11
416.9117175846473
 21
302.3486688754459
 31
0.0
  0
LINE
  5
D4
330
1F
100
AcDbEntity
  8
0
100
AcDbLine
 10
415.1071273594275
 20
301.306779684772
 30
0.0
 11
415.9638547211066
 21
301.9066650441785
 31
0.0
  0
LINE
  5
D5
330
1F
100
AcDbEntity
  8
0
100
AcDbLine
 10
414.3675827293769
 20
300.5672387800117
 30
0.0
 11
415.1071273594275
 21
301.306779684772
 31
0.0
  0
LINE
  5
D6
330
1F
100
AcDbEntity
  8
0
100
AcDbLine
 10
413.7676917820349
 20
299.7105132809778
 30
0.0
 11
414.3675827293769
 21
300.5672387800117
 31
0.0
  0
LINE
  5
D7
330
1F
100
AcDbEntity
  8
0
100
AcDbLine
 10
413.3256935387031
 20
298.7626336536308
 30
0.0
 11
413.7676917820349
 21
299.7105132809778
 31
0.0
  0
LINE
  5
D8
330
1F
100
AcDbEntity
  8
0
100
AcDbLine
 10
586.2726234703437
 20
295.6686235985656
 30
0.0
 11
586.1814283638374
 21
296.7105127892395
 31
0.0
  0
LINE
  5
D9
330
1F
100
AcDbEntity
  8
0
100
AcDbLine
 10
586.1814283638374
 20
296.7105127892395
 30
0.0
 11
586.2726234703437
 21
297.7524019799133
 31
0.0
  0
LINE
  5
DA
330
1F
100
AcDbEntity
  8
0
100
AcDbLine
 10
586.2726234703437
 20
297.7524019799133
 30
0.0
 11
586.5432881622687
 21
298.7626336536308
 31
0.0
  0
LINE
  5
DB
330
1F
100
AcDbEntity
  8
0
100
AcDbLine
 10
586.5432881622687
 20
294.6583919248482
 30
0.0
 11
586.2726234703437
 21
295.6686235985656
 31
0.0
  0
LINE
  5
DC
330
1F
100
AcDbEntity
  8
0
100
AcDbLine
 10
586.985316207923
 20
293.7105122975012
 30
0.0
 11
586.5432881622687
 21
294.6583919248482
 31
0.0
  0
LINE
  5
DD
330
1F
100
AcDbEntity
  8
0
100
AcDbLine
 10
587.5851773529425
 20
292.8537867984672
 30
0.0
 11
586.985316207923
 21
293.7105122975012
 31
0.0
  0
LINE
  5
DE
330
1F
100
AcDbEntity
  8
0
100
AcDbLine
 10
588.3246921806709
 20
292.1142458937068
 30
0.0
 11
587.5851773529425
 21
292.8537867984672
 31
0.0
  0
LINE
  5
DF
330
1F
100
AcDbEntity
  8
0
100
AcDbLine
 10
589.1814493446723
 20
291.5143605343004
 30
0.0
 11
588.3246921806709
 21
292.1142458937068
 31
0.0
  0
LINE
  5
E0
330
1F
100
AcDbEntity
  8
0
100
AcDbLine
 10
590.1293420105354
 20
291.0723567030331
 30
0.0
 11
589.1814493446723
 21
291.5143605343004
 31
0.0
  0
LINE
  5
E1
330
1F
100
AcDbEntity
  8
0
100
AcDbLine
 10
591.1395811348335
 20
290.8016659340759
 30
0.0
 11
590.1293420105354
 21
291.0723567030331
 31
0.0
  0
LINE
  5
E2
330
1F
100
AcDbEntity
  8
0
100
AcDbLine
 10
592.1814703255072
 20
290.7105136684079
 30
0.0
 11
591.1395811348335
 21
290.8016659340759
 31
0.0
  0
LINE
  5
E3
330
1F
100
AcDbEntity
  8
0
100
AcDbLine
 10
593.2233595161811
 20
290.8016659340759
 30
0.0
 11
592.1814703255072
 21
290.7105136684079
 31
0.0
  0
LINE
  5
E4
330
1F
100
AcDbEntity
  8
0
100
AcDbLine
 10
594.2335390358344
 20
291.0723567030331
 30
0.0
 11
593.2233595161811
 21
290.8016659340759
 31
0.0
  0
LINE
  5
E5
330
1F
100
AcDbEntity
  8
0
100
AcDbLine
 10
595.1814317016974
 20
291.5143605343004
 30
0.0
 11
594.2335390358344
 21
291.0723567030331
 31
0.0
  0
LINE
  5
E6
330
1F
100
AcDbEntity
  8
0
100
AcDbLine
 10
596.038188865699
 20
292.1142458937068
 30
0.0
 11
595.1814317016974
 21
291.5143605343004
 31
0.0
  0
LINE
  5
E7
330
1F
100
AcDbEntity
  8
0
100
AcDbLine
 10
596.7777036934272
 20
292.8537867984672
 30
0.0
 11
596.038188865699
 21
292.1142458937068
 31
0.0
  0
LINE
  5
E8
330
1F
100
AcDbEntity
  8
0
100
AcDbLine
 10
597.3775648384467
 20
293.7105122975012
 30
0.0
 11
596.7777036934272
 21
292.8537867984672
 31
0.0
  0
LINE
  5
E9
330
1F
100
AcDbEntity
  8
0
100
AcDbLine
 10
597.819592884101
 20
294.6583919248482
 30
0.0
 11
597.3775648384467
 21
293.7105122975012
 31
0.0
  0
LINE
  5
EA
330
1F
100
AcDbEntity
  8
0
100
AcDbLine
 10
598.0903171806708
 20
295.6686235985656
 30
0.0
 11
597.819592884101
 21
294.6583919248482
 31
0.0
  0
LINE
  5
EB
330
1F
100
AcDbEntity
  8
0
100
AcDbLine
 10
598.1814526825324
 20
296.7105127892395
 30
0.0
 11
598.0903171806708
 21
295.6686235985656
 31
0.0
  0
LINE
  5
EC
330
1F
100
AcDbEntity
  8
0
100
AcDbLine
 10
598.0903171806708
 20
297.7524019799133
 30
0.0
 11
598.1814526825324
 21
296.7105127892395
 31
0.0
  0
LINE
  5
ED
330
1F
100
AcDbEntity
  8
0
100
AcDbLine
 10
597.819592884101
 20
298.7626336536308
 30
0.0
 11
598.0903171806708
 21
297.7524019799133
 31
0.0
  0
LINE
  5
EE
330
1F
100
AcDbEntity
  8
0
100
AcDbLine
 10
597.3775648384467
 20
299.7105132809778
 30
0.0
 11
597.819592884101
 21
298.7626336536308
 31
0.0
  0
LINE
  5
EF
330
1F
100
AcDbEntity
  8
0
100
AcDbLine
 10
596.7777036934272
 20
300.5672387800117
 30
0.0
 11
597.3775648384467
 21
299.7105132809778
 31
0.0
  0
LINE
  5
F0
330
1F
100
AcDbEntity
  8
0
100
AcDbLine
 10
596.038188865699
 20
301.306779684772
 30
0.0
 11
596.7777036934272
 21
300.5672387800117
 31
0.0
  0
LINE
  5
F1
330
1F
100
AcDbEntity
  8
0
100
AcDbLine
 10
595.1814317016974
 20
301.9066650441785
 30
0.0
 11
596.038188865699
 21
301.306779684772
 31
0.0
  0
LINE
  5
F2
330
1F
100
AcDbEntity
  8
0
100
AcDbLine
 10
594.2335390358344
 20
302.3486688754459
 30
0.0
 11
595.1814317016974
 21
301.9066650441785
 31
0.0
  0
LINE
  5
F3
330
1F
100
AcDbEntity
  8
0
100
AcDbLine
 10
593.2233595161811
 20
302.619359644403
 30
0.0
 11
594.2335390358344
 21
302.3486688754459
 31
0.0
  0
LINE
  5
F4
330
1F
100
AcDbEntity
  8
0
100
AcDbLine
 10
592.1814703255072
 20
302.7105128413936
 30
0.0
 11
593.2233595161811
 21
302.619359644403
 31
0.0
  0
LINE
  5
F5
330
1F
100
AcDbEntity
  8
0
100
AcDbLine
 10
591.1395811348335
 20
302.619359644403
 30
0.0
 11
592.1814703255072
 21
302.7105128413936
 31
0.0
  0
LINE
  5
F6
330
1F
100
AcDbEntity
  8
0
100
AcDbLine
 10
590.1293420105354
 20
302.3486688754459
 30
0.0
 11
591.1395811348335
 21
302.619359644403
 31
0.0
  0
LINE
  5
F7
330
1F
100
AcDbEntity
  8
0
100
AcDbLine
 10
589.1814493446723
 20
301.9066650441785
 30
0.0
 11
590.1293420105354
 21
302.3486688754459
 31
0.0
  0
LINE
  5
F8
330
1F
100
AcDbEntity
  8
0
100
AcDbLine
 10
588.3246921806709
 20
301.306779684772
 30
0.0
 11
589.1814493446723
 21
301.9066650441785
 31
0.0
  0
LINE
  5
F9
330
1F
100
AcDbEntity
  8
0
100
AcDbLine
 10
587.5851773529425
 20
300.5672387800117
 30
0.0
 11
588.3246921806709
 21
301.306779684772
 31
0.0
  0
LINE
  5
FA
330
1F
100
AcDbEntity
  8
0
100
AcDbLine
 10
586.985316207923
 20
299.7105132809778
 30
0.0
 11
587.5851773529425
 21
300.5672387800117
 31
0.0
  0
LINE
  5
FB
330
1F
100
AcDbEntity
  8
0
100
AcDbLine
 10
586.5432881622687
 20
298.7626336536308
 30
0.0
 11
586.985316207923
 21
299.7105132809778
 31
0.0
  0
LINE
  5
FC
330
1F
100
AcDbEntity
  8
0
100
AcDbLine
 10
759.4902180939093
 20
295.6686235985656
 30
0.0
 11
759.3990229874031
 21
296.7105127892395
 31
0.0
  0
LINE
  5
FD
330
1F
100
AcDbEntity
  8
0
100
AcDbLine
 10
759.3990229874031
 20
296.7105127892395
 30
0.0
 11
759.4902180939093
 21
297.7524019799133
 31
0.0
  0
LINE
  5
FE
330
1F
100
AcDbEntity
  8
0
100
AcDbLine
 10
759.4902180939093
 20
297.7524019799133
 30
0.0
 11
759.7608827858344
 21
298.7626336536308
 31
0.0
  0
LINE
  5
FF
330
1F
100
AcDbEntity
  8
0
100
AcDbLine
 10
759.7608827858344
 20
294.6583919248482
 30
0.0
 11
759.4902180939093
 21
295.6686235985656
 31
0.0
  0
LINE
  5
100
330
1F
100
AcDbEntity
  8
0
100
AcDbLine
 10
760.2029108314888
 20
293.7105122975012
 30
0.0
 11
759.7608827858344
 21
294.6583919248482
 31
0.0
  0
LINE
  5
101
330
1F
100
AcDbEntity
  8
0
100
AcDbLine
 10
760.8027719765082
 20
292.8537867984672
 30
0.0
 11
760.2029108314888
 21
293.7105122975012
 31
0.0
  0
LINE
  5
102
330
1F
100
AcDbEntity
  8
0
100
AcDbLine
 10
761.5422868042365
 20
292.1142458937068
 30
0.0
 11
760.8027719765082
 21
292.8537867984672
 31
0.0
  0
LINE
  5
103
330
1F
100
AcDbEntity
  8
0
100
AcDbLine
 10
762.399043968238
 20
291.5143605343004
 30
0.0
 11
761.5422868042365
 21
292.1142458937068
 31
0.0
  0
LINE
  5
104
330
1F
100
AcDbEntity
  8
0
100
AcDbLine
 10
763.346936634101
 20
291.0723567030331
 30
0.0
 11
762.399043968238
 21
291.5143605343004
 31
0.0
  0
LINE
  5
105
330
1F
100
AcDbEntity
  8
0
100
AcDbLine
 10
764.3571757583992
 20
290.8016659340759
 30
0.0
 11
763.346936634101
 21
291.0723567030331
 31
0.0
  0
LINE
  5
106
330
1F
100
AcDbEntity
  8
0
100
AcDbLine
 10
765.399064949073
 20
290.7105136684079
 30
0.0
 11
764.3571757583992
 21
290.8016659340759
 31
0.0
  0
LINE
  5
107
330
1F
100
AcDbEntity
  8
0
100
AcDbLine
 10
766.4409541397467
 20
290.8016659340759
 30
0.0
 11
765.399064949073
 21
290.7105136684079
 31
0.0
  0
LINE
  5
108
330
1F
100
AcDbEntity
  8
0
100
AcDbLine
 10
767.4511336594002
 20
291.0723567030331
 30
0.0
 11
766.4409541397467
 21
290.8016659340759
 31
0.0
  0
LINE
  5
109
330
1F
100
AcDbEntity
  8
0
100
AcDbLine
 10
768.3990263252631
 20
291.5143605343004
 30
0.0
 11
767.4511336594002
 21
291.0723567030331
 31
0.0
  0
LINE
  5
10A
330
1F
100
AcDbEntity
  8
0
100
AcDbLine
 10
769.2557834892646
 20
292.1142458937068
 30
0.0
 11
768.3990263252631
 21
291.5143605343004
 31
0.0
  0
LINE
  5
10B
330
1F
100
AcDbEntity
  8
0
100
AcDbLine
 10
769.9952983169928
 20
292.8537867984672
 30
0.0
 11
769.2557834892646
 21
292.1142458937068
 31
0.0
  0
LINE
  5
10C
330
1F
100
AcDbEntity
  8
0
100
AcDbLine
 10
770.5952190666571
 20
293.7105122975012
 30
0.0
 11
769.9952983169928
 21
292.8537867984672
 31
0.0
  0
LINE
  5
10D
330
1F
100
AcDbEntity
  8
0
100
AcDbLine
 10
771.0371875076667
 20
294.6583919248482
 30
0.0
 11
770.5952190666571
 21
293.7105122975012
 31
0.0
  0
LINE
  5
10E
330
1F
100
AcDbEntity
  8
0
100
AcDbLine
 10
771.3079118042365
 20
295.6686235985656
 30
0.0
 11
771.0371875076667
 21
294.6583919248482
 31
0.0
  0
LINE
  5
10F
330
1F
100
AcDbEntity
  8
0
100
AcDbLine
 10
771.3990473060982
 20
296.7105127892395
 30
0.0
 11
771.3079118042365
 21
295.6686235985656
 31
0.0
  0
LINE
  5
110
330
1F
100
AcDbEntity
  8
0
100
AcDbLine
 10
771.3079118042365
 20
297.7524019799133
 30
0.0
 11
771.3990473060982
 21
296.7105127892395
 31
0.0
  0
LINE
  5
111
330
1F
100
AcDbEntity
  8
0
100
AcDbLine
 10
771.0371875076667
 20
298.7626336536308
 30
0.0
 11
771.3079118042365
 21
297.7524019799133
 31
0.0
  0
LINE
  5
112
330
1F
100
AcDbEntity
  8
0
100
AcDbLine
 10
770.5952190666571
 20
299.7105132809778
 30
0.0
 11
771.0371875076667
 21
298.7626336536308
 31
0.0
  0
LINE
  5
113
330
1F
100
AcDbEntity
  8
0
100
AcDbLine
 10
769.9952983169928
 20
300.5672387800117
 30
0.0
 11
770.5952190666571
 21
299.7105132809778
 31
0.0
  0
LINE
  5
114
330
1F
100
AcDbEntity
  8
0
100
AcDbLine
 10
769.2557834892646
 20
301.306779684772
 30
0.0
 11
769.9952983169928
 21
300.5672387800117
 31
0.0
  0
LINE
  5
115
330
1F
100
AcDbEntity
  8
0
100
AcDbLine
 10
768.3990263252631
 20
301.9066650441785
 30
0.0
 11
769.2557834892646
 21
301.306779684772
 31
0.0
  0
LINE
  5
116
330
1F
100
AcDbEntity
  8
0
100
AcDbLine
 10
767.4511336594002
 20
302.3486688754459
 30
0.0
 11
768.3990263252631
 21
301.9066650441785
 31
0.0
  0
LINE
  5
117
330
1F
100
AcDbEntity
  8
0
100
AcDbLine
 10
766.4409541397467
 20
302.619359644403
 30
0.0
 11
767.4511336594002
 21
302.3486688754459
 31
0.0
  0
LINE
  5
118
330
1F
100
AcDbEntity
  8
0
100
AcDbLine
 10
765.399064949073
 20
302.7105128413936
 30
0.0
 11
766.4409541397467
 21
302.619359644403
 31
0.0
  0
LINE
  5
119
330
1F
100
AcDbEntity
  8
0
100
AcDbLine
 10
764.3571757583992
 20
302.619359644403
 30
0.0
 11
765.399064949073
 21
302.7105128413936
 31
0.0
  0
LINE
  5
11A
330
1F
100
AcDbEntity
  8
0
100
AcDbLine
 10
763.346936634101
 20
302.3486688754459
 30
0.0
 11
764.3571757583992
 21
302.619359644403
 31
0.0
  0
LINE
  5
11B
330
1F
100
AcDbEntity
  8
0
100
AcDbLine
 10
762.399043968238
 20
301.9066650441785
 30
0.0
 11
763.346936634101
 21
302.3486688754459
 31
0.0
  0
LINE
  5
11C
330
1F
100
AcDbEntity
  8
0
100
AcDbLine
 10
761.5422868042365
 20
301.306779684772
 30
0.0
 11
762.399043968238
 21
301.9066650441785
 31
0.0
  0
LINE
  5
11D
330
1F
100
AcDbEntity
  8
0
100
AcDbLine
 10
760.8027719765082
 20
300.5672387800117
 30
0.0
 11
761.5422868042365
 21
301.306779684772
 31
0.0
  0
LINE
  5
11E
330
1F
100
AcDbEntity
  8
0
100
AcDbLine
 10
760.2029108314888
 20
299.7105132809778
 30
0.0
 11
760.8027719765082
 21
300.5672387800117
 31
0.0
  0
LINE
  5
11F
330
1F
100
AcDbEntity
  8
0
100
AcDbLine
 10
759.7608827858344
 20
298.7626336536308
 30
0.0
 11
760.2029108314888
 21
299.7105132809778
 31
0.0
  0
LINE
  5
120
330
1F
100
AcDbEntity
  8
0
100
AcDbLine
 10
932.7080511360541
 20
295.6686235985656
 30
0.0
 11
932.6169156341927
 21
296.7105127892395
 31
0.0
  0
LINE
  5
121
330
1F
100
AcDbEntity
  8
0
100
AcDbLine
 10
932.6169156341927
 20
296.7105127892395
 30
0.0
 11
932.7080511360541
 21
297.7524019799133
 31
0.0
  0
LINE
  5
122
330
1F
100
AcDbEntity
  8
0
100
AcDbLine
 10
932.7080511360541
 20
297.7524019799133
 30
0.0
 11
932.9787158279793
 21
298.7626336536308
 31
0.0
  0
LINE
  5
123
330
1F
100
AcDbEntity
  8
0
100
AcDbLine
 10
932.9787158279793
 20
294.6583919248482
 30
0.0
 11
932.7080511360541
 21
295.6686235985656
 31
0.0
  0
LINE
  5
124
330
1F
100
AcDbEntity
  8
0
100
AcDbLine
 10
933.4207438736336
 20
293.7105122975012
 30
0.0
 11
932.9787158279793
 21
294.6583919248482
 31
0.0
  0
LINE
  5
125
330
1F
100
AcDbEntity
  8
0
100
AcDbLine
 10
934.0206050186531
 20
292.8537867984672
 30
0.0
 11
933.4207438736336
 21
293.7105122975012
 31
0.0
  0
LINE
  5
126
330
1F
100
AcDbEntity
  8
0
100
AcDbLine
 10
934.760179451026
 20
292.1142458937068
 30
0.0
 11
934.0206050186531
 21
292.8537867984672
 31
0.0
  0
LINE
  5
127
330
1F
100
AcDbEntity
  8
0
100
AcDbLine
 10
935.6168770103828
 20
291.5143605343004
 30
0.0
 11
934.760179451026
 21
292.1142458937068
 31
0.0
  0
LINE
  5
128
330
1F
100
AcDbEntity
  8
0
100
AcDbLine
 10
936.5647696762458
 20
291.0723567030331
 30
0.0
 11
935.6168770103828
 21
291.5143605343004
 31
0.0
  0
LINE
  5
129
330
1F
100
AcDbEntity
  8
0
100
AcDbLine
 10
937.5750088005439
 20
290.8016659340759
 30
0.0
 11
936.5647696762458
 21
291.0723567030331
 31
0.0
  0
LINE
  5
12A
330
1F
100
AcDbEntity
  8
0
100
AcDbLine
 10
938.6168979912178
 20
290.7105136684079
 30
0.0
 11
937.5750088005439
 21
290.8016659340759
 31
0.0
  0
LINE
  5
12B
330
1F
100
AcDbEntity
  8
0
100
AcDbLine
 10
939.6587871818916
 20
290.8016659340759
 30
0.0
 11
938.6168979912178
 21
290.7105136684079
 31
0.0
  0
LINE
  5
12C
330
1F
100
AcDbEntity
  8
0
100
AcDbLine
 10
940.6690263061897
 20
291.0723567030331
 30
0.0
 11
939.6587871818916
 21
290.8016659340759
 31
0.0
  0
LINE
  5
12D
330
1F
100
AcDbEntity
  8
0
100
AcDbLine
 10
941.6169189720526
 20
291.5143605343004
 30
0.0
 11
940.6690263061897
 21
291.0723567030331
 31
0.0
  0
LINE
  5
12E
330
1F
100
AcDbEntity
  8
0
100
AcDbLine
 10
942.4736165314094
 20
292.1142458937068
 30
0.0
 11
941.6169189720526
 21
291.5143605343004
 31
0.0
  0
LINE
  5
12F
330
1F
100
AcDbEntity
  8
0
100
AcDbLine
 10
943.2131313591377
 20
292.8537867984672
 30
0.0
 11
942.4736165314094
 21
292.1142458937068
 31
0.0
  0
LINE
  5
130
330
1F
100
AcDbEntity
  8
0
100
AcDbLine
 10
943.8130521088021
 20
293.7105122975012
 30
0.0
 11
943.2131313591377
 21
292.8537867984672
 31
0.0
  0
LINE
  5
131
330
1F
100
AcDbEntity
  8
0
100
AcDbLine
 10
944.2550205498115
 20
294.6583919248482
 30
0.0
 11
943.8130521088021
 21
293.7105122975012
 31
0.0
  0
LINE
  5
132
330
1F
100
AcDbEntity
  8
0
100
AcDbLine
 10
944.5257448463814
 20
295.6686235985656
 30
0.0
 11
944.2550205498115
 21
294.6583919248482
 31
0.0
  0
LINE
  5
133
330
1F
100
AcDbEntity
  8
0
100
AcDbLine
 10
944.616880348243
 20
296.7105127892395
 30
0.0
 11
944.5257448463814
 21
295.6686235985656
 31
0.0
  0
LINE
  5
134
330
1F
100
AcDbEntity
  8
0
100
AcDbLine
 10
944.5257448463814
 20
297.7524019799133
 30
0.0
 11
944.616880348243
 21
296.7105127892395
 31
0.0
  0
LINE
  5
135
330
1F
100
AcDbEntity
  8
0
100
AcDbLine
 10
944.2550205498115
 20
298.7626336536308
 30
0.0
 11
944.5257448463814
 21
297.7524019799133
 31
0.0
  0
LINE
  5
136
330
1F
100
AcDbEntity
  8
0
100
AcDbLine
 10
943.8130521088021
 20
299.7105132809778
 30
0.0
 11
944.2550205498115
 21
298.7626336536308
 31
0.0
  0
LINE
  5
137
330
1F
100
AcDbEntity
  8
0
100
AcDbLine
 10
943.2131313591377
 20
300.5672387800117
 30
0.0
 11
943.8130521088021
 21
299.7105132809778
 31
0.0
  0
LINE
  5
138
330
1F
100
AcDbEntity
  8
0
100
AcDbLine
 10
942.4736165314094
 20
301.306779684772
 30
0.0
 11
943.2131313591377
 21
300.5672387800117
 31
0.0
  0
LINE
  5
139
330
1F
100
AcDbEntity
  8
0
100
AcDbLine
 10
941.6169189720526
 20
301.9066650441785
 30
0.0
 11
942.4736165314094
 21
301.306779684772
 31
0.0
  0
LINE
  5
13A
330
1F
100
AcDbEntity
  8
0
100
AcDbLine
 10
940.6690263061897
 20
302.3486688754459
 30
0.0
 11
941.6169189720526
 21
301.9066650441785
 31
0.0
  0
LINE
  5
13B
330
1F
100
AcDbEntity
  8
0
100
AcDbLine
 10
939.6587871818916
 20
302.619359644403
 30
0.0
 11
940.6690263061897
 21
302.3486688754459
 31
0.0
  0
LINE
  5
13C
330
1F
100
AcDbEntity
  8
0
100
AcDbLine
 10
938.6168979912178
 20
302.7105128413936
 30
0.0
 11
939.6587871818916
 21
302.619359644403
 31
0.0
  0
LINE
  5
13D
330
1F
100
AcDbEntity
  8
0
100
AcDbLine
 10
937.5750088005439
 20
302.619359644403
 30
0.0
 11
938.6168979912178
 21
302.7105128413936
 31
0.0
  0
LINE
  5
13E
330
1F
100
AcDbEntity
  8
0
100
AcDbLine
 10
936.5647696762458
 20
302.3486688754459
 30
0.0
 11
937.5750088005439
 21
302.619359644403
 31
0.0
  0
LINE
  5
13F
330
1F
100
AcDbEntity
  8
0
100
AcDbLine
 10
935.6168770103828
 20
301.9066650441785
 30
0.0
 11
936.5647696762458
 21
302.3486688754459
 31
0.0
  0
LINE
  5
140
330
1F
100
AcDbEntity
  8
0
100
AcDbLine
 10
934.760179451026
 20
301.306779684772
 30
0.0
 11
935.6168770103828
 21
301.9066650441785
 31
0.0
  0
LINE
  5
141
330
1F
100
AcDbEntity
  8
0
100
AcDbLine
 10
934.0206050186531
 20
300.5672387800117
 30
0.0
 11
934.760179451026
 21
301.306779684772
 31
0.0
  0
LINE
  5
142
330
1F
100
AcDbEntity
  8
0
100
AcDbLine
 10
933.4207438736336
 20
299.7105132809778
 30
0.0
 11
934.0206050186531
 21
300.5672387800117
 31
0.0
  0
LINE
  5
143
330
1F
100
AcDbEntity
  8
0
100
AcDbLine
 10
932.9787158279793
 20
298.7626336536308
 30
0.0
 11
933.4207438736336
 21
299.7105132809778
 31
0.0
  0
LINE
  5
144
330
1F
100
AcDbEntity
  8
0
100
AcDbLine
 10
932.7080511360541
 20
35.30961759602024
 30
0.0
 11
932.6169156341927
 21
36.35150678669412
 31
0.0
  0
LINE
  5
145
330
1F
100
AcDbEntity
  8
0
100
AcDbLine
 10
932.6169156341927
 20
36.35150678669412
 30
0.0
 11
932.7080511360541
 21
37.39339597736793
 31
0.0
  0
LINE
  5
146
330
1F
100
AcDbEntity
  8
0
100
AcDbLine
 10
932.7080511360541
 20
37.39339597736793
 30
0.0
 11
932.9787158279793
 21
38.403635101666
 31
0.0
  0
LINE
  5
147
330
1F
100
AcDbEntity
  8
0
100
AcDbLine
 10
932.9787158279793
 20
34.29937847172216
 30
0.0
 11
932.7080511360541
 21
35.30961759602024
 31
0.0
  0
LINE
  5
148
330
1F
100
AcDbEntity
  8
0
100
AcDbLine
 10
933.4207438736336
 20
33.35151560818154
 30
0.0
 11
932.9787158279793
 21
34.29937847172216
 31
0.0
  0
LINE
  5
149
330
1F
100
AcDbEntity
  8
0
100
AcDbLine
 10
934.0206050186531
 20
32.49478824650245
 30
0.0
 11
933.4207438736336
 21
33.35151560818154
 31
0.0
  0
LINE
  5
14A
330
1F
100
AcDbEntity
  8
0
100
AcDbLine
 10
934.760179451026
 20
31.7552436164518
 30
0.0
 11
934.0206050186531
 21
32.49478824650245
 31
0.0
  0
LINE
  5
14B
330
1F
100
AcDbEntity
  8
0
100
AcDbLine
 10
935.6168770103828
 20
31.15535266910988
 30
0.0
 11
934.760179451026
 21
31.7552436164518
 31
0.0
  0
LINE
  5
14C
330
1F
100
AcDbEntity
  8
0
100
AcDbLine
 10
936.5647696762458
 20
30.71335442577793
 30
0.0
 11
935.6168770103828
 21
31.15535266910988
 31
0.0
  0
LINE
  5
14D
330
1F
100
AcDbEntity
  8
0
100
AcDbLine
 10
937.5750088005439
 20
30.4426599315305
 30
0.0
 11
936.5647696762458
 21
30.71335442577793
 31
0.0
  0
LINE
  5
14E
330
1F
100
AcDbEntity
  8
0
100
AcDbLine
 10
938.6168979912178
 20
30.35152442966896
 30
0.0
 11
937.5750088005439
 21
30.4426599315305
 31
0.0
  0
LINE
  5
14F
330
1F
100
AcDbEntity
  8
0
100
AcDbLine
 10
939.6587871818916
 20
30.4426599315305
 30
0.0
 11
938.6168979912178
 21
30.35152442966896
 31
0.0
  0
LINE
  5
150
330
1F
100
AcDbEntity
  8
0
100
AcDbLine
 10
940.6690263061897
 20
30.71335442577793
 30
0.0
 11
939.6587871818916
 21
30.4426599315305
 31
0.0
  0
LINE
  5
151
330
1F
100
AcDbEntity
  8
0
100
AcDbLine
 10
941.6169189720526
 20
31.15535266910988
 30
0.0
 11
940.6690263061897
 21
30.71335442577793
 31
0.0
  0
LINE
  5
152
330
1F
100
AcDbEntity
  8
0
100
AcDbLine
 10
942.4736165314094
 20
31.7552436164518
 30
0.0
 11
941.6169189720526
 21
31.15535266910988
 31
0.0
  0
LINE
  5
153
330
1F
100
AcDbEntity
  8
0
100
AcDbLine
 10
943.2131313591377
 20
32.49478824650245
 30
0.0
 11
942.4736165314094
 21
31.7552436164518
 31
0.0
  0
LINE
  5
154
330
1F
100
AcDbEntity
  8
0
100
AcDbLine
 10
943.8130521088021
 20
33.35151560818154
 30
0.0
 11
943.2131313591377
 21
32.49478824650245
 31
0.0
  0
LINE
  5
155
330
1F
100
AcDbEntity
  8
0
100
AcDbLine
 10
944.2550205498115
 20
34.29937847172216
 30
0.0
 11
943.8130521088021
 21
33.35151560818154
 31
0.0
  0
LINE
  5
156
330
1F
100
AcDbEntity
  8
0
100
AcDbLine
 10
944.5257448463814
 20
35.30961759602024
 30
0.0
 11
944.2550205498115
 21
34.29937847172216
 31
0.0
  0
LINE
  5
157
330
1F
100
AcDbEntity
  8
0
100
AcDbLine
 10
944.616880348243
 20
36.35150678669412
 30
0.0
 11
944.5257448463814
 21
35.30961759602024
 31
0.0
  0
LINE
  5
158
330
1F
100
AcDbEntity
  8
0
100
AcDbLine
 10
944.5257448463814
 20
37.39339597736793
 30
0.0
 11
944.616880348243
 21
36.35150678669412
 31
0.0
  0
LINE
  5
159
330
1F
100
AcDbEntity
  8
0
100
AcDbLine
 10
944.2550205498115
 20
38.403635101666
 30
0.0
 11
944.5257448463814
 21
37.39339597736793
 31
0.0
  0
LINE
  5
15A
330
1F
100
AcDbEntity
  8
0
100
AcDbLine
 10
943.8130521088021
 20
39.35152776752907
 30
0.0
 11
944.2550205498115
 21
38.403635101666
 31
0.0
  0
LINE
  5
15B
330
1F
100
AcDbEntity
  8
0
100
AcDbLine
 10
943.2131313591377
 20
40.20822532688572
 30
0.0
 11
943.8130521088021
 21
39.35152776752907
 31
0.0
  0
LINE
  5
15C
330
1F
100
AcDbEntity
  8
0
100
AcDbLine
 10
942.4736165314094
 20
40.94776995693643
 30
0.0
 11
943.2131313591377
 21
40.20822532688572
 31
0.0
  0
LINE
  5
15D
330
1F
100
AcDbEntity
  8
0
100
AcDbLine
 10
941.6169189720526
 20
41.54766090427829
 30
0.0
 11
942.4736165314094
 21
40.94776995693643
 31
0.0
  0
LINE
  5
15E
330
1F
100
AcDbEntity
  8
0
100
AcDbLine
 10
940.6690263061897
 20
41.98965914761024
 30
0.0
 11
941.6169189720526
 21
41.54766090427829
 31
0.0
  0
LINE
  5
15F
330
1F
100
AcDbEntity
  8
0
100
AcDbLine
 10
939.6587871818916
 20
42.26035364185767
 30
0.0
 11
940.6690263061897
 21
41.98965914761024
 31
0.0
  0
LINE
  5
160
330
1F
100
AcDbEntity
  8
0
100
AcDbLine
 10
938.6168979912178
 20
42.35151894604164
 30
0.0
 11
939.6587871818916
 21
42.26035364185767
 31
0.0
  0
LINE
  5
161
330
1F
100
AcDbEntity
  8
0
100
AcDbLine
 10
937.5750088005439
 20
42.26035364185767
 30
0.0
 11
938.6168979912178
 21
42.35151894604164
 31
0.0
  0
LINE
  5
162
330
1F
100
AcDbEntity
  8
0
100
AcDbLine
 10
936.5647696762458
 20
41.98965914761024
 30
0.0
 11
937.5750088005439
 21
42.26035364185767
 31
0.0
  0
LINE
  5
163
330
1F
100
AcDbEntity
  8
0
100
AcDbLine
 10
935.6168770103828
 20
41.54766090427829
 30
0.0
 11
936.5647696762458
 21
41.98965914761024
 31
0.0
  0
LINE
  5
164
330
1F
100
AcDbEntity
  8
0
100
AcDbLine
 10
934.760179451026
 20
40.94776995693643
 30
0.0
 11
935.6168770103828
 21
41.54766090427829
 31
0.0
  0
LINE
  5
165
330
1F
100
AcDbEntity
  8
0
100
AcDbLine
 10
934.0206050186531
 20
40.20822532688572
 30
0.0
 11
934.760179451026
 21
40.94776995693643
 31
0.0
  0
LINE
  5
166
330
1F
100
AcDbEntity
  8
0
100
AcDbLine
 10
933.4207438736336
 20
39.35152776752907
 30
0.0
 11
934.0206050186531
 21
40.20822532688572
 31
0.0
  0
LINE
  5
167
330
1F
100
AcDbEntity
  8
0
100
AcDbLine
 10
932.9787158279793
 20
38.403635101666
 30
0.0
 11
933.4207438736336
 21
39.35152776752907
 31
0.0
  0
LINE
  5
168
330
1F
100
AcDbEntity
  8
0
100
AcDbLine
 10
759.4902180939093
 20
35.30961759602024
 30
0.0
 11
759.3990229874031
 21
36.35150678669412
 31
0.0
  0
LINE
  5
169
330
1F
100
AcDbEntity
  8
0
100
AcDbLine
 10
759.3990229874031
 20
36.35150678669412
 30
0.0
 11
759.4902180939093
 21
37.39339597736793
 31
0.0
  0
LINE
  5
16A
330
1F
100
AcDbEntity
  8
0
100
AcDbLine
 10
759.4902180939093
 20
37.39339597736793
 30
0.0
 11
759.7608827858344
 21
38.403635101666
 31
0.0
  0
LINE
  5
16B
330
1F
100
AcDbEntity
  8
0
100
AcDbLine
 10
759.7608827858344
 20
34.29937847172216
 30
0.0
 11
759.4902180939093
 21
35.30961759602024
 31
0.0
  0
LINE
  5
16C
330
1F
100
AcDbEntity
  8
0
100
AcDbLine
 10
760.2029108314888
 20
33.35151560818154
 30
0.0
 11
759.7608827858344
 21
34.29937847172216
 31
0.0
  0
LINE
  5
16D
330
1F
100
AcDbEntity
  8
0
100
AcDbLine
 10
760.8027719765082
 20
32.49478824650245
 30
0.0
 11
760.2029108314888
 21
33.35151560818154
 31
0.0
  0
LINE
  5
16E
330
1F
100
AcDbEntity
  8
0
100
AcDbLine
 10
761.5422868042365
 20
31.7552436164518
 30
0.0
 11
760.8027719765082
 21
32.49478824650245
 31
0.0
  0
LINE
  5
16F
330
1F
100
AcDbEntity
  8
0
100
AcDbLine
 10
762.399043968238
 20
31.15535266910988
 30
0.0
 11
761.5422868042365
 21
31.7552436164518
 31
0.0
  0
LINE
  5
170
330
1F
100
AcDbEntity
  8
0
100
AcDbLine
 10
763.346936634101
 20
30.71335442577793
 30
0.0
 11
762.399043968238
 21
31.15535266910988
 31
0.0
  0
LINE
  5
171
330
1F
100
AcDbEntity
  8
0
100
AcDbLine
 10
764.3571757583992
 20
30.4426599315305
 30
0.0
 11
763.346936634101
 21
30.71335442577793
 31
0.0
  0
LINE
  5
172
330
1F
100
AcDbEntity
  8
0
100
AcDbLine
 10
765.399064949073
 20
30.35152442966896
 30
0.0
 11
764.3571757583992
 21
30.4426599315305
 31
0.0
  0
LINE
  5
173
330
1F
100
AcDbEntity
  8
0
100
AcDbLine
 10
766.4409541397467
 20
30.4426599315305
 30
0.0
 11
765.399064949073
 21
30.35152442966896
 31
0.0
  0
LINE
  5
174
330
1F
100
AcDbEntity
  8
0
100
AcDbLine
 10
767.4511336594002
 20
30.71335442577793
 30
0.0
 11
766.4409541397467
 21
30.4426599315305
 31
0.0
  0
LINE
  5
175
330
1F
100
AcDbEntity
  8
0
100
AcDbLine
 10
768.3990263252631
 20
31.15535266910988
 30
0.0
 11
767.4511336594002
 21
30.71335442577793
 31
0.0
  0
LINE
  5
176
330
1F
100
AcDbEntity
  8
0
100
AcDbLine
 10
769.2557834892646
 20
31.7552436164518
 30
0.0
 11
768.3990263252631
 21
31.15535266910988
 31
0.0
  0
LINE
  5
177
330
1F
100
AcDbEntity
  8
0
100
AcDbLine
 10
769.9952983169928
 20
32.49478824650245
 30
0.0
 11
769.2557834892646
 21
31.7552436164518
 31
0.0
  0
LINE
  5
178
330
1F
100
AcDbEntity
  8
0
100
AcDbLine
 10
770.5952190666571
 20
33.35151560818154
 30
0.0
 11
769.9952983169928
 21
32.49478824650245
 31
0.0
  0
LINE
  5
179
330
1F
100
AcDbEntity
  8
0
100
AcDbLine
 10
771.0371875076667
 20
34.29937847172216
 30
0.0
 11
770.5952190666571
 21
33.35151560818154
 31
0.0
  0
LINE
  5
17A
330
1F
100
AcDbEntity
  8
0
100
AcDbLine
 10
771.3079118042365
 20
35.30961759602024
 30
0.0
 11
771.0371875076667
 21
34.29937847172216
 31
0.0
  0
LINE
  5
17B
330
1F
100
AcDbEntity
  8
0
100
AcDbLine
 10
771.3990473060982
 20
36.35150678669412
 30
0.0
 11
771.3079118042365
 21
35.30961759602024
 31
0.0
  0
LINE
  5
17C
330
1F
100
AcDbEntity
  8
0
100
AcDbLine
 10
771.3079118042365
 20
37.39339597736793
 30
0.0
 11
771.3990473060982
 21
36.35150678669412
 31
0.0
  0
LINE
  5
17D
330
1F
100
AcDbEntity
  8
0
100
AcDbLine
 10
771.0371875076667
 20
38.403635101666
 30
0.0
 11
771.3079118042365
 21
37.39339597736793
 31
0.0
  0
LINE
  5
17E
330
1F
100
AcDbEntity
  8
0
100
AcDbLine
 10
770.5952190666571
 20
39.35152776752907
 30
0.0
 11
771.0371875076667
 21
38.403635101666
 31
0.0
  0
LINE
  5
17F
330
1F
100
AcDbEntity
  8
0
100
AcDbLine
 10
769.9952983169928
 20
40.20822532688572
 30
0.0
 11
770.5952190666571
 21
39.35152776752907
 31
0.0
  0
LINE
  5
180
330
1F
100
AcDbEntity
  8
0
100
AcDbLine
 10
769.2557834892646
 20
40.94776995693643
 30
0.0
 11
769.9952983169928
 21
40.20822532688572
 31
0.0
  0
LINE
  5
181
330
1F
100
AcDbEntity
  8
0
100
AcDbLine
 10
768.3990263252631
 20
41.54766090427829
 30
0.0
 11
769.2557834892646
 21
40.94776995693643
 31
0.0
  0
LINE
  5
182
330
1F
100
AcDbEntity
  8
0
100
AcDbLine
 10
767.4511336594002
 20
41.98965914761024
 30
0.0
 11
768.3990263252631
 21
41.54766090427829
 31
0.0
  0
LINE
  5
183
330
1F
100
AcDbEntity
  8
0
100
AcDbLine
 10
766.4409541397467
 20
42.26035364185767
 30
0.0
 11
767.4511336594002
 21
41.98965914761024
 31
0.0
  0
LINE
  5
184
330
1F
100
AcDbEntity
  8
0
100
AcDbLine
 10
765.399064949073
 20
42.35151894604164
 30
0.0
 11
766.4409541397467
 21
42.26035364185767
 31
0.0
  0
LINE
  5
185
330
1F
100
AcDbEntity
  8
0
100
AcDbLine
 10
764.3571757583992
 20
42.26035364185767
 30
0.0
 11
765.399064949073
 21
42.35151894604164
 31
0.0
  0
LINE
  5
186
330
1F
100
AcDbEntity
  8
0
100
AcDbLine
 10
763.346936634101
 20
41.98965914761024
 30
0.0
 11
764.3571757583992
 21
42.26035364185767
 31
0.0
  0
LINE
  5
187
330
1F
100
AcDbEntity
  8
0
100
AcDbLine
 10
762.399043968238
 20
41.54766090427829
 30
0.0
 11
763.346936634101
 21
41.98965914761024
 31
0.0
  0
LINE
  5
188
330
1F
100
AcDbEntity
  8
0
100
AcDbLine
 10
761.5422868042365
 20
40.94776995693643
 30
0.0
 11
762.399043968238
 21
41.54766090427829
 31
0.0
  0
LINE
  5
189
330
1F
100
AcDbEntity
  8
0
100
AcDbLine
 10
760.8027719765082
 20
40.20822532688572
 30
0.0
 11
761.5422868042365
 21
40.94776995693643
 31
0.0
  0
LINE
  5
18A
330
1F
100
AcDbEntity
  8
0
100
AcDbLine
 10
760.2029108314888
 20
39.35152776752907
 30
0.0
 11
760.8027719765082
 21
40.20822532688572
 31
0.0
  0
LINE
  5
18B
330
1F
100
AcDbEntity
  8
0
100
AcDbLine
 10
759.7608827858344
 20
38.403635101666
 30
0.0
 11
760.2029108314888
 21
39.35152776752907
 31
0.0
  0
LINE
  5
18C
330
1F
100
AcDbEntity
  8
0
100
AcDbLine
 10
586.2726234703437
 20
35.30961759602024
 30
0.0
 11
586.1814283638374
 21
36.35150678669412
 31
0.0
  0
LINE
  5
18D
330
1F
100
AcDbEntity
  8
0
100
AcDbLine
 10
586.1814283638374
 20
36.35150678669412
 30
0.0
 11
586.2726234703437
 21
37.39339597736793
 31
0.0
  0
LINE
  5
18E
330
1F
100
AcDbEntity
  8
0
100
AcDbLine
 10
586.2726234703437
 20
37.39339597736793
 30
0.0
 11
586.5432881622687
 21
38.403635101666
 31
0.0
  0
LINE
  5
18F
330
1F
100
AcDbEntity
  8
0
100
AcDbLine
 10
586.5432881622687
 20
34.29937847172216
 30
0.0
 11
586.2726234703437
 21
35.30961759602024
 31
0.0
  0
LINE
  5
190
330
1F
100
AcDbEntity
  8
0
100
AcDbLine
 10
586.985316207923
 20
33.35151560818154
 30
0.0
 11
586.5432881622687
 21
34.29937847172216
 31
0.0
  0
LINE
  5
191
330
1F
100
AcDbEntity
  8
0
100
AcDbLine
 10
587.5851773529425
 20
32.49478824650245
 30
0.0
 11
586.985316207923
 21
33.35151560818154
 31
0.0
  0
LINE
  5
192
330
1F
100
AcDbEntity
  8
0
100
AcDbLine
 10
588.3246921806709
 20
31.7552436164518
 30
0.0
 11
587.5851773529425
 21
32.49478824650245
 31
0.0
  0
LINE
  5
193
330
1F
100
AcDbEntity
  8
0
100
AcDbLine
 10
589.1814493446723
 20
31.15535266910988
 30
0.0
 11
588.3246921806709
 21
31.7552436164518
 31
0.0
  0
LINE
  5
194
330
1F
100
AcDbEntity
  8
0
100
AcDbLine
 10
590.1293420105354
 20
30.71335442577793
 30
0.0
 11
589.1814493446723
 21
31.15535266910988
 31
0.0
  0
LINE
  5
195
330
1F
100
AcDbEntity
  8
0
100
AcDbLine
 10
591.1395811348335
 20
30.4426599315305
 30
0.0
 11
590.1293420105354
 21
30.71335442577793
 31
0.0
  0
LINE
  5
196
330
1F
100
AcDbEntity
  8
0
100
AcDbLine
 10
592.1814703255072
 20
30.35152442966896
 30
0.0
 11
591.1395811348335
 21
30.4426599315305
 31
0.0
  0
LINE
  5
197
330
1F
100
AcDbEntity
  8
0
100
AcDbLine
 10
593.2233595161811
 20
30.4426599315305
 30
0.0
 11
592.1814703255072
 21
30.35152442966896
 31
0.0
  0
LINE
  5
198
330
1F
100
AcDbEntity
  8
0
100
AcDbLine
 10
594.2335390358344
 20
30.71335442577793
 30
0.0
 11
593.2233595161811
 21
30.4426599315305
 31
0.0
  0
LINE
  5
199
330
1F
100
AcDbEntity
  8
0
100
AcDbLine
 10
595.1814317016974
 20
31.15535266910988
 30
0.0
 11
594.2335390358344
 21
30.71335442577793
 31
0.0
  0
LINE
  5
19A
330
1F
100
AcDbEntity
  8
0
100
AcDbLine
 10
596.038188865699
 20
31.7552436164518
 30
0.0
 11
595.1814317016974
 21
31.15535266910988
 31
0.0
  0
LINE
  5
19B
330
1F
100
AcDbEntity
  8
0
100
AcDbLine
 10
596.7777036934272
 20
32.49478824650245
 30
0.0
 11
596.038188865699
 21
31.7552436164518
 31
0.0
  0
LINE
  5
19C
330
1F
100
AcDbEntity
  8
0
100
AcDbLine
 10
597.3775648384467
 20
33.35151560818154
 30
0.0
 11
596.7777036934272
 21
32.49478824650245
 31
0.0
  0
LINE
  5
19D
330
1F
100
AcDbEntity
  8
0
100
AcDbLine
 10
597.819592884101
 20
34.29937847172216
 30
0.0
 11
597.3775648384467
 21
33.35151560818154
 31
0.0
  0
LINE
  5
19E
330
1F
100
AcDbEntity
  8
0
100
AcDbLine
 10
598.0903171806708
 20
35.30961759602024
 30
0.0
 11
597.819592884101
 21
34.29937847172216
 31
0.0
  0
LINE
  5
19F
330
1F
100
AcDbEntity
  8
0
100
AcDbLine
 10
598.1814526825324
 20
36.35150678669412
 30
0.0
 11
598.0903171806708
 21
35.30961759602024
 31
0.0
  0
LINE
  5
1A0
330
1F
100
AcDbEntity
  8
0
100
AcDbLine
 10
598.0903171806708
 20
37.39339597736793
 30
0.0
 11
598.1814526825324
 21
36.35150678669412
 31
0.0
  0
LINE
  5
1A1
330
1F
100
AcDbEntity
  8
0
100
AcDbLine
 10
597.819592884101
 20
38.403635101666
 30
0.0
 11
598.0903171806708
 21
37.39339597736793
 31
0.0
  0
LINE
  5
1A2
330
1F
100
AcDbEntity
  8
0
100
AcDbLine
 10
597.3775648384467
 20
39.35152776752907
 30
0.0
 11
597.819592884101
 21
38.403635101666
 31
0.0
  0
LINE
  5
1A3
330
1F
100
AcDbEntity
  8
0
100
AcDbLine
 10
596.7777036934272
 20
40.20822532688572
 30
0.0
 11
597.3775648384467
 21
39.35152776752907
 31
0.0
  0
LINE
  5
1A4
330
1F
100
AcDbEntity
  8
0
100
AcDbLine
 10
596.038188865699
 20
40.94776995693643
 30
0.0
 11
596.7777036934272
 21
40.20822532688572
 31
0.0
  0
LINE
  5
1A5
330
1F
100
AcDbEntity
  8
0
100
AcDbLine
 10
595.1814317016974
 20
41.54766090427829
 30
0.0
 11
596.038188865699
 21
40.94776995693643
 31
0.0
  0
LINE
  5
1A6
330
1F
100
AcDbEntity
  8
0
100
AcDbLine
 10
594.2335390358344
 20
41.98965914761024
 30
0.0
 11
595.1814317016974
 21
41.54766090427829
 31
0.0
  0
LINE
  5
1A7
330
1F
100
AcDbEntity
  8
0
100
AcDbLine
 10
593.2233595161811
 20
42.26035364185767
 30
0.0
 11
594.2335390358344
 21
41.98965914761024
 31
0.0
  0
LINE
  5
1A8
330
1F
100
AcDbEntity
  8
0
100
AcDbLine
 10
592.1814703255072
 20
42.35151894604164
 30
0.0
 11
593.2233595161811
 21
42.26035364185767
 31
0.0
  0
LINE
  5
1A9
330
1F
100
AcDbEntity
  8
0
100
AcDbLine
 10
591.1395811348335
 20
42.26035364185767
 30
0.0
 11
592.1814703255072
 21
42.35151894604164
 31
0.0
  0
LINE
  5
1AA
330
1F
100
AcDbEntity
  8
0
100
AcDbLine
 10
590.1293420105354
 20
41.98965914761024
 30
0.0
 11
591.1395811348335
 21
42.26035364185767
 31
0.0
  0
LINE
  5
1AB
330
1F
100
AcDbEntity
  8
0
100
AcDbLine
 10
589.1814493446723
 20
41.54766090427829
 30
0.0
 11
590.1293420105354
 21
41.98965914761024
 31
0.0
  0
LINE
  5
1AC
330
1F
100
AcDbEntity
  8
0
100
AcDbLine
 10
588.3246921806709
 20
40.94776995693643
 30
0.0
 11
589.1814493446723
 21
41.54766090427829
 31
0.0
  0
LINE
  5
1AD
330
1F
100
AcDbEntity
  8
0
100
AcDbLine
 10
587.5851773529425
 20
40.20822532688572
 30
0.0
 11
588.3246921806709
 21
40.94776995693643
 31
0.0
  0
LINE
  5
1AE
330
1F
100
AcDbEntity
  8
0
100
AcDbLine
 10
586.985316207923
 20
39.35152776752907
 30
0.0
 11
587.5851773529425
 21
40.20822532688572
 31
0.0
  0
LINE
  5
1AF
330
1F
100
AcDbEntity
  8
0
100
AcDbLine
 10
586.5432881622687
 20
38.403635101666
 30
0.0
 11
586.985316207923
 21
39.35152776752907
 31
0.0
  0
LINE
  5
1B0
330
1F
100
AcDbEntity
  8
0
100
AcDbLine
 10
413.0549990444557
 20
35.30961759602024
 30
0.0
 11
412.9638337402717
 21
36.35150678669412
 31
0.0
  0
LINE
  5
1B1
330
1F
100
AcDbEntity
  8
0
100
AcDbLine
 10
412.9638337402717
 20
36.35150678669412
 30
0.0
 11
413.0549990444557
 21
37.39339597736793
 31
0.0
  0
LINE
  5
1B2
330
1F
100
AcDbEntity
  8
0
100
AcDbLine
 10
413.0549990444557
 20
37.39339597736793
 30
0.0
 11
413.3256935387031
 21
38.403635101666
 31
0.0
  0
LINE
  5
1B3
330
1F
100
AcDbEntity
  8
0
100
AcDbLine
 10
413.3256935387031
 20
34.29937847172216
 30
0.0
 11
413.0549990444557
 21
35.30961759602024
 31
0.0
  0
LINE
  5
1B4
330
1F
100
AcDbEntity
  8
0
100
AcDbLine
 10
413.7676917820349
 20
33.35151560818154
 30
0.0
 11
413.3256935387031
 21
34.29937847172216
 31
0.0
  0
LINE
  5
1B5
330
1F
100
AcDbEntity
  8
0
100
AcDbLine
 10
414.3675827293769
 20
32.49478824650245
 30
0.0
 11
413.7676917820349
 21
33.35151560818154
 31
0.0
  0
LINE
  5
1B6
330
1F
100
AcDbEntity
  8
0
100
AcDbLine
 10
415.1071273594275
 20
31.7552436164518
 30
0.0
 11
414.3675827293769
 21
32.49478824650245
 31
0.0
  0
LINE
  5
1B7
330
1F
100
AcDbEntity
  8
0
100
AcDbLine
 10
415.9638547211066
 20
31.15535266910988
 30
0.0
 11
415.1071273594275
 21
31.7552436164518
 31
0.0
  0
LINE
  5
1B8
330
1F
100
AcDbEntity
  8
0
100
AcDbLine
 10
416.9117175846473
 20
30.71335442577793
 30
0.0
 11
415.9638547211066
 21
31.15535266910988
 31
0.0
  0
LINE
  5
1B9
330
1F
100
AcDbEntity
  8
0
100
AcDbLine
 10
417.9219567089453
 20
30.4426599315305
 30
0.0
 11
416.9117175846473
 21
30.71335442577793
 31
0.0
  0
LINE
  5
1BA
330
1F
100
AcDbEntity
  8
0
100
AcDbLine
 10
418.9638458996192
 20
30.35152442966896
 30
0.0
 11
417.9219567089453
 21
30.4426599315305
 31
0.0
  0
LINE
  5
1BB
330
1F
100
AcDbEntity
  8
0
100
AcDbLine
 10
420.0057350902931
 20
30.4426599315305
 30
0.0
 11
418.9638458996192
 21
30.35152442966896
 31
0.0
  0
LINE
  5
1BC
330
1F
100
AcDbEntity
  8
0
100
AcDbLine
 10
421.0159742145912
 20
30.71335442577793
 30
0.0
 11
420.0057350902931
 21
30.4426599315305
 31
0.0
  0
LINE
  5
1BD
330
1F
100
AcDbEntity
  8
0
100
AcDbLine
 10
421.9638370781317
 20
31.15535266910988
 30
0.0
 11
421.0159742145912
 21
30.71335442577793
 31
0.0
  0
LINE
  5
1BE
330
1F
100
AcDbEntity
  8
0
100
AcDbLine
 10
422.8205644398109
 20
31.7552436164518
 30
0.0
 11
421.9638370781317
 21
31.15535266910988
 31
0.0
  0
LINE
  5
1BF
330
1F
100
AcDbEntity
  8
0
100
AcDbLine
 10
423.5601090698615
 20
32.49478824650245
 30
0.0
 11
422.8205644398109
 21
31.7552436164518
 31
0.0
  0
LINE
  5
1C0
330
1F
100
AcDbEntity
  8
0
100
AcDbLine
 10
424.1600000172035
 20
33.35151560818154
 30
0.0
 11
423.5601090698615
 21
32.49478824650245
 31
0.0
  0
LINE
  5
1C1
330
1F
100
AcDbEntity
  8
0
100
AcDbLine
 10
424.6019982605353
 20
34.29937847172216
 30
0.0
 11
424.1600000172035
 21
33.35151560818154
 31
0.0
  0
LINE
  5
1C2
330
1F
100
AcDbEntity
  8
0
100
AcDbLine
 10
424.8726927547829
 20
35.30961759602024
 30
0.0
 11
424.6019982605353
 21
34.29937847172216
 31
0.0
  0
LINE
  5
1C3
330
1F
100
AcDbEntity
  8
0
100
AcDbLine
 10
424.9638282566444
 20
36.35150678669412
 30
0.0
 11
424.8726927547829
 21
35.30961759602024
 31
0.0
  0
LINE
  5
1C4
330
1F
100
AcDbEntity
  8
0
100
AcDbLine
 10
424.8726927547829
 20
37.39339597736793
 30
0.0
 11
424.9638282566444
 21
36.35150678669412
 31
0.0
  0
LINE
  5
1C5
330
1F
100
AcDbEntity
  8
0
100
AcDbLine
 10
424.6019982605353
 20
38.403635101666
 30
0.0
 11
424.8726927547829
 21
37.39339597736793
 31
0.0
  0
LINE
  5
1C6
330
1F
100
AcDbEntity
  8
0
100
AcDbLine
 10
424.1600000172035
 20
39.35152776752907
 30
0.0
 11
424.6019982605353
 21
38.403635101666
 31
0.0
  0
LINE
  5
1C7
330
1F
100
AcDbEntity
  8
0
100
AcDbLine
 10
423.5601090698615
 20
40.20822532688572
 30
0.0
 11
424.1600000172035
 21
39.35152776752907
 31
0.0
  0
LINE
  5
1C8
330
1F
100
AcDbEntity
  8
0
100
AcDbLine
 10
422.8205644398109
 20
40.94776995693643
 30
0.0
 11
423.5601090698615
 21
40.20822532688572
 31
0.0
  0
LINE
  5
1C9
330
1F
100
AcDbEntity
  8
0
100
AcDbLine
 10
421.9638370781317
 20
41.54766090427829
 30
0.0
 11
422.8205644398109
 21
40.94776995693643
 31
0.0
  0
LINE
  5
1CA
330
1F
100
AcDbEntity
  8
0
100
AcDbLine
 10
421.0159742145912
 20
41.98965914761024
 30
0.0
 11
421.9638370781317
 21
41.54766090427829
 31
0.0
  0
LINE
  5
1CB
330
1F
100
AcDbEntity
  8
0
100
AcDbLine
 10
420.0057350902931
 20
42.26035364185767
 30
0.0
 11
421.0159742145912
 21
41.98965914761024
 31
0.0
  0
LINE
  5
1CC
330
1F
100
AcDbEntity
  8
0
100
AcDbLine
 10
418.9638458996192
 20
42.35151894604164
 30
0.0
 11
420.0057350902931
 21
42.26035364185767
 31
0.0
  0
LINE
  5
1CD
330
1F
100
AcDbEntity
  8
0
100
AcDbLine
 10
417.9219567089453
 20
42.26035364185767
 30
0.0
 11
418.9638458996192
 21
42.35151894604164
 31
0.0
  0
LINE
  5
1CE
330
1F
100
AcDbEntity
  8
0
100
AcDbLine
 10
416.9117175846473
 20
41.98965914761024
 30
0.0
 11
417.9219567089453
 21
42.26035364185767
 31
0.0
  0
LINE
  5
1CF
330
1F
100
AcDbEntity
  8
0
100
AcDbLine
 10
415.9638547211066
 20
41.54766090427829
 30
0.0
 11
416.9117175846473
 21
41.98965914761024
 31
0.0
  0
LINE
  5
1D0
330
1F
100
AcDbEntity
  8
0
100
AcDbLine
 10
415.1071273594275
 20
40.94776995693643
 30
0.0
 11
415.9638547211066
 21
41.54766090427829
 31
0.0
  0
LINE
  5
1D1
330
1F
100
AcDbEntity
  8
0
100
AcDbLine
 10
414.3675827293769
 20
40.20822532688572
 30
0.0
 11
415.1071273594275
 21
40.94776995693643
 31
0.0
  0
LINE
  5
1D2
330
1F
100
AcDbEntity
  8
0
100
AcDbLine
 10
413.7676917820349
 20
39.35152776752907
 30
0.0
 11
414.3675827293769
 21
40.20822532688572
 31
0.0
  0
LINE
  5
1D3
330
1F
100
AcDbEntity
  8
0
100
AcDbLine
 10
413.3256935387031
 20
38.403635101666
 30
0.0
 11
413.7676917820349
 21
39.35152776752907
 31
0.0
  0
LINE
  5
1D4
330
1F
100
AcDbEntity
  8
0
100
AcDbLine
 10
239.8373895197288
 20
35.30961759602024
 30
0.0
 11
239.746239116706
 21
36.35150678669412
 31
0.0
  0
LINE
  5
1D5
330
1F
100
AcDbEntity
  8
0
100
AcDbLine
 10
239.746239116706
 20
36.35150678669412
 30
0.0
 11
239.8373895197288
 21
37.39339597736793
 31
0.0
  0
LINE
  5
1D6
330
1F
100
AcDbEntity
  8
0
100
AcDbLine
 10
239.8373895197288
 20
37.39339597736793
 30
0.0
 11
240.1080840139762
 21
38.403635101666
 31
0.0
  0
LINE
  5
1D7
330
1F
100
AcDbEntity
  8
0
100
AcDbLine
 10
240.1080840139762
 20
34.29937847172216
 30
0.0
 11
239.8373895197288
 21
35.30961759602024
 31
0.0
  0
LINE
  5
1D8
330
1F
100
AcDbEntity
  8
0
100
AcDbLine
 10
240.5500822573081
 20
33.35151560818154
 30
0.0
 11
240.1080840139762
 21
34.29937847172216
 31
0.0
  0
LINE
  5
1D9
330
1F
100
AcDbEntity
  8
0
100
AcDbLine
 10
241.14997320465
 20
32.49478824650245
 30
0.0
 11
240.5500822573081
 21
33.35151560818154
 31
0.0
  0
LINE
  5
1DA
330
1F
100
AcDbEntity
  8
0
100
AcDbLine
 10
241.8895178347007
 20
31.7552436164518
 30
0.0
 11
241.14997320465
 21
32.49478824650245
 31
0.0
  0
LINE
  5
1DB
330
1F
100
AcDbEntity
  8
0
100
AcDbLine
 10
242.7462451963798
 20
31.15535266910988
 30
0.0
 11
241.8895178347007
 21
31.7552436164518
 31
0.0
  0
LINE
  5
1DC
330
1F
100
AcDbEntity
  8
0
100
AcDbLine
 10
243.6941229610816
 20
30.71335442577793
 30
0.0
 11
242.7462451963798
 21
31.15535266910988
 31
0.0
  0
LINE
  5
1DD
330
1F
100
AcDbEntity
  8
0
100
AcDbLine
 10
244.7043471842185
 20
30.4426599315305
 30
0.0
 11
243.6941229610816
 21
30.71335442577793
 31
0.0
  0
LINE
  5
1DE
330
1F
100
AcDbEntity
  8
0
100
AcDbLine
 10
245.7462363748923
 20
30.35152442966896
 30
0.0
 11
244.7043471842185
 21
30.4426599315305
 31
0.0
  0
LINE
  5
1DF
330
1F
100
AcDbEntity
  8
0
100
AcDbLine
 10
246.7881255655661
 20
30.4426599315305
 30
0.0
 11
245.7462363748923
 21
30.35152442966896
 31
0.0
  0
LINE
  5
1E0
330
1F
100
AcDbEntity
  8
0
100
AcDbLine
 10
247.7983646898642
 20
30.71335442577793
 30
0.0
 11
246.7881255655661
 21
30.4426599315305
 31
0.0
  0
LINE
  5
1E1
330
1F
100
AcDbEntity
  8
0
100
AcDbLine
 10
248.7462424545661
 20
31.15535266910988
 30
0.0
 11
247.7983646898642
 21
30.71335442577793
 31
0.0
  0
LINE
  5
1E2
330
1F
100
AcDbEntity
  8
0
100
AcDbLine
 10
249.6029698162452
 20
31.7552436164518
 30
0.0
 11
248.7462424545661
 21
31.15535266910988
 31
0.0
  0
LINE
  5
1E3
330
1F
100
AcDbEntity
  8
0
100
AcDbLine
 10
250.3425144462959
 20
32.49478824650245
 30
0.0
 11
249.6029698162452
 21
31.7552436164518
 31
0.0
  0
LINE
  5
1E4
330
1F
100
AcDbEntity
  8
0
100
AcDbLine
 10
250.9423904924766
 20
33.35151560818154
 30
0.0
 11
250.3425144462959
 21
32.49478824650245
 31
0.0
  0
LINE
  5
1E5
330
1F
100
AcDbEntity
  8
0
100
AcDbLine
 10
251.3844036369697
 20
34.29937847172216
 30
0.0
 11
250.9423904924766
 21
33.35151560818154
 31
0.0
  0
LINE
  5
1E6
330
1F
100
AcDbEntity
  8
0
100
AcDbLine
 10
251.6550832300559
 20
35.30961759602024
 30
0.0
 11
251.3844036369697
 21
34.29937847172216
 31
0.0
  0
LINE
  5
1E7
330
1F
100
AcDbEntity
  8
0
100
AcDbLine
 10
251.7462336330787
 20
36.35150678669412
 30
0.0
 11
251.6550832300559
 21
35.30961759602024
 31
0.0
  0
LINE
  5
1E8
330
1F
100
AcDbEntity
  8
0
100
AcDbLine
 10
251.6550832300559
 20
37.39339597736793
 30
0.0
 11
251.7462336330787
 21
36.35150678669412
 31
0.0
  0
LINE
  5
1E9
330
1F
100
AcDbEntity
  8
0
100
AcDbLine
 10
251.3844036369697
 20
38.403635101666
 30
0.0
 11
251.6550832300559
 21
37.39339597736793
 31
0.0
  0
LINE
  5
1EA
330
1F
100
AcDbEntity
  8
0
100
AcDbLine
 10
250.9423904924766
 20
39.35152776752907
 30
0.0
 11
251.3844036369697
 21
38.403635101666
 31
0.0
  0
LINE
  5
1EB
330
1F
100
AcDbEntity
  8
0
100
AcDbLine
 10
250.3425144462959
 20
40.20822532688572
 30
0.0
 11
250.9423904924766
 21
39.35152776752907
 31
0.0
  0
LINE
  5
1EC
330
1F
100
AcDbEntity
  8
0
100
AcDbLine
 10
249.6029698162452
 20
40.94776995693643
 30
0.0
 11
250.3425144462959
 21
40.20822532688572
 31
0.0
  0
LINE
  5
1ED
330
1F
100
AcDbEntity
  8
0
100
AcDbLine
 10
248.7462424545661
 20
41.54766090427829
 30
0.0
 11
249.6029698162452
 21
40.94776995693643
 31
0.0
  0
LINE
  5
1EE
330
1F
100
AcDbEntity
  8
0
100
AcDbLine
 10
247.7983646898642
 20
41.98965914761024
 30
0.0
 11
248.7462424545661
 21
41.54766090427829
 31
0.0
  0
LINE
  5
1EF
330
1F
100
AcDbEntity
  8
0
100
AcDbLine
 10
246.7881255655661
 20
42.26035364185767
 30
0.0
 11
247.7983646898642
 21
41.98965914761024
 31
0.0
  0
LINE
  5
1F0
330
1F
100
AcDbEntity
  8
0
100
AcDbLine
 10
245.7462363748923
 20
42.35151894604164
 30
0.0
 11
246.7881255655661
 21
42.26035364185767
 31
0.0
  0
LINE
  5
1F1
330
1F
100
AcDbEntity
  8
0
100
AcDbLine
 10
244.7043471842185
 20
42.26035364185767
 30
0.0
 11
245.7462363748923
 21
42.35151894604164
 31
0.0
  0
LINE
  5
1F2
330
1F
100
AcDbEntity
  8
0
100
AcDbLine
 10
243.6941229610816
 20
41.98965914761024
 30
0.0
 11
244.7043471842185
 21
42.26035364185767
 31
0.0
  0
LINE
  5
1F3
330
1F
100
AcDbEntity
  8
0
100
AcDbLine
 10
242.7462451963798
 20
41.54766090427829
 30
0.0
 11
243.6941229610816
 21
41.98965914761024
 31
0.0
  0
LINE
  5
1F4
330
1F
100
AcDbEntity
  8
0
100
AcDbLine
 10
241.8895178347007
 20
40.94776995693643
 30
0.0
 11
242.7462451963798
 21
41.54766090427829
 31
0.0
  0
LINE
  5
1F5
330
1F
100
AcDbEntity
  8
0
100
AcDbLine
 10
241.14997320465
 20
40.20822532688572
 30
0.0
 11
241.8895178347007
 21
40.94776995693643
 31
0.0
  0
LINE
  5
1F6
330
1F
100
AcDbEntity
  8
0
100
AcDbLine
 10
240.5500822573081
 20
39.35152776752907
 30
0.0
 11
241.14997320465
 21
40.20822532688572
 31
0.0
  0
LINE
  5
1F7
330
1F
100
AcDbEntity
  8
0
100
AcDbLine
 10
240.1080840139762
 20
38.403635101666
 30
0.0
 11
240.5500822573081
 21
39.35152776752907
 31
0.0
  0
LINE
  5
1F8
330
1F
100
AcDbEntity
  8
0
100
AcDbLine
 10
66.61979489616309
 20
35.30961759602024
 30
0.0
 11
66.52864076785
 21
36.35150678669412
 31
0.0
  0
LINE
  5
1F9
330
1F
100
AcDbEntity
  8
0
100
AcDbLine
 10
66.52864076785
 20
36.35150678669412
 30
0.0
 11
66.61979489616309
 21
37.39339597736793
 31
0.0
  0
LINE
  5
1FA
330
1F
100
AcDbEntity
  8
0
100
AcDbLine
 10
66.61979489616309
 20
37.39339597736793
 30
0.0
 11
66.89048566512021
 21
38.403635101666
 31
0.0
  0
LINE
  5
1FB
330
1F
100
AcDbEntity
  8
0
100
AcDbLine
 10
66.89048566512021
 20
34.29937847172216
 30
0.0
 11
66.61979489616309
 21
35.30961759602024
 31
0.0
  0
LINE
  5
1FC
330
1F
100
AcDbEntity
  8
0
100
AcDbLine
 10
67.33248856506499
 20
33.35151560818154
 30
0.0
 11
66.89048566512021
 21
34.29937847172216
 31
0.0
  0
LINE
  5
1FD
330
1F
100
AcDbEntity
  8
0
100
AcDbLine
 10
67.93237392447146
 20
32.49478824650245
 30
0.0
 11
67.33248856506499
 21
33.35151560818154
 31
0.0
  0
LINE
  5
1FE
330
1F
100
AcDbEntity
  8
0
100
AcDbLine
 10
68.67191576055441
 20
31.7552436164518
 30
0.0
 11
67.93237392447146
 21
32.49478824650245
 31
0.0
  0
LINE
  5
1FF
330
1F
100
AcDbEntity
  8
0
100
AcDbLine
 10
69.52864125958834
 20
31.15535266910988
 30
0.0
 11
68.67191576055441
 21
31.7552436164518
 31
0.0
  0
LINE
  5
200
330
1F
100
AcDbEntity
  8
0
100
AcDbLine
 10
70.47651995561274
 20
30.71335442577793
 30
0.0
 11
69.52864125958834
 21
31.15535266910988
 31
0.0
  0
LINE
  5
201
330
1F
100
AcDbEntity
  8
0
100
AcDbLine
 10
71.48675162933024
 20
30.4426599315305
 30
0.0
 11
70.47651995561274
 21
30.71335442577793
 31
0.0
  0
LINE
  5
202
330
1F
100
AcDbEntity
  8
0
100
AcDbLine
 10
72.52864082000409
 20
30.35152442966896
 30
0.0
 11
71.48675162933024
 21
30.4426599315305
 31
0.0
  0
LINE
  5
203
330
1F
100
AcDbEntity
  8
0
100
AcDbLine
 10
73.57053094200049
 20
30.4426599315305
 30
0.0
 11
72.52864082000409
 21
30.35152442966896
 31
0.0
  0
LINE
  5
204
330
1F
100
AcDbEntity
  8
0
100
AcDbLine
 10
74.58076261571797
 20
30.71335442577793
 30
0.0
 11
73.57053094200049
 21
30.4426599315305
 31
0.0
  0
LINE
  5
205
330
1F
100
AcDbEntity
  8
0
100
AcDbLine
 10
75.52864038041983
 20
31.15535266910988
 30
0.0
 11
74.58076261571797
 21
30.71335442577793
 31
0.0
  0
LINE
  5
206
330
1F
100
AcDbEntity
  8
0
100
AcDbLine
 10
76.38536587945374
 20
31.7552436164518
 30
0.0
 11
75.52864038041983
 21
31.15535266910988
 31
0.0
  0
LINE
  5
207
330
1F
100
AcDbEntity
  8
0
100
AcDbLine
 10
77.12490678421412
 20
32.49478824650245
 30
0.0
 11
76.38536587945374
 21
31.7552436164518
 31
0.0
  0
LINE
  5
208
330
1F
100
AcDbEntity
  8
0
100
AcDbLine
 10
77.72479400626572
 20
33.35151560818154
 30
0.0
 11
77.12490678421412
 21
32.49478824650245
 31
0.0
  0
LINE
  5
209
330
1F
100
AcDbEntity
  8
0
100
AcDbLine
 10
78.16679597488793
 20
34.29937847172216
 30
0.0
 11
77.72479400626572
 21
33.35151560818154
 31
0.0
  0
LINE
  5
20A
330
1F
100
AcDbEntity
  8
0
100
AcDbLine
 10
78.43748674384507
 20
35.30961759602024
 30
0.0
 11
78.16679597488793
 21
34.29937847172216
 31
0.0
  0
LINE
  5
20B
330
1F
100
AcDbEntity
  8
0
100
AcDbLine
 10
78.52864087215814
 20
36.35150678669412
 30
0.0
 11
78.43748674384507
 21
35.30961759602024
 31
0.0
  0
LINE
  5
20C
330
1F
100
AcDbEntity
  8
0
100
AcDbLine
 10
78.43748674384507
 20
37.39339597736793
 30
0.0
 11
78.52864087215814
 21
36.35150678669412
 31
0.0
  0
LINE
  5
20D
330
1F
100
AcDbEntity
  8
0
100
AcDbLine
 10
78.16679597488793
 20
38.403635101666
 30
0.0
 11
78.43748674384507
 21
37.39339597736793
 31
0.0
  0
LINE
  5
20E
330
1F
100
AcDbEntity
  8
0
100
AcDbLine
 10
77.72479400626572
 20
39.35152776752907
 30
0.0
 11
78.16679597488793
 21
38.403635101666
 31
0.0
  0
LINE
  5
20F
330
1F
100
AcDbEntity
  8
0
100
AcDbLine
 10
77.12490678421412
 20
40.20822532688572
 30
0.0
 11
77.72479400626572
 21
39.35152776752907
 31
0.0
  0
LINE
  5
210
330
1F
100
AcDbEntity
  8
0
100
AcDbLine
 10
76.38536587945374
 20
40.94776995693643
 30
0.0
 11
77.12490678421412
 21
40.20822532688572
 31
0.0
  0
LINE
  5
211
330
1F
100
AcDbEntity
  8
0
100
AcDbLine
 10
75.52864038041983
 20
41.54766090427829
 30
0.0
 11
76.38536587945374
 21
40.94776995693643
 31
0.0
  0
LINE
  5
212
330
1F
100
AcDbEntity
  8
0
100
AcDbLine
 10
74.58076261571797
 20
41.98965914761024
 30
0.0
 11
75.52864038041983
 21
41.54766090427829
 31
0.0
  0
LINE
  5
213
330
1F
100
AcDbEntity
  8
0
100
AcDbLine
 10
73.57053094200049
 20
42.26035364185767
 30
0.0
 11
74.58076261571797
 21
41.98965914761024
 31
0.0
  0
LINE
  5
214
330
1F
100
AcDbEntity
  8
0
100
AcDbLine
 10
72.52864082000409
 20
42.35151894604164
 30
0.0
 11
73.57053094200049
 21
42.26035364185767
 31
0.0
  0
LINE
  5
215
330
1F
100
AcDbEntity
  8
0
100
AcDbLine
 10
71.48675162933024
 20
42.26035364185767
 30
0.0
 11
72.52864082000409
 21
42.35151894604164
 31
0.0
  0
LINE
  5
216
330
1F
100
AcDbEntity
  8
0
100
AcDbLine
 10
70.47651995561274
 20
41.98965914761024
 30
0.0
 11
71.48675162933024
 21
42.26035364185767
 31
0.0
  0
LINE
  5
217
330
1F
100
AcDbEntity
  8
0
100
AcDbLine
 10
69.52864125958834
 20
41.54766090427829
 30
0.0
 11
70.47651995561274
 21
41.98965914761024
 31
0.0
  0
LINE
  5
218
330
1F
100
AcDbEntity
  8
0
100
AcDbLine
 10
68.67191576055441
 20
40.94776995693643
 30
0.0
 11
69.52864125958834
 21
41.54766090427829
 31
0.0
  0
LINE
  5
219
330
1F
100
AcDbEntity
  8
0
100
AcDbLine
 10
67.93237392447146
 20
40.20822532688572
 30
0.0
 11
68.67191576055441
 21
40.94776995693643
 31
0.0
  0
LINE
  5
21A
330
1F
100
AcDbEntity
  8
0
100
AcDbLine
 10
67.33248856506499
 20
39.35152776752907
 30
0.0
 11
67.93237392447146
 21
40.20822532688572
 31
0.0
  0
LINE
  5
21B
330
1F
100
AcDbEntity
  8
0
100
AcDbLine
 10
66.89048566512021
 20
38.403635101666
 30
0.0
 11
67.33248856506499
 21
39.35152776752907
 31
0.0
  0
LINE
  5
21C
330
1F
100
AcDbEntity
  8
0
100
AcDbLine
 10
953.6168836861029
 20
21.35152109180886
 30
0.0
 11
57.52864096529039
 21
21.35152109180886
 31
0.0
  0
LINE
  5
21D
330
1F
100
AcDbEntity
  8
0
100
AcDbLine
 10
57.52864096529039
 20
311.7102732940515
 30
0.0
 11
953.6168836861029
 21
311.7102732940515
 31
0.0
  0
LINE
  5
21E
330
1F
100
AcDbEntity
  8
0
100
AcDbLine
 10
953.6168836861029
 20
311.7102732940515
 30
0.0
 11
953.6168836861029
 21
21.35152109180886
 31
0.0
  0
LINE
  5
21F
330
1F
100
AcDbEntity
  8
0
100
AcDbLine
 10
57.52864096529039
 20
21.35152109180886
 30
0.0
 11
57.52864096529039
 21
311.7102732940515
 31
0.0
  0
ENDSEC
  0
SECTION
  2
OBJECTS
  0
DICTIONARY
  5
C
330
0
100
AcDbDictionary
  3
ACAD_GROUP
350
D
  3
ACAD_LAYOUT
350
1A
  3
ACAD_MATERIAL
350
43
  3
ACAD_MLEADERSTYLE
350
242
  3
ACAD_MLINESTYLE
350
17
  3
ACAD_PLOTSETTINGS
350
19
  3
ACAD_SCALELIST
350
47
  3
ACAD_VISUALSTYLE
350
2A
  3
ACDBHEADERROUNDTRIPXREC
350
220
  3
ACDBVARIABLEDICTIONARY
350
240
  0
DICTIONARY
  5
247
330
8
100
AcDbDictionary
280
     1
  3
ACAD_XREC_ROUNDTRIP
360
248
  0
DICTIONARY
  5
D
102
{ACAD_REACTORS
330
C
102
}
330
C
100
AcDbDictionary
  0
DICTIONARY
  5
1A
102
{ACAD_REACTORS
330
C
102
}
330
C
100
AcDbDictionary
  0
DICTIONARY
  5
43
102
{ACAD_REACTORS
330
C
102
}
330
C
100
AcDbDictionary
  3
BYBLOCK
350
45
  3
BYLAYER
350
44
  3
GLOBAL
350
46
  0
DICTIONARY
  5
242
102
{ACAD_REACTORS
330
C
102
}
330
C
100
AcDbDictionary
  0
DICTIONARY
  5
17
102
{ACAD_REACTORS
330
C
102
}
330
C
100
AcDbDictionary
  3
STANDARD
350
18
  0
DICTIONARY
  5
19
102
{ACAD_REACTORS
330
C
102
}
330
C
100
AcDbDictionary
  0
DICTIONARY
  5
47
102
{ACAD_REACTORS
330
C
102
}
330
C
100
AcDbDictionary
  3
A0
350
48
  3
A1
350
49
  3
A2
350
4A
  3
A3
350
4B
  3
A4
350
4C
  3
A5
350
4D
  3
A6
350
4E
  3
A7
350
4F
  3
A8
350
50
  3
A9
350
51
  3
B0
350
52
  3
B1
350
53
  3
B2
350
54
  3
B3
350
55
  3
B4
350
56
  3
B5
350
57
  3
B6
350
58
  3
B7
350
59
  3
B8
350
5A
  3
B9
350
5B
  3
C0
350
5C
  3
C1
350
5D
  3
C2
350
5E
  3
C3
350
5F
  3
C4
350
60
  3
C5
350
61
  3
C6
350
62
  3
C7
350
63
  3
C8
350
64
  3
C9
350
65
  3
D0
350
66
  3
D1
350
67
  3
D2
350
68
  0
DICTIONARY
  5
2A
102
{ACAD_REACTORS
330
C
102
}
330
C
100
AcDbDictionary
  3
2DWIREFRAME
350
2F
  3
BASIC
350
32
  3
BRIGHTEN
350
36
  3
COLORCHANGE
350
3A
  3
CONCEPTUAL
350
34
  3
DIM
350
35
  3
EDGECOLOROFF
350
3D
  3
FACEPATTERN
350
39
  3
FLAT
350
2B
  3
FLATWITHEDGES
350
2C
  3
GOURAUD
350
2D
  3
GOURAUDWITHEDGES
350
2E
  3
HIDDEN
350
31
  3
JITTEROFF
350
3B
  3
LINEPATTERN
350
38
  3
OVERHANGOFF
350
3C
  3
REALISTIC
350
33
  3
SHADED
350
42
  3
SHADED_WITH_EDGES
350
41
  3
SHADES_OF_GRAY
350
3E
  3
SKETCHY
350
3F
  3
THICKEN
350
37
  3
WIREFRAME
350
30
  3
X-RAY
350
40
  0
DICTIONARY
  5
220
102
{ACAD_REACTORS
330
C
102
}
330
C
100
AcDbDictionary
  3
CEPSNTYPE
350
229
  3
DIMSTYLEDATA
350
23F
  3
FINGERPRINTGUID
350
22A
  3
HYPERLINKBASE
350
223
  3
INSUNITS
350
228
  3
LAYOUTDICT
350
225
  3
LWETCUNION
350
227
  3
PLOTSETDICT
350
226
  3
PSVPSCALE
350
22C
  3
PUCSBASE
350
22F
  3
PUCSORGBACK
350
235
  3
PUCSORGBOTTOM
350
231
  3
PUCSORGFRONT
350
234
  3
PUCSORGLEFT
350
232
  3
PUCSORGRIGHT
350
233
  3
PUCSORGTOP
350
230
  3
PUCSORTHOREF
350
22D
  3
PUCSORTHOVIEW
350
22E
  3
STYLESHEET
350
224
  3
TSTACKALIGN
350
221
  3
TSTACKSIZE
350
222
  3
UCSBASE
350
238
  3
UCSORGBACK
350
23E
  3
UCSORGBOTTOM
350
23A
  3
UCSORGFRONT
350
23D
  3
UCSORGLEFT
350
23B
  3
UCSORGRIGHT
350
23C
  3
UCSORGTOP
350
239
  3
UCSORTHOREF
350
236
  3
UCSORTHOVIEW
350
237
  3
VERSIONGUID
350
22B
  0
DICTIONARY
  5
240
102
{ACAD_REACTORS
330
C
102
}
330
C
100
AcDbDictionary
  3
CANNOSCALE
350
249
  3
DIMASSOC
350
245
  3
HIDETEXT
350
246
  3
MSLTSCALE
350
24A
  0
XRECORD
  5
248
102
{ACAD_REACTORS
330
247
102
}
330
247
100
AcDbXrecord
102
VTR_0.000_0.000_1.000_1.000_GRIDDISPLAY
 70
     3
102
VTR_0.000_0.000_1.000_1.000_GRIDMAJOR
 70
     5
102
VTR_0.000_0.000_1.000_1.000_DEFAULTLIGHTING
280
     1
102
VTR_0.000_0.000_1.000_1.000_DEFAULTLIGHTINGTYPE
 70
     1
102
VTR_0.000_0.000_1.000_1.000_BRIGHTNESS
141
0.0
102
VTR_0.000_0.000_1.000_1.000_CONTRAST
142
0.0
  0
MATERIAL
  5
45
102
{ACAD_REACTORS
330
43
102
}
102
{ACAD_XDICTIONARY
360
24D
102
}
330
43
100
AcDbMaterial
  1
BYBLOCK
  0
MATERIAL
  5
44
102
{ACAD_REACTORS
330
43
102
}
102
{ACAD_XDICTIONARY
360
24B
102
}
330
43
100
AcDbMaterial
  1
BYLAYER
  0
MATERIAL
  5
46
102
{ACAD_REACTORS
330
43
102
}
102
{ACAD_XDICTIONARY
360
24F
102
}
330
43
100
AcDbMaterial
  1
GLOBAL
  0
MLINESTYLE
  5
18
102
{ACAD_REACTORS
330
17
102
}
330
17
100
AcDbMlineStyle
  2
Standard
 70
     0
  3

 62
   256
 51
90.0
 52
90.0
 71
     2
 49
0.5
 62
   256
  6
BYLAYER
 49
-0.5
 62
   256
  6
BYLAYER
  0
ACAD_PROXY_OBJECT
  5
48
102
{ACAD_REACTORS
330
47
102
}
330
47
100
AcDbProxyObject
 90
      499
 91
      503
 93
       41
310
903313A31580
  0
ACAD_PROXY_OBJECT
  5
49
102
{ACAD_REACTORS
330
47
102
}
330
47
100
AcDbProxyObject
 90
      499
 91
      503
 93
      105
310
903313A324000000000000004000
  0
ACAD_PROXY_OBJECT
  5
4A
102
{ACAD_REACTORS
330
47
102
}
330
47
100
AcDbProxyObject
 90
      499
 91
      503
 93
      105
310
903313A344000000000000104000
  0
ACAD_PROXY_OBJECT
  5
4B
102
{ACAD_REACTORS
330
47
102
}
330
47
100
AcDbProxyObject
 90
      499
 91
      503
 93
      105
310
903313A354000000000000144000
  0
ACAD_PROXY_OBJECT
  5
4C
102
{ACAD_REACTORS
330
47
102
}
330
47
100
AcDbProxyObject
 90
      499
 91
      503
 93
      105
310
903313A384000000000000204000
  0
ACAD_PROXY_OBJECT
  5
4D
102
{ACAD_REACTORS
330
47
102
}
330
47
100
AcDbProxyObject
 90
      499
 91
      503
 93
      113
310
904313A31304000000000000244000
  0
ACAD_PROXY_OBJECT
  5
4E
102
{ACAD_REACTORS
330
47
102
}
330
47
100
AcDbProxyObject
 90
      499
 91
      503
 93
      113
310
904313A31364000000000000304000
  0
ACAD_PROXY_OBJECT
  5
4F
102
{ACAD_REACTORS
330
47
102
}
330
47
100
AcDbProxyObject
 90
      499
 91
      503
 93
      113
310
904313A32304000000000000344000
  0
ACAD_PROXY_OBJECT
  5
50
102
{ACAD_REACTORS
330
47
102
}
330
47
100
AcDbProxyObject
 90
      499
 91
      503
 93
      113
310
904313A333040000000000003E4000
  0
ACAD_PROXY_OBJECT
  5
51
102
{ACAD_REACTORS
330
47
102
}
330
47
100
AcDbProxyObject
 90
      499
 91
      503
 93
      113
310
904313A34304000000000000444000
  0
ACAD_PROXY_OBJECT
  5
52
102
{ACAD_REACTORS
330
47
102
}
330
47
100
AcDbProxyObject
 90
      499
 91
      503
 93
      113
310
904313A35304000000000000494000
  0
ACAD_PROXY_OBJECT
  5
53
102
{ACAD_REACTORS
330
47
102
}
330
47
100
AcDbProxyObject
 90
      499
 91
      503
 93
      121
310
905313A3130304000000000000594000
  0
ACAD_PROXY_OBJECT
  5
54
102
{ACAD_REACTORS
330
47
102
}
330
47
100
AcDbProxyObject
 90
      499
 91
      503
 93
      105
310
903323A310000000000000010100
  0
ACAD_PROXY_OBJECT
  5
55
102
{ACAD_REACTORS
330
47
102
}
330
47
100
AcDbProxyObject
 90
      499
 91
      503
 93
      105
310
903343A310000000000000410100
  0
ACAD_PROXY_OBJECT
  5
56
102
{ACAD_REACTORS
330
47
102
}
330
47
100
AcDbProxyObject
 90
      499
 91
      503
 93
      105
310
903383A310000000000000810100
  0
ACAD_PROXY_OBJECT
  5
57
102
{ACAD_REACTORS
330
47
102
}
330
47
100
AcDbProxyObject
 90
      499
 91
      503
 93
      113
310
90431303A310000000000000910100
  0
ACAD_PROXY_OBJECT
  5
58
102
{ACAD_REACTORS
330
47
102
}
330
47
100
AcDbProxyObject
 90
      499
 91
      503
 93
      121
310
9053130303A310000000000001650100
  0
ACAD_PROXY_OBJECT
  5
59
102
{ACAD_REACTORS
330
47
102
}
330
47
100
AcDbProxyObject
 90
      499
 91
      503
 93
      257
310
90E312F31323822203D2031272D3022000000000000200FC000000000000284000
  0
ACAD_PROXY_OBJECT
  5
5A
102
{ACAD_REACTORS
330
47
102
}
330
47
100
AcDbProxyObject
 90
      499
 91
      503
 93
      249
310
90D312F363422203D2031272D3022000000000000240FC000000000000284000
  0
ACAD_PROXY_OBJECT
  5
5B
102
{ACAD_REACTORS
330
47
102
}
330
47
100
AcDbProxyObject
 90
      499
 91
      503
 93
      249
310
90D312F333222203D2031272D3022000000000000280FC000000000000284000
  0
ACAD_PROXY_OBJECT
  5
5C
102
{ACAD_REACTORS
330
47
102
}
330
47
100
AcDbProxyObject
 90
      499
 91
      503
 93
      249
310
90D312F313622203D2031272D30220000000000002C0FC000000000000284000
  0
ACAD_PROXY_OBJECT
  5
5D
102
{ACAD_REACTORS
330
47
102
}
330
47
100
AcDbProxyObject
 90
      499
 91
      503
 93
      249
310
90D332F333222203D2031272D30220000000000002E0FC000000000000284000
  0
ACAD_PROXY_OBJECT
  5
5E
102
{ACAD_REACTORS
330
47
102
}
330
47
100
AcDbProxyObject
 90
      499
 91
      503
 93
      241
310
90C312F3822203D2031272D3022000000000000300FC000000000000284000
  0
ACAD_PROXY_OBJECT
  5
5F
102
{ACAD_REACTORS
330
47
102
}
330
47
100
AcDbProxyObject
 90
      499
 91
      503
 93
      249
310
90D332F313622203D2031272D3022000000000000320FC000000000000284000
  0
ACAD_PROXY_OBJECT
  5
60
102
{ACAD_REACTORS
330
47
102
}
330
47
100
AcDbProxyObject
 90
      499
 91
      503
 93
      241
310
90C312F3422203D2031272D3022000000000000340FC000000000000284000
  0
ACAD_PROXY_OBJECT
  5
61
102
{ACAD_REACTORS
330
47
102
}
330
47
100
AcDbProxyObject
 90
      499
 91
      503
 93
      241
310
90C332F3822203D2031272D3022000000000000360FC000000000000284000
  0
ACAD_PROXY_OBJECT
  5
62
102
{ACAD_REACTORS
330
47
102
}
330
47
100
AcDbProxyObject
 90
      499
 91
      503
 93
      241
310
90C312F3222203D2031272D3022000000000000380FC000000000000284000
  0
ACAD_PROXY_OBJECT
  5
63
102
{ACAD_REACTORS
330
47
102
}
330
47
100
AcDbProxyObject
 90
      499
 91
      503
 93
      241
310
90C332F3422203D2031272D30220000000000003A0FC000000000000284000
  0
ACAD_PROXY_OBJECT
  5
64
102
{ACAD_REACTORS
330
47
102
}
330
47
100
AcDbProxyObject
 90
      499
 91
      503
 93
      161
310
90A3122203D2031272D30224000000000000284000
  0
ACAD_PROXY_OBJECT
  5
65
102
{ACAD_REACTORS
330
47
102
}
330
47
100
AcDbProxyObject
 90
      499
 91
      503
 93
      257
310
90E312D312F3222203D2031272D30220000000000003E0FC000000000000284000
  0
ACAD_PROXY_OBJECT
  5
66
102
{ACAD_REACTORS
330
47
102
}
330
47
100
AcDbProxyObject
 90
      499
 91
      503
 93
      225
310
90A3322203D2031272D302200000000000002100000000000000284000
  0
ACAD_PROXY_OBJECT
  5
67
102
{ACAD_REACTORS
330
47
102
}
330
47
100
AcDbProxyObject
 90
      499
 91
      503
 93
      225
310
90A3622203D2031272D302200000000000006100000000000000284000
  0
ACAD_PROXY_OBJECT
  5
68
102
{ACAD_REACTORS
330
47
102
}
330
47
100
AcDbProxyObject
 90
      499
 91
      503
 93
      249
310
90D31272D3022203D2031272D30220000000000000A100000000000000284000
  0
ACAD_PROXY_OBJECT
  5
2F
102
{ACAD_REACTORS
330
2A
102
}
330
2A
100
AcDbProxyObject
 90
      499
 91
      501
 93
      436
310
42CC9915DA5C99599C985B595049028333333333333E33F0000000000000F90107901411070040501600405405064090741402480A0340
1001
ACAD
1000
AcDbSavedByObjectVersion
1070
     0
  0
ACAD_PROXY_OBJECT
  5
32
102
{ACAD_REACTORS
330
2A
102
}
330
2A
100
AcDbProxyObject
 90
      499
 91
      501
 93
      388
310
4150985CDA58D07406404333333333333E33F0000000000000F90107A41107004050150841D405064090741402480A0350
1001
ACAD
1000
AcDbSavedByObjectVersion
1070
     0
  0
ACAD_PROXY_OBJECT
  5
36
102
{ACAD_REACTORS
330
2A
102
}
330
2A
100
AcDbProxyObject
 90
      499
 91
      501
 93
      428
310
42109C9A59DA1D195B90C409028333333333333E33F0000000000000F9010790141107004050150841D405064090741402480A029950
1001
ACAD
1000
AcDbSavedByObjectVersion
1070
     0
  0
ACAD_PROXY_OBJECT
  5
3A
102
{ACAD_REACTORS
330
2A
102
}
330
2A
100
AcDbProxyObject
 90
      499
 91
      501
 93
      452
310
42D0DBDB1BDC90DA185B99D95104090240C333333333333E33F0000000000000F90108901411070040501508421405064090741402480A0350
1001
ACAD
1000
AcDbSavedByObjectVersion
1070
     0
  0
ACAD_PROXY_OBJECT
  5
34
102
{ACAD_REACTORS
330
2A
102
}
330
2A
100
AcDbProxyObject
 90
      499
 91
      501
 93
      500
310
4290DBDB98D95C1D1D585B10940D028333333333333E33F0000000000000F90107902409070040501000000000018199010841D405064090740C02480A0340
1001
ACAD
1000
AcDbSavedByObjectVersion
1070
     0
  0
ACAD_PROXY_OBJECT
  5
35
102
{ACAD_REACTORS
330
2A
102
}
330
2A
100
AcDbProxyObject
 90
      499
 91
      501
 93
      412
310
40D11A5B50B409028333333333333E33F0000000000000F9010790141107004050150841D405064090741402480A02677FFFFFD0
1001
ACAD
1000
AcDbSavedByObjectVersion
1070
     0
  0
ACAD_PROXY_OBJECT
  5
3D
102
{ACAD_REACTORS
330
2A
102
}
330
2A
100
AcDbProxyObject
 90
      499
 91
      501
 93
      452
310
43115919D950DBDB1BDC93D999916409028333333333333E33F0000000000000F9010790141107004050150841D405064090741402480A0350
1001
ACAD
1000
AcDbSavedByObjectVersion
1070
     0
  0
ACAD_PROXY_OBJECT
  5
39
102
{ACAD_REACTORS
330
2A
102
}
330
2A
100
AcDbProxyObject
 90
      499
 91
      501
 93
      444
310
42D19858D95C185D1D195C9B90F409028333333333333E33F0000000000000F9010790141107004050150841D405064090741402480A0350
1001
ACAD
1000
AcDbSavedByObjectVersion
1070
     0
  0
ACAD_PROXY_OBJECT
  5
2B
102
{ACAD_REACTORS
330
2A
102
}
330
2A
100
AcDbProxyObject
 90
      499
 91
      501
 93
      380
310
41119B185D240901404333333333333E33F0000000000000F9010740A907004050150841D405064090741402480A1B50
1001
ACAD
1000
AcDbSavedByObjectVersion
1070
     0
  0
ACAD_PROXY_OBJECT
  5
2C
102
{ACAD_REACTORS
330
2A
102
}
330
2A
100
AcDbProxyObject
 90
      499
 91
      501
 93
      468
310
43519B185D15DA5D1A115919D95CD0140901404333333333333E33F0000000000000F90107409019070040501600405405064090741402480A1B50
1001
ACAD
1000
AcDbSavedByObjectVersion
1070
     0
  0
ACAD_PROXY_OBJECT
  5
2D
102
{ACAD_REACTORS
330
2A
102
}
330
2A
100
AcDbProxyObject
 90
      499
 91
      501
 93
      404
310
41D1DBDD5C985D5910240902404333333333333E33F0000000000000F9010740A9070040501641D405064090741402480A1B50
1001
ACAD
1000
AcDbSavedByObjectVersion
1070
     0
  0
ACAD_PROXY_OBJECT
  5
2E
102
{ACAD_REACTORS
330
2A
102
}
330
2A
100
AcDbProxyObject
 90
      499
 91
      501
 93
      492
310
4411DBDD5C985D5915DA5D1A115919D95CD0340902404333333333333E33F0000000000000F90107409019070040501600405405064090741402480A1B50
1001
ACAD
1000
AcDbSavedByObjectVersion
1070
     0
  0
ACAD_PROXY_OBJECT
  5
31
102
{ACAD_REACTORS
330
2A
102
}
330
2A
100
AcDbProxyObject
 90
      499
 91
      501
 93
      476
310
41921A5919195B90640502408333333333333E33F0000000000000F901079024090700405020000000000001110200405405064090740C02480A0340
1001
ACAD
1000
AcDbSavedByObjectVersion
1070
     0
  0
ACAD_PROXY_OBJECT
  5
3B
102
{ACAD_REACTORS
330
2A
102
}
330
2A
100
AcDbProxyObject
 90
      499
 91
      501
 93
      428
310
42529A5D1D195C93D999914409028333333333333E33F0000000000000F9010790141107004050150A41D405064090741402480A0350
1001
ACAD
1000
AcDbSavedByObjectVersion
1070
     0
  0
ACAD_PROXY_OBJECT
  5
38
102
{ACAD_REACTORS
330
2A
102
}
330
2A
100
AcDbProxyObject
 90
      499
 91
      501
 93
      444
310
42D31A5B995C185D1D195C9B90E409028333333333333E33F0000000000000F9010790141107004050750841D405064090741402483A0350
1001
ACAD
1000
AcDbSavedByObjectVersion
1070
     0
  0
ACAD_PROXY_OBJECT
  5
3C
102
{ACAD_REACTORS
330
2A
102
}
330
2A
100
AcDbProxyObject
 90
      499
 91
      501
 93
      444
310
42D3DD995C9A185B99D3D999915409028333333333333E33F0000000000000F9010790141107004050150941D405064090741402480A0350
1001
ACAD
1000
AcDbSavedByObjectVersion
1070
     0
  0
ACAD_PROXY_OBJECT
  5
33
102
{ACAD_REACTORS
330
2A
102
}
330
2A
100
AcDbProxyObject
 90
      499
 91
      501
 93
      428
310
425499585B1A5CDD1A58D08409038333333333333E33F0000000000000F9010740A907004050150800405405064090740C02480A1B40
1001
ACAD
1000
AcDbSavedByObjectVersion
1070
     0
  0
ACAD_PROXY_OBJECT
  5
42
102
{ACAD_REACTORS
330
2A
102
}
330
2A
100
AcDbProxyObject
 90
      499
 91
      501
 93
      420
310
4194DA1859195911B40902404333333333333E33F0000000000000F9010740A41107004050150800405405064090840C02480A0B40
1001
ACAD
1000
AcDbSavedByObjectVersion
1070
     0
  0
ACAD_PROXY_OBJECT
  5
41
102
{ACAD_REACTORS
330
2A
102
}
330
2A
100
AcDbProxyObject
 90
      499
 91
      501
 93
      516
310
4454DA18591959081DDA5D1A08195919D95CD1A40902404333333333333E33F0000000000000F901074090142907004050250800405405064090740C02480A0B40
1001
ACAD
1000
AcDbSavedByObjectVersion
1070
     0
  0
ACAD_PROXY_OBJECT
  5
3E
102
{ACAD_REACTORS
330
2A
102
}
330
2A
100
AcDbProxyObject
 90
      499
 91
      501
 93
      532
310
4394DA1859195CC81BD98811DC985E5174090240C333333333333E33F0000000000000F901079024090741D01000000000000111010841D405064090740C02480A0340
1001
ACAD
1000
AcDbSavedByObjectVersion
1070
     0
  0
ACAD_PROXY_OBJECT
  5
3F
102
{ACAD_REACTORS
330
2A
102
}
330
2A
100
AcDbProxyObject
 90
      499
 91
      501
 93
      476
310
41D4DAD95D18DA1E51840502408333333333333E33F0000000000000F901079024090741D01000000000000111010B41D405064090741802480A0340
1001
ACAD
1000
AcDbSavedByObjectVersion
1070
     0
  0
ACAD_PROXY_OBJECT
  5
37
102
{ACAD_REACTORS
330
2A
102
}
330
2A
100
AcDbProxyObject
 90
      499
 91
      501
 93
      412
310
41D51A1A58DAD95B90D409028333333333333E33F0000000000000F9010790141107004050150C41D405064090741402480A0350
1001
ACAD
1000
AcDbSavedByObjectVersion
1070
     0
  0
ACAD_PROXY_OBJECT
  5
30
102
{ACAD_REACTORS
330
2A
102
}
330
2A
100
AcDbProxyObject
 90
      499
 91
      501
 93
      420
310
4255DA5C99599C985B595059028333333333333E33F0000000000000F90107901411070040501600405405064090740C02480A0340
1001
ACAD
1000
AcDbSavedByObjectVersion
1070
     0
  0
ACAD_PROXY_OBJECT
  5
40
102
{ACAD_REACTORS
330
2A
102
}
330
2A
100
AcDbProxyObject
 90
      499
 91
      501
 93
      404
310
41560B54985E51940902404000000000000E03F0000000000000F9010740501907004050150841D405064090740C02480A1B40
1001
ACAD
1000
AcDbSavedByObjectVersion
1070
     0
  0
XRECORD
  5
229
102
{ACAD_REACTORS
330
220
102
}
330
220
100
AcDbXrecord
 90
        0
  0
XRECORD
  5
23F
102
{ACAD_REACTORS
330
220
102
}
330
220
100
AcDbXrecord
1000
DSTYLE
1002
{
1070
   171
 70
     2
1070
   143
 40
25.4
1070
   274
 70
     2
1070
    41
 40
0.18
1070
   141
 40
0.09
1070
   271
 70
     4
1070
    43
 40
0.38
1070
   278
 70
    46
1070
    44
 40
0.18
1070
    42
 40
0.0625
1070
   147
 40
0.09
1070
    77
 70
     0
1070
   272
 70
     4
1070
    73
 70
     1
1070
   172
 70
     0
1070
    74
 70
     1
1070
   283
 70
     1
1070
   340
340
11
1070
   140
 40
0.18
1070
   284
 70
     0
1070
    78
 70
     0
1002
}
  0
XRECORD
  5
22A
102
{ACAD_REACTORS
330
220
102
}
330
220
100
AcDbXrecord
  1
{ECEA1D07-B16E-43E7-A46F-65B556BBEDD8}
  0
XRECORD
  5
223
102
{ACAD_REACTORS
330
220
102
}
330
220
100
AcDbXrecord
  1

  0
XRECORD
  5
228
102
{ACAD_REACTORS
330
220
102
}
330
220
100
AcDbXrecord
 90
        4
  0
XRECORD
  5
225
102
{ACAD_REACTORS
330
220
102
}
330
220
100
AcDbXrecord
340
1A
  0
XRECORD
  5
227
102
{ACAD_REACTORS
330
220
102
}
330
220
100
AcDbXrecord
 90
    10781
  0
XRECORD
  5
226
102
{ACAD_REACTORS
330
220
102
}
330
220
100
AcDbXrecord
340
19
  0
XRECORD
  5
22C
102
{ACAD_REACTORS
330
220
102
}
330
220
100
AcDbXrecord
 40
0.0
  0
XRECORD
  5
22F
102
{ACAD_REACTORS
330
220
102
}
330
220
100
AcDbXrecord
340
0
  0
XRECORD
  5
235
102
{ACAD_REACTORS
330
220
102
}
330
220
100
AcDbXrecord
 10
0.0
 20
0.0
 30
0.0
  0
XRECORD
  5
231
102
{ACAD_REACTORS
330
220
102
}
330
220
100
AcDbXrecord
 10
0.0
 20
0.0
 30
0.0
  0
XRECORD
  5
234
102
{ACAD_REACTORS
330
220
102
}
330
220
100
AcDbXrecord
 10
0.0
 20
0.0
 30
0.0
  0
XRECORD
  5
232
102
{ACAD_REACTORS
330
220
102
}
330
220
100
AcDbXrecord
 10
0.0
 20
0.0
 30
0.0
  0
XRECORD
  5
233
102
{ACAD_REACTORS
330
220
102
}
330
220
100
AcDbXrecord
 10
0.0
 20
0.0
 30
0.0
  0
XRECORD
  5
230
102
{ACAD_REACTORS
330
220
102
}
330
220
100
AcDbXrecord
 10
0.0
 20
0.0
 30
0.0
  0
XRECORD
  5
22D
102
{ACAD_REACTORS
330
220
102
}
330
220
100
AcDbXrecord
340
0
  0
XRECORD
  5
22E
102
{ACAD_REACTORS
330
220
102
}
330
220
100
AcDbXrecord
 70
     0
  0
XRECORD
  5
224
102
{ACAD_REACTORS
330
220
102
}
330
220
100
AcDbXrecord
  1

  0
XRECORD
  5
221
102
{ACAD_REACTORS
330
220
102
}
330
220
100
AcDbXrecord
 90
        1
  0
XRECORD
  5
222
102
{ACAD_REACTORS
330
220
102
}
330
220
100
AcDbXrecord
 90
       70
  0
XRECORD
  5
238
102
{ACAD_REACTORS
330
220
102
}
330
220
100
AcDbXrecord
340
0
  0
XRECORD
  5
23E
102
{ACAD_REACTORS
330
220
102
}
330
220
100
AcDbXrecord
 10
0.0
 20
0.0
 30
0.0
  0
XRECORD
  5
23A
102
{ACAD_REACTORS
330
220
102
}
330
220
100
AcDbXrecord
 10
0.0
 20
0.0
 30
0.0
  0
XRECORD
  5
23D
102
{ACAD_REACTORS
330
220
102
}
330
220
100
AcDbXrecord
 10
0.0
 20
0.0
 30
0.0
  0
XRECORD
  5
23B
102
{ACAD_REACTORS
330
220
102
}
330
220
100
AcDbXrecord
 10
0.0
 20
0.0
 30
0.0
  0
XRECORD
  5
23C
102
{ACAD_REACTORS
330
220
102
}
330
220
100
AcDbXrecord
 10
0.0
 20
0.0
 30
0.0
  0
XRECORD
  5
239
102
{ACAD_REACTORS
330
220
102
}
330
220
100
AcDbXrecord
 10
0.0
 20
0.0
 30
0.0
  0
XRECORD
  5
236
102
{ACAD_REACTORS
330
220
102
}
330
220
100
AcDbXrecord
340
0
  0
XRECORD
  5
237
102
{ACAD_REACTORS
330
220
102
}
330
220
100
AcDbXrecord
 70
     0
  0
XRECORD
  5
22B
102
{ACAD_REACTORS
330
220
102
}
330
220
100
AcDbXrecord
  1
{FAEB1C32-E019-11D5-929B-00C0DF256EC4}
  0
DICTIONARYVAR
  5
249
102
{ACAD_REACTORS
330
240
102
}
330
240
100
DictionaryVariables
280
     0
  1
1:1
  0
DICTIONARYVAR
  5
245
102
{ACAD_REACTORS
330
240
102
}
330
240
100
DictionaryVariables
280
     0
  1
2
  0
DICTIONARYVAR
  5
246
102
{ACAD_REACTORS
330
240
102
}
330
240
100
DictionaryVariables
280
     0
  1
1
  0
DICTIONARYVAR
  5
24A
102
{ACAD_REACTORS
330
240
102
}
330
240
100
DictionaryVariables
280
     0
  1
1
  0
DICTIONARY
  5
24D
330
45
100
AcDbDictionary
280
     1
  3
ACAD_XREC_ROUNDTRIP
360
24E
  0
DICTIONARY
  5
24B
330
44
100
AcDbDictionary
280
     1
  3
ACAD_XREC_ROUNDTRIP
360
24C
  0
DICTIONARY
  5
24F
330
46
100
AcDbDictionary
280
     1
  3
ACAD_XREC_ROUNDTRIP
360
250
  0
XRECORD
  5
24E
102
{ACAD_REACTORS
330
24D
102
}
330
24D
100
AcDbXrecord
102
MATERIAL
148
0.0
149
0.0
149
0.0
 93
        0
 94
      127
282
     0
 72
     1
 77
     1
171
     1
175
     1
179
     1
273
     0
  0
XRECORD
  5
24C
102
{ACAD_REACTORS
330
24B
102
}
330
24B
100
AcDbXrecord
102
MATERIAL
148
0.0
149
0.0
149
0.0
 93
        0
 94
      127
282
     0
 72
     1
 77
     1
171
     1
175
     1
179
     1
273
     0
  0
XRECORD
  5
250
102
{ACAD_REACTORS
330
24F
102
}
330
24F
100
AcDbXrecord
102
MATERIAL
148
0.0
149
0.0
149
0.0
 93
        0
 94
      127
282
     0
 72
     1
 77
     1
171
     1
175
     1
179
     1
273
     0
  0
ENDSEC
  0
EOF
