  0
SECTION
  2
HEADER
  9
$ACADVER
  1
AC1014
  9
$HANDSEED
  5
FFFF
  9
$MEASUREMENT
 70
     1
  0
ENDSEC
  0
SECTION
  2
TABLES
  0
TABLE
  2
VPORT
  5
8
330
0
100
AcDbSymbolTable
 70
     4
  0
VPORT
  5
2E
330
8
100
AcDbSymbolTableRecord
100
AcDbViewportTableRecord
  2
*ACTIVE
 70
     0
 10
0.0
 20
0.0
 11
1.0
 21
1.0
 12
210.0
 22
148.5
 13
0.0
 23
0.0
 14
10.0
 24
10.0
 15
10.0
 25
10.0
 16
0.0
 26
0.0
 36
1.0
 17
0.0
 27
0.0
 37
0.0
 40
341.0
 41
1.24
 42
50.0
 43
0.0
 44
0.0
 50
0.0
 51
0.0
 71
     0
 72
   100
 73
     1
 74
     3
 75
     0
 76
     0
 77
     0
 78
     0
  0
ENDTAB
  0
TABLE
  2
LTYPE
  5
5
330
0
100
AcDbSymbolTable
 70
     1
  0
LTYPE
  5
14
330
5
100
AcDbSymbolTableRecord
100
AcDbLinetypeTableRecord
  2
BYBLOCK
 70
     0
  3

 72
    65
 73
     0
 40
0.0
  0
LTYPE
  5
15
330
5
100
AcDbSymbolTableRecord
100
AcDbLinetypeTableRecord
  2
BYLAYER
 70
     0
  3

 72
    65
 73
     0
 40
0.0
  0
LTYPE
  5
16
330
5
100
AcDbSymbolTableRecord
100
AcDbLinetypeTableRecord
  2
CONTINUOUS
 70
     0
  3
Solid line
 72
    65
 73
     0
 40
0.0
  0
ENDTAB
  0
TABLE
  2
LAYER
  5
2
100
AcDbSymbolTable
 70
2
  0
LAYER
  5
50
100
AcDbSymbolTableRecord
100
AcDbLayerTableRecord
  2
0
 70
0
  6
CONTINUOUS
  0
LAYER
  5
51
100
AcDbSymbolTableRecord
100
AcDbLayerTableRecord
  2
Layer_1
 70
0
  6
CONTINUOUS
  0
ENDTAB
  0
TABLE
  2
STYLE
  5
3
330
0
100
AcDbSymbolTable
 70
     1
  0
STYLE
  5
11
330
3
100
AcDbSymbolTableRecord
100
AcDbTextStyleTableRecord
  2
STANDARD
 70
     0
 40
0.0
 41
1.0
 50
0.0
 71
     0
 42
2.5
  3
txt
  4

  0
ENDTAB
  0
TABLE
  2
VIEW
  5
6
330
0
100
AcDbSymbolTable
 70
     0
  0
ENDTAB
  0
TABLE
  2
UCS
  5
7
330
0
100
AcDbSymbolTable
 70
     0
  0
ENDTAB
  0
TABLE
  2
APPID
  5
9
330
0
100
AcDbSymbolTable
 70
     2
  0
APPID
  5
12
330
9
100
AcDbSymbolTableRecord
100
AcDbRegAppTableRecord
  2
ACAD
 70
     0
  0
ENDTAB
  0
TABLE
  2
DIMSTYLE
  5
A
330
0
100
AcDbSymbolTable
 70
     1
  0
DIMSTYLE
105
27
330
A
100
AcDbSymbolTableRecord
100
AcDbDimStyleTableRecord
  2
ISO-25
 70
     0
  3

  4

  5

  6

  7

 40
1.0
 41
2.5
 42
0.625
 43
3.75
 44
1.25
 45
0.0
 46
0.0
 47
0.0
 48
0.0
140
2.5
141
2.5
142
0.0
143
0.03937007874016
144
1.0
145
0.0
146
1.0
147
0.625
 71
     0
 72
     0
 73
     0
 74
     0
 75
     0
 76
     0
 77
     1
 78
     8
170
     0
171
     3
172
     1
173
     0
174
     0
175
     0
176
     0
177
     0
178
     0
270
     2
271
     2
272
     2
273
     2
274
     3
340
11
275
     0
280
     0
281
     0
282
     0
283
     0
284
     8
285
     0
286
     0
287
     3
288
     0
  0
ENDTAB
  0
TABLE
  2
BLOCK_RECORD
  5
1
330
0
100
AcDbSymbolTable
 70
     1
  0
BLOCK_RECORD
  5
1F
330
1
100
AcDbSymbolTableRecord
100
AcDbBlockTableRecord
  2
*MODEL_SPACE
  0
BLOCK_RECORD
  5
1B
330
1
100
AcDbSymbolTableRecord
100
AcDbBlockTableRecord
  2
*PAPER_SPACE
  0
ENDTAB
  0
ENDSEC
  0
SECTION
  2
BLOCKS
  0
BLOCK
  5
20
330
1F
100
AcDbEntity
  8
0
100
AcDbBlockBegin
  2
*MODEL_SPACE
 70
     0
 10
0.0
 20
0.0
 30
0.0
  3
*MODEL_SPACE
  1

  0
ENDBLK
  5
21
330
1F
100
AcDbEntity
  8
0
100
AcDbBlockEnd
  0
BLOCK
  5
1C
330
1B
100
AcDbEntity
 67
     1
  8
0
100
AcDbBlockBegin
  2
*PAPER_SPACE
  1

  0
ENDBLK
  5
1D
330
1B
100
AcDbEntity
 67
     1
  8
0
100
AcDbBlockEnd
  0
ENDSEC
  0
SECTION
  2
ENTITIES
  0
SPLINE
  5
100
100
AcDbEntity
  8
Layer_1
 62
5
100
AcDbSpline
 70
8
 71
3
 72
8
 73
4
 74
0
 40
0
 40
0
 40
0
 40
0
 40
1
 40
1
 40
1
 40
1
 10
521.630104
 20
692.581970
 30
0.0
 10
524.510224
 20
696.546130
 30
0.0
 10
557.077200
 20
742.465986
 30
0.0
 10
594.001128
 20
794.626077
 30
0.0
  0
SPLINE
  5
101
100
AcDbEntity
  8
Layer_1
 62
5
100
AcDbSpline
 70
8
 71
3
 72
8
 73
4
 74
0
 40
0
 40
0
 40
0
 40
0
 40
1
 40
1
 40
1
 40
1
 10
594.001128
 20
794.626077
 30
0.0
 10
630.925080
 20
846.786171
 30
0.0
 10
664.645688
 20
893.077051
 30
0.0
 10
668.935824
 20
897.494704
 30
0.0
  0
SPLINE
  5
102
100
AcDbEntity
  8
Layer_1
 62
5
100
AcDbSpline
 70
8
 71
3
 72
8
 73
4
 74
0
 40
0
 40
0
 40
0
 40
0
 40
1
 40
1
 40
1
 40
1
 10
668.935824
 20
897.494704
 30
0.0
 10
680.365920
 20
909.264555
 30
0.0
 10
690.097224
 20
913.558859
 30
0.0
 10
705.419792
 20
913.594669
 30
0.0
  0
SPLINE
  5
103
100
AcDbEntity
  8
Layer_1
 62
5
100
AcDbSpline
 70
8
 71
3
 72
8
 73
4
 74
0
 40
0
 40
0
 40
0
 40
0
 40
1
 40
1
 40
1
 40
1
 10
705.419792
 20
913.594669
 30
0.0
 10
719.389032
 20
913.627293
 30
0.0
 10
728.189312
 20
910.499509
 30
0.0
 10
738.959984
 20
901.673763
 30
0.0
  0
SPLINE
  5
104
100
AcDbEntity
  8
Layer_1
 62
5
100
AcDbSpline
 70
8
 71
3
 72
8
 73
4
 74
0
 40
0
 40
0
 40
0
 40
0
 40
1
 40
1
 40
1
 40
1
 10
738.959984
 20
901.673763
 30
0.0
 10
743.189984
 20
898.207586
 30
0.0
 10
769.271776
 20
861.779281
 30
0.0
 10
817.768400
 20
791.602400
 30
0.0
  0
SPLINE
  5
105
100
AcDbEntity
  8
Layer_1
 62
5
100
AcDbSpline
 70
8
 71
3
 72
8
 73
4
 74
0
 40
0
 40
0
 40
0
 40
0
 40
1
 40
1
 40
1
 40
1
 10
817.768400
 20
791.602400
 30
0.0
 10
857.635760
 20
733.912562
 30
0.0
 10
889.949680
 20
686.407018
 30
0.0
 10
889.577200
 20
686.034530
 30
0.0
  0
SPLINE
  5
106
100
AcDbEntity
  8
Layer_1
 62
5
100
AcDbSpline
 70
8
 71
3
 72
8
 73
4
 74
0
 40
0
 40
0
 40
0
 40
0
 40
1
 40
1
 40
1
 40
1
 10
889.577200
 20
686.034530
 30
0.0
 10
889.204640
 20
685.662026
 30
0.0
 10
830.726240
 20
685.531818
 30
0.0
 10
759.625128
 20
685.745162
 30
0.0
  0
LWPOLYLINE
  5
107
100
AcDbEntity
  8
Layer_1
 62
5
100
AcDbPolyline
 90
26
 70
1
 10
191.931672
 20
797.660846
 30
0.0
 10
191.931672
 20
909.947302
 30
0.0
 10
226.831520
 20
909.947302
 30
0.0
 10
261.731368
 20
909.947302
 30
0.0
 10
261.731368
 20
870.495304
 30
0.0
 10
261.731368
 20
831.043306
 30
0.0
 10
329.254984
 20
831.043306
 30
0.0
 10
396.778600
 20
831.043306
 30
0.0
 10
396.778600
 20
870.495304
 30
0.0
 10
396.778600
 20
909.947302
 30
0.0
 10
430.919760
 20
909.947302
 30
0.0
 10
465.060912
 20
909.947302
 30
0.0
 10
465.060912
 20
797.660846
 30
0.0
 10
465.060912
 20
685.374394
 30
0.0
 10
430.919760
 20
685.374394
 30
0.0
 10
396.778600
 20
685.374394
 30
0.0
 10
396.778600
 20
728.619850
 30
0.0
 10
396.778600
 20
771.865309
 30
0.0
 10
329.254984
 20
771.865309
 30
0.0
 10
261.731368
 20
771.865309
 30
0.0
 10
261.731368
 20
728.619850
 30
0.0
 10
261.731368
 20
685.374394
 30
0.0
 10
226.831520
 20
685.374394
 30
0.0
 10
191.931672
 20
685.374394
 30
0.0
 10
191.931672
 20
797.660846
 30
0.0
 10
191.931672
 20
797.660846
 30
0.0
  0
SPLINE
  5
108
100
AcDbEntity
  8
Layer_1
 62
5
100
AcDbSpline
 70
8
 71
3
 72
8
 73
4
 74
0
 40
0
 40
0
 40
0
 40
0
 40
1
 40
1
 40
1
 40
1
 10
719.442336
 20
742.768442
 30
0.0
 10
750.776272
 20
742.444570
 30
0.0
 10
766.846392
 20
742.795162
 30
0.0
 10
766.442400
 20
743.793698
 30
0.0
  0
SPLINE
  5
109
100
AcDbEntity
  8
Layer_1
 62
5
100
AcDbSpline
 70
8
 71
3
 72
8
 73
4
 74
0
 40
0
 40
0
 40
0
 40
0
 40
1
 40
1
 40
1
 40
1
 10
766.442400
 20
743.793698
 30
0.0
 10
766.104768
 20
744.628258
 30
0.0
 10
756.485112
 20
758.967538
 30
0.0
 10
745.065376
 20
775.658770
 30
0.0
  0
SPLINE
  5
10a
100
AcDbEntity
  8
Layer_1
 62
5
100
AcDbSpline
 70
8
 71
3
 72
8
 73
4
 74
0
 40
0
 40
0
 40
0
 40
0
 40
1
 40
1
 40
1
 40
1
 10
745.065376
 20
775.658770
 30
0.0
 10
733.645664
 20
792.350001
 30
0.0
 10
720.086680
 20
812.298964
 30
0.0
 10
714.934304
 20
819.989797
 30
0.0
  0
SPLINE
  5
10b
100
AcDbEntity
  8
Layer_1
 62
5
100
AcDbSpline
 70
8
 71
3
 72
8
 73
4
 74
0
 40
0
 40
0
 40
0
 40
0
 40
1
 40
1
 40
1
 40
1
 10
714.934304
 20
819.989797
 30
0.0
 10
709.781952
 20
827.680615
 30
0.0
 10
705.209160
 20
833.996728
 30
0.0
 10
704.772560
 20
834.025604
 30
0.0
  0
SPLINE
  5
10c
100
AcDbEntity
  8
Layer_1
 62
5
100
AcDbSpline
 70
8
 71
3
 72
8
 73
4
 74
0
 40
0
 40
0
 40
0
 40
0
 40
1
 40
1
 40
1
 40
1
 10
704.772560
 20
834.025604
 30
0.0
 10
704.335952
 20
834.054434
 30
0.0
 10
680.437144
 20
800.651156
 30
0.0
 10
651.664104
 20
759.796034
 30
0.0
  0
LWPOLYLINE
  5
10d
100
AcDbEntity
  8
Layer_1
 62
5
100
AcDbPolyline
 90
5
 70
1
 10
759.625128
 20
685.745162
 30
0.0
 10
630.350368
 20
686.133082
 30
0.0
 10
651.089392
 20
714.696826
 30
0.0
 10
671.828400
 20
743.260578
 30
0.0
 10
719.442336
 20
742.768442
 30
0.0
  0
SPLINE
  5
10e
100
AcDbEntity
  8
Layer_1
 62
5
100
AcDbSpline
 70
8
 71
3
 72
8
 73
4
 74
0
 40
0
 40
0
 40
0
 40
0
 40
1
 40
1
 40
1
 40
1
 10
1003.572160
 20
687.736074
 30
0.0
 10
928.735280
 20
701.284730
 30
0.0
 10
884.088240
 20
765.868287
 30
0.0
 10
904.480720
 20
831.075293
 30
0.0
  0
SPLINE
  5
10f
100
AcDbEntity
  8
Layer_1
 62
5
100
AcDbSpline
 70
8
 71
3
 72
8
 73
4
 74
0
 40
0
 40
0
 40
0
 40
0
 40
1
 40
1
 40
1
 40
1
 10
904.480720
 20
831.075293
 30
0.0
 10
914.245200
 20
862.297998
 30
0.0
 10
940.235760
 20
887.537323
 30
0.0
 10
975.662160
 20
900.199199
 30
0.0
  0
SPLINE
  5
110
100
AcDbEntity
  8
Layer_1
 62
5
100
AcDbSpline
 70
8
 71
3
 72
8
 73
4
 74
0
 40
0
 40
0
 40
0
 40
0
 40
1
 40
1
 40
1
 40
1
 10
975.662160
 20
900.199199
 30
0.0
 10
1001.953760
 20
909.596164
 30
0.0
 10
1006.579360
 20
909.947302
 30
0.0
 10
1104.078640
 20
909.947302
 30
0.0
  0
SPLINE
  5
111
100
AcDbEntity
  8
Layer_1
 62
5
100
AcDbSpline
 70
8
 71
3
 72
8
 73
4
 74
0
 40
0
 40
0
 40
0
 40
0
 40
1
 40
1
 40
1
 40
1
 10
1104.078640
 20
909.947302
 30
0.0
 10
1152.373920
 20
909.947302
 30
0.0
 10
1191.888160
 20
909.559656
 30
0.0
 10
1191.888160
 20
909.085868
 30
0.0
  0
SPLINE
  5
112
100
AcDbEntity
  8
Layer_1
 62
5
100
AcDbSpline
 70
8
 71
3
 72
8
 73
4
 74
0
 40
0
 40
0
 40
0
 40
0
 40
1
 40
1
 40
1
 40
1
 10
1191.888160
 20
909.085868
 30
0.0
 10
1191.888160
 20
908.612065
 30
0.0
 10
1182.286960
 20
895.677924
 30
0.0
 10
1170.552160
 20
880.343312
 30
0.0
  0
LWPOLYLINE
  5
113
100
AcDbEntity
  8
Layer_1
 62
5
100
AcDbPolyline
 90
6
 70
1
 10
651.664104
 20
759.796034
 30
0.0
 10
599.349456
 20
685.513986
 30
0.0
 10
557.871488
 20
685.444146
 30
0.0
 10
516.393520
 20
685.374386
 30
0.0
 10
521.630104
 20
692.581962
 30
0.0
 10
521.630104
 20
692.581970
 30
0.0
  0
SPLINE
  5
114
100
AcDbEntity
  8
Layer_1
 62
5
100
AcDbSpline
 70
8
 71
3
 72
8
 73
4
 74
0
 40
0
 40
0
 40
0
 40
0
 40
1
 40
1
 40
1
 40
1
 10
1008.064560
 20
847.578807
 30
0.0
 10
981.692240
 20
837.367507
 30
0.0
 10
967.064320
 20
816.450316
 30
0.0
 10
969.329760
 20
792.189992
 30
0.0
  0
SPLINE
  5
115
100
AcDbEntity
  8
Layer_1
 62
5
100
AcDbSpline
 70
8
 71
3
 72
8
 73
4
 74
0
 40
0
 40
0
 40
0
 40
0
 40
1
 40
1
 40
1
 40
1
 10
969.329760
 20
792.189992
 30
0.0
 10
971.352320
 20
770.531012
 30
0.0
 10
985.572400
 20
754.346090
 30
0.0
 10
1010.250160
 20
745.615514
 30
0.0
  0
SPLINE
  5
116
100
AcDbEntity
  8
Layer_1
 62
5
100
AcDbSpline
 70
8
 71
3
 72
8
 73
4
 74
0
 40
0
 40
0
 40
0
 40
0
 40
1
 40
1
 40
1
 40
1
 10
1010.250160
 20
745.615514
 30
0.0
 10
1013.555600
 20
744.446098
 30
0.0
 10
1043.651120
 20
743.635946
 30
0.0
 10
1104.227120
 20
743.085746
 30
0.0
  0
LWPOLYLINE
  5
117
100
AcDbEntity
  8
Layer_1
 62
5
100
AcDbPolyline
 90
5
 70
1
 10
1170.552160
 20
880.343312
 30
0.0
 10
1149.216160
 20
852.462205
 30
0.0
 10
1083.681840
 20
851.972576
 30
0.0
 10
1018.147600
 20
851.482946
 30
0.0
 10
1008.064560
 20
847.578807
 30
0.0
  0
SPLINE
  5
118
100
AcDbEntity
  8
Layer_1
 62
5
100
AcDbSpline
 70
8
 71
3
 72
8
 73
4
 74
0
 40
0
 40
0
 40
0
 40
0
 40
1
 40
1
 40
1
 40
1
 10
1082.202240
 20
685.510498
 30
0.0
 10
1032.340880
 20
685.611706
 30
0.0
 10
1012.149280
 20
686.183186
 30
0.0
 10
1003.572160
 20
687.736018
 30
0.0
  0
LWPOLYLINE
  5
119
100
AcDbEntity
  8
Layer_1
 62
5
100
AcDbPolyline
 90
5
 70
1
 10
1104.227120
 20
743.085746
 30
0.0
 10
1193.341440
 20
742.276314
 30
0.0
 10
1171.316560
 20
713.825354
 30
0.0
 10
1149.291680
 20
685.374394
 30
0.0
 10
1082.202240
 20
685.510498
 30
0.0
  0
LWPOLYLINE
  5
11a
100
AcDbEntity
  8
Layer_1
 62
5
100
AcDbPolyline
 90
2
 70
1
 10
1003.572160
 20
687.736018
 30
0.0
 10
1003.572160
 20
687.736074
 30
0.0
  0
SPLINE
  5
11b
100
AcDbEntity
  8
Layer_1
 62
5
100
AcDbSpline
 70
8
 71
3
 72
8
 73
4
 74
0
 40
0
 40
0
 40
0
 40
0
 40
1
 40
1
 40
1
 40
1
 10
1321.590880
 20
827.454328
 30
0.0
 10
1326.616720
 20
831.979942
 30
0.0
 10
1350.404800
 20
852.392254
 30
0.0
 10
1374.453120
 20
872.815005
 30
0.0
  0
LWPOLYLINE
  5
11c
100
AcDbEntity
  8
Layer_1
 62
5
100
AcDbPolyline
 90
7
 70
1
 10
1243.479280
 20
797.660846
 30
0.0
 10
1243.479280
 20
909.947302
 30
0.0
 10
1278.556240
 20
909.947302
 30
0.0
 10
1313.633200
 20
909.947302
 30
0.0
 10
1313.042960
 20
864.586624
 30
0.0
 10
1312.452800
 20
819.225930
 30
0.0
 10
1321.590880
 20
827.454328
 30
0.0
  0
SPLINE
  5
11d
100
AcDbEntity
  8
Layer_1
 62
5
100
AcDbSpline
 70
8
 71
3
 72
8
 73
4
 74
0
 40
0
 40
0
 40
0
 40
0
 40
1
 40
1
 40
1
 40
1
 10
1468.455120
 20
909.947302
 30
0.0
 10
1497.836320
 20
909.947302
 30
0.0
 10
1518.133680
 20
909.386977
 30
0.0
 10
1517.291280
 20
908.599136
 30
0.0
  0
SPLINE
  5
11e
100
AcDbEntity
  8
Layer_1
 62
5
100
AcDbSpline
 70
8
 71
3
 72
8
 73
4
 74
0
 40
0
 40
0
 40
0
 40
0
 40
1
 40
1
 40
1
 40
1
 10
1517.291280
 20
908.599136
 30
0.0
 10
1513.261760
 20
904.830545
 30
0.0
 10
1400.349120
 20
821.341817
 30
0.0
 10
1389.906880
 20
814.409813
 30
0.0
  0
SPLINE
  5
11f
100
AcDbEntity
  8
Layer_1
 62
5
100
AcDbSpline
 70
8
 71
3
 72
8
 73
4
 74
0
 40
0
 40
0
 40
0
 40
0
 40
1
 40
1
 40
1
 40
1
 10
1389.906880
 20
814.409813
 30
0.0
 10
1383.230400
 20
809.977684
 30
0.0
 10
1377.211280
 20
805.853858
 30
0.0
 10
1376.531200
 20
805.245781
 30
0.0
  0
SPLINE
  5
120
100
AcDbEntity
  8
Layer_1
 62
5
100
AcDbSpline
 70
8
 71
3
 72
8
 73
4
 74
0
 40
0
 40
0
 40
0
 40
0
 40
1
 40
1
 40
1
 40
1
 10
1376.531200
 20
805.245781
 30
0.0
 10
1375.851040
 20
804.637689
 30
0.0
 10
1382.679280
 20
798.769842
 30
0.0
 10
1391.705040
 20
792.206107
 30
0.0
  0
SPLINE
  5
121
100
AcDbEntity
  8
Layer_1
 62
5
100
AcDbSpline
 70
8
 71
3
 72
8
 73
4
 74
0
 40
0
 40
0
 40
0
 40
0
 40
1
 40
1
 40
1
 40
1
 10
1391.705040
 20
792.206107
 30
0.0
 10
1405.901120
 20
781.882369
 30
0.0
 10
1517.989920
 20
693.228010
 30
0.0
 10
1524.141200
 20
687.458410
 30
0.0
  0
SPLINE
  5
122
100
AcDbEntity
  8
Layer_1
 62
5
100
AcDbSpline
 70
8
 71
3
 72
8
 73
4
 74
0
 40
0
 40
0
 40
0
 40
0
 40
1
 40
1
 40
1
 40
1
 10
1524.141200
 20
687.458410
 30
0.0
 10
1526.028000
 20
685.688690
 30
0.0
 10
1518.476400
 20
685.379730
 30
0.0
 10
1474.067520
 20
685.409778
 30
0.0
  0
LWPOLYLINE
  5
123
100
AcDbEntity
  8
Layer_1
 62
5
100
AcDbPolyline
 90
3
 70
1
 10
1374.453120
 20
872.815005
 30
0.0
 10
1418.177360
 20
909.947302
 30
0.0
 10
1468.455120
 20
909.947302
 30
0.0
  0
SPLINE
  5
124
100
AcDbEntity
  8
Layer_1
 62
5
100
AcDbSpline
 70
8
 71
3
 72
8
 73
4
 74
0
 40
0
 40
0
 40
0
 40
0
 40
1
 40
1
 40
1
 40
1
 10
1381.561280
 20
720.414570
 30
0.0
 10
1359.445360
 20
739.647770
 30
0.0
 10
1335.086400
 20
761.140762
 30
0.0
 10
1327.430080
 20
768.176797
 30
0.0
  0
SPLINE
  5
125
100
AcDbEntity
  8
Layer_1
 62
5
100
AcDbSpline
 70
8
 71
3
 72
8
 73
4
 74
0
 40
0
 40
0
 40
0
 40
0
 40
1
 40
1
 40
1
 40
1
 10
1327.430080
 20
768.176797
 30
0.0
 10
1319.773840
 20
775.212833
 30
0.0
 10
1313.287040
 20
780.969957
 30
0.0
 10
1313.014960
 20
780.970397
 30
0.0
  0
SPLINE
  5
126
100
AcDbEntity
  8
Layer_1
 62
5
100
AcDbSpline
 70
8
 71
3
 72
8
 73
4
 74
0
 40
0
 40
0
 40
0
 40
0
 40
1
 40
1
 40
1
 40
1
 10
1313.014960
 20
780.970397
 30
0.0
 10
1312.742880
 20
780.970821
 30
0.0
 10
1312.749520
 20
759.461898
 30
0.0
 10
1313.030160
 20
733.172786
 30
0.0
  0
LWPOLYLINE
  5
127
100
AcDbEntity
  8
Layer_1
 62
5
100
AcDbPolyline
 90
3
 70
1
 10
1474.067520
 20
685.409778
 30
0.0
 10
1421.771920
 20
685.445138
 30
0.0
 10
1381.561280
 20
720.414570
 30
0.0
  0
SPLINE
  5
128
100
AcDbEntity
  8
Layer_1
 62
5
100
AcDbSpline
 70
8
 71
3
 72
8
 73
4
 74
0
 40
0
 40
0
 40
0
 40
0
 40
1
 40
1
 40
1
 40
1
 10
1573.090480
 20
697.892810
 30
0.0
 10
1578.422640
 20
704.777946
 30
0.0
 10
1588.479360
 20
717.751586
 30
0.0
 10
1595.438720
 20
726.723122
 30
0.0
  0
LWPOLYLINE
  5
129
100
AcDbEntity
  8
Layer_1
 62
5
100
AcDbPolyline
 90
6
 70
1
 10
1313.030160
 20
733.172786
 30
0.0
 10
1313.539280
 20
685.374370
 30
0.0
 10
1278.509280
 20
685.374370
 30
0.0
 10
1243.479360
 20
685.374370
 30
0.0
 10
1243.479360
 20
797.660822
 30
0.0
 10
1243.479280
 20
797.660846
 30
0.0
  0
SPLINE
  5
12a
100
AcDbEntity
  8
Layer_1
 62
5
100
AcDbSpline
 70
8
 71
3
 72
8
 73
4
 74
0
 40
0
 40
0
 40
0
 40
0
 40
1
 40
1
 40
1
 40
1
 10
1698.990240
 20
743.035002
 30
0.0
 10
1794.604560
 20
743.035002
 30
0.0
 10
1794.697600
 20
743.041402
 30
0.0
 10
1800.226800
 20
749.703426
 30
0.0
  0
SPLINE
  5
12b
100
AcDbEntity
  8
Layer_1
 62
5
100
AcDbSpline
 70
8
 71
3
 72
8
 73
4
 74
0
 40
0
 40
0
 40
0
 40
0
 40
1
 40
1
 40
1
 40
1
 10
1800.226800
 20
749.703426
 30
0.0
 10
1801.284160
 20
750.977434
 30
0.0
 10
1802.196800
 20
755.165730
 30
0.0
 10
1802.254960
 20
759.010754
 30
0.0
  0
SPLINE
  5
12c
100
AcDbEntity
  8
Layer_1
 62
5
100
AcDbSpline
 70
8
 71
3
 72
8
 73
4
 74
0
 40
0
 40
0
 40
0
 40
0
 40
1
 40
1
 40
1
 40
1
 10
1802.254960
 20
759.010754
 30
0.0
 10
1802.400640
 20
768.647361
 30
0.0
 10
1797.985360
 20
772.937281
 30
0.0
 10
1785.881760
 20
774.919273
 30
0.0
  0
SPLINE
  5
12d
100
AcDbEntity
  8
Layer_1
 62
5
100
AcDbSpline
 70
8
 71
3
 72
8
 73
4
 74
0
 40
0
 40
0
 40
0
 40
0
 40
1
 40
1
 40
1
 40
1
 10
1785.881760
 20
774.919273
 30
0.0
 10
1780.908800
 20
775.733608
 30
0.0
 10
1745.088720
 20
776.415702
 30
0.0
 10
1706.281600
 20
776.435019
 30
0.0
  0
SPLINE
  5
12e
100
AcDbEntity
  8
Layer_1
 62
5
100
AcDbSpline
 70
8
 71
3
 72
8
 73
4
 74
0
 40
0
 40
0
 40
0
 40
0
 40
1
 40
1
 40
1
 40
1
 10
1706.281600
 20
776.435019
 30
0.0
 10
1628.974640
 20
776.473563
 30
0.0
 10
1623.131840
 20
776.989850
 30
0.0
 10
1605.235840
 20
785.364387
 30
0.0
  0
SPLINE
  5
12f
100
AcDbEntity
  8
Layer_1
 62
5
100
AcDbSpline
 70
8
 71
3
 72
8
 73
4
 74
0
 40
0
 40
0
 40
0
 40
0
 40
1
 40
1
 40
1
 40
1
 10
1605.235840
 20
785.364387
 30
0.0
 10
1592.485520
 20
791.330985
 30
0.0
 10
1582.891120
 20
800.496808
 30
0.0
 10
1577.115600
 20
812.228466
 30
0.0
  0
SPLINE
  5
130
100
AcDbEntity
  8
Layer_1
 62
5
100
AcDbSpline
 70
8
 71
3
 72
8
 73
4
 74
0
 40
0
 40
0
 40
0
 40
0
 40
1
 40
1
 40
1
 40
1
 10
1577.115600
 20
812.228466
 30
0.0
 10
1573.222560
 20
820.136407
 30
0.0
 10
1572.237840
 20
824.269595
 30
0.0
 10
1571.605760
 20
835.355440
 30
0.0
  0
SPLINE
  5
131
100
AcDbEntity
  8
Layer_1
 62
5
100
AcDbSpline
 70
8
 71
3
 72
8
 73
4
 74
0
 40
0
 40
0
 40
0
 40
0
 40
1
 40
1
 40
1
 40
1
 10
1571.605760
 20
835.355440
 30
0.0
 10
1570.697760
 20
851.279374
 30
0.0
 10
1572.726880
 20
861.545102
 30
0.0
 10
1579.231520
 20
873.937248
 30
0.0
  0
SPLINE
  5
132
100
AcDbEntity
  8
Layer_1
 62
5
100
AcDbSpline
 70
8
 71
3
 72
8
 73
4
 74
0
 40
0
 40
0
 40
0
 40
0
 40
1
 40
1
 40
1
 40
1
 10
1579.231520
 20
873.937248
 30
0.0
 10
1587.033920
 20
888.801669
 30
0.0
 10
1600.720320
 20
898.378808
 30
0.0
 10
1624.602880
 20
905.686061
 30
0.0
  0
SPLINE
  5
133
100
AcDbEntity
  8
Layer_1
 62
5
100
AcDbSpline
 70
8
 71
3
 72
8
 73
4
 74
0
 40
0
 40
0
 40
0
 40
0
 40
1
 40
1
 40
1
 40
1
 10
1624.602880
 20
905.686061
 30
0.0
 10
1635.632640
 20
909.060816
 30
0.0
 10
1636.647920
 20
909.092544
 30
0.0
 10
1749.258640
 20
909.581476
 30
0.0
  0
SPLINE
  5
134
100
AcDbEntity
  8
Layer_1
 62
5
100
AcDbSpline
 70
8
 71
3
 72
8
 73
4
 74
0
 40
0
 40
0
 40
0
 40
0
 40
1
 40
1
 40
1
 40
1
 10
1749.258640
 20
909.581476
 30
0.0
 10
1845.877200
 20
910.000972
 30
0.0
 10
1862.608000
 20
909.760117
 30
0.0
 10
1861.545120
 20
907.964930
 30
0.0
  0
SPLINE
  5
135
100
AcDbEntity
  8
Layer_1
 62
5
100
AcDbSpline
 70
8
 71
3
 72
8
 73
4
 74
0
 40
0
 40
0
 40
0
 40
0
 40
1
 40
1
 40
1
 40
1
 10
1861.545120
 20
907.964930
 30
0.0
 10
1860.858160
 20
906.804723
 30
0.0
 10
1851.078000
 20
893.806078
 30
0.0
 10
1839.811440
 20
879.079088
 30
0.0
  0
LWPOLYLINE
  5
136
100
AcDbEntity
  8
Layer_1
 62
5
100
AcDbPolyline
 90
3
 70
1
 10
1595.438720
 20
726.723122
 30
0.0
 10
1608.092080
 20
743.035002
 30
0.0
 10
1698.990240
 20
743.035002
 30
0.0
  0
SPLINE
  5
137
100
AcDbEntity
  8
Layer_1
 62
5
100
AcDbSpline
 70
8
 71
3
 72
8
 73
4
 74
0
 40
0
 40
0
 40
0
 40
0
 40
1
 40
1
 40
1
 40
1
 10
1737.388000
 20
852.286193
 30
0.0
 10
1685.935840
 20
852.275569
 30
0.0
 10
1653.357760
 20
851.688844
 30
0.0
 10
1649.828000
 20
850.708523
 30
0.0
  0
SPLINE
  5
138
100
AcDbEntity
  8
Layer_1
 62
5
100
AcDbSpline
 70
8
 71
3
 72
8
 73
4
 74
0
 40
0
 40
0
 40
0
 40
0
 40
1
 40
1
 40
1
 40
1
 10
1649.828000
 20
850.708523
 30
0.0
 10
1639.959680
 20
847.967762
 30
0.0
 10
1635.418720
 20
838.367073
 30
0.0
 10
1639.624640
 20
829.136140
 30
0.0
  0
SPLINE
  5
139
100
AcDbEntity
  8
Layer_1
 62
5
100
AcDbSpline
 70
8
 71
3
 72
8
 73
4
 74
0
 40
0
 40
0
 40
0
 40
0
 40
1
 40
1
 40
1
 40
1
 10
1639.624640
 20
829.136140
 30
0.0
 10
1643.287840
 20
821.096323
 30
0.0
 10
1641.776560
 20
821.245482
 30
0.0
 10
1729.042320
 20
820.310000
 30
0.0
  0
SPLINE
  5
13a
100
AcDbEntity
  8
Layer_1
 62
5
100
AcDbSpline
 70
8
 71
3
 72
8
 73
4
 74
0
 40
0
 40
0
 40
0
 40
0
 40
1
 40
1
 40
1
 40
1
 10
1729.042320
 20
820.310000
 30
0.0
 10
1805.992000
 20
819.485104
 30
0.0
 10
1810.841200
 20
819.269377
 30
0.0
 10
1822.095200
 20
816.170362
 30
0.0
  0
SPLINE
  5
13b
100
AcDbEntity
  8
Layer_1
 62
5
100
AcDbSpline
 70
8
 71
3
 72
8
 73
4
 74
0
 40
0
 40
0
 40
0
 40
0
 40
1
 40
1
 40
1
 40
1
 10
1822.095200
 20
816.170362
 30
0.0
 10
1837.921520
 20
811.812282
 30
0.0
 10
1847.674800
 20
806.272357
 30
0.0
 10
1856.477360
 20
796.641016
 30
0.0
  0
SPLINE
  5
13c
100
AcDbEntity
  8
Layer_1
 62
5
100
AcDbSpline
 70
8
 71
3
 72
8
 73
4
 74
0
 40
0
 40
0
 40
0
 40
0
 40
1
 40
1
 40
1
 40
1
 10
1856.477360
 20
796.641016
 30
0.0
 10
1867.999120
 20
784.034313
 30
0.0
 10
1872.122160
 20
766.577304
 30
0.0
 10
1868.784400
 20
744.532742
 30
0.0
  0
SPLINE
  5
13d
100
AcDbEntity
  8
Layer_1
 62
5
100
AcDbSpline
 70
8
 71
3
 72
8
 73
4
 74
0
 40
0
 40
0
 40
0
 40
0
 40
1
 40
1
 40
1
 40
1
 10
1868.784400
 20
744.532742
 30
0.0
 10
1864.155920
 20
713.963830
 30
0.0
 10
1844.623680
 20
695.661702
 30
0.0
 10
1808.705040
 20
688.237078
 30
0.0
  0
SPLINE
  5
13e
100
AcDbEntity
  8
Layer_1
 62
5
100
AcDbSpline
 70
8
 71
3
 72
8
 73
4
 74
0
 40
0
 40
0
 40
0
 40
0
 40
1
 40
1
 40
1
 40
1
 10
1808.705040
 20
688.237078
 30
0.0
 10
1796.092080
 20
685.629894
 30
0.0
 10
1786.198400
 20
685.412678
 30
0.0
 10
1679.222080
 20
685.394270
 30
0.0
  0
LWPOLYLINE
  5
13f
100
AcDbEntity
  8
Layer_1
 62
5
100
AcDbPolyline
 90
3
 70
1
 10
1839.811440
 20
879.079088
 30
0.0
 10
1819.326720
 20
852.302729
 30
0.0
 10
1737.388000
 20
852.286193
 30
0.0
  0
LWPOLYLINE
  5
140
100
AcDbEntity
  8
Layer_1
 62
5
100
AcDbPolyline
 90
4
 70
1
 10
1679.222080
 20
685.394270
 30
0.0
 10
1563.395520
 20
685.374430
 30
0.0
 10
1573.090480
 20
697.892846
 30
0.0
 10
1573.090480
 20
697.892810
 30
0.0
  0
SPLINE
  5
141
100
AcDbEntity
  8
Layer_1
 62
5
100
AcDbSpline
 70
8
 71
3
 72
8
 73
4
 74
0
 40
0
 40
0
 40
0
 40
0
 40
1
 40
1
 40
1
 40
1
 10
2030.243200
 20
800.695615
 30
0.0
 10
2146.026800
 20
801.534623
 30
0.0
 10
2139.649680
 20
800.958077
 30
0.0
 10
2148.418960
 20
811.379763
 30
0.0
  0
SPLINE
  5
142
100
AcDbEntity
  8
Layer_1
 62
5
100
AcDbSpline
 70
8
 71
3
 72
8
 73
4
 74
0
 40
0
 40
0
 40
0
 40
0
 40
1
 40
1
 40
1
 40
1
 10
2148.418960
 20
811.379763
 30
0.0
 10
2153.241360
 20
817.110939
 30
0.0
 10
2154.538080
 20
821.753559
 30
0.0
 10
2153.492800
 20
829.546513
 30
0.0
  0
SPLINE
  5
143
100
AcDbEntity
  8
Layer_1
 62
5
100
AcDbSpline
 70
8
 71
3
 72
8
 73
4
 74
0
 40
0
 40
0
 40
0
 40
0
 40
1
 40
1
 40
1
 40
1
 10
2153.492800
 20
829.546513
 30
0.0
 10
2152.403440
 20
837.667904
 30
0.0
 10
2147.629440
 20
843.785543
 30
0.0
 10
2139.104960
 20
847.983645
 30
0.0
  0
LWPOLYLINE
  5
144
100
AcDbEntity
  8
Layer_1
 62
5
100
AcDbPolyline
 90
3
 70
1
 10
1925.146080
 20
742.655658
 30
0.0
 10
1925.543680
 20
799.936923
 30
0.0
 10
2030.243200
 20
800.695615
 30
0.0
  0
SPLINE
  5
145
100
AcDbEntity
  8
Layer_1
 62
5
100
AcDbSpline
 70
8
 71
3
 72
8
 73
4
 74
0
 40
0
 40
0
 40
0
 40
0
 40
1
 40
1
 40
1
 40
1
 10
2056.789120
 20
909.590732
 30
0.0
 10
2139.819360
 20
909.111678
 30
0.0
 10
2142.913440
 20
908.989848
 30
0.0
 10
2154.668720
 20
905.737076
 30
0.0
  0
SPLINE
  5
146
100
AcDbEntity
  8
Layer_1
 62
5
100
AcDbSpline
 70
8
 71
3
 72
8
 73
4
 74
0
 40
0
 40
0
 40
0
 40
0
 40
1
 40
1
 40
1
 40
1
 10
2154.668720
 20
905.737076
 30
0.0
 10
2198.312400
 20
893.660607
 30
0.0
 10
2223.709760
 20
864.747285
 30
0.0
 10
2223.709760
 20
827.138150
 30
0.0
  0
SPLINE
  5
147
100
AcDbEntity
  8
Layer_1
 62
5
100
AcDbSpline
 70
8
 71
3
 72
8
 73
4
 74
0
 40
0
 40
0
 40
0
 40
0
 40
1
 40
1
 40
1
 40
1
 10
2223.709760
 20
827.138150
 30
0.0
 10
2223.709760
 20
787.411505
 30
0.0
 10
2199.702320
 20
759.639210
 30
0.0
 10
2154.668720
 20
747.269994
 30
0.0
  0
SPLINE
  5
148
100
AcDbEntity
  8
Layer_1
 62
5
100
AcDbSpline
 70
8
 71
3
 72
8
 73
4
 74
0
 40
0
 40
0
 40
0
 40
0
 40
1
 40
1
 40
1
 40
1
 10
2154.668720
 20
747.269994
 30
0.0
 10
2143.086400
 20
744.088738
 30
0.0
 10
2139.136800
 20
743.910946
 30
0.0
 10
2068.557200
 20
743.393818
 30
0.0
  0
LWPOLYLINE
  5
149
100
AcDbEntity
  8
Layer_1
 62
5
100
AcDbPolyline
 90
7
 70
1
 10
2139.104960
 20
847.983645
 30
0.0
 10
2131.908000
 20
851.527997
 30
0.0
 10
2029.035520
 20
852.286689
 30
0.0
 10
1926.163200
 20
853.045382
 30
0.0
 10
1948.605760
 20
881.565398
 30
0.0
 10
1971.048480
 20
910.085414
 30
0.0
 10
2056.789120
 20
909.590732
 30
0.0
  0
SPLINE
  5
14a
100
AcDbEntity
  8
Layer_1
 62
5
100
AcDbSpline
 70
8
 71
3
 72
8
 73
4
 74
0
 40
0
 40
0
 40
0
 40
0
 40
1
 40
1
 40
1
 40
1
 10
2215.544560
 20
687.271122
 30
0.0
 10
2222.374800
 20
698.857098
 30
0.0
 10
2361.381040
 20
892.833860
 30
0.0
 10
2366.744800
 20
898.264109
 30
0.0
  0
SPLINE
  5
14b
100
AcDbEntity
  8
Layer_1
 62
5
100
AcDbSpline
 70
8
 71
3
 72
8
 73
4
 74
0
 40
0
 40
0
 40
0
 40
0
 40
1
 40
1
 40
1
 40
1
 10
2366.744800
 20
898.264109
 30
0.0
 10
2377.372000
 20
909.022896
 30
0.0
 10
2388.393760
 20
913.646489
 30
0.0
 10
2403.519840
 20
913.691024
 30
0.0
  0
SPLINE
  5
14c
100
AcDbEntity
  8
Layer_1
 62
5
100
AcDbSpline
 70
8
 71
3
 72
8
 73
4
 74
0
 40
0
 40
0
 40
0
 40
0
 40
1
 40
1
 40
1
 40
1
 10
2403.519840
 20
913.691024
 30
0.0
 10
2418.410960
 20
913.734872
 30
0.0
 10
2428.638000
 20
909.340181
 30
0.0
 10
2439.440320
 20
898.255475
 30
0.0
  0
SPLINE
  5
14d
100
AcDbEntity
  8
Layer_1
 62
5
100
AcDbSpline
 70
8
 71
3
 72
8
 73
4
 74
0
 40
0
 40
0
 40
0
 40
0
 40
1
 40
1
 40
1
 40
1
 10
2439.440320
 20
898.255475
 30
0.0
 10
2443.339840
 20
894.253965
 30
0.0
 10
2478.354080
 20
844.889440
 30
0.0
 10
2517.249680
 20
788.556539
 30
0.0
  0
LWPOLYLINE
  5
14e
100
AcDbEntity
  8
Layer_1
 62
5
100
AcDbPolyline
 90
8
 70
1
 10
2068.557200
 20
743.393818
 30
0.0
 10
1994.584640
 20
742.851826
 30
0.0
 10
1994.584640
 20
714.113106
 30
0.0
 10
1994.584640
 20
685.374394
 30
0.0
 10
1959.666640
 20
685.374394
 30
0.0
 10
1924.748400
 20
685.374394
 30
0.0
 10
1925.146080
 20
742.655658
 30
0.0
 10
1925.146080
 20
742.655658
 30
0.0
  0
SPLINE
  5
14f
100
AcDbEntity
  8
Layer_1
 62
5
100
AcDbSpline
 70
8
 71
3
 72
8
 73
4
 74
0
 40
0
 40
0
 40
0
 40
0
 40
1
 40
1
 40
1
 40
1
 10
2458.703440
 20
685.745162
 30
0.0
 10
2387.607520
 20
685.531818
 30
0.0
 10
2329.141440
 20
685.653818
 30
0.0
 10
2328.778800
 20
686.016442
 30
0.0
  0
SPLINE
  5
150
100
AcDbEntity
  8
Layer_1
 62
5
100
AcDbSpline
 70
8
 71
3
 72
8
 73
4
 74
0
 40
0
 40
0
 40
0
 40
0
 40
1
 40
1
 40
1
 40
1
 10
2328.778800
 20
686.016442
 30
0.0
 10
2328.416240
 20
686.379002
 30
0.0
 10
2337.232320
 20
699.371626
 30
0.0
 10
2348.369920
 20
714.888930
 30
0.0
  0
LWPOLYLINE
  5
151
100
AcDbEntity
  8
Layer_1
 62
5
100
AcDbPolyline
 90
3
 70
1
 10
2517.249680
 20
788.556539
 30
0.0
 10
2587.968880
 20
686.133082
 30
0.0
 10
2458.703440
 20
685.745162
 30
0.0
  0
SPLINE
  5
152
100
AcDbEntity
  8
Layer_1
 62
5
100
AcDbSpline
 70
8
 71
3
 72
8
 73
4
 74
0
 40
0
 40
0
 40
0
 40
0
 40
1
 40
1
 40
1
 40
1
 10
2416.797840
 20
742.689266
 30
0.0
 10
2443.295840
 20
742.462146
 30
0.0
 10
2464.975440
 20
742.430610
 30
0.0
 10
2464.974800
 20
742.619186
 30
0.0
  0
SPLINE
  5
153
100
AcDbEntity
  8
Layer_1
 62
5
100
AcDbSpline
 70
8
 71
3
 72
8
 73
4
 74
0
 40
0
 40
0
 40
0
 40
0
 40
1
 40
1
 40
1
 40
1
 10
2464.974800
 20
742.619186
 30
0.0
 10
2464.974400
 20
742.807770
 30
0.0
 10
2460.983200
 20
748.611762
 30
0.0
 10
2456.105600
 20
755.516954
 30
0.0
  0
SPLINE
  5
154
100
AcDbEntity
  8
Layer_1
 62
5
100
AcDbSpline
 70
8
 71
3
 72
8
 73
4
 74
0
 40
0
 40
0
 40
0
 40
0
 40
1
 40
1
 40
1
 40
1
 10
2456.105600
 20
755.516954
 30
0.0
 10
2451.227920
 20
762.422133
 30
0.0
 10
2437.122480
 20
783.035696
 30
0.0
 10
2424.760320
 20
801.324884
 30
0.0
  0
SPLINE
  5
155
100
AcDbEntity
  8
Layer_1
 62
5
100
AcDbSpline
 70
8
 71
3
 72
8
 73
4
 74
0
 40
0
 40
0
 40
0
 40
0
 40
1
 40
1
 40
1
 40
1
 10
2424.760320
 20
801.324884
 30
0.0
 10
2403.298000
 20
833.076898
 30
0.0
 10
2402.174400
 20
834.443227
 30
0.0
 10
2399.866880
 20
831.593549
 30
0.0
  0
SPLINE
  5
156
100
AcDbEntity
  8
Layer_1
 62
5
100
AcDbSpline
 70
8
 71
3
 72
8
 73
4
 74
0
 40
0
 40
0
 40
0
 40
0
 40
1
 40
1
 40
1
 40
1
 10
2399.866880
 20
831.593549
 30
0.0
 10
2398.537840
 20
829.952149
 30
0.0
 10
2374.685600
 20
796.381336
 30
0.0
 10
2346.862240
 20
756.991762
 30
0.0
  0
LWPOLYLINE
  5
157
100
AcDbEntity
  8
Layer_1
 62
5
100
AcDbPolyline
 90
3
 70
1
 10
2348.369920
 20
714.888930
 30
0.0
 10
2368.620000
 20
743.102242
 30
0.0
 10
2416.797840
 20
742.689266
 30
0.0
  0
SPLINE
  5
158
100
AcDbEntity
  8
Layer_1
 62
5
100
AcDbSpline
 70
8
 71
3
 72
8
 73
4
 74
0
 40
0
 40
0
 40
0
 40
0
 40
1
 40
1
 40
1
 40
1
 10
2255.350240
 20
685.374418
 30
0.0
 10
2223.026320
 20
685.374418
 30
0.0
 10
2214.661280
 20
685.773002
 30
0.0
 10
2215.544560
 20
687.271146
 30
0.0
  0
LWPOLYLINE
  5
159
100
AcDbEntity
  8
Layer_1
 62
5
100
AcDbPolyline
 90
3
 70
1
 10
2346.862240
 20
756.991762
 30
0.0
 10
2296.274160
 20
685.374418
 30
0.0
 10
2255.350240
 20
685.374418
 30
0.0
  0
SPLINE
  5
15a
100
AcDbEntity
  8
Layer_1
 62
5
100
AcDbSpline
 70
8
 71
3
 72
8
 73
4
 74
0
 40
0
 40
0
 40
0
 40
0
 40
1
 40
1
 40
1
 40
1
 10
2698.651200
 20
688.356082
 30
0.0
 10
2670.692320
 20
694.356698
 30
0.0
 10
2649.351360
 20
704.929458
 30
0.0
 10
2631.653440
 20
721.548202
 30
0.0
  0
SPLINE
  5
15b
100
AcDbEntity
  8
Layer_1
 62
5
100
AcDbSpline
 70
8
 71
3
 72
8
 73
4
 74
0
 40
0
 40
0
 40
0
 40
0
 40
1
 40
1
 40
1
 40
1
 10
2631.653440
 20
721.548202
 30
0.0
 10
2609.736080
 20
742.129106
 30
0.0
 10
2598.731040
 20
765.616341
 30
0.0
 10
2597.412480
 20
794.626077
 30
0.0
  0
SPLINE
  5
15c
100
AcDbEntity
  8
Layer_1
 62
5
100
AcDbSpline
 70
8
 71
3
 72
8
 73
4
 74
0
 40
0
 40
0
 40
0
 40
0
 40
1
 40
1
 40
1
 40
1
 10
2597.412480
 20
794.626077
 30
0.0
 10
2596.528560
 20
814.070222
 30
0.0
 10
2599.192080
 20
828.146497
 30
0.0
 10
2606.688560
 20
843.650693
 30
0.0
  0
SPLINE
  5
15d
100
AcDbEntity
  8
Layer_1
 62
5
100
AcDbSpline
 70
8
 71
3
 72
8
 73
4
 74
0
 40
0
 40
0
 40
0
 40
0
 40
1
 40
1
 40
1
 40
1
 10
2606.688560
 20
843.650693
 30
0.0
 10
2621.029840
 20
873.310948
 30
0.0
 10
2648.898880
 20
894.495790
 30
0.0
 10
2687.379120
 20
904.988231
 30
0.0
  0
LWPOLYLINE
  5
15e
100
AcDbEntity
  8
Layer_1
 62
5
100
AcDbPolyline
 90
2
 70
1
 10
2215.544560
 20
687.271146
 30
0.0
 10
2215.544560
 20
687.271122
 30
0.0
  0
SPLINE
  5
15f
100
AcDbEntity
  8
Layer_1
 62
5
100
AcDbSpline
 70
8
 71
3
 72
8
 73
4
 74
0
 40
0
 40
0
 40
0
 40
0
 40
1
 40
1
 40
1
 40
1
 10
2796.378320
 20
909.597241
 30
0.0
 10
2890.074720
 20
910.097068
 30
0.0
 10
2890.306720
 20
910.090665
 30
0.0
 10
2888.180080
 20
907.062101
 30
0.0
  0
SPLINE
  5
160
100
AcDbEntity
  8
Layer_1
 62
5
100
AcDbSpline
 70
8
 71
3
 72
8
 73
4
 74
0
 40
0
 40
0
 40
0
 40
0
 40
1
 40
1
 40
1
 40
1
 10
2888.180080
 20
907.062101
 30
0.0
 10
2887.007600
 20
905.392174
 30
0.0
 10
2877.171440
 20
892.386261
 30
0.0
 10
2866.322160
 20
878.160069
 30
0.0
  0
LWPOLYLINE
  5
161
100
AcDbEntity
  8
Layer_1
 62
5
100
AcDbPolyline
 90
3
 70
1
 10
2687.379120
 20
904.988231
 30
0.0
 10
2702.444640
 20
909.096156
 30
0.0
 10
2796.378320
 20
909.597241
 30
0.0
  0
SPLINE
  5
162
100
AcDbEntity
  8
Layer_1
 62
5
100
AcDbSpline
 70
8
 71
3
 72
8
 73
4
 74
0
 40
0
 40
0
 40
0
 40
0
 40
1
 40
1
 40
1
 40
1
 10
2785.900800
 20
852.264069
 30
0.0
 10
2739.059280
 20
852.240853
 30
0.0
 10
2722.860720
 20
851.737081
 30
0.0
 10
2714.933040
 20
850.057170
 30
0.0
  0
SPLINE
  5
163
100
AcDbEntity
  8
Layer_1
 62
5
100
AcDbSpline
 70
8
 71
3
 72
8
 73
4
 74
0
 40
0
 40
0
 40
0
 40
0
 40
1
 40
1
 40
1
 40
1
 10
2714.933040
 20
850.057170
 30
0.0
 10
2693.677040
 20
845.552951
 30
0.0
 10
2676.261840
 20
831.907142
 30
0.0
 10
2669.755280
 20
814.657969
 30
0.0
  0
SPLINE
  5
164
100
AcDbEntity
  8
Layer_1
 62
5
100
AcDbSpline
 70
8
 71
3
 72
8
 73
4
 74
0
 40
0
 40
0
 40
0
 40
0
 40
1
 40
1
 40
1
 40
1
 10
2669.755280
 20
814.657969
 30
0.0
 10
2665.338080
 20
802.947357
 30
0.0
 10
2666.050320
 20
785.054693
 30
0.0
 10
2671.356880
 20
774.429298
 30
0.0
  0
SPLINE
  5
165
100
AcDbEntity
  8
Layer_1
 62
5
100
AcDbSpline
 70
8
 71
3
 72
8
 73
4
 74
0
 40
0
 40
0
 40
0
 40
0
 40
1
 40
1
 40
1
 40
1
 10
2671.356880
 20
774.429298
 30
0.0
 10
2675.567200
 20
765.999013
 30
0.0
 10
2686.376240
 20
755.335854
 30
0.0
 10
2695.354640
 20
750.755430
 30
0.0
  0
SPLINE
  5
166
100
AcDbEntity
  8
Layer_1
 62
5
100
AcDbSpline
 70
8
 71
3
 72
8
 73
4
 74
0
 40
0
 40
0
 40
0
 40
0
 40
1
 40
1
 40
1
 40
1
 10
2695.354640
 20
750.755430
 30
0.0
 10
2710.048720
 20
743.259046
 30
0.0
 10
2713.214720
 20
743.034950
 30
0.0
 10
2804.428160
 20
743.034950
 30
0.0
  0
SPLINE
  5
167
100
AcDbEntity
  8
Layer_1
 62
5
100
AcDbSpline
 70
8
 71
3
 72
8
 73
4
 74
0
 40
0
 40
0
 40
0
 40
0
 40
1
 40
1
 40
1
 40
1
 10
2804.428160
 20
743.034950
 30
0.0
 10
2851.405520
 20
743.034950
 30
0.0
 10
2889.841600
 20
742.641822
 30
0.0
 10
2889.841600
 20
742.161326
 30
0.0
  0
SPLINE
  5
168
100
AcDbEntity
  8
Layer_1
 62
5
100
AcDbSpline
 70
8
 71
3
 72
8
 73
4
 74
0
 40
0
 40
0
 40
0
 40
0
 40
1
 40
1
 40
1
 40
1
 10
2889.841600
 20
742.161326
 30
0.0
 10
2889.841600
 20
741.680830
 30
0.0
 10
2880.132160
 20
728.707198
 30
0.0
 10
2868.265200
 20
713.331022
 30
0.0
  0
LWPOLYLINE
  5
169
100
AcDbEntity
  8
Layer_1
 62
5
100
AcDbPolyline
 90
3
 70
1
 10
2866.322160
 20
878.160069
 30
0.0
 10
2846.596160
 20
852.294261
 30
0.0
 10
2785.900800
 20
852.264069
 30
0.0
  0
SPLINE
  5
16a
100
AcDbEntity
  8
Layer_1
 62
5
100
AcDbSpline
 70
8
 71
3
 72
8
 73
4
 74
0
 40
0
 40
0
 40
0
 40
0
 40
1
 40
1
 40
1
 40
1
 10
2779.118800
 20
685.481222
 30
0.0
 10
2719.708080
 20
685.575142
 30
0.0
 10
2709.991520
 20
685.922246
 30
0.0
 10
2698.651200
 20
688.356142
 30
0.0
  0
LWPOLYLINE
  5
16b
100
AcDbEntity
  8
Layer_1
 62
5
100
AcDbPolyline
 90
3
 70
1
 10
2868.265200
 20
713.331022
 30
0.0
 10
2846.688560
 20
685.374398
 30
0.0
 10
2779.118800
 20
685.481222
 30
0.0
  0
LWPOLYLINE
  5
16c
100
AcDbEntity
  8
Layer_1
 62
5
100
AcDbPolyline
 90
2
 70
1
 10
2698.651200
 20
688.356142
 30
0.0
 10
2698.651200
 20
688.356082
 30
0.0
  0
SPLINE
  5
16d
100
AcDbEntity
  8
Layer_1
 62
5
100
AcDbSpline
 70
8
 71
3
 72
8
 73
4
 74
0
 40
0
 40
0
 40
0
 40
0
 40
1
 40
1
 40
1
 40
1
 10
3196.863920
 20
904.130181
 30
0.0
 10
3194.496640
 20
900.930761
 30
0.0
 10
3184.707440
 20
887.999200
 30
0.0
 10
3175.109920
 20
875.393361
 30
0.0
  0
LWPOLYLINE
  5
16e
100
AcDbEntity
  8
Layer_1
 62
5
100
AcDbPolyline
 90
5
 70
1
 10
2939.915360
 20
797.660846
 30
0.0
 10
2939.915360
 20
909.947302
 30
0.0
 10
3070.541680
 20
909.947302
 30
0.0
 10
3201.168000
 20
909.947302
 30
0.0
 10
3196.863920
 20
904.130181
 30
0.0
  0
LWPOLYLINE
  5
16f
100
AcDbEntity
  8
Layer_1
 62
5
100
AcDbPolyline
 90
22
 70
1
 10
3175.109920
 20
875.393361
 30
0.0
 10
3157.660000
 20
852.473661
 30
0.0
 10
3084.066880
 20
852.000829
 30
0.0
 10
3010.473680
 20
851.527997
 30
0.0
 10
3010.035520
 20
838.262946
 30
0.0
 10
3009.597280
 20
824.997879
 30
0.0
 10
3099.383360
 20
824.606485
 30
0.0
 10
3189.169440
 20
824.215076
 30
0.0
 10
3169.158480
 20
798.798885
 30
0.0
 10
3149.147680
 20
773.382693
 30
0.0
 10
3079.431280
 20
773.382693
 30
0.0
 10
3009.715040
 20
773.382693
 30
0.0
 10
3009.715040
 20
758.220074
 30
0.0
 10
3009.715040
 20
743.057458
 30
0.0
 10
3106.036000
 20
742.666882
 30
0.0
 10
3202.356880
 20
742.276314
 30
0.0
 10
3180.332960
 20
713.825354
 30
0.0
 10
3158.309040
 20
685.374394
 30
0.0
 10
3049.112080
 20
685.374394
 30
0.0
 10
2939.915360
 20
685.374394
 30
0.0
 10
2939.915360
 20
797.660846
 30
0.0
 10
2939.915360
 20
797.660846
 30
0.0
  0
SPLINE
  5
170
100
AcDbEntity
  8
Layer_1
 62
5
100
AcDbSpline
 70
8
 71
3
 72
8
 73
4
 74
0
 40
0
 40
0
 40
0
 40
0
 40
1
 40
1
 40
1
 40
1
 10
750.663560
 20
1017.925890
 30
0.0
 10
750.989640
 20
1018.904162
 30
0.0
 10
805.161520
 20
1127.117802
 30
0.0
 10
871.045600
 20
1258.400658
 30
0.0
  0
LWPOLYLINE
  5
171
100
AcDbEntity
  8
Layer_1
 62
5
100
AcDbPolyline
 90
26
 70
1
 10
191.931672
 20
1256.669666
 30
0.0
 10
191.931672
 20
1497.175114
 30
0.0
 10
295.113824
 20
1497.175114
 30
0.0
 10
398.295984
 20
1497.175114
 30
0.0
 10
398.295984
 20
1395.510354
 30
0.0
 10
398.295984
 20
1293.845586
 30
0.0
 10
433.195832
 20
1293.845586
 30
0.0
 10
468.095680
 20
1293.845586
 30
0.0
 10
468.095680
 20
1395.510354
 30
0.0
 10
468.095680
 20
1497.175114
 30
0.0
 10
571.277840
 20
1497.175114
 30
0.0
 10
674.460000
 20
1497.175114
 30
0.0
 10
674.460000
 20
1256.669666
 30
0.0
 10
674.460000
 20
1016.164218
 30
0.0
 10
571.277840
 20
1016.164218
 30
0.0
 10
468.095680
 20
1016.164218
 30
0.0
 10
468.095680
 20
1120.105058
 30
0.0
 10
468.095680
 20
1224.045898
 30
0.0
 10
433.195832
 20
1224.045898
 30
0.0
 10
398.295984
 20
1224.045898
 30
0.0
 10
398.295984
 20
1120.105058
 30
0.0
 10
398.295984
 20
1016.164218
 30
0.0
 10
295.113824
 20
1016.164218
 30
0.0
 10
191.931672
 20
1016.164218
 30
0.0
 10
191.931672
 20
1256.669666
 30
0.0
 10
191.931672
 20
1256.669666
 30
0.0
  0
SPLINE
  5
172
100
AcDbEntity
  8
Layer_1
 62
5
100
AcDbSpline
 70
8
 71
3
 72
8
 73
4
 74
0
 40
0
 40
0
 40
0
 40
0
 40
1
 40
1
 40
1
 40
1
 10
880.160720
 20
1016.535090
 30
0.0
 10
781.221776
 20
1016.240114
 30
0.0
 10
750.212632
 20
1016.573170
 30
0.0
 10
750.663560
 20
1017.925914
 30
0.0
  0
LWPOLYLINE
  5
173
100
AcDbEntity
  8
Layer_1
 62
5
100
AcDbPolyline
 90
17
 70
1
 10
871.045600
 20
1258.400658
 30
0.0
 10
990.834720
 20
1497.096738
 30
0.0
 10
1180.128480
 20
1497.135938
 30
0.0
 10
1369.422160
 20
1497.175138
 30
0.0
 10
1369.422160
 20
1256.669690
 30
0.0
 10
1369.422160
 20
1016.164242
 30
0.0
 10
1266.240000
 20
1016.164242
 30
0.0
 10
1163.057840
 20
1016.164242
 30
0.0
 10
1163.057840
 20
1223.315714
 30
0.0
 10
1163.057840
 20
1430.467202
 30
0.0
 10
1128.537360
 20
1430.059362
 30
0.0
 10
1094.016880
 20
1429.651530
 30
0.0
 10
1093.595760
 20
1308.260770
 30
0.0
 10
1093.174640
 20
1186.870002
 30
0.0
 10
1051.712720
 20
1101.896466
 30
0.0
 10
1010.250800
 20
1016.922938
 30
0.0
 10
880.160720
 20
1016.535090
 30
0.0
  0
LWPOLYLINE
  5
174
100
AcDbEntity
  8
Layer_1
 62
5
100
AcDbPolyline
 90
2
 70
1
 10
750.663560
 20
1017.925914
 30
0.0
 10
750.663560
 20
1017.925890
 30
0.0
  0
SPLINE
  5
175
100
AcDbEntity
  8
Layer_1
 62
5
100
AcDbSpline
 70
8
 71
3
 72
8
 73
4
 74
0
 40
0
 40
0
 40
0
 40
0
 40
1
 40
1
 40
1
 40
1
 10
2151.634000
 20
1017.219242
 30
0.0
 10
2115.928880
 20
1022.379394
 30
0.0
 10
2082.659920
 20
1041.760634
 30
0.0
 10
2063.558640
 20
1068.528810
 30
0.0
  0
SPLINE
  5
176
100
AcDbEntity
  8
Layer_1
 62
5
100
AcDbSpline
 70
8
 71
3
 72
8
 73
4
 74
0
 40
0
 40
0
 40
0
 40
0
 40
1
 40
1
 40
1
 40
1
 10
2063.558640
 20
1068.528810
 30
0.0
 10
2049.214880
 20
1088.629650
 30
0.0
 10
2039.412880
 20
1117.625306
 30
0.0
 10
2037.597680
 20
1145.324858
 30
0.0
  0
LWPOLYLINE
  5
177
100
AcDbEntity
  8
Layer_1
 62
5
100
AcDbPolyline
 90
18
 70
1
 10
1477.156480
 20
1256.669666
 30
0.0
 10
1477.156480
 20
1497.175114
 30
0.0
 10
1580.338640
 20
1497.175114
 30
0.0
 10
1683.520800
 20
1497.175114
 30
0.0
 10
1683.520800
 20
1290.810818
 30
0.0
 10
1683.520800
 20
1084.446522
 30
0.0
 10
1718.420640
 20
1084.446522
 30
0.0
 10
1753.320480
 20
1084.446522
 30
0.0
 10
1753.320480
 20
1152.728826
 30
0.0
 10
1753.320480
 20
1221.011130
 30
0.0
 10
1854.226560
 20
1221.011130
 30
0.0
 10
1955.132640
 20
1221.011130
 30
0.0
 10
1955.132640
 20
1118.587674
 30
0.0
 10
1955.132640
 20
1016.164218
 30
0.0
 10
1716.144560
 20
1016.164218
 30
0.0
 10
1477.156480
 20
1016.164218
 30
0.0
 10
1477.156480
 20
1256.669666
 30
0.0
 10
1477.156480
 20
1256.669666
 30
0.0
  0
SPLINE
  5
178
100
AcDbEntity
  8
Layer_1
 62
5
100
AcDbSpline
 70
8
 71
3
 72
8
 73
4
 74
0
 40
0
 40
0
 40
0
 40
0
 40
1
 40
1
 40
1
 40
1
 10
2037.470080
 20
1310.157474
 30
0.0
 10
2038.126640
 20
1400.125386
 30
0.0
 10
2038.064240
 20
1399.625626
 30
0.0
 10
2052.196560
 20
1428.322098
 30
0.0
  0
SPLINE
  5
179
100
AcDbEntity
  8
Layer_1
 62
5
100
AcDbSpline
 70
8
 71
3
 72
8
 73
4
 74
0
 40
0
 40
0
 40
0
 40
0
 40
1
 40
1
 40
1
 40
1
 10
2052.196560
 20
1428.322098
 30
0.0
 10
2068.632880
 20
1461.697162
 30
0.0
 10
2097.853600
 20
1483.731970
 30
0.0
 10
2138.881440
 20
1493.689610
 30
0.0
  0
SPLINE
  5
17a
100
AcDbEntity
  8
Layer_1
 62
5
100
AcDbSpline
 70
8
 71
3
 72
8
 73
4
 74
0
 40
0
 40
0
 40
0
 40
0
 40
1
 40
1
 40
1
 40
1
 10
2138.881440
 20
1493.689610
 30
0.0
 10
2149.294160
 20
1496.216818
 30
0.0
 10
2160.780000
 20
1496.416426
 30
0.0
 10
2295.785520
 20
1496.416426
 30
0.0
  0
LWPOLYLINE
  5
17b
100
AcDbEntity
  8
Layer_1
 62
5
100
AcDbPolyline
 90
13
 70
1
 10
2037.597680
 20
1145.324858
 30
0.0
 10
2036.615280
 20
1160.315754
 30
0.0
 10
2146.095040
 20
1160.315754
 30
0.0
 10
2255.574800
 20
1160.315754
 30
0.0
 10
2255.574800
 20
1122.381138
 30
0.0
 10
2255.574800
 20
1084.446522
 30
0.0
 10
2291.233360
 20
1084.446522
 30
0.0
 10
2326.891920
 20
1084.446522
 30
0.0
 10
2326.891920
 20
1158.039674
 30
0.0
 10
2326.891920
 20
1231.632826
 30
0.0
 10
2181.894560
 20
1231.632826
 30
0.0
 10
2036.897280
 20
1231.632826
 30
0.0
 10
2037.470080
 20
1310.157474
 30
0.0
  0
SPLINE
  5
17c
100
AcDbEntity
  8
Layer_1
 62
5
100
AcDbSpline
 70
8
 71
3
 72
8
 73
4
 74
0
 40
0
 40
0
 40
0
 40
0
 40
1
 40
1
 40
1
 40
1
 10
2454.027200
 20
1493.040658
 30
0.0
 10
2480.102560
 20
1486.039514
 30
0.0
 10
2496.024160
 20
1477.663386
 30
0.0
 10
2512.475920
 20
1462.291602
 30
0.0
  0
SPLINE
  5
17d
100
AcDbEntity
  8
Layer_1
 62
5
100
AcDbSpline
 70
8
 71
3
 72
8
 73
4
 74
0
 40
0
 40
0
 40
0
 40
0
 40
1
 40
1
 40
1
 40
1
 10
2512.475920
 20
1462.291602
 30
0.0
 10
2530.237680
 20
1445.695970
 30
0.0
 10
2541.740400
 20
1425.664714
 30
0.0
 10
2548.646000
 20
1399.303818
 30
0.0
  0
LWPOLYLINE
  5
17e
100
AcDbEntity
  8
Layer_1
 62
5
100
AcDbPolyline
 90
3
 70
1
 10
2295.785520
 20
1496.416426
 30
0.0
 10
2441.454480
 20
1496.416426
 30
0.0
 10
2454.027200
 20
1493.040658
 30
0.0
  0
SPLINE
  5
17f
100
AcDbEntity
  8
Layer_1
 62
5
100
AcDbSpline
 70
8
 71
3
 72
8
 73
4
 74
0
 40
0
 40
0
 40
0
 40
0
 40
1
 40
1
 40
1
 40
1
 10
2552.208320
 20
1255.910978
 30
0.0
 10
2552.193120
 20
1126.882794
 30
0.0
 10
2552.176320
 20
1126.110474
 30
0.0
 10
2548.859280
 20
1114.426762
 30
0.0
  0
SPLINE
  5
180
100
AcDbEntity
  8
Layer_1
 62
5
100
AcDbSpline
 70
8
 71
3
 72
8
 73
4
 74
0
 40
0
 40
0
 40
0
 40
0
 40
1
 40
1
 40
1
 40
1
 10
2548.859280
 20
1114.426762
 30
0.0
 10
2540.804080
 20
1086.048242
 30
0.0
 10
2532.786960
 20
1071.871970
 30
0.0
 10
2514.219360
 20
1053.174986
 30
0.0
  0
SPLINE
  5
181
100
AcDbEntity
  8
Layer_1
 62
5
100
AcDbSpline
 70
8
 71
3
 72
8
 73
4
 74
0
 40
0
 40
0
 40
0
 40
0
 40
1
 40
1
 40
1
 40
1
 10
2514.219360
 20
1053.174986
 30
0.0
 10
2502.269040
 20
1041.141338
 30
0.0
 10
2498.441440
 20
1038.342490
 30
0.0
 10
2484.630080
 20
1031.538722
 30
0.0
  0
SPLINE
  5
182
100
AcDbEntity
  8
Layer_1
 62
5
100
AcDbSpline
 70
8
 71
3
 72
8
 73
4
 74
0
 40
0
 40
0
 40
0
 40
0
 40
1
 40
1
 40
1
 40
1
 10
2484.630080
 20
1031.538722
 30
0.0
 10
2453.391040
 20
1016.149786
 30
0.0
 10
2465.363840
 20
1017.106290
 30
0.0
 10
2300.336880
 20
1016.815418
 30
0.0
  0
SPLINE
  5
183
100
AcDbEntity
  8
Layer_1
 62
5
100
AcDbSpline
 70
8
 71
3
 72
8
 73
4
 74
0
 40
0
 40
0
 40
0
 40
0
 40
1
 40
1
 40
1
 40
1
 10
2300.336880
 20
1016.815418
 30
0.0
 10
2221.053520
 20
1016.675666
 30
0.0
 10
2154.136800
 20
1016.857418
 30
0.0
 10
2151.633120
 20
1017.219242
 30
0.0
  0
LWPOLYLINE
  5
184
100
AcDbEntity
  8
Layer_1
 62
5
100
AcDbPolyline
 90
3
 70
1
 10
2548.646000
 20
1399.303818
 30
0.0
 10
2552.223520
 20
1385.647354
 30
0.0
 10
2552.208320
 20
1255.910978
 30
0.0
  0
LWPOLYLINE
  5
185
100
AcDbEntity
  8
Layer_1
 62
5
100
AcDbPolyline
 90
2
 70
1
 10
2151.633120
 20
1017.219242
 30
0.0
 10
2151.634000
 20
1017.219242
 30
0.0
  0
LWPOLYLINE
  5
186
100
AcDbEntity
  8
Layer_1
 62
5
100
AcDbPolyline
 90
10
 70
1
 10
2326.891920
 20
1365.190626
 30
0.0
 10
2326.891920
 20
1430.466130
 30
0.0
 10
2291.612720
 20
1430.058818
 30
0.0
 10
2256.333520
 20
1429.651506
 30
0.0
 10
2255.937920
 20
1364.783314
 30
0.0
 10
2255.542240
 20
1299.915130
 30
0.0
 10
2291.217120
 20
1299.915130
 30
0.0
 10
2326.891920
 20
1299.915130
 30
0.0
 10
2326.891920
 20
1365.190626
 30
0.0
 10
2326.891920
 20
1365.190626
 30
0.0
  0
LWPOLYLINE
  5
187
100
AcDbEntity
  8
Layer_1
 62
5
100
AcDbPolyline
 90
10
 70
1
 10
2653.129600
 20
1256.669666
 30
0.0
 10
2653.129600
 20
1497.175114
 30
0.0
 10
2756.311760
 20
1497.175114
 30
0.0
 10
2859.493920
 20
1497.175114
 30
0.0
 10
2859.493920
 20
1256.669666
 30
0.0
 10
2859.493920
 20
1016.164218
 30
0.0
 10
2756.311760
 20
1016.164218
 30
0.0
 10
2653.129600
 20
1016.164218
 30
0.0
 10
2653.129600
 20
1256.669666
 30
0.0
 10
2653.129600
 20
1256.669666
 30
0.0
  0
SPLINE
  5
188
100
AcDbEntity
  8
Layer_1
 62
5
100
AcDbSpline
 70
8
 71
3
 72
8
 73
4
 74
0
 40
0
 40
0
 40
0
 40
0
 40
1
 40
1
 40
1
 40
1
 10
3075.131440
 20
1497.175114
 30
0.0
 10
3182.217680
 20
1497.175114
 30
0.0
 10
3193.555120
 20
1496.945362
 30
0.0
 10
3192.728720
 20
1494.792002
 30
0.0
  0
SPLINE
  5
189
100
AcDbEntity
  8
Layer_1
 62
5
100
AcDbSpline
 70
8
 71
3
 72
8
 73
4
 74
0
 40
0
 40
0
 40
0
 40
0
 40
1
 40
1
 40
1
 40
1
 10
3192.728720
 20
1494.792002
 30
0.0
 10
3192.225760
 20
1493.481290
 30
0.0
 10
3163.474160
 20
1442.500386
 30
0.0
 10
3128.836240
 20
1381.501114
 30
0.0
  0
SPLINE
  5
18a
100
AcDbEntity
  8
Layer_1
 62
5
100
AcDbSpline
 70
8
 71
3
 72
8
 73
4
 74
0
 40
0
 40
0
 40
0
 40
0
 40
1
 40
1
 40
1
 40
1
 10
3128.836240
 20
1381.501114
 30
0.0
 10
3094.198320
 20
1320.501834
 30
0.0
 10
3065.858240
 20
1269.793450
 30
0.0
 10
3065.858240
 20
1268.815802
 30
0.0
  0
SPLINE
  5
18b
100
AcDbEntity
  8
Layer_1
 62
5
100
AcDbSpline
 70
8
 71
3
 72
8
 73
4
 74
0
 40
0
 40
0
 40
0
 40
0
 40
1
 40
1
 40
1
 40
1
 10
3065.858240
 20
1268.815802
 30
0.0
 10
3065.858240
 20
1267.838162
 30
0.0
 10
3096.515360
 20
1210.591618
 30
0.0
 10
3133.985040
 20
1141.601242
 30
0.0
  0
LWPOLYLINE
  5
18c
100
AcDbEntity
  8
Layer_1
 62
5
100
AcDbPolyline
 90
7
 70
1
 10
2941.384880
 20
1052.803186
 30
0.0
 10
2923.224080
 20
1089.442146
 30
0.0
 10
2923.224080
 20
1259.939362
 30
0.0
 10
2923.224080
 20
1430.436586
 30
0.0
 10
2939.922000
 20
1463.805850
 30
0.0
 10
2956.619760
 20
1497.175114
 30
0.0
 10
3075.131440
 20
1497.175114
 30
0.0
  0
LWPOLYLINE
  5
18d
100
AcDbEntity
  8
Layer_1
 62
5
100
AcDbPolyline
 90
6
 70
1
 10
3133.985040
 20
1141.601242
 30
0.0
 10
3202.111680
 20
1016.164218
 30
0.0
 10
3080.828800
 20
1016.164218
 30
0.0
 10
2959.545920
 20
1016.164218
 30
0.0
 10
2941.384880
 20
1052.803186
 30
0.0
 10
2941.384880
 20
1052.803186
 30
0.0
  0
LWPOLYLINE
  5
18e
100
AcDbEntity
  8
Layer_1
 62
1
100
AcDbPolyline
 90
5
 70
1
 10
98.268792
 20
1616.017026
 30
0.0
 10
3293.731112
 20
1616.017026
 30
0.0
 10
3293.731112
 20
566.840306
 30
0.0
 10
98.268792
 20
566.840306
 30
0.0
 10
98.268792
 20
1616.017026
 30
0.0
  0
ENDSEC
  0
SECTION
  2
OBJECTS
  0
DICTIONARY
  5
C
330
0
100
AcDbDictionary
  3
ACAD_GROUP
350
D
  3
ACAD_MLINESTYLE
350
17
  0
DICTIONARY
  5
D
330
C
100
AcDbDictionary
  0
DICTIONARY
  5
1A
330
C
100
AcDbDictionary
  0
DICTIONARY
  5
17
330
C
100
AcDbDictionary
  3
STANDARD
350
18
  0
DICTIONARY
  5
19
330
C
100
AcDbDictionary
  0
ENDSEC
  0
EOF
